<?xml version="1.0" standalone="no"?>
<!DOCTYPE svg PUBLIC "-//W3C//DTD SVG 1.1//EN" "http://www.w3.org/Graphics/SVG/1.1/DTD/svg11.dtd" >
<svg xmlns="http://www.w3.org/2000/svg" xmlns:xlink="http://www.w3.org/1999/xlink" version="1.1">
<metadata>
Created by FontForge 20201107 at Wed Jan 23 19:05:27 2019
 By 
(c) N&#38;L 1993  095 257-0529
</metadata>
<defs>
<font id="Golos" horiz-adv-x="600" >
  <font-face 
    font-family="Golos"
    font-weight="400"
    font-stretch="normal"
    units-per-em="1000"
    panose-1="2 0 5 3 9 0 0 2 0 4"
    ascent="800"
    descent="-200"
    x-height="484"
    cap-height="750"
    bbox="-109 -250 1260 935"
    underline-thickness="50"
    underline-position="-100"
    unicode-range="U+000D-2122"
  />
<missing-glyph horiz-adv-x="750" 
 />
    <glyph glyph-name=".notdef" horiz-adv-x="750" 
 />
    <glyph glyph-name=".null" horiz-adv-x="0" 
 />
    <glyph glyph-name="nonmarkingreturn" unicode="&#xd;" horiz-adv-x="242" 
 />
    <glyph glyph-name="NULL" horiz-adv-x="0" 
 />
    <glyph glyph-name="NULL" horiz-adv-x="0" 
 />
    <glyph glyph-name="space" unicode=" " horiz-adv-x="242" 
 />
    <glyph glyph-name="exclam" unicode="!" horiz-adv-x="242" 
d="M154 748q22 0 35 -8.5t20 -22t9 -29t2 -29.5q-1 -10 -1 -17.5v-12.5l-55 -422q-1 -5 -5 -9t-9 -4q-8 0 -9 13l-51 424q-1 6 -1.5 12t-0.5 13q0 15 3 31t10.5 29.5t20 22t32.5 9.5zM152 115q26 0 42.5 -17.5t16.5 -40.5q0 -24 -16.5 -41.5t-42.5 -17.5q-23 0 -39.5 17.5
t-16.5 41.5q0 23 16.5 40.5t39.5 17.5z" />
    <glyph glyph-name="quotedbl" unicode="&#x22;" horiz-adv-x="381" 
d="M90 459l-33 195q-1 2 -1 6q0 13 12 25q14 14 32 14q16 0 32 -14q12 -12 12 -25q0 -4 -1 -6l-34 -195h-19zM270 459l-34 195v4q-1 13 12 26q15 15 31 15t30 -11q13 -10 13 -28v-6l-31 -195h-21z" />
    <glyph glyph-name="numbersign" unicode="#" horiz-adv-x="619" 
d="M531 223h-109l-31 -223h-57l31 223h-135l-33 -223h-58l33 223h-108v56h118l21 137h-111v59h119l29 207h59l-31 -207h132l32 207h58l-31 -207h98v-59h-106l-19 -137h99v-56zM260 416l-22 -137h135l20 137h-133z" />
    <glyph glyph-name="dollar" unicode="$" horiz-adv-x="619" 
d="M49 455q-1 5 -1 10v10q0 36 17 75q23 48 80 82q57 33 148 38v121h41v-121h6q55 0 126 -33q74 -35 89 -96q1 -2 1 -4.5t1 -4.5v-12q0 -55 -61 -65q-57 4 -57 90q0 70 -105 84v-231q111 -12 184 -48q74 -36 74 -127q0 -61 -39 -107q-41 -47 -101 -72q-63 -26 -118 -26v-127
h-39v127q-96 6 -177 41t-85 113q8 80 72 80q27 0 44 -15t17 -46q0 -18 -8 -58q9 -74 135 -74v246q-38 6 -68 12.5t-53 13.5q-48 14 -81 44q-34 30 -42 80zM146 523q0 -43 34 -74q35 -34 113 -43v223q-40 0 -91 -20q-52 -21 -56 -82v-4zM334 59q64 0 116 34q48 31 48 89v6
q-3 54 -44 74q-42 20 -120 35v-238z" />
    <glyph glyph-name="percent" unicode="%" horiz-adv-x="900" 
d="M611 205q0 -74 21 -126q21 -53 75 -54q6 2 10 2q84 7 84 186q0 73 -21 123q-22 49 -71 49q-94 0 -98 -180zM707 420q76 -2 120 -57q43 -55 46 -150v-16q0 -57 -18 -100q-22 -51 -57 -76q-37 -28 -81 -29h-6q-72 0 -118 51q-50 52 -54 156q0 6 -2 12q2 65 26 113
q25 48 64 73q37 23 74 23h6zM96 482q0 -177 95 -179q6 2 8 2q86 8 86 185q0 76 -22 124q-23 50 -72 50q-50 0 -72 -49q-23 -51 -23 -133zM191 697q75 -1 121 -58q43 -55 45 -149v-16q0 -88 -42 -142q-47 -60 -116 -62h-6q-69 0 -116 50q-50 51 -54 157q0 5 -2 11
q2 65 26 113q25 48 64 73q35 23 74 23h6zM711 682l-463 -682h-59l465 682h57z" />
    <glyph glyph-name="ampersand" unicode="&#x26;" horiz-adv-x="801" 
d="M180 605q21 45 67 68q45 24 99 24q60 0 107 -36q45 -36 45 -93q0 -45 -31 -88q-32 -45 -108 -70q43 -32 93.5 -85t108.5 -128q46 85 46 162q0 58 -80 69v31h241v-31q-53 -9 -71 -24t-33 -54q-1 -2 -4 -13.5t-8 -33.5q-11 -46 -24 -79q-7 -17 -16.5 -36.5t-23.5 -39.5
q55 -87 119 -105q5 -1 9.5 -1.5t9.5 -1.5q4 -1 9 -1t10 -1t10.5 -1.5t12.5 -1.5q4 1 8.5 1.5t10.5 0.5v-37h-117q-56 0 -87 19q-33 21 -56 59q-82 -94 -226 -94q-62 0 -119 23q-56 22 -90 65q-46 59 -49 127q2 50 28 93q25 43 71 75q42 30 94 43q-14 13 -26.5 28.5
t-22.5 35.5q-20 37 -21 75q3 35 14 56zM324 439q33 11 55 30t34 48q11 30 11 53q0 39 -21 65q-22 25 -63 25q-31 0 -57 -26q-25 -25 -27 -68q5 -67 68 -127zM160 150q39 -119 162 -123q54 1 105 27t79 63q-63 91 -122 155.5t-116 104.5q-60 -13 -88 -58t-30 -104
q5 -49 10 -65z" />
    <glyph glyph-name="quotesingle" unicode="'" horiz-adv-x="221" 
d="M107 699q30 0 51 -24q20 -26 20 -62q0 -40 -29 -78q-30 -39 -69 -55l-12 22q28 19 44 39t19 53q-16 -13 -35 -16q-19 1 -33 17q-15 14 -16 34v8q0 20 14 40q16 20 46 22z" />
    <glyph glyph-name="parenleft" unicode="(" horiz-adv-x="229" 
d="M141 115q0 -5 2 -16t6 -26t8 -32t9 -33q5 -20 13 -39t15 -35t12 -29t5 -22q0 -4 -2 -8q-1 0 -5.5 6.5t-11 15t-13.5 18t-11 15.5q-22 35 -40 72t-32 82q-22 61 -34.5 130.5t-12.5 141.5q0 40 4 79.5t13 78.5q6 23 11.5 46t16.5 55q17 53 36.5 91.5t37 63t29 36.5t12.5 12
q0 -11 -8 -31t-19 -49.5t-22.5 -68.5t-18.5 -87q-11 -72 -15 -130.5t-4 -107.5q0 -75 7 -129.5t12 -99.5z" />
    <glyph glyph-name="parenright" unicode=")" horiz-adv-x="254" 
d="M135 115q5 44 11 97t6 126q0 50 -4 109.5t-15 134.5q-7 48 -18.5 87.5t-23 69t-19.5 49.5t-8 30q1 0 13 -12t29 -36.5t37 -63t37 -91.5q11 -32 17 -55l12 -46q9 -40 13 -80t4 -80q0 -72 -12 -141t-34 -129q-17 -45 -34.5 -82t-40.5 -72q-3 -6 -9.5 -15.5t-13.5 -18
t-12 -15t-6 -6.5q0 10 5 24.5t12 31.5t14.5 36.5t13.5 40.5q4 16 8.5 33t8 32t6 26t3.5 16z" />
    <glyph glyph-name="asterisk" unicode="*" horiz-adv-x="439" 
d="M186 523q-13 1 -27 2t-29 3q-29 1 -52 13q-20 10 -25 37q7 43 43 43q20 0 37 -12q15 -14 33 -36q8 -12 14.5 -20.5t10.5 -13.5l20 14q-8 24 -15 42q-4 9 -6.5 17t-4.5 16q-5 15 -5 22q0 49 43 49t43 -49q0 -18 -4 -31q-2 -8 -5.5 -16.5t-8.5 -19.5t-8.5 -19t-5.5 -13
l20 -12q7 10 13.5 19t13.5 19q13 19 32 33q16 13 37 13q20 0 30 -13q11 -14 11 -32q0 -27 -22 -37q-24 -11 -57 -14q-18 -2 -30.5 -2.5t-19.5 -1.5v-23q11 -6 49 -12q40 -6 60 -16q20 -11 20 -40q0 -17 -11 -30q-11 -12 -30 -15q-26 4 -39 18q-14 12 -30 40q-15 25 -27 39
l-20 -11q1 -4 3.5 -11.5t7.5 -20.5q4 -13 7.5 -22.5t5.5 -16.5q4 -13 4 -33q0 -45 -38 -45h-5q-33 0 -37 43q2 6 2 10q2 10 4.5 21t6.5 24q4 12 8 24.5t8 26.5l-20 11q-4 -6 -10.5 -15.5t-14.5 -22.5q-17 -27 -33 -41q-17 -15 -39 -18q-33 4 -41 45q3 27 25 40q20 13 57 19
q36 6 51 9v23v0z" />
    <glyph glyph-name="plus" unicode="+" 
d="M266 514h76v-213h213v-76h-213v-217h-76v217h-215v76h215v213z" />
    <glyph glyph-name="comma" unicode="," horiz-adv-x="264" 
d="M154 135q45 0 64 -21.5t19 -50.5q0 -20 -10 -42q-21 -41 -61 -77.5t-86 -52.5q-9 0 -9 2q0 4 7 5q23 12 44 29q18 14 37.5 35t33.5 50q0 4 -2 4q-21 -11 -40 -11q-28 0 -43.5 20.5t-15.5 44.5q0 23 15 42t47 23z" />
    <glyph glyph-name="hyphen" unicode="-" horiz-adv-x="273" 
d="M262 270h-201v50h201v-50z" />
    <glyph glyph-name="period" unicode="." horiz-adv-x="193" 
d="M125 115q25 0 43 -17.5t18 -42.5q0 -26 -18 -43.5t-43 -17.5t-43 17.5t-18 43.5q0 25 18 42.5t43 17.5z" />
    <glyph glyph-name="slash" unicode="/" horiz-adv-x="330" 
d="M29 -72h-35l281 894h34z" />
    <glyph glyph-name="zero" unicode="0" horiz-adv-x="689" 
d="M287 750q-26 0 -52 -15t-47 -42.5t-34 -67.5t-13 -90v-316q0 -35 9.5 -71.5t27.5 -66.5t45 -50t62 -21q44 0 72.5 17.5t44.5 46.5t22 67.5t6 79.5v318q0 46 -8 85t-25.5 67t-44.5 43.5t-65 15.5zM279 771q56 0 98.5 -18.5t74.5 -49.5t53.5 -71.5t34.5 -84.5t18.5 -89.5
t5.5 -85.5q0 -20 -1.5 -38.5t-3.5 -34.5q-8 -53 -27 -108.5t-51 -100.5t-78.5 -74t-109.5 -29q-18 0 -37 3q-60 9 -104.5 44t-73.5 87.5t-43.5 117t-14.5 132.5q0 73 16.5 143.5t49 127t81 91.5t112.5 38z" />
    <glyph glyph-name="one" unicode="1" horiz-adv-x="453" 
d="M355 20h77v-18h-250v18h74v705l-110 -22v22l209 41v-746z" />
    <glyph glyph-name="two" unicode="2" horiz-adv-x="631" 
d="M285 770q31 0 67 -8.5t69.5 -26t59.5 -45t37 -65.5q11 -44 11 -80q0 -64 -27 -116t-69 -94t-93.5 -76.5t-100 -63t-88.5 -54t-59 -49.5h316q29 0 47 11.5t28.5 29t15.5 37.5t8.5 37.5t6.5 29t9 11.5q9 0 10.5 -12.5t1.5 -26.5v-209h-508q16 63 49 106t75 80t88.5 73.5
t90.5 86.5q49 57 67.5 102.5t18.5 92.5q0 9 -0.5 18t-1.5 19q-5 42 -20 71t-34 48t-39.5 28.5t-37.5 12.5q-5 1 -10.5 1.5t-12.5 0.5q-19 0 -42.5 -4t-46 -13t-42.5 -23.5t-31 -35.5q15 7 32 7q16 0 29.5 -7t22.5 -19t14 -27t5 -30q-1 -10 -6.5 -21.5t-14.5 -21t-22 -16
t-29 -6.5q-14 0 -33 8q-20 8 -33.5 27t-13.5 46q0 19 8 41t27 46q19 25 45.5 40.5t54.5 23.5t54.5 11t46.5 4z" />
    <glyph glyph-name="three" unicode="3" horiz-adv-x="598" 
d="M428 738q17 -10 34 -25t30.5 -34.5t22 -43t8.5 -48.5q0 -19 -5 -38t-16 -39q-15 -28 -37 -47.5t-44.5 -32t-42.5 -18.5t-32 -6q45 -8 80.5 -28t59.5 -48.5t36.5 -63t12.5 -70.5q0 -21 -4 -42t-13 -41q-11 -24 -31 -46t-48.5 -39.5t-64 -29t-77.5 -14.5q-5 0 -10 -0.5
t-10 -0.5q-30 0 -65 6t-66.5 21t-55.5 40.5t-33 64.5q-2 7 -3 13.5t-1 12.5q0 35 23.5 54.5t52.5 19.5q23 0 43 -13.5t27 -43.5q2 -10 2 -15q0 -25 -18 -46.5t-53 -21.5q-11 0 -23 3q29 -33 69.5 -51.5t82.5 -18.5q25 0 49.5 7.5t45 23.5t36 41.5t22.5 60.5q5 20 6.5 39.5
t1.5 36.5q0 44 -12.5 77.5t-35 56t-53 34t-67.5 11.5h-100q-8 0 -12.5 4t-4.5 9q0 13 17 13h98q34 0 63 9.5t50 30t33 53t12 79.5q0 60 -16.5 92.5t-39.5 45.5q-17 9 -35.5 13t-37.5 4q-26 0 -51 -6t-46 -16.5t-36.5 -24t-22.5 -28.5q6 4 13 5.5t13 1.5q22 0 38.5 -15
t16.5 -40q0 -11 -3 -21q-6 -17 -21.5 -26t-34.5 -9q-22 0 -40 12q-14 9 -19 21.5t-5 26.5t4 27t11 23q33 50 85 71.5t106 21.5q39 0 75.5 -9.5t65.5 -25.5z" />
    <glyph glyph-name="four" unicode="4" horiz-adv-x="588" 
d="M47 250h258v404zM404 250h133v66h24v-150h-24v68h-133v-214h86v-18h-271v18h86v214h-276v22l342 531h33v-537z" />
    <glyph glyph-name="five" unicode="5" horiz-adv-x="590" 
d="M494 762q-2 -29 -13 -49t-24.5 -33.5t-27 -19.5t-21.5 -6h-289v-193q17 11 45 16t63 5q38 0 79.5 -7t80.5 -21.5t71 -37.5t52 -55q34 -58 34 -121q0 -83 -58 -156q-16 -19 -39.5 -36t-52.5 -29.5t-61.5 -20t-65.5 -7.5q-47 0 -90 17t-75 58q-11 14 -18 32.5t-7 37.5
q0 24 13 45t43 30q10 3 20 3q26 0 46 -20t20 -49q0 -32 -21 -49.5t-47 -17.5q-16 0 -32 8q5 -9 16.5 -21t22.5 -20q52 -34 106 -34q45 0 84.5 23.5t63.5 69.5q16 30 24 66t8 73q0 31 -6 60t-20 52q-32 51 -86 76t-111 25q-33 0 -63.5 -8t-55.5 -24v295q0 8 7.5 19.5
t19.5 11.5h295q12 0 22 3q8 2 15.5 7t9.5 15t12 10t11 -23z" />
    <glyph glyph-name="six" unicode="6" horiz-adv-x="594" 
d="M479 781q18 0 21 -10q0 -7 -8 -10t-13 -5q-72 -17 -122.5 -45t-84.5 -61.5t-53 -69.5t-28.5 -69t-12 -61t-2.5 -44q17 45 53.5 65.5t81.5 20.5q37 0 76 -13.5t72 -39t56.5 -61.5t29.5 -81q2 -14 3 -26.5t1 -26.5q0 -49 -12.5 -93t-37 -79.5t-60.5 -59t-82 -30.5
q-14 -2 -27.5 -3.5t-27.5 -1.5q-53 0 -95 19.5t-73 53.5t-50.5 80.5t-26.5 101.5q-6 39 -6 76q0 91 31.5 169t88.5 139t135.5 103t172.5 62zM303 471q-30 -1 -55 -13.5t-42.5 -33t-27.5 -46.5t-10 -54v-164q0 -27 6 -55.5t21.5 -52t43 -39t70.5 -15.5q36 1 60 16t38 39
t19.5 53t5.5 58v168q0 78 -33.5 108.5t-95.5 30.5z" />
    <glyph glyph-name="seven" unicode="7" horiz-adv-x="586" 
d="M344 354q-14 -26 -28 -53.5t-14 -69.5q0 -27 9 -63q8 -26 17.5 -54t9.5 -55q0 -14 -3.5 -27t-12.5 -26q-9 -14 -21 -20t-25 -6q-20 0 -37 14.5t-22 40.5q-1 6 -1.5 12.5t-0.5 14.5q0 58 28 129t68 143l173 318h-332q-8 0 -19 -2t-16 -13q-9 -21 -13 -43.5t-10 -42.5
q-3 -8 -11 -8q-7 0 -7 12l39 193h444z" />
    <glyph glyph-name="eight" unicode="8" horiz-adv-x="557" 
d="M279 762q33 0 72.5 -10t74 -32.5t57.5 -59t23 -88.5q-4 -45 -30 -77t-59.5 -52.5t-66.5 -31t-51 -11.5q33 -2 65.5 -11t61 -24t50.5 -37t34 -49q6 -15 9.5 -34.5t3.5 -41.5q0 -31 -8 -62.5t-27 -58.5q-16 -22 -39 -40t-49.5 -30.5t-56 -19t-58.5 -6.5q-30 0 -60.5 6.5
t-58.5 19.5t-50.5 31t-37.5 41q-17 26 -24.5 54.5t-7.5 56.5q0 52 22 90q16 28 41 49t53.5 35.5t59 22t57.5 8.5q-39 2 -76.5 16.5t-67 40t-47.5 62t-18 83.5q4 39 23 68t47.5 48.5t64.5 30.5t74 13zM285 746q-29 -2 -49.5 -16t-33.5 -36.5t-19 -50.5t-6 -56v-10.5t1 -10.5
q1 -9 4.5 -27t12.5 -39t25 -41.5t40 -32.5q12 -8 27 -8q13 0 29 8q21 12 36 30.5t24 40.5t13.5 45.5t5.5 45.5q0 51 -12.5 82.5t-30 48t-36.5 22t-31 5.5zM289 389q-32 -1 -56 -16.5t-40.5 -41t-26 -59t-10.5 -69.5q-1 -7 -1 -13v-12q0 -83 34.5 -129.5t93.5 -46.5
q35 0 59.5 14.5t40 40.5t23.5 63.5t10 82.5q0 100 -35 143t-92 43z" />
    <glyph glyph-name="nine" unicode="9" horiz-adv-x="619" 
d="M289 768q66 0 115 -27.5t81 -73t48 -105t16 -123.5q0 -72 -20 -144q-1 -2 -6 -21.5t-20.5 -50t-43 -67t-72.5 -73t-109.5 -69t-154.5 -53.5q-15 0 -15 11q0 5 3.5 9t11.5 5q17 3 45.5 11.5t61.5 24.5t66.5 42t62 63.5t47.5 88.5t22 118q-32 -47 -70.5 -66t-79.5 -19
q-31 0 -60.5 9.5t-55 24.5t-45 34t-29.5 38q-18 34 -26.5 71t-8.5 74q0 50 15.5 97.5t45.5 84.5t74 60t101 26zM295 744q-38 -2 -62.5 -19t-38.5 -41.5t-19 -53.5t-5 -54v-166q0 -70 34.5 -103.5t87.5 -33.5q6 0 12 0.5t12 1.5q28 4 50 19.5t37 37t23 45.5t8 45v135
q0 13 -2 44t-15 62.5t-41.5 56t-80.5 24.5z" />
    <glyph glyph-name="colon" unicode=":" horiz-adv-x="201" 
d="M133 299q-25 0 -43 17.5t-18 42.5q0 27 18 45t43 18t42.5 -18t17.5 -45q0 -25 -17.5 -42.5t-42.5 -17.5zM131 -8q-25 0 -43 18t-18 43q0 26 18 44t43 18t42.5 -18t17.5 -44q0 -25 -17.5 -43t-42.5 -18z" />
    <glyph glyph-name="semicolon" unicode=";" horiz-adv-x="213" 
d="M127 422q25 0 43 -17.5t18 -43.5t-18 -44t-43 -18q-26 0 -44.5 18t-18.5 44t18.5 43.5t44.5 17.5zM109 131q32 0 50 -10.5t29 -32.5q5 -13 5 -24q0 -21 -10.5 -40t-18.5 -32q-17 -25 -37.5 -44t-39.5 -31.5t-33.5 -19t-18.5 -6.5q-8 0 -8 3q0 1 6 4q7 3 23 12t34 24
t34.5 36t25.5 48q-19 -10 -37 -10q-17 0 -30.5 8t-21.5 25q-7 11 -7 28q0 21 14 40t41 22z" />
    <glyph glyph-name="less" unicode="&#x3c;" 
d="M559 70v-72l-510 232v65l510 232v-74l-414 -191z" />
    <glyph glyph-name="equal" unicode="=" horiz-adv-x="398" 
d="M381 355h-313v26h313v-26zM381 236h-313v26h313v-26z" />
    <glyph glyph-name="greater" unicode="&#x3e;" 
d="M463 262l-414 191v74l508 -232v-65l-508 -232v72z" />
    <glyph glyph-name="question" unicode="?" horiz-adv-x="451" 
d="M223 721q27 0 53.5 -3t49.5 -13t40.5 -28t26.5 -48q10 -31 10 -62q0 -30 -8.5 -54t-19.5 -41.5t-22 -29t-17 -16.5q-26 -24 -43.5 -40t-29 -28.5t-19.5 -22.5t-15 -21q-12 -18 -16 -33.5t-4 -27.5q0 -14 2.5 -23.5t2.5 -14.5t-3 -6q-4 -2 -6 -2q-6 0 -9 5t-3 7
q-2 17 -7 43t-5 58q0 37 13 77t54 78q48 44 74 82.5t26 70.5v8.5t-2 8.5q-3 9 -10 19.5t-19 20t-30.5 15.5t-45.5 6q-29 0 -69 -9q-16 -4 -26.5 -10.5t-10.5 -12.5q0 -3 4 -6q18 -5 29 -21t11 -34q0 -15 -9 -29.5t-29 -22.5q-9 -4 -21 -4q-17 0 -31 10t-21 27q-3 9 -3 21
q0 13 5 27.5t16 27.5q28 29 64 39t73 12zM205 113q25 0 42 -17.5t17 -42.5q0 -24 -17 -41.5t-42 -17.5q-23 0 -41 17.5t-18 41.5q0 25 18 42.5t41 17.5z" />
    <glyph glyph-name="at" unicode="@" horiz-adv-x="820" 
d="M287 674q71 23 135 23q81 0 156 -34q74 -34 124 -99q48 -64 54 -146v-16q0 -62 -26 -119q-32 -64 -87 -104q-57 -42 -127 -54q-32 1 -56 16q-22 13 -28 41q-52 -52 -121 -55q-51 0 -85 39q-35 37 -37 102q8 106 68 193q61 88 161 88q44 0 73 -17t32 -42l14 45h84
q-8 -26 -17 -51.5t-19 -51.5t-19 -52l-18 -52q-10 -26 -19 -51t-17 -50q-8 -26 -12 -45q1 -10 7 -14t24 -8q51 2 92 38q42 37 64 90t22 107q0 75 -41 134q-43 60 -109 91q-69 32 -143 32q-62 0 -120 -23q-56 -24 -102 -68q-47 -45 -69 -102q-23 -57 -23 -115v-4
q0 -132 89 -218q88 -86 204 -93q5 -1 11 -1h11q84 0 156 35q81 38 130 123h43q-25 -81 -119 -141q-94 -61 -207 -61q-99 0 -188 53q-90 53 -137 140q-40 71 -40 155q0 8 0.5 17t1.5 18q9 101 70 186t160 121zM307 160q4 0 19 -4q37 1 70 37q34 35 53 98q2 8 8 22.5t14 34.5
q17 41 24 61t7 46q0 58 -47 66q-8 2 -13 2q-31 0 -66 -34q-46 -41 -77 -135q-7 -19 -12 -38q-7 -19 -11 -42q-7 -28 -8 -51q3 -56 39 -63z" />
    <glyph glyph-name="A" unicode="A" horiz-adv-x="680" 
d="M297 682h92l213 -545q28 -70 49 -85q20 -14 64 -23v-29h-281v31q79 4 79 49q0 7 -1 10q-3 12 -10.5 32.5t-18.5 49.5t-19 49t-13 33h-258q-2 -14 -27 -78q-22 -54 -22 -83q0 -6 1 -9q4 -44 85 -55v-29h-267v29q46 6 74 33q29 28 47 79zM209 299h225l-116 297z" />
    <glyph glyph-name="B" unicode="B" horiz-adv-x="740" 
d="M121 549q0 60 -16 79t-74 24v30h383q121 0 177 -35q55 -34 67 -79q8 -32 8 -52q0 -112 -143 -139l-2 -2q29 -4 53.5 -12t44.5 -19q39 -22 62 -61q22 -37 22 -80q0 -7 -1 -16t-3 -21q-21 -92 -96 -129t-199 -37h-373v29q60 6 76 24q16 16 16 90zM377 391q184 0 184 121
q0 75 -60 104q-61 29 -147 29q-60 0 -96 -14q-35 -14 -35 -65v-175h154zM223 158q0 -55 9 -76t36 -29q42 -9 93 -12q94 3 145 25q84 40 84 135v12q-4 121 -129 133q-29 2 -58.5 3t-58.5 1h-121v-192z" />
    <glyph glyph-name="C" unicode="C" horiz-adv-x="740" 
d="M43 336q1 91 46 177q43 82 120 135q76 51 172 51q115 0 199 -72l22 45h31l49 -240h-34q-40 86 -73 129q-34 44 -79 66q-44 21 -109 21q-93 0 -158 -77q-63 -77 -65 -231v-12q0 -78 26 -141q27 -65 77 -105q48 -39 116 -47q8 -1 15 -1.5t15 -0.5q62 0 124 32
q73 37 123 119l43 -26q-107 -174 -305 -174q-19 0 -32.5 0.5t-21.5 1.5q-80 11 -148 56q-68 43 -111 121q-42 76 -42 173z" />
    <glyph glyph-name="D" unicode="D" horiz-adv-x="801" 
d="M119 563q0 87 -88 87v32h303q166 0 264 -51q43 -24 78 -70q35 -48 56 -105q20 -57 20 -104v-4q-1 -164 -98 -256t-277 -92h-346v29q8 1 15 2t13 2q5 1 11 3l12 4q13 5 20 13q19 19 19 64l-2 416v30zM221 145q0 -4 -0.5 -8.5t-1.5 -9.5q4 -63 39 -74q20 -5 41.5 -8.5
t46.5 -5.5q136 4 207 78q40 43 60 102q20 60 20 125q0 77 -25 143q-25 65 -71 97q-80 57 -203 57q-48 0 -76 -12q-31 -12 -35 -51q-1 -11 -1.5 -26t-0.5 -32v-375z" />
    <glyph glyph-name="E" unicode="E" horiz-adv-x="721" 
d="M121 541q0 67 -16 86q-18 23 -74 23v32h574l69 -180l-33 -12q-113 149 -303 149q-46 0 -76 -10q-41 -17 -41 -72v-168q11 0 18.5 -0.5t12.5 -1.5q28 1 46.5 2t27.5 2q19 2 35 7q18 6 28 16q22 23 31 98h35v-299h-35q-6 77 -43 107q-28 22 -90 22h-66v-207q0 -37 14 -60
t62 -30q5 0 16 -1t27 -3q203 6 334 186l31 -14l-90 -213h-584v29q20 2 33 4t20 4q12 3 21 16q16 19 16 58v430v0z" />
    <glyph glyph-name="F" unicode="F" horiz-adv-x="641" 
d="M121 541q0 67 -16 86q-18 23 -74 23v32h551l72 -170l-31 -16q-111 141 -289 141q-58 0 -82 -10q-29 -9 -33 -61q1 -4 1.5 -8t0.5 -9v-162q11 0 20 -0.5t15 -1.5q62 1 88 6q25 4 43 21q21 23 29 98h31v-295h-31q-6 79 -41 105q-26 22 -119 22h-35v-203q0 -20 1 -34.5
t3 -24.5q3 -20 21 -33q18 -15 72 -18v-29h-287v29q19 2 32 4t20 4q13 3 22 16q16 22 16 62v426v0z" />
    <glyph glyph-name="G" unicode="G" horiz-adv-x="801" 
d="M45 338q0 103 44 185q46 84 127 130q80 44 167 44q108 0 191 -62l20 47h29l63 -213l-40 -12q-40 67 -82 107q-43 41 -91 63q-48 21 -90 21q-56 0 -103 -32q-48 -33 -78 -95t-36 -144q-1 -11 -1.5 -22.5t-0.5 -22.5q0 -123 57 -201q66 -94 168 -98h10q77 0 138 43
q65 45 65 125q0 86 -98 94v29h275v-29q-51 -2 -67 -22q-17 -22 -17 -70v-203h-49l-31 68q-46 -42 -113 -65q-57 -20 -117 -20h-11t-11 1q-93 8 -163 53q-72 45 -113 119q-41 73 -42 168v14z" />
    <glyph glyph-name="H" unicode="H" horiz-adv-x="801" 
d="M121 559q0 44 -17 70q-23 21 -73 21v32h282v-32q-54 0 -73 -19q-19 -18 -19 -80v-164h359v168q0 50 -16 70q-18 25 -74 25v32h280v-32q-57 0 -73 -21q-17 -20 -17 -74v-434q0 -51 19 -70t71 -22v-29h-280v29q51 0 74 26q16 20 16 74v217h-359v-227q0 -50 23 -70t69 -20
v-29h-282v29q57 0 76 28q14 23 14 91v411v0z" />
    <glyph glyph-name="I" unicode="I" horiz-adv-x="340" 
d="M115 564q0 81 -70 88h-14v30h270v-30h-10q-38 -6 -55 -19q-19 -13 -19 -69v-451q0 -46 21 -64t63 -18v-31h-270v31q46 0 65 19t19 59v455v0z" />
    <glyph glyph-name="J" unicode="J" 
d="M379 559q0 50 -18 71q-20 20 -70 20v32h277v-32q-48 0 -67 -16q-21 -17 -21 -71l-1 -374q0 -82 -52 -137q-51 -54 -169 -68h-35q-97 0 -170 55q-74 56 -74 147q0 36 21 63q21 26 57 26q25 0 39 -14q13 -14 13 -38q0 -19 -21 -44q-22 -25 -24 -44q1 -37 49 -69
q46 -33 114 -33q86 0 119 69q33 67 33 164v293v0z" />
    <glyph glyph-name="K" unicode="K" horiz-adv-x="721" 
d="M121 563q0 47 -17 66q-18 18 -73 23v30h295v-30q-17 -1 -30.5 -2t-22.5 -3q-18 -4 -29 -12q-23 -20 -23 -67v-228l244 223q25 19 25 48q0 36 -68 41v30h281v-30q-49 -16 -95 -47q-47 -31 -90 -70q-47 -41 -96 -84l197 -328q48 -80 131 -94v-29h-303v29q76 0 76 41
q0 14 -11 41l-168 276l-123 -112v-158q0 -49 23 -70q15 -15 82 -18v-29h-295v29q63 6 76 28q14 20 14 70v436v0z" />
    <glyph glyph-name="L" unicode="L" 
d="M117 566q0 86 -86 86v30h283v-30q-17 -2 -28.5 -3t-18.5 -2q-14 -3 -23 -12q-25 -18 -25 -74v-420q0 -5 -0.5 -10t-1.5 -10q5 -69 37 -76q8 -2 22 -4t33 -4q74 1 154 48q79 46 139 142l27 -14l-80 -213h-518v29q54 0 73 28q13 17 13 70v31v408z" />
    <glyph glyph-name="M" unicode="M" horiz-adv-x="920" 
d="M121 570q0 82 -96 82v30h241l191 -512l211 512h227v-30q-46 0 -68 -20q-22 -19 -22 -66v-457q0 -80 90 -80v-29h-278v29q49 0 69 21q19 19 19 63v498l-252 -611h-43l-234 629v-502q0 -66 27 -82q20 -13 76 -16v-29h-254v29q61 0 79 24q17 25 17 84v433z" />
    <glyph glyph-name="N" unicode="N" horiz-adv-x="740" 
d="M115 545q0 70 -21 87q-21 16 -69 18v32h221l330 -543v435q0 38 -20 58q-20 18 -79 18v32h246v-32q-51 0 -70 -16q-20 -17 -20 -68v-566h-88l-373 607v-498q0 -44 25 -62q24 -18 73 -18v-29h-245v29q47 0 69 19q21 18 21 63v434z" />
    <glyph glyph-name="O" unicode="O" horiz-adv-x="801" 
d="M43 336q0 156 99 257q100 102 260 106h15q68 0 128 -24q67 -28 113 -76q45 -48 72 -112q26 -63 28 -133v-12q0 -80 -36 -159q-39 -87 -119 -143q-79 -56 -193 -58q-177 0 -271 112q-95 111 -96 238v4zM164 338q0 -85 29 -155q28 -70 83 -110q56 -41 128 -42q2 2 3 2h1
q118 3 176 96q55 88 55 211v12q-3 132 -63 214t-174 82q-105 0 -169 -75q-66 -77 -69 -235z" />
    <glyph glyph-name="P" unicode="P" horiz-adv-x="619" 
d="M119 578q0 70 -88 74v30h313q100 0 175 -34q77 -35 90 -119q2 -13 3 -23t1 -18q0 -83 -63 -135q-63 -54 -175 -54h-156v-182q0 -49 21 -68q22 -20 82 -20v-29h-291v29q57 5 73 26q15 22 15 82v441zM219 336h138q76 0 118 43q37 37 37 109v14q-1 66 -51 104
q-50 37 -121 37q-52 0 -87 -8q-34 -9 -34 -45v-254z" />
    <glyph glyph-name="Q" unicode="Q" horiz-adv-x="820" 
d="M609 43q-92 -59 -205 -59q-98 0 -181 49q-84 50 -132 133q-46 77 -46 170v12q1 79 33 145t83 111t119 71q63 24 125 24h5q87 -1 158 -33q68 -31 114 -83q44 -50 64 -108q24 -68 24 -139q0 -74 -24 -137q-26 -65 -74 -107q43 -42 43 -96q0 -60 -50 -108q-49 -49 -142 -66
q-27 -5 -58.5 -7.5t-68.5 -2.5q-89 0 -155 22q-69 22 -106 51q-30 26 -31 58q3 39 54 47q61 -9 61 -72q0 -29 55 -45q55 -18 124 -18q14 0 29.5 1t33.5 3q62 7 115 44q51 34 51 85q0 28 -18 55zM369 35q-34 24 -37 53q0 30 41 54q40 24 100 24q67 0 136 -25q39 63 39 189
q0 22 -0.5 37.5t-1.5 25.5q-12 116 -71 187q-59 68 -162 68h-9q-54 0 -97 -24q-45 -25 -76 -67q-32 -44 -48 -95q-8 -26 -13 -53.5t-6 -56.5q0 -281 203 -319zM568 86q-45 22 -95 23h-11q-26 0 -52 -8q-29 -11 -29 -33q0 -31 62 -31h12q33 2 66 16t47 33z" />
    <glyph glyph-name="R" unicode="R" horiz-adv-x="721" 
d="M227 363h121h39q175 0 177 153q0 37 -18 63q-10 12 -21.5 21.5t-25.5 16.5q-30 14 -62 20q-35 6 -72 6q-61 0 -98 -10q-40 -10 -40 -49v-221zM127 578q0 44 -24 59q-22 13 -61 13h-11v32h321h56q107 0 164 -26q96 -45 96 -148v-14q-5 -68 -56 -111q-53 -46 -128 -53
q57 -75 153 -213q32 -48 59 -64q25 -16 62 -24v-29h-166l-225 322h-140v-205q0 -48 21 -67q19 -20 78 -21v-29h-295v29q63 3 80 24q16 20 16 84v441z" />
    <glyph glyph-name="S" unicode="S" horiz-adv-x="660" 
d="M418 295q-22 5 -45.5 10.5t-49.5 12.5q-50 13 -94 27q-22 7 -40 13t-33 13q-44 18 -69 55q-27 39 -28 86q3 48 21 82q25 52 83 78q56 25 128 25q56 0 107 -14q50 -14 79 -38l13 37h35l61 -182l-31 -12q-44 70 -108 114q-67 44 -142 44q-59 0 -99 -25q-42 -26 -48 -68
q-1 -4 -1 -12q0 -34 27 -58q29 -28 71 -40q20 -7 51.5 -14.5t74.5 -16.5q42 -10 71 -17.5t46 -13.5q135 -44 135 -168q0 -106 -84 -167q-85 -62 -192 -62q-118 0 -209 67l-17 -51h-37l-67 229l37 11q23 -42 49.5 -76.5t57.5 -62.5q63 -57 140 -64q5 0 16 -1t27 -3
q69 1 125 41q56 39 56 106q0 46 -33 75q-32 28 -84 40z" />
    <glyph glyph-name="T" unicode="T" horiz-adv-x="619" 
d="M260 588q0 32 -6 43q-6 10 -33 10q-149 0 -225 -147l-33 12l57 176h582l54 -176l-35 -12q-36 70 -93 109q-60 39 -120 40q-33 0 -41 -8q-9 -9 -10 -37q2 -6 2 -8v-463q0 -54 21 -76q20 -20 72 -20h15v-31h-311v29q58 1 82 19q22 16 22 79v461z" />
    <glyph glyph-name="U" unicode="U" horiz-adv-x="779" 
d="M117 564q0 59 -21 71q-24 13 -71 17v30h291v-30q-64 0 -81 -23q-19 -25 -20 -70l2 -2v-2v-362q0 -160 195 -160h8q106 0 148 53q41 53 41 144v331q0 53 -19 72t-80 19v30h244v-30q-44 0 -66 -18q-22 -19 -22 -71v-387q0 -55 -27 -98q-28 -43 -86 -68q-57 -25 -147 -28
h-10q-122 0 -198 49q-81 49 -81 160v373v0z" />
    <glyph glyph-name="V" unicode="V" horiz-adv-x="699" 
d="M80 563q-20 51 -44 68q-24 16 -65 21v30h295v-30q-46 -3 -65 -12t-21 -35q1 -11 15 -54l172 -446l178 454q6 13 6 31q0 62 -92 62v30h268v-30q-52 -3 -78 -26t-55 -91l-219 -535h-64l-231 563v0z" />
    <glyph glyph-name="W" unicode="W" horiz-adv-x="961" 
d="M324 0h-60l-198 568q-12 37 -31 57q-21 20 -64 25v32h275v-32q-61 0 -70 -33q0 -3 -0.5 -6t-1.5 -7l2.5 -12.5t4.5 -17.5q6 -20 12 -45l131 -392l117 379q-15 67 -42 96q-29 29 -75 38v32h278v-32q-41 -3 -57 -13t-16 -32v-2q0 -13 10 -39q5 -14 8.5 -25t5.5 -19
l125 -383l129 400q9 30 9 51q0 35 -21 47q-23 11 -61 15v32h250v-32q-37 0 -62 -17q-25 -18 -41 -69l-203 -564h-63l-146 438z" />
    <glyph glyph-name="X" unicode="X" horiz-adv-x="721" 
d="M129 588q-48 60 -113 62v32h308v-32q-73 0 -76 -37q3 -20 18 -39l125 -162l117 149q21 22 21 48q0 41 -62 41h-8v32h271v-32q-58 -9 -88 -27q-31 -18 -81 -80l-141 -172l203 -264q14 -17 29 -30t30 -23q27 -18 74 -23v-31h-328v31q18 2 33 4t26 6q23 8 23 33q0 18 -37 67
l-129 173l-153 -189q-12 -19 -15 -43q5 -47 76 -51v-31h-281v31q35 17 63 33.5t50 31.5q21 15 37.5 28.5t27.5 26.5t29.5 35t43.5 54t47.5 60.5t43.5 53.5z" />
    <glyph glyph-name="Y" unicode="Y" horiz-adv-x="641" 
d="M78 566q-20 36 -42 57q-23 22 -65 29v30h283v-30q-68 -10 -76 -33q0 -4 -2 -10q1 -12 29 -60l129 -203l139 217q13 22 13 36v6q0 22 -17 31q-16 8 -51 16v30h248v-30q-47 -8 -77 -30q-16 -11 -31.5 -29.5t-32.5 -43.5l-170 -268v-142v-11.5t-1 -10.5q1 -51 23 -68
q23 -19 62 -20q10 2 20 2v-31h-313v31q10 0 18 -2q49 5 65 18q25 18 25 80v158z" />
    <glyph glyph-name="Z" unicode="Z" horiz-adv-x="641" 
d="M486 627q-68 12 -127 12q-94 0 -162 -35q-68 -36 -123 -116l-33 12l74 182h500l10 -37l-473 -594q79 -9 147 -12q63 1 113.5 12t90.5 31q78 40 122 135l31 -12l-72 -205h-555l-19 31l476 596v0z" />
    <glyph glyph-name="bracketleft" unicode="[" horiz-adv-x="301" 
d="M258 717v-43q-22 -2 -35.5 -4t-20.5 -4q-14 -6 -17 -23t-3 -69v-599q0 -44 14 -53q12 -8 62 -16v-43h-166v854h166z" />
    <glyph glyph-name="backslash" unicode="\" 
d="M160 717l373 -717h-86l-373 717h86z" />
    <glyph glyph-name="bracketright" unicode="]" horiz-adv-x="301" 
d="M207 -137h-166v43q50 8 63 16q13 9 13 53v599q0 52 -3 69t-16 23q-15 5 -57 8v43h166v-854z" />
    <glyph glyph-name="asciicircum" unicode="^" 
d="M53 275l211 407h78l213 -407h-82l-170 311l-168 -311h-82z" />
    <glyph glyph-name="underscore" unicode="_" horiz-adv-x="500" 
d="M0 -154v58h500v-58h-500z" />
    <glyph glyph-name="grave" unicode="`" horiz-adv-x="340" 
d="M121 604q-52 7 -55 44q8 41 36 41q27 0 68 -27l103 -74l-5 -16z" />
    <glyph glyph-name="a" unicode="a" horiz-adv-x="580" 
d="M377 324q0 45 -6 68q-6 21 -25 36q-31 25 -88 25q-36 0 -72 -14q-32 -14 -32 -42v-6v-10q1 -24 -12 -37q-15 -17 -37 -18q-17 0 -31 13q-16 13 -17 32q6 42 42 71q36 27 85 39q50 11 93 11q48 0 102 -15q55 -23 75 -48q19 -25 19 -85v-205q0 -99 52 -102q27 3 43 16
l20 -28q-18 -15 -43 -23q-26 -10 -59 -10q-87 0 -109 72q-83 -72 -184 -72q-64 0 -107 28q-43 27 -51 74q-1 5 -1.5 10t-0.5 10q0 44 33 77q41 41 121 63q83 23 190 29v41zM377 250q-49 -5 -90.5 -13t-75.5 -21q-68 -26 -76 -95q5 -66 70 -78q9 0 24 -4q66 3 148 68v143z
" />
    <glyph glyph-name="b" unicode="b" horiz-adv-x="619" 
d="M88 568q0 57 -22 69q-24 13 -68 17v30q100 13 141 33h45v-295q67 72 171 72q61 0 116 -29q52 -30 84 -87q27 -53 27 -122v-14q-5 -122 -72 -186t-164 -64q-105 0 -178 67l-25 -59h-55v568zM184 96q59 -56 132 -59q45 1 83 26q36 22 59 69q21 45 21 110q-2 83 -38 145
q-38 62 -111 62q-81 0 -146 -80v-273z" />
    <glyph glyph-name="c" unicode="c" horiz-adv-x="520" 
d="M498 104q-35 -60 -98 -88q-51 -25 -114 -25h-12t-12 1q-94 7 -160 70q-65 62 -65 180q0 129 72 191q71 61 170 61q69 0 137 -35t68 -98q0 -21 -14 -37t-36 -19q-20 0 -35 15q-14 13 -16 39q1 10 3 15q0 7 1 11q1 3 1 10q0 21 -24 39q-32 21 -77 21q-127 0 -137 -211
q5 -140 77 -187q35 -25 86 -28q92 3 156 94l29 -19v0z" />
    <glyph glyph-name="d" unicode="d" horiz-adv-x="619" 
d="M428 559v5q0 49 -18 67q-17 20 -72 23v32q19 2 40 5t44 8q46 9 58 18h43v-590q0 -50 13 -70q13 -22 56 -28v-29h-164v68q-70 -73 -160 -76h-8q-56 0 -102 24q-51 25 -86 83q-33 55 -35 141v4q0 63 29 121q28 57 83 94q53 35 121 35q76 0 158 -49v114zM428 393
q-18 21 -57 38q-36 16 -80 16q-60 0 -102 -44q-41 -43 -46 -143q-1 -7 -1 -13.5v-13.5q0 -91 37 -138q43 -57 106 -58q41 2 80 23q40 21 63 55v278z" />
    <glyph glyph-name="e" unicode="e" horiz-adv-x="520" 
d="M143 289q-1 -11 -1.5 -21.5t-0.5 -20.5q0 -93 42 -145q50 -66 126 -67q48 1 90 27q41 24 60 67l31 -18q-22 -56 -82 -88q-58 -31 -129 -31q-105 0 -172 73q-69 72 -72 179q3 69 31 131q28 57 85 88q56 31 122 31q90 0 155 -53q64 -54 64 -152h-349zM385 330q0 54 -31 88
q-32 35 -83 35h-6q-43 0 -77 -31q-36 -34 -43 -92h240z" />
    <glyph glyph-name="f" unicode="f" horiz-adv-x="320" 
d="M105 484v34t-1 21q1 34 3 39q10 72 75 114q64 42 142 42q29 0 60 -14q30 -14 30 -42q0 -20 -9 -27q-12 -8 -38 -18q-17 2 -23 8q-11 7 -23 22q-15 14 -25 22q-11 6 -25 6q-28 0 -49 -22q-21 -23 -21 -64v-121h100v-31h-100v-324q0 -50 16 -75q15 -25 68 -25v-29h-265v29
q57 0 71 26t14 72v326h-85v31h85v0z" />
    <glyph glyph-name="g" unicode="g" horiz-adv-x="539" 
d="M146 176q-79 51 -79 136q0 9 1 14q5 75 62 121q58 47 138 47q38 0 91 -15q49 87 121 87q22 0 42 -11q19 -10 19 -32q0 -18 -12 -27q-11 -10 -27 -10q-2 0 -23 8q-11 4 -19 6.5t-13 3.5h-4q-24 0 -52 -37q80 -63 80 -145q0 -78 -57 -126q-58 -49 -139 -50q-60 4 -99 18
q-48 -22 -51 -53q3 -33 51 -39q66 -8 115 -14t84 -11q76 -12 112 -28q36 -17 44 -56q6 -21 6 -43q0 -73 -67 -118q-67 -46 -179 -46q-137 0 -204 37q-70 38 -71 90q1 22 15 45q12 21 36 38q22 16 54 24v2q-71 19 -76 80q1 34 30 66q28 31 71 38zM164 326q0 -68 22 -106
q22 -39 82 -40l2 2h1q65 1 85 42q19 39 19 110q0 125 -105 125q-106 -3 -106 -133zM158 -20q-78 -25 -82 -89q3 -60 65 -81q61 -21 136 -21q47 0 94 11q45 10 72 33q26 23 26 54q0 35 -26 49q-27 13 -93 21q-48 8 -95.5 13.5t-96.5 9.5z" />
    <glyph glyph-name="h" unicode="h" horiz-adv-x="660" 
d="M205 131q0 -55 16 -78q16 -24 66 -24v-29h-267v29q16 1 28.5 3.5t22.5 6.5q19 7 28 26q4 9 6.5 22.5t3.5 31.5v442q0 52 -15 70q-17 20 -73 23v32q24 2 45.5 5.5t40.5 7.5q38 8 59 18h39v-309q90 84 207 84q61 0 105 -32t44 -93v-242q0 -42 15 -69q13 -27 63 -27h4v-29
h-268v29q47 1 69 19q21 16 21 69v217q0 49 -9 72q-9 21 -44 32q-24 3 -31 3q-37 0 -86 -20q-50 -21 -90 -58v-232z" />
    <glyph glyph-name="i" unicode="i" horiz-adv-x="301" 
d="M109 326q0 58 -15 82q-17 24 -63 24h-11v31q21 2 67 9t87 12h31v-353q0 -54 16 -77q15 -25 68 -25v-29h-266v29q46 1 67 19q17 16 19 67v211zM158 654q24 0 41 -15q19 -17 20 -39v-4q0 -27 -16 -42q-19 -18 -41 -19h-6q-16 0 -35 13q-21 14 -23 46v2q0 22 17 39t41 19h2z
" />
    <glyph glyph-name="j" unicode="j" horiz-adv-x="301" 
d="M154 654q24 0 41 -16q18 -18 18 -40v-4q0 -28 -16 -43q-16 -16 -41 -18h-6q-14 0 -33 13q-21 14 -23 48v4q0 21 16 37q16 19 42 19h2zM105 326q0 60 -13 82q-21 24 -64 24h-10v31q25 2 68 9t84 12h33v-533q0 -137 -119 -185q-39 -16 -88 -16q-43 0 -72 16q-30 15 -33 37
v5q0 37 45 42q18 -3 46 -29t49 -26q39 0 58 31q16 28 16 64v8v428z" />
    <glyph glyph-name="k" unicode="k" horiz-adv-x="619" 
d="M20 686q7 1 15.5 2t19.5 2t22 3t24 4q12 2 27.5 7t35.5 13h41v-465l160 141q18 13 18 31q0 31 -55 31v29h268v-29q-69 -9 -120 -36q-52 -29 -119 -93l151 -219q24 -31 59 -54q34 -22 62 -22v-31h-272v29q53 0 53 28q0 21 -19 52l-106 153l-80 -71v-64q0 -52 15 -77
q12 -22 58 -22q10 0 15 1v-29h-272v29q88 0 88 78v463q0 54 -20 68q-20 11 -69 16v32z" />
    <glyph glyph-name="l" unicode="l" horiz-adv-x="301" 
d="M109 561q0 52 -15 70q-17 20 -74 23v32q97 7 144 31h41v-586q0 -53 15 -77q15 -25 67 -25v-29h-267v29q50 3 69 19q18 14 20 65v448v0z" />
    <glyph glyph-name="m" unicode="m" horiz-adv-x="939" 
d="M18 463q25 4 47.5 7t43.5 6l35 5t22 3h37v-68q31 34 85 57q52 21 103 21q49 0 86 -19q39 -20 52 -59q93 78 188 78q61 0 99 -33q38 -35 38 -94v-242q0 -42 13 -67q12 -24 63 -29v-29h-256v29q39 1 61 20q21 16 21 68v229q0 43 -21 69t-61 26q-65 0 -147 -64v-262
q0 -40 20 -63t62 -23v-29h-259v29q46 0 62 22q11 11 16 29q4 15 4 57v207q0 28 -8 50q-7 20 -26 34q-17 13 -44 13q-78 0 -151 -64v-260q0 -48 20 -68t60 -20v-29h-254v29q36 4 57 22q19 16 19 64v225q0 59 -20 76q-20 16 -67 16v31v0z" />
    <glyph glyph-name="n" unicode="n" horiz-adv-x="660" 
d="M205 131q0 -33 6 -54q4 -21 24 -35q17 -13 54 -13v-29h-266v29q46 1 67 19q17 16 19 67v211q0 58 -15 82q-17 24 -63 24h-11v31q21 2 67 9t87 12h31v-78q94 86 205 86q69 0 112 -34q44 -35 44 -91v-242q0 -42 15 -70q14 -26 59 -26h10v-29h-267v29q44 1 66 19
q20 17 20 69v229q0 45 -23 71q-24 24 -67 24q-77 0 -174 -80v-230z" />
    <glyph glyph-name="o" unicode="o" horiz-adv-x="561" 
d="M283 494q112 0 177 -69q64 -68 67 -175v-10q0 -66 -25 -119q-14 -29 -34.5 -53t-48.5 -41q-56 -35 -138 -35q-77 0 -133 34q-56 32 -85 92q-26 54 -26 120v14q6 110 69 176q61 66 177 66zM141 244q4 -92 33 -151q28 -58 109 -62h2q74 0 105 58q32 59 32 153q0 84 -33 149
q-31 64 -106 64h-2q-81 -2 -111 -73q-29 -69 -29 -130v-8z" />
    <glyph glyph-name="p" unicode="p" horiz-adv-x="619" 
d="M205 -113q0 -41 19 -63q16 -21 64 -21h13v-32h-278v32q51 3 68 20t18 64v441q0 104 -80 104h-9v31q130 17 148 21h37v-64q65 71 150 74h8q54 0 104 -24q54 -28 85 -83q32 -58 32 -137q0 -70 -29 -130q-30 -58 -83 -93t-122 -35q-77 0 -145 49v-154zM205 92
q44 -50 125 -53q60 1 104 47q43 43 46 141q1 6 1 12v12q0 41 -9 76q-10 40 -29 67q-19 25 -45 38t-58 13q-37 0 -75 -20q-38 -21 -60 -54v-279z" />
    <glyph glyph-name="q" unicode="q" horiz-adv-x="580" 
d="M404 391q-16 22 -51 38t-74 16q-133 0 -136 -195v-6q0 -105 35 -155q35 -51 92 -52q42 2 80 25q39 24 54 53v276zM404 64q-54 -72 -158 -72q-29 0 -53 6q-80 23 -119 90q-37 64 -37 148v8q3 123 68 188q64 64 151 64q23 -1 46 -5.5t46 -14.5q46 -20 72 -48l31 56h49v-597
q1 -49 22 -67q20 -17 60 -17h8v-32h-279v32h12q48 0 64 22q17 25 17 66v173z" />
    <glyph glyph-name="r" unicode="r" horiz-adv-x="439" 
d="M170 484h35v-74q81 81 160 84h10q28 0 48 -10q24 -14 24 -45q0 -19 -13 -35q-13 -15 -43 -17q-6 2 -14 2q-9 1 -36 17q-26 14 -38 14q-46 0 -98 -55v-236q0 -56 20 -78q14 -18 60 -22q8 2 12 2v-31h-276v29q51 0 71 24q15 16 15 64v20v187q0 66 -17 88q-17 20 -59 20h-11
v31z" />
    <glyph glyph-name="s" unicode="s" horiz-adv-x="520" 
d="M320 193q-68 17 -114.5 30t-72.5 23q-33 13 -56 44q-22 28 -24 62q7 65 60 103q52 37 123 37q95 0 145 -43l10 35h29l31 -152h-31q-23 54 -72 87q-50 32 -108 32q-39 0 -66 -15q-28 -15 -31 -45q-1 -5 -1 -13q0 -29 27 -42q33 -19 104 -32q35 -7 60.5 -13.5t41.5 -11.5
q59 -21 90 -53q23 -26 23 -70q0 -7 -0.5 -14t-1.5 -15q-6 -38 -36 -70t-76 -48q-48 -17 -97 -17q-88 0 -158 51l-12 -43h-33l-35 178h35l8 -18q4 -8 8.5 -16t9.5 -16t12 -17t15 -17q33 -31 65 -42q16 -5 37.5 -10t49.5 -9q42 1 83 24q40 21 40 62q0 55 -82 74z" />
    <glyph glyph-name="t" unicode="t" horiz-adv-x="381" 
d="M20 453v31q136 6 136 170v14h43v-184h143v-31h-143v-318q0 -97 74 -102q51 3 90 45l26 -21q-23 -32 -63 -48q-42 -17 -84 -17q-53 0 -97 26q-41 26 -41 101v334h-84z" />
    <glyph glyph-name="u" unicode="u" horiz-adv-x="680" 
d="M20 463l152 21h33v-328q0 -33 3 -51q1 -18 14 -34q12 -17 34 -24q5 -2 14.5 -4t22.5 -4q40 1 93 25q49 22 91 61v219q0 54 -23 72q-20 16 -59 16h-8v31l150 21h35v-369q0 -47 17 -70q14 -17 46 -17h9.5t9.5 1v-29h-179v84q-41 -41 -99 -68q-53 -24 -110 -24h-12
q-76 5 -110 39q-35 35 -35 110v201q0 56 -21 73q-22 17 -57 17h-11v31z" />
    <glyph glyph-name="v" unicode="v" horiz-adv-x="520" 
d="M61 387q-14 35 -29 49q-16 14 -55 19v29h244v-29q-30 0 -43 -7q-14 -8 -24 -28q0 -3 18 -55l105 -279l100 271q10 24 10 47q0 33 -16 40q-18 8 -45 11v29h209v-29q-39 -9 -64 -34q-27 -27 -49 -79l-145 -342h-58l-158 387v0z" />
    <glyph glyph-name="w" unicode="w" horiz-adv-x="779" 
d="M207 0q-2 4 -8.5 24t-19.5 56q-13 35 -23.5 65t-18.5 53t-18.5 51.5t-21.5 61.5l-25 68q-25 76 -92 76v29h241v-29q-32 0 -48 -8q-15 -7 -17 -27q2 -15 12 -43l102 -285l105 254l-25 62q-17 41 -77 47v29h227v-29q-56 0 -59 -37q1 -4 2 -8.5t3 -10.5t3 -11t2 -9l98 -283
l101 261q6 15 6 38q0 60 -72 60v29h221v-29q-40 -4 -63 -32q-23 -27 -39 -66l-142 -357h-65l-100 285l-123 -285h-66v0z" />
    <glyph glyph-name="x" unicode="x" horiz-adv-x="561" 
d="M471 82q23 -30 47 -40q11 -5 26 -8t32 -5v-29h-275v29q60 0 60 34q0 22 -17 42l-88 112l-100 -115q-14 -17 -17 -36q3 -35 68 -35v-31h-223v29q57 7 104 61l141 158l-129 160q-35 43 -90 47v29h250v-31q-44 0 -55 -8q-5 -2 -8 -15q3 -10 10 -20l82 -101l92 93
q12 12 12 28q0 23 -38 23h-7v31h213v-29q-87 -11 -135 -62l-113 -114z" />
    <glyph glyph-name="y" unicode="y" horiz-adv-x="539" 
d="M74 365q-18 44 -28 58q-11 15 -24 21q-15 7 -45 11v29h238v-29q-54 0 -57 -35q1 -11 12 -36q5 -13 9.5 -23t6.5 -17l101 -250l90 236q18 52 18 72q0 26 -16 38q-17 12 -51 15v29h221v-29q-45 -8 -65 -28q-21 -20 -37 -56l-181 -435q-68 -170 -196 -170q-86 0 -86 62
q0 42 49 49q15 -2 26 -10q5 -5 11 -10t11 -10q12 -12 21 -17q9 -6 23 -6q26 0 47 24q30 37 64 125z" />
    <glyph glyph-name="z" unicode="z" horiz-adv-x="480" 
d="M449 484l12 -23l-332 -418q58 -13 96 -14q152 5 224 139l28 -10l-55 -158h-399l-17 29l324 418q-33 10 -74 10q-68 0 -123 -33q-56 -33 -78 -96l-32 10l57 146h369z" />
    <glyph glyph-name="braceleft" unicode="{" horiz-adv-x="279" 
d="M92 295q52 -12 69 -47q15 -35 15 -103v-82q0 -26 -0.5 -43.5t-1.5 -27.5q1 -20 3 -36t4 -27q4 -23 21 -39q17 -17 46 -27h-13q-73 0 -97 32q-27 35 -29 103q1 6 1.5 13.5t0.5 17.5q0 84 -0.5 129.5t-1.5 54.5q-6 62 -74 80q32 7 53 25q18 16 21 51v63q1 17 1.5 46.5
t0.5 74.5q0 81 20 124q19 42 99 42h18q-44 -13 -58 -44q-7 -16 -11 -38.5t-5 -52.5q1 -10 1.5 -26t0.5 -38q0 -23 -0.5 -39.5t-1.5 -27.5q0 -78 -13 -111q-14 -37 -69 -47z" />
    <glyph glyph-name="bar" unicode="|" 
d="M264 717h78v-717h-78v717z" />
    <glyph glyph-name="braceright" unicode="}" horiz-adv-x="279" 
d="M191 291q-48 10 -65 44q-18 35 -19 95q1 14 1.5 37.5t0.5 55.5q0 18 -0.5 31.5t-1.5 21.5q0 71 -12 101q-12 31 -60 44h13q72 0 98 -32q26 -35 26 -103v-31q0 -84 0.5 -129.5t1.5 -54.5q6 -58 74 -78q-67 -15 -74 -76q0 -8 -0.5 -16.5t-1.5 -18.5q1 -18 1.5 -55.5
t0.5 -95.5q-1 -32 -3 -55t-5 -38q-6 -30 -36 -53q-25 -19 -76 -19h-9.5t-9.5 1q56 17 64 50q4 17 6.5 53.5t3.5 93.5q0 29 -0.5 49t-1.5 32q1 67 18 102q17 34 66 44z" />
    <glyph glyph-name="asciitilde" unicode="~" 
d="M53 221q64 117 140 117q25 0 54 -9q27 -8 61 -24q17 -8 31.5 -14t27.5 -11q24 -8 49 -10q65 11 98 82l43 -47q-17 -26 -32.5 -46t-30.5 -34q-29 -27 -78 -32q-28 1 -100 30q-26 11 -45.5 19t-33.5 13q-26 9 -45 9h-4q-47 -6 -94 -90l-41 47v0z" />
    <glyph glyph-name="nonbreakingspace" unicode="&#xa0;" horiz-adv-x="0" 
d="M0 412h8l252 -260v248h64v-400h-4l-252 256v-248h-68v404zM460 20q-6 -6 -15 -9.5t-21 -6.5q-27 0 -43 4t-25 16q-8 8 -12 19.5t-4 22.5q0 13 4 22q6 12 17 21t23 15q-6 9 -13 18.5t-7 21.5q0 21 15 32.5t33 11.5t33 -11.5t15 -32.5q0 -15 -10 -26.5t-22 -17.5l40 -52
q3 9 8 16t8 16l24 -8q-6 -24 -24 -48l28 -36h-40zM400 104q-11 -8 -19 -17t-8 -20q0 -9 7 -19q3 -9 11.5 -12.5t20.5 -3.5q9 0 16 3t16 9zM412 140q6 3 13 9t7 15q0 15 -12 20q-6 0 -13.5 -3t-10.5 -9q0 -11 5.5 -19t10.5 -13zM352 616h68v-328h168v-60h-236v388z" />
    <glyph glyph-name="exclamdown" unicode="&#xa1;" horiz-adv-x="676" 
d="M510 750q8 0 14.5 -3t6.5 -20v-106q0 -11 -6 -11q-5 0 -7 11q-6 51 -32.5 81t-71.5 30h-170v-308q37 17 79 24.5t83 7.5q33 0 62.5 -5t52.5 -15q24 -11 42 -30.5t29.5 -44t17 -53t5.5 -58.5q0 -55 -17 -108.5t-49 -90.5q-25 -30 -62.5 -56t-74.5 -46t-67 -32.5t-40 -16.5
q-19 0 -19 11q0 6 9 9q60 23 100.5 55t65 69.5t35 79t10.5 83.5q0 31 -5 61t-13 58q-13 43 -46.5 71.5t-87.5 28.5q-49 0 -110 -26v-382h51v-18h-199v18h49v714q-32 0 -52 -10.5t-32 -27t-18 -36.5t-8 -39q-1 -2 -3.5 -5t-4.5 -3q-5 0 -6 10v111q0 14 9.5 16t18.5 2h461z
" />
    <glyph glyph-name="cent" unicode="&#xa2;" horiz-adv-x="648" 
d="M396 758q12 -2 29 -5t35 -10t36 -17.5t33 -26.5l53 53q6 7 12 7q5 0 7.5 -4t2.5 -9v-187q0 -5 -2 -8.5t-4 -3.5q-5 3 -7 9t-5.5 16t-10 24.5t-18.5 34.5q-31 51 -78 80t-120 29q-42 -3 -80 -17.5t-64 -46.5q-18 -21 -28.5 -44.5t-16 -49t-7 -52.5t-1.5 -54v-95
q10 4 25.5 10.5t33.5 12.5t37 10t35 4q22 -1 38 -7t29 -13t23.5 -14t22.5 -9q13 -3 24 -3q20 0 31 6t19 6q3 0 6 -3t3 -7q0 -6 -9.5 -11.5t-24.5 -10.5q-14 -5 -30 -10t-27 -8q-16 -4 -33 -4q-24 0 -43 7t-36.5 15.5t-36 15.5t-42.5 7q-9 -2 -24 -5.5t-21 -6.5
q1 -11 1 -23.5v-24.5v-38q0 -38 2.5 -76.5t14.5 -73t35.5 -63.5t65.5 -48q15 -8 33.5 -10.5t35.5 -5.5q60 0 103 22t72 54q23 27 37.5 52.5t23.5 46t13.5 34t7.5 16.5q4 2 5 2q7 0 7 -12v-215q-2 -8 -7 -8q-2 0 -4 1t-3 1l-62 67q-22 -20 -40 -34.5t-44 -26.5
q-18 -10 -41.5 -14.5t-49.5 -4.5q-45 0 -90.5 12.5t-80.5 33.5q-62 45 -98 105t-52 139q-9 46 -9 95q0 64 16 125.5t48 115.5q29 47 63 77t69.5 46.5t70 22.5t64.5 6h14t13 -1z" />
    <glyph glyph-name="sterling" unicode="&#xa3;" horiz-adv-x="623" 
d="M443 750q21 0 24.5 -5t3.5 -13v-111q0 -3 -1.5 -6.5t-4.5 -3.5q-5 0 -6.5 4.5t-1.5 9.5q-8 54 -32.5 80.5t-72.5 26.5h-108v-310q29 13 65 21.5t72 8.5q31 0 60.5 -7.5t52 -25t36 -46t13.5 -70.5v-285h51v-18h-201v18h50v326q0 25 -7 42t-19 27t-27.5 14t-32.5 4
q-32 0 -64.5 -10.5t-48.5 -20.5v-382h51v-18h-199v18h49v714q-32 0 -52.5 -11t-32.5 -27.5t-18 -36.5t-7 -38q-2 -6 -4 -7t-4 -1q-5 0 -5.5 4.5t-0.5 7.5v109q0 12 6.5 15t15.5 3h400z" />
    <glyph glyph-name="currency" unicode="&#xa4;" horiz-adv-x="1049" 
d="M279 732h-50v-322h298v322h-50v16h199v-16h-51v-322h131q33 0 74.5 -7.5t77.5 -30t61 -63t25 -106.5q-2 -55 -23 -93.5t-54 -63t-74.5 -35.5t-86.5 -11h-279v16h50v379h-298v-379h50v-16h-201v16h51v716h-51v16h201v-16zM625 395v-379h135q39 0 63.5 17t39 44t20 61
t6.5 69q0 28 -3.5 60.5t-16.5 61t-38.5 47.5t-68.5 19h-137z" />
    <glyph glyph-name="yen" unicode="&#xa5;" horiz-adv-x="693" 
d="M236 475v-14h-47v-203h118q7 0 24.5 -3t37 -11.5t37.5 -23.5t26 -38q9 -24 9 -50q0 -20 -4.5 -38.5t-14.5 -34.5q-22 -29 -54 -44t-69 -15h-236v16h42v445h-42v14h173zM662 461h-45v-445h45v-16h-174v16h45v445h-45v14h174v-14zM350 150q-1 28 -8 46.5t-18 29t-24 14.5
t-25 4l-86 2v-230h92q26 3 40 11.5t20.5 20.5t7.5 27t1 32v43zM395 658q8 -7 8 -16q0 -10 -8 -20t-16 -15q-11 -6 -24 -16t-26.5 -21t-25.5 -21.5l-20 -17.5q-4 -4 -10 -4q-7 0 -7 8q0 5 5 10q23 25 42 48t33 50q5 6 13.5 13t19.5 7q10 0 16 -5z" />
    <glyph glyph-name="brokenbar" unicode="&#xa6;" horiz-adv-x="1074" 
d="M691 750v-18h-50v-322h127q58 0 105 -11.5t80 -36t50.5 -63.5t17.5 -94q0 -59 -18 -98t-45 -63t-58.5 -34t-59.5 -10h-348v16h49v716h-258v-544q0 -92 -38 -138.5t-104 -49.5q-5 -1 -10.5 -1h-10.5q-26 0 -48 8t-37 30q-7 10 -9.5 19.5t-2.5 18.5q1 19 10 33.5t14 20.5
q7 6 23 12t34 6q14 0 26.5 -4.5t23.5 -15.5q11 -13 16 -26t5 -24q0 -20 -8 -34t-13 -16v-4q28 3 49 19t34.5 39.5t20 51.5t6.5 56v543h-51v18h478zM881 268q0 53 -25.5 87t-85.5 34h-129v-373h127q21 0 41.5 9t36 25t25.5 38t10 49v131z" />
    <glyph glyph-name="section" unicode="&#xa7;" horiz-adv-x="520" 
d="M137 402q-43 22 -65 58q-24 39 -25 79q2 66 54 112q51 47 145 48h11q39 0 86 -12q53 -15 88 -46q36 -32 36 -80q0 -24 -10 -37q-11 -15 -27 -18h-6q-17 0 -34 11q-17 13 -19 42q1 4 1.5 11t0.5 18q0 66 -111 66q-51 0 -88 -23q-36 -22 -39 -70q2 -8 2 -16q3 -31 28 -47
q26 -18 71 -31q23 -8 50.5 -16t59.5 -17q60 -18 95 -55q36 -38 36 -94q0 -43 -18 -86q-18 -44 -43 -70q32 -15 50 -50q18 -36 18 -79q0 -72 -56 -125t-174 -53q-78 0 -146 38q-66 37 -77 109q1 22 16 40q13 16 33 16q24 0 37 -19q12 -20 12 -43v-20q4 -32 6 -37
q24 -39 127 -39q55 0 96 30q40 30 40 83q0 74 -107 92q-35 5 -65.5 11t-55.5 14q-50 13 -90 50q-39 35 -41 95q3 97 98 160zM172 393q-52 -56 -55 -112q2 -36 26 -59q23 -25 60 -34q10 -3 22.5 -6t28.5 -7t28.5 -7.5t23.5 -5.5t29.5 -6.5t45.5 -10.5q21 49 21 91
q0 53 -35 82q-33 27 -87 44q-26 8 -53 15.5t-55 15.5z" />
    <glyph glyph-name="dieresis" unicode="&#xa8;" horiz-adv-x="588" 
d="M502 750q3 0 8.5 -1t11 -3.5t9.5 -7.5t4 -13v-166q0 -14 -4 -18q-3 0 -5.5 1t-4.5 7q-2 26 -10.5 58t-24.5 59.5t-40 46.5t-55 19h-180v-328h113q16 0 27.5 16.5t19 37t11 38.5t3.5 22q0 6 3 12t7 6q5 0 5 -18v-247q0 -10 -7 -10q-8 0 -10 10q-3 18 -4.5 38t-6.5 37.5
t-16 29t-32 11.5h-113v-369h201q40 0 63 20.5t35.5 50.5t18 64t10.5 62q3 18 10 18q5 0 8.5 -7t3.5 -19v-176q0 -12 -3.5 -18t-8 -9t-9.5 -3.5t-7 -0.5h-472v18h48v714h-48v18h441zM211 934q23 0 39 -17t16 -40q0 -22 -16 -38.5t-39 -16.5t-40 16.5t-17 38.5q0 23 17 40
t40 17zM406 934q23 0 39 -16.5t16 -38.5q0 -23 -16 -40t-39 -17t-39.5 17t-16.5 40q0 22 16.5 38.5t39.5 16.5z" />
    <glyph glyph-name="copyright" unicode="&#xa9;" horiz-adv-x="740" 
d="M533 234q-15 -40 -59 -69q-43 -28 -97 -28h-8q-78 0 -128 56q-53 59 -57 143q3 104 64 158q53 49 141 49q21 0 40 -2t36 -6q17 -5 31.5 -9t26.5 -8v-106h-25q0 56 -30 82q-32 24 -73 24q-68 0 -105 -48q-38 -50 -42 -122q3 -70 41 -125q37 -54 104 -59q6 2 13 2
q74 7 106 76zM375 652q-60 0 -117 -23q-53 -23 -98 -68q-45 -47 -67 -102q-23 -58 -23 -119q0 -84 41 -155q40 -72 111 -114q70 -42 153 -42q59 0 118 24q55 23 100 68q42 44 66 100q23 57 23 119t-23 120q-25 59 -67 101q-44 44 -99 68q-58 23 -118 23zM375 699
q93 0 176 -48q82 -50 129 -132q47 -83 47 -179q0 -95 -47 -178q-48 -83 -129 -131q-82 -49 -176 -49q-95 0 -175 49q-82 48 -129 131q-48 82 -48 178t47 179q46 82 130 132q82 48 175 48z" />
    <glyph glyph-name="ordfeminine" unicode="&#xaa;" horiz-adv-x="508" 
d="M234 461h-45v-80h172v-18h-172v-88q26 17 61 26t74 9q18 0 36 -1.5t35 -5.5q49 -12 69 -53t20 -96q-1 -28 -9.5 -55.5t-20.5 -52t-25.5 -44t-24.5 -31.5q-9 -10 -24.5 -25t-40 -31.5t-58 -33.5t-78.5 -31q-14 0 -14 10q0 4 6 7q32 11 70 31.5t67 52.5q32 35 49 86.5
t17 112.5q0 37 -14.5 71.5t-45.5 51.5q-14 9 -28.5 12.5t-28.5 3.5q-29 0 -54 -10.5t-38 -20.5v-242h45v-16h-171v16h44v347h-82v18h82v80h-44v14h171v-14z" />
    <glyph glyph-name="guillemotleft" unicode="&#xab;" horiz-adv-x="359" 
d="M271 90l-97 176l107 172l32 -18l-63 -154l51 -159zM148 90l-97 176l109 172l29 -18l-62 -154l53 -159z" />
    <glyph glyph-name="logicalnot" unicode="&#xac;" 
d="M482 322h-431v76h504v-269h-73v193z" />
    <glyph glyph-name="softhyphen" unicode="&#xad;" horiz-adv-x="445" 
d="M252 16h45v207q0 23 -17 33t-43 10q-31 0 -67 -14v-236h45v-16h-176v16h47v345h-82v20h82v80h-47v14h176v-14h-45v-80h172v-20h-172v-95q25 11 51.5 14t51.5 4h17.5t16.5 -1q15 -2 28.5 -9.5t24 -17.5t17 -21.5t6.5 -23.5v-195h43v-16h-174v16z" />
    <glyph glyph-name="registered" unicode="&#xae;" horiz-adv-x="740" 
d="M375 699q93 0 176 -48q82 -50 129 -132q47 -83 47 -179q0 -95 -47 -178q-48 -83 -129 -131q-82 -49 -176 -49q-95 0 -175 49q-82 48 -129 131q-48 82 -48 178t47 179q46 82 130 132q82 48 175 48zM375 652q-60 0 -117 -23q-53 -23 -98 -68q-45 -47 -67 -102
q-23 -58 -23 -119q0 -84 41 -155q40 -72 111 -114q70 -42 153 -42q127 0 216 90q89 91 89 219q0 85 -40 156q-40 70 -112 115q-71 43 -153 43zM311 355q67 0 106 16q40 16 40 72q0 44 -29 67q-29 21 -74 21q-25 0 -33 -7q-10 -7 -10 -28v-141zM258 488q0 30 -4 37
q-8 8 -43 8v16h158q60 0 104 -24q39 -23 39 -72v-8q-3 -41 -35 -67q-31 -27 -73 -30v-2q31 -5 51 -36q10 -17 21 -38t22 -47q17 -36 26 -44t33 -9v-16h-49q-24 0 -38 14q-14 13 -27 45q-7 16 -13.5 30t-11.5 26q-2 5 -4 11t-4 13q-4 10 -11 21q-6 8 -18 16q-12 6 -31 6h-39
v-135q0 -19 13 -25t35 -6v-16h-148v16q10 1 24 3q13 1 17 5q6 6 6 27v281z" />
    <glyph glyph-name="macron" unicode="&#xaf;" horiz-adv-x="721" 
d="M275 750v-18h-50v-714h312v714h-51v18h202v-18h-51v-714h51v-18h-286v-137h-43v137h-285v18h51v714h-51v18h201z" />
    <glyph glyph-name="degree" unicode="&#xb0;" horiz-adv-x="742" 
d="M236 461h-45v-201h180v201h-41v16h170v-16h-45v-201h94q45 0 75 -11t48 -29.5t25.5 -41.5t7.5 -47q0 -25 -8.5 -48.5t-26.5 -42t-46 -29.5t-67 -11h-227v16h41v230h-180v-230h45v-16h-173v16h44v445h-44v16h173v-16zM613 143q0 12 -2.5 30t-10.5 34t-23.5 27.5
t-41.5 11.5h-80v-230h80q15 0 29 3t25 12.5t17.5 27t6.5 45.5v39z" />
    <glyph glyph-name="plusminus" unicode="&#xb1;" 
d="M266 514h76v-145h213v-76h-213v-145h-76v145h-215v76h215v145zM51 76h504v-76h-504v76z" />
    <glyph glyph-name="twosuperior" unicode="&#xb2;" horiz-adv-x="529" 
d="M236 475v-14h-45v-469h188v469h-45v14h172v-14h-45v-469h45v-13h-217v-86h-27v86h-198v13h43v469h-43v14h172z" />
    <glyph glyph-name="threesuperior" unicode="&#xb3;" horiz-adv-x="537" 
d="M248 490q54 0 96.5 -20t71.5 -54t44.5 -79t15.5 -95q0 -14 -1.5 -28t-3.5 -28q-7 -40 -22.5 -74t-40 -60t-59 -43t-79.5 -21q-55 0 -99 18.5t-75 51.5t-48 78t-17 98q0 52 18 108q13 41 36.5 69t51.5 45t57 25t54 9zM246 473q-41 -2 -64.5 -21t-35 -42t-14.5 -42.5
t-3 -23.5v-219q0 -6 4 -25.5t18 -40.5t42 -38t75 -17q40 3 62.5 20.5t34 39t14 41t2.5 26.5v203q0 21 -7 45.5t-22.5 45.5t-41.5 34.5t-64 13.5zM375 654q9 -8 9 -16q-1 -11 -9 -20t-16 -14q-11 -6 -24 -16.5t-26.5 -21.5t-25 -21.5t-19.5 -17.5q-4 -4 -10 -4q-8 2 -8 8
q0 4 6 10q22 25 41.5 48.5t32.5 49.5q5 6 13.5 13t19.5 7q10 0 16 -5z" />
    <glyph glyph-name="acute" unicode="&#xb4;" horiz-adv-x="535" 
d="M219 461h-45l148 -357l121 357h-45v14h112v-14h-45l-168 -486q-4 -12 -10.5 -28.5t-16 -34t-22 -34.5t-27.5 -30q-34 -29 -65 -38t-62 -9q-10 0 -20 3t-18.5 10.5t-13.5 19.5t-5 29q3 25 19.5 38t37.5 13q24 0 38.5 -17.5t14.5 -39.5q0 -18 -12 -33q38 7 64.5 31
t43.5 51.5t26.5 51.5t13.5 32l-201 471h-45v14h182v-14zM395 654q8 -7 8 -16q0 -10 -8 -19.5t-16 -14.5q-11 -6 -24 -16.5t-26.5 -21.5t-25.5 -21.5l-20 -17.5q-4 -4 -9 -4q-8 2 -8 8q0 5 5 10q23 25 42 48.5t33 49.5q5 6 13.5 13t19.5 7q10 0 16 -5z" />
    <glyph glyph-name="mu" unicode="&#xb5;" horiz-adv-x="535" 
d="M219 461h-45l148 -357l121 357h-45v14h112v-14h-45l-168 -486q-4 -12 -10.5 -28.5t-16 -34t-22 -34.5t-27.5 -30q-34 -29 -65 -38t-62 -9q-10 0 -20 3t-18.5 10.5t-13.5 19.5t-5 29q3 25 19.5 38t37.5 13q24 0 38.5 -17.5t14.5 -39.5q0 -18 -12 -33q38 7 64.5 31
t43.5 51.5t26.5 51.5t13.5 32l-201 471h-45v14h182v-14zM217 615q17 0 26 -10t9 -21q0 -19 -23 -25q0 -2 7.5 -6t20 -8.5t28 -8.5t31.5 -5q14 0 29.5 4.5t28.5 10.5q15 6 30 15q-11 2 -16 9.5t-5 16.5q0 11 6.5 19.5t20.5 8.5q18 0 24.5 -9.5t6.5 -17.5q0 -19 -14 -32.5
t-34 -21.5t-41.5 -12t-35.5 -4q-15 1 -36.5 5t-41 12t-33.5 20.5t-14 30.5q3 26 26 29z" />
    <glyph glyph-name="paragraph" unicode="&#xb6;" 
d="M270 652h-4q-80 0 -121 -41q-43 -43 -47 -103q-1 -5 -1 -9v-9q0 -69 50 -113q55 -50 123 -51v326zM490 137q0 -56 20 -82t68 -26v-29h-410v29q60 0 82 20q20 20 20 68v182h-16q-97 0 -154 33q-33 23 -59 65q-25 40 -27 95q2 14 3 23t1 14q12 83 86 118q75 35 167 35h307
v-30q-61 -6 -74 -25q-14 -19 -14 -80v-410zM350 652v-623h60v623h-60z" />
    <glyph glyph-name="periodcentered" unicode="&#xb7;" horiz-adv-x="453" 
d="M414 484q2 2 4 2q3 0 4.5 -3.5t1.5 -7.5v-120q0 -1 -0.5 -3t-3.5 -2q-5 0 -5.5 3.5t-0.5 5.5q-39 112 -144 112q-7 0 -13.5 -0.5t-14.5 -1.5q-50 -9 -75.5 -47t-25.5 -92v-84q44 18 66 21t33 3q15 -1 25.5 -6t19 -10.5t17.5 -10t21 -4.5q13 0 36 9q5 0 8 -3.5t3 -6.5
t-3 -4q-19 -6 -37.5 -14t-42.5 -8q-8 0 -16.5 1.5t-18.5 3.5q-8 1 -14.5 5.5t-14.5 9t-17.5 8t-22.5 3.5q-8 0 -18.5 -2t-23.5 -7v-88q0 -18 6 -41.5t18.5 -45t33.5 -37.5t51 -20q42 0 71 14.5t48.5 36t32 46t22.5 44.5q1 4 4 4q4 0 4 -8v-137q0 -1 -0.5 -3.5t-2.5 -2.5
q-3 0 -5 2l-41 41q-22 -27 -52.5 -40t-64.5 -13q-30 0 -61 10t-58.5 29t-49 46t-33.5 62q-17 53 -17 105q0 42 10.5 81.5t32 72t54.5 56.5t77 34q12 3 24.5 4t24.5 1q35 0 64.5 -9.5t46.5 -24.5zM395 658q8 -7 8 -16q0 -10 -8 -20t-16 -15q-11 -6 -24 -16t-26.5 -21
t-25.5 -21.5l-20 -17.5q-4 -4 -10 -4q-7 0 -7 8q0 5 5 10q23 25 42 48t33 50q5 6 13.5 13t19.5 7q10 0 16 -5z" />
    <glyph glyph-name="cedilla" unicode="&#xb8;" horiz-adv-x="471" 
d="M244 490q22 0 55.5 -5t65 -25.5t54 -62.5t22.5 -116h-285v-152q0 -42 17.5 -74.5t56.5 -42.5q20 -5 36 -5q29 0 52 9t32 15q32 20 50.5 51t29.5 70q1 10 7 10q2 0 6 -4q3 -3 3.5 -7t0.5 -6q-2 -12 -10.5 -35.5t-26.5 -48.5q-13 -23 -36.5 -42t-64.5 -27q-20 -4 -45 -4
q-40 0 -73.5 13t-59.5 36q-24 21 -38 44t-22.5 46t-12 43t-5.5 35q-3 18 -3 38q0 39 11 81t34.5 78t60.5 60.5t88 27.5zM246 473q-38 -3 -64 -27t-26 -69v-78h194v84q0 42 -28 66t-76 24zM154 643q24 0 39.5 -17t15.5 -40q0 -22 -15.5 -38.5t-39.5 -16.5q-23 0 -39.5 16.5
t-16.5 38.5q0 23 16.5 40t39.5 17zM350 643q22 0 38 -16.5t16 -38.5q0 -23 -16 -40t-38 -17q-24 0 -40.5 17t-16.5 40q0 22 16.5 38.5t40.5 16.5z" />
    <glyph glyph-name="onesuperior" unicode="&#xb9;" horiz-adv-x="322" 
d="M254 658q22 0 38.5 -16t16.5 -38q0 -24 -16.5 -40.5t-38.5 -16.5q-23 0 -40 16.5t-17 40.5q0 22 17 38t40 16zM59 658q23 0 38.5 -16.5t15.5 -39.5t-15.5 -39t-38.5 -16q-24 0 -40.5 16t-16.5 39t16.5 39.5t40.5 16.5zM201 18h45v-18h-172v18h45v439h-45v18h127v-457z
" />
    <glyph glyph-name="ordmasculine" unicode="&#xba;" horiz-adv-x="473" 
d="M260 461q-37 0 -54 -25t-18 -71q0 -11 1 -29t6 -35.5t16.5 -30t32.5 -12.5h80v203h-64zM451 475v-14h-45v-445h45v-16h-172v16h45v228h-51q-22 0 -39.5 -15.5t-26.5 -46.5q-5 -18 -6.5 -35.5t-1.5 -34.5v-20q0 -26 -4.5 -47t-24.5 -35q-23 -15 -57 -15q-21 0 -41 6.5
t-35 19.5q-2 2 -2 4l2 1q1 0 2 1q2 0 6 -4q9 -3 18 -3q14 0 24.5 6t16.5 15q3 5 4 12t1 15q0 11 -1 22t-1 19q2 26 8 53t30 49q9 8 21 14t24.5 10.5t23 7t16.5 3.5q-44 3 -76 20t-47 48q-7 17 -7 40q0 14 3 28t10 28q10 18 26.5 30t36.5 20t41.5 11.5t42.5 3.5h191zM428 658
q8 -7 8 -16q0 -11 -8 -20.5t-16 -14.5q-11 -6 -24 -16t-26.5 -21t-25.5 -21.5l-20 -17.5q-4 -4 -9 -4q-8 0 -8 8q0 4 6 10q22 25 41 48t33 50q5 6 13.5 13t19.5 7q10 0 16 -5z" />
    <glyph glyph-name="guillemotright" unicode="&#xbb;" horiz-adv-x="359" 
d="M92 438l97 -176l-109 -172l-29 15l62 157l-52 158zM215 438l98 -176l-110 -172l-29 15l62 157l-52 158z" />
    <glyph glyph-name="onequarter" unicode="&#xbc;" horiz-adv-x="684" 
d="M602 18h50v-18h-220v18h50l-70 214h-224l-73 -214h51v-18h-121v18h49l242 732h19zM299 570l-108 -318h215zM471 926q8 -7 8 -17t-8 -19.5t-16 -14.5q-11 -6 -24 -16t-26.5 -21.5t-25.5 -22t-20 -16.5q-4 -4 -9 -4q-8 0 -8 8q0 4 6 10q22 25 41 48t33 49q5 7 14 14t20 7
q7 0 15 -5z" />
    <glyph glyph-name="onehalf" unicode="&#xbd;" horiz-adv-x="604" 
d="M549 750q10 0 16 -3t8 -6q3 -4 3 -9v-207q0 -3 -2.5 -6t-5.5 -3t-5 5q-3 42 -11.5 80t-25.5 67.5t-43.5 46.5t-64.5 17h-217v-714h51v-18h-201v18h51v714h-51v18h498zM449 926q9 -8 9 -17q-1 -10 -8.5 -19.5t-15.5 -14.5q-11 -6 -24.5 -16t-27 -21.5t-25 -22t-19.5 -16.5
q-4 -4 -10 -4q-7 0 -7 8q0 5 5 10q22 25 41.5 48t32.5 49q5 7 14 14t20 7q7 0 15 -5z" />
    <glyph glyph-name="threequarters" unicode="&#xbe;" horiz-adv-x="588" 
d="M502 750q3 0 8.5 -1t11 -3.5t9.5 -7.5t4 -13v-166q0 -14 -4 -18q-3 0 -5.5 1t-4.5 7q-2 26 -10.5 58t-24.5 59.5t-40 46.5t-55 19h-180v-328h113q16 0 27.5 16.5t19 37t11 38.5t3.5 22q0 6 3 12t7 6q5 0 5 -18v-247q0 -10 -7 -10q-8 0 -10 10q-3 18 -4.5 38t-6.5 37.5
t-16 29t-32 11.5h-113v-369h201q40 0 63 20.5t35.5 50.5t18 64t10.5 62q3 18 10 18q5 0 8.5 -7t3.5 -19v-176q0 -12 -3.5 -18t-8 -9t-9.5 -3.5t-7 -0.5h-472v18h48v714h-48v18h441zM449 926q9 -8 9 -17q-1 -10 -8.5 -19.5t-15.5 -14.5q-11 -6 -24.5 -16t-27 -21.5t-25 -22
t-19.5 -16.5q-4 -4 -10 -4q-7 0 -7 8q0 5 5 10q22 25 41.5 48t32.5 49q5 7 14 14t20 7q7 0 15 -5z" />
    <glyph glyph-name="questiondown" unicode="&#xbf;" horiz-adv-x="480" 
d="M244 490q22 0 55.5 -5t65 -25.5t54 -62.5t22.5 -116h-285v-152q0 -42 17.5 -74.5t56.5 -42.5q20 -5 36 -5q29 0 52 9t32 15q32 20 50.5 51t29.5 70q1 10 7 10q2 0 6 -4q3 -3 3.5 -7t0.5 -6q-2 -12 -10.5 -35.5t-26.5 -48.5q-13 -23 -36.5 -42t-64.5 -27q-20 -4 -45 -4
q-40 0 -73.5 13t-59.5 36q-24 21 -38 44t-22.5 46t-12 43t-5.5 35q-3 18 -3 38q0 39 11 81t34.5 78t60.5 60.5t88 27.5zM246 473q-38 -3 -64 -27t-26 -69v-78h194v84q0 42 -28 66t-76 24zM361 670q9 -8 9 -17q-1 -10 -8.5 -19.5t-15.5 -14.5q-11 -6 -24.5 -16t-27 -21
t-25 -21.5t-19.5 -17.5q-4 -4 -10 -4q-7 0 -7 8q0 5 5 10q23 25 42 48t33 49q4 7 13 14t20 7q9 0 15 -5z" />
    <glyph glyph-name="Agrave" unicode="&#xc0;" horiz-adv-x="684" 
d="M602 18h50v-18h-220v18h50l-70 214h-224l-73 -214h51v-18h-121v18h49l242 732h19zM299 570l-108 -318h215z" />
    <glyph glyph-name="Aacute" unicode="&#xc1;" horiz-adv-x="629" 
d="M521 602q-8 28 -16.5 51.5t-21 41t-32 27.5t-49.5 10h-181v-318h113q16 0 42 -1t55 -7.5t58.5 -19t53 -35t39 -57.5t16.5 -85q0 -60 -24 -100t-60 -64.5t-79 -34.5t-80 -10h-285v18h49v714h-49v18h451v-148zM221 395v-377h134q38 0 63.5 15t40.5 40.5t21 60.5t6 75
q0 34 -5 67t-19.5 59.5t-40 43t-66.5 16.5h-134z" />
    <glyph glyph-name="Acircumflex" unicode="&#xc2;" horiz-adv-x="627" 
d="M568 600q1 -6 1.5 -12.5t0.5 -12.5q0 -66 -44.5 -110.5t-132.5 -58.5q87 -9 141.5 -58.5t54.5 -139.5v-11t-1 -11q-4 -45 -18 -76.5t-34 -52t-42.5 -32t-42.5 -17t-34 -7t-17 -1.5h-339v18h48v714h-48v18h271q38 0 78 -6t73.5 -22.5t56.5 -46t28 -75.5zM459 633
q0 18 -5 35.5t-18.5 31.5t-37.5 23t-62 9h-125v-318h137q30 1 55 12q20 9 37.5 29t18.5 57v121zM471 271q0 35 -13 59t-32.5 38.5t-43 20.5t-44.5 6h-127v-377h131q26 0 49.5 6t41 19.5t28 36t10.5 55.5v136z" />
    <glyph glyph-name="Atilde" unicode="&#xc3;" horiz-adv-x="604" 
d="M549 750q10 0 16 -3t8 -6q3 -4 3 -9v-207q0 -3 -2.5 -6t-5.5 -3t-5 5q-3 42 -11.5 80t-25.5 67.5t-43.5 46.5t-64.5 17h-217v-714h51v-18h-201v18h51v714h-51v18h498v0z" />
    <glyph glyph-name="Adieresis" unicode="&#xc4;" horiz-adv-x="734" 
d="M672 732h-55v-714h84v-202q-8 30 -19.5 62.5t-29.5 59.5t-43.5 44.5t-61.5 17.5h-344q-42 0 -69.5 -20t-45.5 -49t-29 -60.5t-18 -54.5v202h84q40 37 62 81.5t33 89t13.5 84.5t2.5 69l-2 310q0 20 1 40t1 40h-54v18h490v-18zM254 732v-378q0 -51 -4.5 -98.5t-16.5 -89.5
t-32.5 -79.5t-52.5 -68.5h368v714h-262z" />
    <glyph glyph-name="Aring" unicode="&#xc5;" horiz-adv-x="588" 
d="M502 750q3 0 8.5 -1t11 -3.5t9.5 -7.5t4 -13v-166q0 -14 -4 -18q-3 0 -5.5 1t-4.5 7q-2 26 -10.5 58t-24.5 59.5t-40 46.5t-55 19h-180v-328h113q16 0 27.5 16.5t19 37t11 38.5t3.5 22q0 6 3 12t7 6q5 0 5 -18v-247q0 -10 -7 -10q-8 0 -10 10q-3 18 -4.5 38t-6.5 37.5
t-16 29t-32 11.5h-113v-369h201q40 0 63 20.5t35.5 50.5t18 64t10.5 62q3 18 10 18q5 0 8.5 -7t3.5 -19v-176q0 -12 -3.5 -18t-8 -9t-9.5 -3.5t-7 -0.5h-472v18h48v714h-48v18h441v0z" />
    <glyph glyph-name="AE" unicode="&#xc6;" horiz-adv-x="1156" 
d="M666 732h-49v-714h49v-18h-199v18h51v714h-51v18h199v-18zM119 764q88 -3 135 -59l254 -312l-281 -375h50v-18h-226v18h51l324 437l-186 233q-15 19 -33.5 30.5t-35 17t-30.5 7t-20 1.5q19 -4 29 -19.5t10 -32.5t-9 -31.5t-28 -19.5q-12 -4 -25 -4q-26 0 -42.5 17.5
t-16.5 48.5q2 18 11.5 30t21.5 19t25 9.5t22 2.5zM1016 768q9 0 22 -2.5t25 -9.5t21.5 -19t11.5 -30q0 -32 -17 -50t-43 -18q-13 0 -24 4q-20 6 -29 20.5t-9 31.5q0 18 10 33t28 18q-5 0 -18 -1t-30 -6.5t-35.5 -16.5t-33.5 -31l-186 -234l324 -437h49v-18h-225v18h51
l-281 375l254 314q25 29 57.5 43t77.5 16z" />
    <glyph glyph-name="Ccedilla" unicode="&#xc7;" horiz-adv-x="615" 
d="M477 684q20 -25 28.5 -49.5t8.5 -48.5q0 -36 -17 -67.5t-43 -56t-57.5 -39t-60.5 -15.5q32 -7 65.5 -22.5t61 -39t45 -56t17.5 -73.5q0 -50 -29 -108q-15 -31 -40 -54.5t-56 -39.5t-65.5 -24.5t-70.5 -8.5q-58 0 -111.5 22t-88.5 70q-11 14 -15.5 29.5t-4.5 31.5
q0 31 19 54.5t62 23.5q19 -1 31.5 -9.5t19.5 -20.5t9.5 -26t2.5 -26q-5 -23 -23 -40.5t-49 -17.5q-11 0 -24 3q0 -2 9 -11t24.5 -19.5t37 -21t46.5 -14.5q13 -2 24.5 -3.5t22.5 -1.5q36 0 65.5 15t55.5 50q5 7 11.5 22t12 34.5t9 42.5t3.5 47q0 33 -9 63q-10 32 -27 54.5
t-38.5 36t-46 19.5t-48.5 6h-35q-20 0 -20 13q0 5 5 8.5t15 3.5h35q18 0 41.5 5t45.5 18t40 35t25 57q2 11 3 23t1 24q-1 25 -4.5 48t-6.5 40q-11 32 -37 50t-77 20q-25 0 -52.5 -4.5t-54 -21.5t-50 -50.5t-40.5 -91.5q0 -3 -3 -13t-9 -10q-2 0 -3.5 3.5t-1.5 8.5v183
q0 8 5.5 9t7.5 1q14 -8 24 -16.5t29 -24.5q20 20 59.5 32t87.5 12q21 0 42 -3q19 -2 41.5 -7t44 -13t41.5 -20.5t34 -29.5z" />
    <glyph glyph-name="Egrave" unicode="&#xc8;" horiz-adv-x="701" 
d="M268 732h-55v-623l301 586v37h-57v16h211l-2 -16h-55v-714h55l2 -18h-211v18h57v623l-301 -582v-41h57v-18h-211v18h54v714h-54v16h209v-16z" />
    <glyph glyph-name="Eacute" unicode="&#xc9;" horiz-adv-x="701" 
d="M268 732h-55v-623l301 586v37h-57v16h211l-2 -16h-55v-714h55l2 -18h-211v18h57v623l-301 -582v-41h57v-18h-211v18h54v714h-54v16h209v-16zM268 883q17 0 25.5 -10t8.5 -21q0 -8 -5 -15.5t-18 -10.5q0 -2 7.5 -6t20 -8t28 -8t32.5 -5q14 0 29.5 4.5t28.5 9.5q15 6 30 15
q-11 2 -16 10t-5 17q0 11 6.5 19.5t20.5 8.5q17 0 24 -10t7 -18q0 -19 -14.5 -32t-34.5 -21.5t-41 -12.5t-35 -4q-15 1 -36.5 5t-41 12t-33.5 21t-14 31q2 11 8.5 19t17.5 10z" />
    <glyph glyph-name="Ecircumflex" unicode="&#xca;" horiz-adv-x="723" 
d="M590 766q30 0 52 -10.5t32 -30.5q6 -12 6 -27q0 -20 -11 -37t-30 -22q-10 -2 -15 -2q-25 0 -42.5 16.5t-17.5 39.5q0 16 10 30q8 8 16 13q4 3 8 4q-9 0 -23.5 -1.5t-31.5 -7.5t-35.5 -19t-36.5 -36l-164 -209l312 -449h51v-18h-225v18h51l-271 386l234 295q31 40 65 52.5
t66 14.5zM266 732h-49v-714h49v-18h-202v18h51v714h-51v18h202v-18z" />
    <glyph glyph-name="Edieresis" unicode="&#xcb;" horiz-adv-x="723" 
d="M689 750v-18h-48v-714h48v-18h-199v18h49v714h-256v-546q0 -11 -3 -35t-14 -51t-32.5 -52.5t-57.5 -39.5q-8 -3 -23 -6.5t-33 -3.5q-23 0 -46 8.5t-37 34.5q-8 16 -8 35q0 16 7 30.5t18.5 24.5t26 16t29.5 6q19 0 35 -10q13 -7 25 -26t12 -42q0 -26 -18 -48v-1q0 -1 2 -1
q34 12 50 32t24 35q12 20 19 47.5t7 53.5v539h-51v18h474z" />
    <glyph glyph-name="Igrave" unicode="&#xcc;" horiz-adv-x="828" 
d="M426 186l201 564h162v-18h-51v-714h51v-18h-207v18h55v701l-250 -719h-14l-248 711v-693h51v-18h-121v18h50v714h-50v18h170z" />
    <glyph glyph-name="Iacute" unicode="&#xcd;" horiz-adv-x="697" 
d="M279 732h-50v-324h287v324h-51v18h199v-18h-49v-714h49v-18h-199v18h51v373h-287v-373h50v-18h-199v18h51v714h-51v18h199v-18z" />
    <glyph glyph-name="Icircumflex" unicode="&#xce;" horiz-adv-x="789" 
d="M381 764q89 0 156 -33t112 -87.5t67.5 -124t22.5 -141.5v-16t-1 -16q-5 -83 -31.5 -150.5t-72 -115t-109 -73.5t-142.5 -26q-6 0 -12 0.5t-12 0.5q-60 4 -116.5 32.5t-100.5 79t-70.5 120t-26.5 155.5q1 70 20 139.5t59.5 125t104 91t152.5 39.5zM383 744q-43 -2 -80 -20
t-64.5 -49t-43 -71.5t-15.5 -85.5v-315q0 -27 7 -51.5t17.5 -44.5t22.5 -34.5t21 -21.5q26 -22 65 -35t81 -13q40 0 78 12.5t67 41.5q26 25 45.5 67.5t19.5 90.5v303q0 37 -13 77t-40 73t-68.5 54.5t-99.5 21.5z" />
    <glyph glyph-name="Idieresis" unicode="&#xcf;" horiz-adv-x="697" 
d="M664 732h-51v-714h51v-18h-201v18h51v714h-289v-714h48v-18h-199v18h49v714h-49v18h590v-18z" />
    <glyph glyph-name="Eth" unicode="&#xd0;" horiz-adv-x="557" 
d="M400 424q11 26 16.5 57.5t5.5 63.5q0 55 -14 105q-9 31 -35 56.5t-68 25.5h-98v-371h100q3 0 14.5 1.5t25.5 7.5t28.5 18.5t24.5 35.5zM332 750q43 0 79.5 -16t63 -44t41.5 -64.5t15 -78.5q-1 -62 -23 -101.5t-52 -62t-61.5 -31t-50.5 -8.5h-137v-326h49v-18h-199v18h50
v714h-50v18h275z" />
    <glyph glyph-name="Ntilde" unicode="&#xd1;" horiz-adv-x="650" 
d="M586 754q6 6 11 6t7.5 -6t2.5 -14v-185q0 -3 -2.5 -6.5t-4.5 -3.5q-5 0 -6 8q-4 12 -7 21.5t-7.5 20t-12 23.5t-20.5 32q-32 47 -79.5 69t-97.5 22q-44 0 -84 -16.5t-69 -46.5q-26 -29 -39.5 -74t-13.5 -92v-276q0 -17 2.5 -34.5t5.5 -31.5q7 -41 25 -72.5t44 -53.5
t59 -33t69 -11q26 0 53 6q25 6 48.5 20t47 40t45.5 65t44 94q3 7 7 7q3 0 5 -3.5t2 -7.5v-217q0 -12 -4 -12q-3 0 -13 10l-61 59q-43 -46 -87 -63t-89 -17q-22 0 -41 3q-52 7 -92 26.5t-69.5 46.5t-50 59t-34 63t-21 59.5t-10.5 48.5q-4 20 -6 40t-2 40q0 37 6 75t17.5 74
t27.5 68t37 59q46 60 109.5 87.5t129.5 27.5q48 0 92 -13.5t79 -39.5z" />
    <glyph glyph-name="Ograve" unicode="&#xd2;" horiz-adv-x="697" 
d="M617 750q17 0 21.5 -6.5t4.5 -11.5l19 -195q0 -12 -11 -12q-8 0 -12 12l-2.5 15t-8 36.5t-15.5 46.5t-25 46.5t-35.5 36t-48.5 14.5h-104v-714h49v-18h-199v18h51v714h-108q-47 0 -82 -46t-48 -149q-1 -10 -12 -10q-10 0 -10 10l14 195q2 8 9 13t16 5h537z" />
    <glyph glyph-name="Oacute" unicode="&#xd3;" horiz-adv-x="629" 
d="M264 732h-51l170 -390l146 390h-50v18h121v-18h-49l-237 -628q-7 -21 -18 -41.5t-26 -37t-35 -27t-44 -10.5q-32 2 -53 18.5t-21 43.5q0 13 6 28q5 15 21 23.5t34 8.5q11 0 22 -3t19 -11q10 -9 14 -20t4 -22q0 -16 -7 -29t-19 -15q2 0 13 3.5t27.5 20.5t36.5 54t40 103
l-234 541h-51v18h221v-18z" />
    <glyph glyph-name="Ocircumflex" unicode="&#xd4;" horiz-adv-x="980" 
d="M709 561q-20 38 -54.5 54t-72.5 16q-23 0 -44.5 -5t-41.5 -13v-474q46 -17 88 -17q58 0 99 37.5t51 121.5q3 32 3.5 66.5t0.5 66.5q0 42 -6.5 79t-22.5 68zM395 613q-26 9 -48 13t-42 4q-43 0 -71.5 -17t-46.5 -43t-26 -57t-9 -58v-50.5t1 -62t3 -59.5t6 -43
q9 -36 25 -59t35.5 -36.5t40.5 -18.5t42 -5q16 0 31.5 2.5t27.5 5.5t20 6t11 4v474zM545 750v-18h-49v-101q17 7 44 12.5t60 5.5q26 0 53.5 -5t54.5 -17.5t51 -33.5t44 -54q24 -40 35.5 -82t11.5 -84q0 -54 -17.5 -103t-50.5 -87t-79 -60.5t-103 -22.5q-50 0 -104 19v-101
h49v-18h-195v18h45v103q-22 -8 -49 -13.5t-57 -5.5q-28 0 -56.5 6.5t-56.5 20.5q-34 18 -59.5 44.5t-42.5 58.5t-25.5 68.5t-8.5 73.5q0 52 16.5 101.5t48.5 88.5q72 86 183 86q48 0 107 -17v99h-45v18h195z" />
    <glyph glyph-name="Otilde" unicode="&#xd5;" horiz-adv-x="732" 
d="M287 732h-51l166 -283l178 283h-51v18h125v-18h-50l-192 -304l238 -410h49v-18h-219v18h49l-185 318l-205 -318h49v-18h-122v18h49l217 341l-217 373h-49v18h221v-18z" />
    <glyph glyph-name="Odieresis" unicode="&#xd6;" horiz-adv-x="730" 
d="M270 732h-49v-714h289v714h-49v18h199v-18h-51v-714h88v-217q-14 45 -29.5 81.5t-35 62.5t-45.5 40.5t-60 14.5h-457v18h51v714h-51v18h200v-18z" />
    <glyph glyph-name="multiply" unicode="&#xd7;" horiz-adv-x="570" 
d="M248 732h-49v-345q0 -29 21.5 -49t62.5 -20q23 0 51 7.5t61 24.5v382h-49v18h199v-18h-51v-714h51v-18h-199v18h49v308q-29 -16 -65 -25.5t-73 -9.5q-31 0 -60 7.5t-51 24t-35 42.5t-13 63v304h-49v18h199v-18z" />
    <glyph glyph-name="Oslash" unicode="&#xd8;" horiz-adv-x="1084" 
d="M303 732h-49v-714h266v714h-51v18h199v-18h-49v-714h266v714h-51v18h199v-18h-51v-714h51v-18h-929v18h50v714h-50v18h199v-18z" />
    <glyph glyph-name="Ugrave" unicode="&#xd9;" horiz-adv-x="1094" 
d="M281 732h-54v-714h265v714h-56v18h210v-18h-54v-714h265v714h-54v18h209v-18h-55v-714h86v-202q-15 42 -29 75t-32.5 56.5t-43.5 37t-61 15.5h-805v18h55v714h-55v18h209v-18z" />
    <glyph glyph-name="Uacute" unicode="&#xda;" horiz-adv-x="750" 
d="M39 748h342v-16h-65v-318h141q37 0 62 -4.5t51 -14.5q35 -12 59.5 -31t39.5 -43t22 -51.5t7 -55.5q0 -24 -4 -47t-12 -44q-10 -24 -28.5 -46t-44 -39.5t-57 -27.5t-68.5 -10h-318v18h51v714h-74q-31 0 -50.5 -9.5t-31.5 -25.5t-16.5 -36.5t-5.5 -41.5v129zM316 395v-377
h127q48 0 75 21t40.5 53t16.5 69.5t3 70.5q-2 33 -8.5 62t-20.5 51t-38 35t-60 15h-135z" />
    <glyph glyph-name="Ucircumflex" unicode="&#xdb;" horiz-adv-x="877" 
d="M836 732h-49v-714h49v-18h-199v18h51v714h-51v18h199v-18zM229 18h134q27 0 50.5 9t41 30t27.5 56t10 88v22q-2 39 -8 71t-21.5 54.5t-42 34.5t-68.5 12h-123v-377zM279 732h-50v-318h140q56 -3 95 -16.5t64.5 -33t39.5 -42t20.5 -43t8 -36.5t1.5 -22q0 -67 -22.5 -110
t-58.5 -67.5t-81.5 -34t-91.5 -9.5h-266v18h51v714h-51v18h201v-18z" />
    <glyph glyph-name="Udieresis" unicode="&#xdc;" horiz-adv-x="625" 
d="M260 732h-49v-318h154q40 0 79.5 -9.5t71 -32.5t52 -61t22.5 -96q0 -50 -13 -85.5t-33.5 -59.5t-46 -37.5t-50 -21t-45.5 -9.5t-33 -2h-308v18h48v714h-48v18h199v-18zM211 395v-377h135q34 1 61 17q23 13 42.5 41.5t21.5 81.5v94q0 37 -11.5 64t-30.5 44t-44 25.5
t-51 9.5h-123z" />
    <glyph glyph-name="Yacute" unicode="&#xdd;" horiz-adv-x="682" 
d="M279 756q7 1 15 1.5t16 0.5q29 0 63 -6.5t69 -24t68.5 -47t61.5 -75.5q32 -54 48 -115t16 -124q0 -48 -9 -96q-15 -78 -51.5 -138t-98.5 -105q-35 -22 -82 -34.5t-92 -12.5q-25 0 -47.5 4t-40.5 14q-26 14 -44 28t-38 35l-65 -67q-1 0 -2.5 -1t-3.5 -1q-4 0 -5 8v215
q0 8 9 8q4 -3 8.5 -16t13.5 -33.5t24 -45.5t38 -52q29 -34 71.5 -55t102.5 -21q17 2 35.5 5t33.5 11q34 15 56.5 37.5t36 49t19 56.5t5.5 62v140q-5 3 -19.5 7.5t-23.5 6.5q-24 0 -42 -7t-35 -16t-35 -16t-42 -7q-14 0 -36 5q-11 2 -27.5 7.5t-30.5 10.5t-24 10t-10 11
q0 3 3 6q3 4 7 4q8 0 19 -6.5t31 -6.5q11 0 23 3t22.5 10t23.5 14t29 12.5t38 6.5q16 0 34.5 -4t36.5 -9t33 -11.5t25 -10.5v133q0 44 -10.5 85.5t-38.5 76.5q-26 31 -65 45.5t-82 16.5q-73 0 -120 -29.5t-77 -77.5q-12 -20 -18.5 -34.5t-10 -25t-6 -17t-6.5 -9.5
q-2 0 -4 3.5t-2 8.5v187q0 5 3 9t8 4q6 0 13 -7l51 -51q15 15 33 25.5t36.5 17.5t35.5 10t29 4z" />
    <glyph glyph-name="Thorn" unicode="&#xde;" horiz-adv-x="1094" 
d="M670 764q100 0 170 -37t114 -96t63.5 -132t19.5 -145q-3 -85 -31 -154t-75 -117.5t-109 -74.5t-133 -26q-75 1 -130 24.5t-93.5 59t-62.5 78.5t-37.5 83t-18.5 73t-5 48h-104v-330h51v-18h-201v18h51v714h-51v18h201v-18h-51v-347h106q2 65 22 131t59.5 120t100 89
t144.5 39zM674 746q-93 -6 -145 -66.5t-52 -161.5v-297q0 -106 59.5 -162.5t168.5 -56.5q31 1 65 14t62.5 40t47 69.5t18.5 103.5v298q0 43 -14 83t-40.5 70.5t-64 48.5t-84.5 18h-10.5t-10.5 -1z" />
    <glyph glyph-name="germandbls" unicode="&#xdf;" horiz-adv-x="670" 
d="M379 732q-28 0 -57 -12t-47 -44q-10 -18 -16 -50.5t-6 -67.5q0 -28 4 -54.5t14 -48.5q12 -25 38 -40t52 -15h127v332h-109zM639 750v-18h-49v-714h49v-18h-201v18h50v365h-86q-42 0 -70.5 -20.5t-48.5 -77.5q-8 -23 -10.5 -55.5t-2.5 -75.5q0 -26 -1 -47t-5.5 -37.5
t-14.5 -29.5t-28 -24q-16 -11 -35 -15.5t-39 -4.5q-31 0 -60.5 9.5t-49.5 25.5q-4 1 -4 6q0 6 5 6q1 0 5 -2q21 -11 39 -11q15 0 25.5 6t18 13.5t11.5 15.5t6 11q3 10 4 29t2 42.5t2.5 48.5t6.5 48q7 33 25 58.5t41.5 43t49 26.5t46.5 9q-20 3 -46 10.5t-51 21.5t-46 36.5
t-31 54.5q-8 29 -8 56q0 31 9 59t27 49q19 25 43 41t51 25t55 12.5t56 3.5h260z" />
    <glyph glyph-name="agrave" unicode="&#xe0;" horiz-adv-x="508" 
d="M291 260q-18 0 -36.5 -1t-37 -5.5t-35.5 -13.5t-32 -25q-14 -17 -19.5 -40.5t-5.5 -47.5q0 -33 8 -59q9 -29 27.5 -40t35.5 -11q9 0 17 3q13 3 27 11.5t25 18t18.5 18.5t7.5 14v178zM211 484q30 0 59.5 -2.5t52.5 -13.5t37.5 -33t14.5 -60v-309q0 -21 10.5 -33.5
t28.5 -12.5q9 1 22 8t31 36q5 11 10 11q2 0 2 -11q-11 -24 -26 -39t-31.5 -24t-32.5 -12t-29 -3q-11 0 -18 1t-12 3q-17 8 -27 28t-10 37q-20 -27 -56 -48.5t-80 -21.5q-23 0 -44 7q-33 11 -52 45.5t-19 75.5q0 18 4 35.5t13 33.5q16 25 44 44q24 17 64 31t103 14h21v116
q0 29 -8.5 46t-22.5 26q-13 7 -36 7q-28 0 -57.5 -9t-39.5 -23q0 -2 2 -4q5 -2 16.5 -7.5t16.5 -26.5q0 -20 -7.5 -35t-27.5 -19q-32 0 -47 14.5t-15 34.5q0 15 7 29q10 20 27.5 32.5t37.5 19.5t39.5 9.5t34.5 2.5z" />
    <glyph glyph-name="aacute" unicode="&#xe1;" horiz-adv-x="582" 
d="M529 744q0 -5 -1.5 -20t-9 -32.5t-23.5 -34t-44 -22.5q-40 -10 -88.5 -11t-95 -6.5t-86.5 -22t-64 -56.5q-16 -27 -25 -55.5t-13.5 -55.5t-5.5 -51.5t-1 -42.5q10 39 30.5 68t47.5 48t59 28.5t65 9.5q31 0 62 -8.5t58 -25t49 -41.5t36 -58q12 -29 17.5 -58t5.5 -57
q0 -51 -17 -96.5t-47.5 -80t-74 -55t-96.5 -20.5q-8 0 -16.5 0.5t-16.5 1.5q-41 5 -71 23t-50.5 42.5t-32.5 53t-18.5 55.5t-8.5 49t-2 33v98q0 16 2 42t6 56t10 59.5t15 53.5q34 100 133 133q34 10 79.5 12.5t90 4.5t80 9t49.5 26q1 2 3 4q4 4 6 4q3 0 4 -4zM260 473
q-30 -2 -51 -16t-34 -34t-19 -42.5t-6 -42.5v-180q0 -28 5.5 -55.5t19 -50t37.5 -36.5t61 -14q37 1 62.5 16.5t41.5 39t22.5 52t6.5 54.5v170q0 24 -6 48.5t-22.5 44.5t-45 33t-72.5 13z" />
    <glyph glyph-name="acircumflex" unicode="&#xe2;" horiz-adv-x="438" 
d="M266 475q12 0 34 -3.5t43.5 -14t37.5 -30t17 -52.5q0 -32 -10 -54t-26 -36t-36 -21.5t-39 -11.5q63 -9 97 -38.5t34 -86.5q0 -38 -13 -62.5t-32.5 -38.5t-41.5 -20t-40 -6h-252v16h45v443h-45v16h227zM252 260q38 6 52 23t14 51v27q0 54 -16.5 76t-53.5 22h-82v-199h86z
M166 246v-230h84q29 0 52.5 18.5t23.5 47.5v55q0 54 -20 81.5t-68 27.5h-72z" />
    <glyph glyph-name="atilde" unicode="&#xe3;" horiz-adv-x="439" 
d="M402 475q18 0 18 -14v-131v-4t-2 -4q-2 -3 -4 -3q-4 2 -4 7q-2 22 -7.5 46t-17 43.5t-28 32.5t-39.5 13h-134v-445h45v-16h-174v16h45v445h-45v14h347v0z" />
    <glyph glyph-name="adieresis" unicode="&#xe4;" horiz-adv-x="494" 
d="M457 461h-45v-445h59v-127q-2 10 -6 28.5t-11.5 37t-19.5 32t-30 13.5h-279q-21 0 -34 -11.5t-20.5 -27.5t-11.5 -33t-8 -28v116h56q1 0 10.5 10t20.5 31.5t20.5 56t9.5 83.5v264h-45v14h334v-14zM182 459v-271q0 -16 -2 -38.5t-7.5 -46.5t-16 -47t-27.5 -40h197v445
h-144v-2z" />
    <glyph glyph-name="aring" unicode="&#xe5;" horiz-adv-x="471" 
d="M244 490q22 0 55.5 -5t65 -25.5t54 -62.5t22.5 -116h-285v-152q0 -42 17.5 -74.5t56.5 -42.5q20 -5 36 -5q29 0 52 9t32 15q32 20 50.5 51t29.5 70q1 10 7 10q2 0 6 -4q3 -3 3.5 -7t0.5 -6q-2 -12 -10.5 -35.5t-26.5 -48.5q-13 -23 -36.5 -42t-64.5 -27q-20 -4 -45 -4
q-40 0 -73.5 13t-59.5 36q-24 21 -38 44t-22.5 46t-12 43t-5.5 35q-3 18 -3 38q0 39 11 81t34.5 78t60.5 60.5t88 27.5zM246 473q-38 -3 -64 -27t-26 -69v-78h194v84q0 42 -28 66t-76 24z" />
    <glyph glyph-name="ae" unicode="&#xe6;" horiz-adv-x="824" 
d="M625 459q11 12 25.5 17.5t29.5 5.5q27 0 45 -13q8 -7 12 -16t4 -18q0 -13 -10 -23t-36 -10q-13 2 -19.5 10.5t-6.5 19.5q0 9 5 17.5t15 13.5v2q-14 0 -29 -2.5t-23 -13.5l-123 -140l213 -293h58v-16h-222v16h66l-178 250zM184 16h66v-16h-223v16h59l213 293l-123 140
q-9 11 -24 13.5t-29 2.5v-2q9 -5 13.5 -13t4.5 -17q0 -11 -6.5 -20t-19.5 -11q-26 0 -35.5 9.5t-9.5 22.5q0 21 16 35q19 13 46 13q15 0 29 -5.5t25 -17.5l175 -193zM502 461h-53v-445h53v-16h-193v16h54v445h-54v14h193v-14z" />
    <glyph glyph-name="ccedilla" unicode="&#xe7;" horiz-adv-x="420" 
d="M352 416q11 -25 11 -47q0 -40 -30.5 -71t-86.5 -40q13 -3 34 -10.5t40.5 -22t33.5 -36.5t14 -53q0 -21 -9 -48q-9 -26 -25 -45t-37 -32t-46 -19.5t-50 -6.5q-27 0 -53.5 7.5t-49.5 23.5q-20 13 -28.5 30t-10.5 30q0 14 2.5 24t10.5 21q5 5 14.5 10.5t20.5 5.5q9 0 20 -6
q14 -8 20 -18.5t6 -21.5q0 -18 -14 -32t-41 -14h-2q7 -16 34.5 -30t60.5 -14q32 0 60 19t38 68q5 23 5 45q0 20 -5 39.5t-16 34.5q-38 47 -111 47q-5 0 -8 3t-3 6q0 7 11 7q45 0 68.5 8.5t35.5 20.5q11 9 17 28.5t6 42.5q0 17 -3 34t-11 32q-7 16 -25 26t-46 10
q-14 0 -32 -3q-24 -5 -41 -17t-28.5 -27.5t-18 -33t-8.5 -32.5q-2 -7 -6 -7t-4 7v118q0 9 3 9t9 -6l27 -25q17 16 45 24t59 8q45 0 85.5 -17.5t57.5 -53.5z" />
    <glyph glyph-name="egrave" unicode="&#xe8;" horiz-adv-x="557" 
d="M234 461h-46v-387l212 354v33h-43v14h174v-14h-47v-445h47v-16h-174v16h43v373l-212 -356v-17h46v-16h-173v16h44v445h-44v14h173v-14z" />
    <glyph glyph-name="eacute" unicode="&#xe9;" horiz-adv-x="557" 
d="M234 461h-46v-387l212 354v33h-43v14h174v-14h-47v-445h47v-16h-174v16h43v373l-212 -356v-17h46v-16h-173v16h44v445h-44v14h173v-14zM193 611q17 0 26 -9.5t9 -20.5q0 -9 -5 -16t-18 -10q0 -2 7.5 -6t20 -8.5t28 -8.5t32.5 -5q14 0 29.5 4.5t28.5 10.5q15 6 30 15
q-11 2 -16 9.5t-5 16.5q0 11 6.5 19.5t20.5 8.5q17 0 24 -9.5t7 -17.5q0 -19 -14.5 -32.5t-34.5 -21.5t-41 -12t-35 -4q-15 1 -36.5 5t-41 12t-33.5 20.5t-14 30.5q3 26 25 29z" />
    <glyph glyph-name="ecircumflex" unicode="&#xea;" horiz-adv-x="535" 
d="M482 451q1 -3 1.5 -5.5t0.5 -5.5q0 -15 -11.5 -27t-27.5 -12q-8 0 -15 3q-11 5 -15.5 13t-4.5 16q0 18 16 28v2q-21 0 -40 -9t-29 -20l-105 -129l213 -289h45v-16h-190v16h45l-172 244l149 179q8 11 27.5 23.5t44.5 14.5q8 0 18.5 -0.5t20.5 -3t18 -7.5t11 -15zM227 461
h-45v-445h45v-16h-174v16h47v445h-47v14h174v-14z" />
    <glyph glyph-name="edieresis" unicode="&#xeb;" horiz-adv-x="529" 
d="M506 461h-45v-445h45v-16h-174v16h45v445h-164v-352q0 -15 -4 -32t-12 -32t-21 -26.5t-31 -16.5q-8 -2 -18.5 -3.5t-21.5 -1.5q-19 0 -35.5 8t-20.5 34q0 21 9 33.5t24 17.5q4 2 12 2q17 0 32.5 -13t15.5 -34q0 -13 -7 -27v-2q23 4 35 20t18 33q7 20 9 44v348h-45v14h354
v-14z" />
    <glyph glyph-name="igrave" unicode="&#xec;" horiz-adv-x="602" 
d="M314 139l124 338h136v-16h-45v-445h45v-16h-174v16h43l2 425l-162 -441h-10l-158 451v-435h43v-16h-103v16h45v445h-45v16h138z" />
    <glyph glyph-name="iacute" unicode="&#xed;" horiz-adv-x="504" 
d="M229 461h-43v-201h164v201h-45v14h175v-14h-44v-445h44v-16h-175v16h45v228h-164v-228h43v-16h-172v16h45v445h-45v14h172v-14z" />
    <glyph glyph-name="icircumflex" unicode="&#xee;" horiz-adv-x="537" 
d="M248 490q54 0 96.5 -20t71.5 -54t44.5 -79t15.5 -95q0 -14 -1.5 -28t-3.5 -28q-7 -40 -22.5 -74t-40 -60t-59 -43t-79.5 -21q-55 0 -99 18.5t-75 51.5t-48 78t-17 98q0 52 18 108q13 41 36.5 69t51.5 45t57 25t54 9zM246 473q-41 -2 -64.5 -21t-35 -42t-14.5 -42.5
t-3 -23.5v-219q0 -6 4 -25.5t18 -40.5t42 -38t75 -17q40 3 62.5 20.5t34 39t14 41t2.5 26.5v203q0 21 -7 45.5t-22.5 45.5t-41.5 34.5t-64 13.5z" />
    <glyph glyph-name="idieresis" unicode="&#xef;" horiz-adv-x="525" 
d="M502 461h-45v-445h45v-16h-174v16h45v445h-178v-445h45v-16h-174v16h45v445h-45v14h436v-14z" />
    <glyph glyph-name="eth" unicode="&#xf0;" horiz-adv-x="512" 
d="M188 0v-182h44v-15h-171v15h44v643h-44v14h234q48 0 84 -19t60 -51.5t36.5 -75.5t12.5 -91q-1 -53 -16.5 -96.5t-41 -75t-59.5 -49t-72 -17.5h-111zM400 334q0 26 -9 49t-24.5 40.5t-37.5 27.5t-48 10h-93v-445h95q28 0 50 11t37 29t22.5 42.5t7.5 51.5v184z" />
    <glyph glyph-name="ntilde" unicode="&#xf1;" horiz-adv-x="455" 
d="M406 482q4 4 7 4q5 0 5 -9v-122q0 -6 -5 -6q-3 0 -5 6q-18 55 -53.5 85t-83.5 30q-33 0 -66 -13q-23 -8 -37 -25.5t-21.5 -37t-9.5 -38.5t-2 -30v-181q0 -21 5 -41t14.5 -38t23 -31.5t31.5 -20.5q28 -12 56 -12q44 0 81 29q14 12 32 36t38 70q3 6 6 6q4 0 4 -4v-139
q0 -1 -0.5 -3t-2.5 -2q-4 0 -9 5l-37 39q-27 -28 -54 -41t-60 -13q-26 0 -54 7q-42 10 -73.5 34t-53 57.5t-32 73t-10.5 80.5q0 48 14.5 93t43.5 80q36 43 79 59t83 16q42 0 73 -11.5t42 -22.5z" />
    <glyph glyph-name="ograve" unicode="&#xf2;" horiz-adv-x="471" 
d="M420 475q11 0 13.5 -4t4.5 -12l11 -127q0 -8 -7 -8t-8 8q-5 17 -9.5 39t-13.5 42t-23.5 34t-37.5 14h-61v-445h45v-16h-174v16h45v445h-60q-22 0 -37.5 -14.5t-25 -34.5t-14.5 -42.5t-7 -37.5q-1 -8 -8 -8q-4 0 -6 8l12 129q0 5 4.5 9.5t10.5 4.5h346z" />
    <glyph glyph-name="oacute" unicode="&#xf3;" horiz-adv-x="535" 
d="M219 461h-45l148 -357l121 357h-45v14h112v-14h-45l-168 -486q-4 -12 -10.5 -28.5t-16 -34t-22 -34.5t-27.5 -30q-34 -29 -65 -38t-62 -9q-10 0 -20 3t-18.5 10.5t-13.5 19.5t-5 29q3 25 19.5 38t37.5 13q24 0 38.5 -17.5t14.5 -39.5q0 -18 -12 -33q38 7 64.5 31
t43.5 51.5t26.5 51.5t13.5 32l-201 471h-45v14h182v-14z" />
    <glyph glyph-name="ocircumflex" unicode="&#xf4;" horiz-adv-x="699" 
d="M303 445q-33 12 -61 12q-54 0 -83.5 -41t-29.5 -113v-139q0 -30 6.5 -57.5t20 -48.5t34.5 -33.5t50 -12.5q28 0 63 13v420zM430 600h-45v-137q39 16 76 16q32 0 60 -11.5t50.5 -32t39.5 -47.5t26 -58q14 -48 14 -95q0 -51 -15 -98t-44 -82q-29 -37 -60.5 -51t-63.5 -14
q-22 0 -43 5t-40 11v-172h45v-16h-174v16h47v172q-41 -16 -78 -16q-43 0 -76.5 19t-57.5 51t-37.5 73.5t-16.5 85.5q0 49 12 95.5t36 83t59 58.5t82 22q35 0 77 -15v137h-47v15h174v-15zM385 25q35 -13 63 -13q29 0 50 12.5t34.5 33.5t20 48.5t6.5 57.5v139q0 71 -29 112
t-83 41q-29 0 -62 -13v-418z" />
    <glyph glyph-name="otilde" unicode="&#xf5;" horiz-adv-x="520" 
d="M232 461h-46l95 -160l106 160h-43v14h105v-14h-47l-113 -174l162 -271h45v-16h-180v16h45l-119 199l-133 -199h45v-16h-103v16h45l138 211l-138 234h-45v14h181v-14z" />
    <glyph glyph-name="odieresis" unicode="&#xf6;" horiz-adv-x="529" 
d="M225 461h-45v-445h181v445h-47v14h174v-14h-45v-445h63v-125q-2 13 -7 31.5t-15 36t-25.5 29.5t-36.5 12h-371v16h47v445h-47v14h174v-14z" />
    <glyph glyph-name="divide" unicode="&#xf7;" horiz-adv-x="447" 
d="M215 461h-45v-213q0 -22 15.5 -31.5t38.5 -9.5q33 0 73 16v238h-45v14h174v-14h-43v-445h45v-16h-176v16h45v193q-20 -8 -51 -13.5t-60 -5.5h-12.5t-11.5 1q-31 4 -53.5 25t-22.5 44v201h-47v14h176v-14z" />
    <glyph glyph-name="oslash" unicode="&#xf8;" horiz-adv-x="775" 
d="M240 461h-45v-445h166v445h-47v14h176v-14h-45v-445h164v445h-43v14h174v-14h-45v-445h45v-16h-674v16h45v445h-45v14h174v-14z" />
    <glyph glyph-name="ugrave" unicode="&#xf9;" horiz-adv-x="783" 
d="M240 461h-45v-445h160v445h-44v14h171v-14h-44v-445h164v445h-47v14h174v-14h-45v-445h62v-125q0 13 -7.5 31.5t-20.5 36t-30.5 29.5t-37.5 12h-584v16h45v445h-45v14h174v-14z" />
    <glyph glyph-name="uacute" unicode="&#xfa;" horiz-adv-x="568" 
d="M309 475v-14h-45v-201h84q42 0 78.5 -10t59.5 -39q14 -18 21 -39t7 -41q0 -41 -22 -74t-58 -43q-7 -2 -13.5 -4.5t-15 -4.5t-20.5 -3.5t-30 -1.5h-220v16h45v445h-82q-31 -5 -44 -21.5t-21 -50.5v86h276zM264 246v-230h84q32 2 52 19t22 51v57q-1 19 -4 37.5t-12 32.5
t-25 23t-41 10h-76z" />
    <glyph glyph-name="ucircumflex" unicode="&#xfb;" horiz-adv-x="693" 
d="M236 475v-14h-47v-203h118q7 0 24.5 -3t37 -11.5t37.5 -23.5t26 -38q9 -24 9 -50q0 -20 -4.5 -38.5t-14.5 -34.5q-22 -29 -54 -44t-69 -15h-236v16h42v445h-42v14h173zM662 461h-45v-445h45v-16h-174v16h45v445h-45v14h174v-14zM350 150q-1 28 -8 46.5t-18 29t-24 14.5
t-25 4l-86 2v-230h92q26 3 40 11.5t20.5 20.5t7.5 27t1 32v43z" />
    <glyph glyph-name="udieresis" unicode="&#xfc;" horiz-adv-x="463" 
d="M348 137q0 41 -10 62t-22 31q-13 11 -28 13.5t-17 2.5h-83v-230h85q9 0 22 2.5t24.5 10t20 21.5t8.5 36v51zM234 461h-46v-201h95q25 0 52.5 -6t50.5 -21.5t37.5 -42t14.5 -67.5q-2 -45 -23 -69t-46 -36q-29 -14 -66 -18h-244v16h45v445h-45v14h175v-14z" />
    <glyph glyph-name="yacute" unicode="&#xfd;" horiz-adv-x="465" 
d="M201 480q26 0 52.5 -4t51 -14.5t47 -30t41.5 -50.5q20 -35 30 -74.5t10 -80.5q0 -16 -1 -31.5t-4 -30.5q-11 -51 -34.5 -91t-63.5 -69q-23 -14 -53 -22t-59 -8q-34 0 -58 12q-17 8 -29 18t-26 21l-41 -43q-6 0 -7 4v141q0 5 1.5 5.5t4.5 0.5q2 -2 5 -11t9 -22t15.5 -29
t24.5 -34q20 -22 47.5 -36.5t65.5 -14.5q11 2 23 3.5t22 6.5q46 20 61.5 57t15.5 78v92q-3 2 -12.5 4.5t-15.5 4.5q-15 0 -27 -4.5t-23 -10.5t-23 -10.5t-28 -4.5q-11 0 -24 3q-8 2 -18 5.5t-19 6.5q-10 4 -16.5 7.5t-6.5 6.5q0 1 2 3t5 2q5 0 13 -4t20 -4q4 0 14 2
q8 2 15.5 7t16 9.5t19 8t24.5 3.5q22 0 47 -9t37 -15v88q0 28 -7 55.5t-27 50.5q-16 20 -40.5 29.5t-52.5 11.5q-48 0 -79 -19.5t-50 -51.5q-8 -13 -12 -22.5t-6 -16t-3.5 -10.5t-4.5 -5q-2 0 -4 1.5t-2 4.5v123q0 5 7 7q4 0 9 -3l33 -36q20 23 46 30.5t42 8.5z" />
    <glyph glyph-name="thorn" unicode="&#xfe;" horiz-adv-x="764" 
d="M449 492q92 0 150.5 -42t82.5 -116q8 -23 11 -47t3 -47q0 -46 -13 -89t-37.5 -77t-60 -56.5t-81.5 -27.5q-8 -1 -16 -1.5t-16 -0.5q-45 0 -80 13.5t-64 37.5q-40 35 -57.5 84.5t-20.5 101.5h-68v-209h45v-16h-174v16h45v445h-45v14h174v-14h-45v-213h68q1 18 7 56
t26.5 78t59.5 72t106 38zM471 479q-41 0 -66 -18.5t-38 -43t-17 -49.5t-4 -38v-187q0 -69 37 -105t94 -36q67 6 95 44t28 100v196q0 23 -7 47t-22.5 44t-40 32.5t-59.5 13.5z" />
    <glyph glyph-name="ydieresis" unicode="&#xff;" horiz-adv-x="473" 
d="M260 461q-37 0 -54 -25t-18 -71q0 -11 1 -29t6 -35.5t16.5 -30t32.5 -12.5h80v203h-64zM451 475v-14h-45v-445h45v-16h-172v16h45v228h-51q-22 0 -39.5 -15.5t-26.5 -46.5q-5 -18 -6.5 -35.5t-1.5 -34.5v-20q0 -26 -4.5 -47t-24.5 -35q-23 -15 -57 -15q-21 0 -41 6.5
t-35 19.5q-2 2 -2 4l2 1q1 0 2 1q2 0 6 -4q9 -3 18 -3q14 0 24.5 6t16.5 15q3 5 4 12t1 15q0 11 -1 22t-1 19q2 26 8 53t30 49q9 8 21 14t24.5 10.5t23 7t16.5 3.5q-44 3 -76 20t-47 48q-7 17 -7 40q0 14 3 28t10 28q10 18 26.5 30t36.5 20t41.5 11.5t42.5 3.5h191z" />
    <glyph glyph-name="OE" unicode="&#x152;" horiz-adv-x="670" 
d="M379 732q-28 0 -57 -12t-47 -44q-10 -18 -16 -50.5t-6 -67.5q0 -28 4 -54.5t14 -48.5q12 -25 38 -40t52 -15h127v332h-109zM639 750v-18h-49v-714h49v-18h-201v18h50v365h-86q-42 0 -70.5 -20.5t-48.5 -77.5q-8 -23 -10.5 -55.5t-2.5 -75.5q0 -26 -1 -47t-5.5 -37.5
t-14.5 -29.5t-28 -24q-16 -11 -35 -15.5t-39 -4.5q-31 0 -60.5 9.5t-49.5 25.5q-4 1 -4 6q0 6 5 6q1 0 5 -2q21 -11 39 -11q15 0 25.5 6t18 13.5t11.5 15.5t6 11q3 10 4 29t2 42.5t2.5 48.5t6.5 48q7 33 25 58.5t41.5 43t49 26.5t46.5 9q-20 3 -46 10.5t-51 21.5t-46 36.5
t-31 54.5q-8 29 -8 56q0 31 9 59t27 49q19 25 43 41t51 25t55 12.5t56 3.5h260zM539 930q9 -8 9 -17q-1 -10 -9 -19.5t-16 -14.5q-11 -6 -24 -16t-26.5 -21.5t-25 -22t-19.5 -16.5q-4 -4 -10 -4q-8 0 -8 7q0 5 6 10q22 26 41.5 49t32.5 49q5 7 14 14t20 7q7 0 15 -5z" />
    <glyph glyph-name="oe" unicode="&#x153;" horiz-adv-x="484" 
d="M402 475q18 0 18 -14v-131v-4t-2 -4q-2 -3 -4 -3q-4 2 -4 7q-2 22 -7.5 46t-17 43.5t-28 32.5t-39.5 13h-134v-445h45v-16h-174v16h45v445h-45v14h347zM328 670q9 -8 9 -17q-1 -10 -8.5 -19.5t-15.5 -14.5q-11 -6 -24.5 -16t-27 -21t-25 -21.5t-19.5 -17.5q-4 -4 -10 -4
q-8 0 -8 8q0 4 6 10q22 25 41.5 48t32.5 49q5 7 14 14t20 7q9 0 15 -5z" />
    <glyph glyph-name="Scaron" unicode="&#x160;" horiz-adv-x="629" 
d="M264 732h-51l170 -390l146 390h-50v18h121v-18h-49l-237 -628q-7 -21 -18 -41.5t-26 -37t-35 -27t-44 -10.5q-32 2 -53 18.5t-21 43.5q0 13 6 28q5 15 21 23.5t34 8.5q11 0 22 -3t19 -11q10 -9 14 -20t4 -22q0 -16 -7 -29t-19 -15q2 0 13 3.5t27.5 20.5t36.5 54t40 103
l-234 541h-51v18h221v-18zM266 887q17 0 25.5 -10t8.5 -21q0 -8 -5 -15.5t-18 -10.5q0 -2 7.5 -6t20 -8t28 -8t32.5 -5q14 0 29.5 4.5t28.5 9.5q15 6 30 15q-11 2 -16 10t-5 17q0 11 6.5 19.5t20.5 8.5q17 0 24 -10t7 -18q0 -19 -14.5 -32t-34.5 -21.5t-41 -12.5t-35 -4
q-15 1 -36.5 5t-41 12t-33.5 20.5t-14 30.5q2 12 8.5 20t17.5 10z" />
    <glyph glyph-name="scaron" unicode="&#x161;" horiz-adv-x="453" 
d="M414 484q2 2 4 2q3 0 4.5 -3.5t1.5 -7.5v-120q0 -1 -0.5 -3t-3.5 -2q-5 0 -5.5 3.5t-0.5 5.5q-39 112 -144 112q-7 0 -13.5 -0.5t-14.5 -1.5q-50 -9 -75.5 -47t-25.5 -92v-84q44 18 66 21t33 3q15 -1 25.5 -6t19 -10.5t17.5 -10t21 -4.5q13 0 36 9q5 0 8 -3.5t3 -6.5
t-3 -4q-19 -6 -37.5 -14t-42.5 -8q-8 0 -16.5 1.5t-18.5 3.5q-8 1 -14.5 5.5t-14.5 9t-17.5 8t-22.5 3.5q-8 0 -18.5 -2t-23.5 -7v-88q0 -18 6 -41.5t18.5 -45t33.5 -37.5t51 -20q42 0 71 14.5t48.5 36t32 46t22.5 44.5q1 4 4 4q4 0 4 -8v-137q0 -1 -0.5 -3.5t-2.5 -2.5
q-3 0 -5 2l-41 41q-22 -27 -52.5 -40t-64.5 -13q-30 0 -61 10t-58.5 29t-49 46t-33.5 62q-17 53 -17 105q0 42 10.5 81.5t32 72t54.5 56.5t77 34q12 3 24.5 4t24.5 1q35 0 64.5 -9.5t46.5 -24.5z" />
    <glyph glyph-name="Ydieresis" unicode="&#x178;" horiz-adv-x="719" 
d="M479 475v-14h-45v-201h91q75 0 117 -33t42 -104q-1 -37 -17.5 -60.5t-39.5 -37.5t-47.5 -19.5t-42.5 -5.5h-236v16h47v445h-164v-340q0 -57 -25 -88.5t-67 -34.5q-20 0 -37.5 4t-29.5 21q-5 7 -6 13t-1 12q0 12 5.5 21t9.5 13q5 4 14.5 7.5t21.5 3.5q20 0 33 -13
q12 -15 12 -32q0 -13 -5 -22t-7 -10v-2q18 2 31 13.5t21 26.5t12 32t4 31v344h-45v14h354zM592 154q0 18 -5 34.5t-15 29t-24.5 20.5t-33.5 8h-80v-230h84q13 0 26.5 4t24 12t17 20.5t6.5 29.5v72z" />
    <glyph glyph-name="florin" unicode="&#x192;" horiz-adv-x="629" 
d="M264 732h-51l170 -390l146 390h-50v18h121v-18h-49l-237 -628q-7 -21 -18 -41.5t-26 -37t-35 -27t-44 -10.5q-32 2 -53 18.5t-21 43.5q0 13 6 28q5 15 21 23.5t34 8.5q11 0 22 -3t19 -11q10 -9 14 -20t4 -22q0 -16 -7 -29t-19 -15q2 0 13 3.5t27.5 20.5t36.5 54t40 103
l-234 541h-51v18h221v-18zM488 926q9 -8 9 -17q-1 -10 -8.5 -19.5t-15.5 -14.5q-11 -6 -24.5 -16t-27 -21.5t-25 -22t-19.5 -16.5q-4 -4 -10 -4q-7 0 -7 8q0 5 5 10q23 25 42 48t32 49q5 7 14 14t20 7q7 0 15 -5z" />
    <glyph glyph-name="circumflex" unicode="&#x2c6;" horiz-adv-x="420" 
d="M352 592l-14 -24l-127 45l-131 -45l-12 24l143 94z" />
    <glyph glyph-name="tilde" unicode="&#x2dc;" horiz-adv-x="553" 
d="M291 260q-18 0 -36.5 -1t-37 -5.5t-35.5 -13.5t-32 -25q-14 -17 -19.5 -40.5t-5.5 -47.5q0 -33 8 -59q9 -29 27.5 -40t35.5 -11q9 0 17 3q13 3 27 11.5t25 18t18.5 18.5t7.5 14v178zM211 484q30 0 59.5 -2.5t52.5 -13.5t37.5 -33t14.5 -60v-309q0 -21 10.5 -33.5
t28.5 -12.5q9 1 22 8t31 36q5 11 10 11q2 0 2 -11q-11 -24 -26 -39t-31.5 -24t-32.5 -12t-29 -3q-11 0 -18 1t-12 3q-17 8 -27 28t-10 37q-20 -27 -56 -48.5t-80 -21.5q-23 0 -44 7q-33 11 -52 45.5t-19 75.5q0 18 4 35.5t13 33.5q16 25 44 44q24 17 64 31t103 14h21v116
q0 29 -8.5 46t-22.5 26q-13 7 -36 7q-28 0 -57.5 -9t-39.5 -23q0 -2 2 -4q5 -2 16.5 -7.5t16.5 -26.5q0 -20 -7.5 -35t-27.5 -19q-32 0 -47 14.5t-15 34.5q0 15 7 29q10 20 27.5 32.5t37.5 19.5t39.5 9.5t34.5 2.5zM328 670q9 -8 9 -17q-1 -10 -8.5 -19.5t-15.5 -14.5
q-11 -6 -24.5 -16t-27 -21t-25 -21.5t-19.5 -17.5q-4 -4 -10 -4q-8 0 -8 8q0 4 6 10q22 25 41.5 48t32.5 49q5 7 14 14t20 7q9 0 15 -5z" />
    <glyph glyph-name="uni0401" unicode="&#x401;" horiz-adv-x="588" 
d="M502 750q3 0 8.5 -1t11 -3.5t9.5 -7.5t4 -13v-166q0 -14 -4 -18q-3 0 -5.5 1t-4.5 7q-2 26 -10.5 58t-24.5 59.5t-40 46.5t-55 19h-180v-328h113q16 0 27.5 16.5t19 37t11 38.5t3.5 22q0 6 3 12t7 6q5 0 5 -18v-247q0 -10 -7 -10q-8 0 -10 10q-3 18 -4.5 38t-6.5 37.5
t-16 29t-32 11.5h-113v-369h201q40 0 63 20.5t35.5 50.5t18 64t10.5 62q3 18 10 18q5 0 8.5 -7t3.5 -19v-176q0 -12 -3.5 -18t-8 -9t-9.5 -3.5t-7 -0.5h-472v18h48v714h-48v18h441zM211 934q23 0 39 -17t16 -40q0 -22 -16 -38.5t-39 -16.5t-40 16.5t-17 38.5q0 23 17 40
t40 17zM406 934q23 0 39 -16.5t16 -38.5q0 -23 -16 -40t-39 -17t-39.5 17t-16.5 40q0 22 16.5 38.5t39.5 16.5z" />
    <glyph glyph-name="uni0410" unicode="&#x410;" horiz-adv-x="684" 
d="M602 18h50v-18h-220v18h50l-70 214h-224l-73 -214h51v-18h-121v18h49l242 732h19zM299 570l-108 -318h215z" />
    <glyph glyph-name="uni0411" unicode="&#x411;" horiz-adv-x="629" 
d="M521 602q-8 28 -16.5 51.5t-21 41t-32 27.5t-49.5 10h-181v-318h113q16 0 42 -1t55 -7.5t58.5 -19t53 -35t39 -57.5t16.5 -85q0 -60 -24 -100t-60 -64.5t-79 -34.5t-80 -10h-285v18h49v714h-49v18h451v-148zM221 395v-377h134q38 0 63.5 15t40.5 40.5t21 60.5t6 75
q0 34 -5 67t-19.5 59.5t-40 43t-66.5 16.5h-134z" />
    <glyph glyph-name="uni0412" unicode="&#x412;" horiz-adv-x="627" 
d="M568 600q1 -6 1.5 -12.5t0.5 -12.5q0 -66 -44.5 -110.5t-132.5 -58.5q87 -9 141.5 -58.5t54.5 -139.5v-11t-1 -11q-4 -45 -18 -76.5t-34 -52t-42.5 -32t-42.5 -17t-34 -7t-17 -1.5h-339v18h48v714h-48v18h271q38 0 78 -6t73.5 -22.5t56.5 -46t28 -75.5zM459 633
q0 18 -5 35.5t-18.5 31.5t-37.5 23t-62 9h-125v-318h137q30 1 55 12q20 9 37.5 29t18.5 57v121zM471 271q0 35 -13 59t-32.5 38.5t-43 20.5t-44.5 6h-127v-377h131q26 0 49.5 6t41 19.5t28 36t10.5 55.5v136z" />
    <glyph glyph-name="uni0413" unicode="&#x413;" horiz-adv-x="604" 
d="M549 750q10 0 16 -3t8 -6q3 -4 3 -9v-207q0 -3 -2.5 -6t-5.5 -3t-5 5q-3 42 -11.5 80t-25.5 67.5t-43.5 46.5t-64.5 17h-217v-714h51v-18h-201v18h51v714h-51v18h498v0z" />
    <glyph glyph-name="uni0414" unicode="&#x414;" horiz-adv-x="734" 
d="M672 732h-55v-714h84v-202q-8 30 -19.5 62.5t-29.5 59.5t-43.5 44.5t-61.5 17.5h-344q-42 0 -69.5 -20t-45.5 -49t-29 -60.5t-18 -54.5v202h84q40 37 62 81.5t33 89t13.5 84.5t2.5 69l-2 310q0 20 1 40t1 40h-54v18h490v-18zM254 732v-378q0 -51 -4.5 -98.5t-16.5 -89.5
t-32.5 -79.5t-52.5 -68.5h368v714h-262z" />
    <glyph glyph-name="uni0415" unicode="&#x415;" horiz-adv-x="588" 
d="M502 750q3 0 8.5 -1t11 -3.5t9.5 -7.5t4 -13v-166q0 -14 -4 -18q-3 0 -5.5 1t-4.5 7q-2 26 -10.5 58t-24.5 59.5t-40 46.5t-55 19h-180v-328h113q16 0 27.5 16.5t19 37t11 38.5t3.5 22q0 6 3 12t7 6q5 0 5 -18v-247q0 -10 -7 -10q-8 0 -10 10q-3 18 -4.5 38t-6.5 37.5
t-16 29t-32 11.5h-113v-369h201q40 0 63 20.5t35.5 50.5t18 64t10.5 62q3 18 10 18q5 0 8.5 -7t3.5 -19v-176q0 -12 -3.5 -18t-8 -9t-9.5 -3.5t-7 -0.5h-472v18h48v714h-48v18h441v0z" />
    <glyph glyph-name="uni0416" unicode="&#x416;" horiz-adv-x="1156" 
d="M666 732h-49v-714h49v-18h-199v18h51v714h-51v18h199v-18zM119 764q88 -3 135 -59l254 -312l-281 -375h50v-18h-226v18h51l324 437l-186 233q-15 19 -33.5 30.5t-35 17t-30.5 7t-20 1.5q19 -4 29 -19.5t10 -32.5t-9 -31.5t-28 -19.5q-12 -4 -25 -4q-26 0 -42.5 17.5
t-16.5 48.5q2 18 11.5 30t21.5 19t25 9.5t22 2.5zM1016 768q9 0 22 -2.5t25 -9.5t21.5 -19t11.5 -30q0 -32 -17 -50t-43 -18q-13 0 -24 4q-20 6 -29 20.5t-9 31.5q0 18 10 33t28 18q-5 0 -18 -1t-30 -6.5t-35.5 -16.5t-33.5 -31l-186 -234l324 -437h49v-18h-225v18h51
l-281 375l254 314q25 29 57.5 43t77.5 16z" />
    <glyph glyph-name="uni0417" unicode="&#x417;" horiz-adv-x="615" 
d="M477 684q20 -25 28.5 -49.5t8.5 -48.5q0 -36 -17 -67.5t-43 -56t-57.5 -39t-60.5 -15.5q32 -7 65.5 -22.5t61 -39t45 -56t17.5 -73.5q0 -50 -29 -108q-15 -31 -40 -54.5t-56 -39.5t-65.5 -24.5t-70.5 -8.5q-58 0 -111.5 22t-88.5 70q-11 14 -15.5 29.5t-4.5 31.5
q0 31 19 54.5t62 23.5q19 -1 31.5 -9.5t19.5 -20.5t9.5 -26t2.5 -26q-5 -23 -23 -40.5t-49 -17.5q-11 0 -24 3q0 -2 9 -11t24.5 -19.5t37 -21t46.5 -14.5q13 -2 24.5 -3.5t22.5 -1.5q36 0 65.5 15t55.5 50q5 7 11.5 22t12 34.5t9 42.5t3.5 47q0 33 -9 63q-10 32 -27 54.5
t-38.5 36t-46 19.5t-48.5 6h-35q-20 0 -20 13q0 5 5 8.5t15 3.5h35q18 0 41.5 5t45.5 18t40 35t25 57q2 11 3 23t1 24q-1 25 -4.5 48t-6.5 40q-11 32 -37 50t-77 20q-25 0 -52.5 -4.5t-54 -21.5t-50 -50.5t-40.5 -91.5q0 -3 -3 -13t-9 -10q-2 0 -3.5 3.5t-1.5 8.5v183
q0 8 5.5 9t7.5 1q14 -8 24 -16.5t29 -24.5q20 20 59.5 32t87.5 12q21 0 42 -3q19 -2 41.5 -7t44 -13t41.5 -20.5t34 -29.5z" />
    <glyph glyph-name="uni0418" unicode="&#x418;" horiz-adv-x="701" 
d="M268 732h-55v-623l301 586v37h-57v16h211l-2 -16h-55v-714h55l2 -18h-211v18h57v623l-301 -582v-41h57v-18h-211v18h54v714h-54v16h209v-16z" />
    <glyph glyph-name="uni0419" unicode="&#x419;" horiz-adv-x="701" 
d="M268 732h-55v-623l301 586v37h-57v16h211l-2 -16h-55v-714h55l2 -18h-211v18h57v623l-301 -582v-41h57v-18h-211v18h54v714h-54v16h209v-16zM268 883q17 0 25.5 -10t8.5 -21q0 -8 -5 -15.5t-18 -10.5q0 -2 7.5 -6t20 -8t28 -8t32.5 -5q14 0 29.5 4.5t28.5 9.5q15 6 30 15
q-11 2 -16 10t-5 17q0 11 6.5 19.5t20.5 8.5q17 0 24 -10t7 -18q0 -19 -14.5 -32t-34.5 -21.5t-41 -12.5t-35 -4q-15 1 -36.5 5t-41 12t-33.5 21t-14 31q2 11 8.5 19t17.5 10z" />
    <glyph glyph-name="uni041A" unicode="&#x41a;" horiz-adv-x="723" 
d="M590 766q30 0 52 -10.5t32 -30.5q6 -12 6 -27q0 -20 -11 -37t-30 -22q-10 -2 -15 -2q-25 0 -42.5 16.5t-17.5 39.5q0 16 10 30q8 8 16 13q4 3 8 4q-9 0 -23.5 -1.5t-31.5 -7.5t-35.5 -19t-36.5 -36l-164 -209l312 -449h51v-18h-225v18h51l-271 386l234 295q31 40 65 52.5
t66 14.5zM266 732h-49v-714h49v-18h-202v18h51v714h-51v18h202v-18z" />
    <glyph glyph-name="uni041B" unicode="&#x41b;" horiz-adv-x="723" 
d="M689 750v-18h-48v-714h48v-18h-199v18h49v714h-256v-546q0 -11 -3 -35t-14 -51t-32.5 -52.5t-57.5 -39.5q-8 -3 -23 -6.5t-33 -3.5q-23 0 -46 8.5t-37 34.5q-8 16 -8 35q0 16 7 30.5t18.5 24.5t26 16t29.5 6q19 0 35 -10q13 -7 25 -26t12 -42q0 -26 -18 -48v-1q0 -1 2 -1
q34 12 50 32t24 35q12 20 19 47.5t7 53.5v539h-51v18h474z" />
    <glyph glyph-name="uni041C" unicode="&#x41c;" horiz-adv-x="828" 
d="M426 186l201 564h162v-18h-51v-714h51v-18h-207v18h55v701l-250 -719h-14l-248 711v-693h51v-18h-121v18h50v714h-50v18h170z" />
    <glyph glyph-name="uni041D" unicode="&#x41d;" horiz-adv-x="697" 
d="M279 732h-50v-324h287v324h-51v18h199v-18h-49v-714h49v-18h-199v18h51v373h-287v-373h50v-18h-199v18h51v714h-51v18h199v-18z" />
    <glyph glyph-name="uni041E" unicode="&#x41e;" horiz-adv-x="789" 
d="M381 764q89 0 156 -33t112 -87.5t67.5 -124t22.5 -141.5v-16t-1 -16q-5 -83 -31.5 -150.5t-72 -115t-109 -73.5t-142.5 -26q-6 0 -12 0.5t-12 0.5q-60 4 -116.5 32.5t-100.5 79t-70.5 120t-26.5 155.5q1 70 20 139.5t59.5 125t104 91t152.5 39.5zM383 744q-43 -2 -80 -20
t-64.5 -49t-43 -71.5t-15.5 -85.5v-315q0 -27 7 -51.5t17.5 -44.5t22.5 -34.5t21 -21.5q26 -22 65 -35t81 -13q40 0 78 12.5t67 41.5q26 25 45.5 67.5t19.5 90.5v303q0 37 -13 77t-40 73t-68.5 54.5t-99.5 21.5z" />
    <glyph glyph-name="uni041F" unicode="&#x41f;" horiz-adv-x="697" 
d="M664 732h-51v-714h51v-18h-201v18h51v714h-289v-714h48v-18h-199v18h49v714h-49v18h590v-18z" />
    <glyph glyph-name="uni0420" unicode="&#x420;" horiz-adv-x="557" 
d="M400 424q11 26 16.5 57.5t5.5 63.5q0 55 -14 105q-9 31 -35 56.5t-68 25.5h-98v-371h100q3 0 14.5 1.5t25.5 7.5t28.5 18.5t24.5 35.5zM332 750q43 0 79.5 -16t63 -44t41.5 -64.5t15 -78.5q-1 -62 -23 -101.5t-52 -62t-61.5 -31t-50.5 -8.5h-137v-326h49v-18h-199v18h50
v714h-50v18h275z" />
    <glyph glyph-name="uni0421" unicode="&#x421;" horiz-adv-x="650" 
d="M586 754q6 6 11 6t7.5 -6t2.5 -14v-185q0 -3 -2.5 -6.5t-4.5 -3.5q-5 0 -6 8q-4 12 -7 21.5t-7.5 20t-12 23.5t-20.5 32q-32 47 -79.5 69t-97.5 22q-44 0 -84 -16.5t-69 -46.5q-26 -29 -39.5 -74t-13.5 -92v-276q0 -17 2.5 -34.5t5.5 -31.5q7 -41 25 -72.5t44 -53.5
t59 -33t69 -11q26 0 53 6q25 6 48.5 20t47 40t45.5 65t44 94q3 7 7 7q3 0 5 -3.5t2 -7.5v-217q0 -12 -4 -12q-3 0 -13 10l-61 59q-43 -46 -87 -63t-89 -17q-22 0 -41 3q-52 7 -92 26.5t-69.5 46.5t-50 59t-34 63t-21 59.5t-10.5 48.5q-4 20 -6 40t-2 40q0 37 6 75t17.5 74
t27.5 68t37 59q46 60 109.5 87.5t129.5 27.5q48 0 92 -13.5t79 -39.5z" />
    <glyph glyph-name="uni0422" unicode="&#x422;" horiz-adv-x="697" 
d="M617 750q17 0 21.5 -6.5t4.5 -11.5l19 -195q0 -12 -11 -12q-8 0 -12 12l-2.5 15t-8 36.5t-15.5 46.5t-25 46.5t-35.5 36t-48.5 14.5h-104v-714h49v-18h-199v18h51v714h-108q-47 0 -82 -46t-48 -149q-1 -10 -12 -10q-10 0 -10 10l14 195q2 8 9 13t16 5h537z" />
    <glyph glyph-name="uni0423" unicode="&#x423;" horiz-adv-x="629" 
d="M264 732h-51l170 -390l146 390h-50v18h121v-18h-49l-237 -628q-7 -21 -18 -41.5t-26 -37t-35 -27t-44 -10.5q-32 2 -53 18.5t-21 43.5q0 13 6 28q5 15 21 23.5t34 8.5q11 0 22 -3t19 -11q10 -9 14 -20t4 -22q0 -16 -7 -29t-19 -15q2 0 13 3.5t27.5 20.5t36.5 54t40 103
l-234 541h-51v18h221v-18z" />
    <glyph glyph-name="uni0424" unicode="&#x424;" horiz-adv-x="980" 
d="M709 561q-20 38 -54.5 54t-72.5 16q-23 0 -44.5 -5t-41.5 -13v-474q46 -17 88 -17q58 0 99 37.5t51 121.5q3 32 3.5 66.5t0.5 66.5q0 42 -6.5 79t-22.5 68zM395 613q-26 9 -48 13t-42 4q-43 0 -71.5 -17t-46.5 -43t-26 -57t-9 -58v-50.5t1 -62t3 -59.5t6 -43
q9 -36 25 -59t35.5 -36.5t40.5 -18.5t42 -5q16 0 31.5 2.5t27.5 5.5t20 6t11 4v474zM545 750v-18h-49v-101q17 7 44 12.5t60 5.5q26 0 53.5 -5t54.5 -17.5t51 -33.5t44 -54q24 -40 35.5 -82t11.5 -84q0 -54 -17.5 -103t-50.5 -87t-79 -60.5t-103 -22.5q-50 0 -104 19v-101
h49v-18h-195v18h45v103q-22 -8 -49 -13.5t-57 -5.5q-28 0 -56.5 6.5t-56.5 20.5q-34 18 -59.5 44.5t-42.5 58.5t-25.5 68.5t-8.5 73.5q0 52 16.5 101.5t48.5 88.5q72 86 183 86q48 0 107 -17v99h-45v18h195z" />
    <glyph glyph-name="uni0425" unicode="&#x425;" horiz-adv-x="732" 
d="M287 732h-51l166 -283l178 283h-51v18h125v-18h-50l-192 -304l238 -410h49v-18h-219v18h49l-185 318l-205 -318h49v-18h-122v18h49l217 341l-217 373h-49v18h221v-18z" />
    <glyph glyph-name="uni0426" unicode="&#x426;" horiz-adv-x="730" 
d="M270 732h-49v-714h289v714h-49v18h199v-18h-51v-714h88v-217q-14 45 -29.5 81.5t-35 62.5t-45.5 40.5t-60 14.5h-457v18h51v714h-51v18h200v-18z" />
    <glyph glyph-name="uni0427" unicode="&#x427;" horiz-adv-x="570" 
d="M248 732h-49v-345q0 -29 21.5 -49t62.5 -20q23 0 51 7.5t61 24.5v382h-49v18h199v-18h-51v-714h51v-18h-199v18h49v308q-29 -16 -65 -25.5t-73 -9.5q-31 0 -60 7.5t-51 24t-35 42.5t-13 63v304h-49v18h199v-18z" />
    <glyph glyph-name="uni0428" unicode="&#x428;" horiz-adv-x="1084" 
d="M303 732h-49v-714h266v714h-51v18h199v-18h-49v-714h266v714h-51v18h199v-18h-51v-714h51v-18h-929v18h50v714h-50v18h199v-18z" />
    <glyph glyph-name="uni0429" unicode="&#x429;" horiz-adv-x="1094" 
d="M281 732h-54v-714h265v714h-56v18h210v-18h-54v-714h265v714h-54v18h209v-18h-55v-714h86v-202q-15 42 -29 75t-32.5 56.5t-43.5 37t-61 15.5h-805v18h55v714h-55v18h209v-18z" />
    <glyph glyph-name="uni042A" unicode="&#x42a;" horiz-adv-x="750" 
d="M39 748h342v-16h-65v-318h141q37 0 62 -4.5t51 -14.5q35 -12 59.5 -31t39.5 -43t22 -51.5t7 -55.5q0 -24 -4 -47t-12 -44q-10 -24 -28.5 -46t-44 -39.5t-57 -27.5t-68.5 -10h-318v18h51v714h-74q-31 0 -50.5 -9.5t-31.5 -25.5t-16.5 -36.5t-5.5 -41.5v129zM316 395v-377
h127q48 0 75 21t40.5 53t16.5 69.5t3 70.5q-2 33 -8.5 62t-20.5 51t-38 35t-60 15h-135z" />
    <glyph glyph-name="uni042B" unicode="&#x42b;" horiz-adv-x="877" 
d="M836 732h-49v-714h49v-18h-199v18h51v714h-51v18h199v-18zM229 18h134q27 0 50.5 9t41 30t27.5 56t10 88v22q-2 39 -8 71t-21.5 54.5t-42 34.5t-68.5 12h-123v-377zM279 732h-50v-318h140q56 -3 95 -16.5t64.5 -33t39.5 -42t20.5 -43t8 -36.5t1.5 -22q0 -67 -22.5 -110
t-58.5 -67.5t-81.5 -34t-91.5 -9.5h-266v18h51v714h-51v18h201v-18z" />
    <glyph glyph-name="uni042C" unicode="&#x42c;" horiz-adv-x="625" 
d="M260 732h-49v-318h154q40 0 79.5 -9.5t71 -32.5t52 -61t22.5 -96q0 -50 -13 -85.5t-33.5 -59.5t-46 -37.5t-50 -21t-45.5 -9.5t-33 -2h-308v18h48v714h-48v18h199v-18zM211 395v-377h135q34 1 61 17q23 13 42.5 41.5t21.5 81.5v94q0 37 -11.5 64t-30.5 44t-44 25.5
t-51 9.5h-123z" />
    <glyph glyph-name="uni042D" unicode="&#x42d;" horiz-adv-x="682" 
d="M279 756q7 1 15 1.5t16 0.5q29 0 63 -6.5t69 -24t68.5 -47t61.5 -75.5q32 -54 48 -115t16 -124q0 -48 -9 -96q-15 -78 -51.5 -138t-98.5 -105q-35 -22 -82 -34.5t-92 -12.5q-25 0 -47.5 4t-40.5 14q-26 14 -44 28t-38 35l-65 -67q-1 0 -2.5 -1t-3.5 -1q-4 0 -5 8v215
q0 8 9 8q4 -3 8.5 -16t13.5 -33.5t24 -45.5t38 -52q29 -34 71.5 -55t102.5 -21q17 2 35.5 5t33.5 11q34 15 56.5 37.5t36 49t19 56.5t5.5 62v140q-5 3 -19.5 7.5t-23.5 6.5q-24 0 -42 -7t-35 -16t-35 -16t-42 -7q-14 0 -36 5q-11 2 -27.5 7.5t-30.5 10.5t-24 10t-10 11
q0 3 3 6q3 4 7 4q8 0 19 -6.5t31 -6.5q11 0 23 3t22.5 10t23.5 14t29 12.5t38 6.5q16 0 34.5 -4t36.5 -9t33 -11.5t25 -10.5v133q0 44 -10.5 85.5t-38.5 76.5q-26 31 -65 45.5t-82 16.5q-73 0 -120 -29.5t-77 -77.5q-12 -20 -18.5 -34.5t-10 -25t-6 -17t-6.5 -9.5
q-2 0 -4 3.5t-2 8.5v187q0 5 3 9t8 4q6 0 13 -7l51 -51q15 15 33 25.5t36.5 17.5t35.5 10t29 4z" />
    <glyph glyph-name="uni042E" unicode="&#x42e;" horiz-adv-x="1094" 
d="M670 764q100 0 170 -37t114 -96t63.5 -132t19.5 -145q-3 -85 -31 -154t-75 -117.5t-109 -74.5t-133 -26q-75 1 -130 24.5t-93.5 59t-62.5 78.5t-37.5 83t-18.5 73t-5 48h-104v-330h51v-18h-201v18h51v714h-51v18h201v-18h-51v-347h106q2 65 22 131t59.5 120t100 89
t144.5 39zM674 746q-93 -6 -145 -66.5t-52 -161.5v-297q0 -106 59.5 -162.5t168.5 -56.5q31 1 65 14t62.5 40t47 69.5t18.5 103.5v298q0 43 -14 83t-40.5 70.5t-64 48.5t-84.5 18h-10.5t-10.5 -1z" />
    <glyph glyph-name="uni042F" unicode="&#x42f;" horiz-adv-x="670" 
d="M379 732q-28 0 -57 -12t-47 -44q-10 -18 -16 -50.5t-6 -67.5q0 -28 4 -54.5t14 -48.5q12 -25 38 -40t52 -15h127v332h-109zM639 750v-18h-49v-714h49v-18h-201v18h50v365h-86q-42 0 -70.5 -20.5t-48.5 -77.5q-8 -23 -10.5 -55.5t-2.5 -75.5q0 -26 -1 -47t-5.5 -37.5
t-14.5 -29.5t-28 -24q-16 -11 -35 -15.5t-39 -4.5q-31 0 -60.5 9.5t-49.5 25.5q-4 1 -4 6q0 6 5 6q1 0 5 -2q21 -11 39 -11q15 0 25.5 6t18 13.5t11.5 15.5t6 11q3 10 4 29t2 42.5t2.5 48.5t6.5 48q7 33 25 58.5t41.5 43t49 26.5t46.5 9q-20 3 -46 10.5t-51 21.5t-46 36.5
t-31 54.5q-8 29 -8 56q0 31 9 59t27 49q19 25 43 41t51 25t55 12.5t56 3.5h260z" />
    <glyph glyph-name="uni0430" unicode="&#x430;" horiz-adv-x="508" 
d="M291 260q-18 0 -36.5 -1t-37 -5.5t-35.5 -13.5t-32 -25q-14 -17 -19.5 -40.5t-5.5 -47.5q0 -33 8 -59q9 -29 27.5 -40t35.5 -11q9 0 17 3q13 3 27 11.5t25 18t18.5 18.5t7.5 14v178zM211 484q30 0 59.5 -2.5t52.5 -13.5t37.5 -33t14.5 -60v-309q0 -21 10.5 -33.5
t28.5 -12.5q9 1 22 8t31 36q5 11 10 11q2 0 2 -11q-11 -24 -26 -39t-31.5 -24t-32.5 -12t-29 -3q-11 0 -18 1t-12 3q-17 8 -27 28t-10 37q-20 -27 -56 -48.5t-80 -21.5q-23 0 -44 7q-33 11 -52 45.5t-19 75.5q0 18 4 35.5t13 33.5q16 25 44 44q24 17 64 31t103 14h21v116
q0 29 -8.5 46t-22.5 26q-13 7 -36 7q-28 0 -57.5 -9t-39.5 -23q0 -2 2 -4q5 -2 16.5 -7.5t16.5 -26.5q0 -20 -7.5 -35t-27.5 -19q-32 0 -47 14.5t-15 34.5q0 15 7 29q10 20 27.5 32.5t37.5 19.5t39.5 9.5t34.5 2.5z" />
    <glyph glyph-name="uni0431" unicode="&#x431;" horiz-adv-x="582" 
d="M529 744q0 -5 -1.5 -20t-9 -32.5t-23.5 -34t-44 -22.5q-40 -10 -88.5 -11t-95 -6.5t-86.5 -22t-64 -56.5q-16 -27 -25 -55.5t-13.5 -55.5t-5.5 -51.5t-1 -42.5q10 39 30.5 68t47.5 48t59 28.5t65 9.5q31 0 62 -8.5t58 -25t49 -41.5t36 -58q12 -29 17.5 -58t5.5 -57
q0 -51 -17 -96.5t-47.5 -80t-74 -55t-96.5 -20.5q-8 0 -16.5 0.5t-16.5 1.5q-41 5 -71 23t-50.5 42.5t-32.5 53t-18.5 55.5t-8.5 49t-2 33v98q0 16 2 42t6 56t10 59.5t15 53.5q34 100 133 133q34 10 79.5 12.5t90 4.5t80 9t49.5 26q1 2 3 4q4 4 6 4q3 0 4 -4zM260 473
q-30 -2 -51 -16t-34 -34t-19 -42.5t-6 -42.5v-180q0 -28 5.5 -55.5t19 -50t37.5 -36.5t61 -14q37 1 62.5 16.5t41.5 39t22.5 52t6.5 54.5v170q0 24 -6 48.5t-22.5 44.5t-45 33t-72.5 13z" />
    <glyph glyph-name="uni0432" unicode="&#x432;" horiz-adv-x="438" 
d="M266 475q12 0 34 -3.5t43.5 -14t37.5 -30t17 -52.5q0 -32 -10 -54t-26 -36t-36 -21.5t-39 -11.5q63 -9 97 -38.5t34 -86.5q0 -38 -13 -62.5t-32.5 -38.5t-41.5 -20t-40 -6h-252v16h45v443h-45v16h227zM252 260q38 6 52 23t14 51v27q0 54 -16.5 76t-53.5 22h-82v-199h86z
M166 246v-230h84q29 0 52.5 18.5t23.5 47.5v55q0 54 -20 81.5t-68 27.5h-72z" />
    <glyph glyph-name="uni0433" unicode="&#x433;" horiz-adv-x="439" 
d="M402 475q18 0 18 -14v-131v-4t-2 -4q-2 -3 -4 -3q-4 2 -4 7q-2 22 -7.5 46t-17 43.5t-28 32.5t-39.5 13h-134v-445h45v-16h-174v16h45v445h-45v14h347v0z" />
    <glyph glyph-name="uni0434" unicode="&#x434;" horiz-adv-x="494" 
d="M457 461h-45v-445h59v-127q-2 10 -6 28.5t-11.5 37t-19.5 32t-30 13.5h-279q-21 0 -34 -11.5t-20.5 -27.5t-11.5 -33t-8 -28v116h56q1 0 10.5 10t20.5 31.5t20.5 56t9.5 83.5v264h-45v14h334v-14zM182 459v-271q0 -16 -2 -38.5t-7.5 -46.5t-16 -47t-27.5 -40h197v445
h-144v-2z" />
    <glyph glyph-name="uni0435" unicode="&#x435;" horiz-adv-x="471" 
d="M244 490q22 0 55.5 -5t65 -25.5t54 -62.5t22.5 -116h-285v-152q0 -42 17.5 -74.5t56.5 -42.5q20 -5 36 -5q29 0 52 9t32 15q32 20 50.5 51t29.5 70q1 10 7 10q2 0 6 -4q3 -3 3.5 -7t0.5 -6q-2 -12 -10.5 -35.5t-26.5 -48.5q-13 -23 -36.5 -42t-64.5 -27q-20 -4 -45 -4
q-40 0 -73.5 13t-59.5 36q-24 21 -38 44t-22.5 46t-12 43t-5.5 35q-3 18 -3 38q0 39 11 81t34.5 78t60.5 60.5t88 27.5zM246 473q-38 -3 -64 -27t-26 -69v-78h194v84q0 42 -28 66t-76 24z" />
    <glyph glyph-name="uni0436" unicode="&#x436;" horiz-adv-x="824" 
d="M625 459q11 12 25.5 17.5t29.5 5.5q27 0 45 -13q8 -7 12 -16t4 -18q0 -13 -10 -23t-36 -10q-13 2 -19.5 10.5t-6.5 19.5q0 9 5 17.5t15 13.5v2q-14 0 -29 -2.5t-23 -13.5l-123 -140l213 -293h58v-16h-222v16h66l-178 250zM184 16h66v-16h-223v16h59l213 293l-123 140
q-9 11 -24 13.5t-29 2.5v-2q9 -5 13.5 -13t4.5 -17q0 -11 -6.5 -20t-19.5 -11q-26 0 -35.5 9.5t-9.5 22.5q0 21 16 35q19 13 46 13q15 0 29 -5.5t25 -17.5l175 -193zM502 461h-53v-445h53v-16h-193v16h54v445h-54v14h193v-14z" />
    <glyph glyph-name="uni0437" unicode="&#x437;" horiz-adv-x="420" 
d="M352 416q11 -25 11 -47q0 -40 -30.5 -71t-86.5 -40q13 -3 34 -10.5t40.5 -22t33.5 -36.5t14 -53q0 -21 -9 -48q-9 -26 -25 -45t-37 -32t-46 -19.5t-50 -6.5q-27 0 -53.5 7.5t-49.5 23.5q-20 13 -28.5 30t-10.5 30q0 14 2.5 24t10.5 21q5 5 14.5 10.5t20.5 5.5q9 0 20 -6
q14 -8 20 -18.5t6 -21.5q0 -18 -14 -32t-41 -14h-2q7 -16 34.5 -30t60.5 -14q32 0 60 19t38 68q5 23 5 45q0 20 -5 39.5t-16 34.5q-38 47 -111 47q-5 0 -8 3t-3 6q0 7 11 7q45 0 68.5 8.5t35.5 20.5q11 9 17 28.5t6 42.5q0 17 -3 34t-11 32q-7 16 -25 26t-46 10
q-14 0 -32 -3q-24 -5 -41 -17t-28.5 -27.5t-18 -33t-8.5 -32.5q-2 -7 -6 -7t-4 7v118q0 9 3 9t9 -6l27 -25q17 16 45 24t59 8q45 0 85.5 -17.5t57.5 -53.5z" />
    <glyph glyph-name="uni0438" unicode="&#x438;" horiz-adv-x="557" 
d="M234 461h-46v-387l212 354v33h-43v14h174v-14h-47v-445h47v-16h-174v16h43v373l-212 -356v-17h46v-16h-173v16h44v445h-44v14h173v-14z" />
    <glyph glyph-name="uni0439" unicode="&#x439;" horiz-adv-x="557" 
d="M234 461h-46v-387l212 354v33h-43v14h174v-14h-47v-445h47v-16h-174v16h43v373l-212 -356v-17h46v-16h-173v16h44v445h-44v14h173v-14zM193 611q17 0 26 -9.5t9 -20.5q0 -9 -5 -16t-18 -10q0 -2 7.5 -6t20 -8.5t28 -8.5t32.5 -5q14 0 29.5 4.5t28.5 10.5q15 6 30 15
q-11 2 -16 9.5t-5 16.5q0 11 6.5 19.5t20.5 8.5q17 0 24 -9.5t7 -17.5q0 -19 -14.5 -32.5t-34.5 -21.5t-41 -12t-35 -4q-15 1 -36.5 5t-41 12t-33.5 20.5t-14 30.5q3 26 25 29z" />
    <glyph glyph-name="uni043A" unicode="&#x43a;" horiz-adv-x="535" 
d="M482 451q1 -3 1.5 -5.5t0.5 -5.5q0 -15 -11.5 -27t-27.5 -12q-8 0 -15 3q-11 5 -15.5 13t-4.5 16q0 18 16 28v2q-21 0 -40 -9t-29 -20l-105 -129l213 -289h45v-16h-190v16h45l-172 244l149 179q8 11 27.5 23.5t44.5 14.5q8 0 18.5 -0.5t20.5 -3t18 -7.5t11 -15zM227 461
h-45v-445h45v-16h-174v16h47v445h-47v14h174v-14z" />
    <glyph glyph-name="uni043B" unicode="&#x43b;" horiz-adv-x="529" 
d="M506 461h-45v-445h45v-16h-174v16h45v445h-164v-352q0 -15 -4 -32t-12 -32t-21 -26.5t-31 -16.5q-8 -2 -18.5 -3.5t-21.5 -1.5q-19 0 -35.5 8t-20.5 34q0 21 9 33.5t24 17.5q4 2 12 2q17 0 32.5 -13t15.5 -34q0 -13 -7 -27v-2q23 4 35 20t18 33q7 20 9 44v348h-45v14h354
v-14z" />
    <glyph glyph-name="uni043C" unicode="&#x43c;" horiz-adv-x="602" 
d="M314 139l124 338h136v-16h-45v-445h45v-16h-174v16h43l2 425l-162 -441h-10l-158 451v-435h43v-16h-103v16h45v445h-45v16h138z" />
    <glyph glyph-name="uni043D" unicode="&#x43d;" horiz-adv-x="504" 
d="M229 461h-43v-201h164v201h-45v14h175v-14h-44v-445h44v-16h-175v16h45v228h-164v-228h43v-16h-172v16h45v445h-45v14h172v-14z" />
    <glyph glyph-name="uni043E" unicode="&#x43e;" horiz-adv-x="537" 
d="M248 490q54 0 96.5 -20t71.5 -54t44.5 -79t15.5 -95q0 -14 -1.5 -28t-3.5 -28q-7 -40 -22.5 -74t-40 -60t-59 -43t-79.5 -21q-55 0 -99 18.5t-75 51.5t-48 78t-17 98q0 52 18 108q13 41 36.5 69t51.5 45t57 25t54 9zM246 473q-41 -2 -64.5 -21t-35 -42t-14.5 -42.5
t-3 -23.5v-219q0 -6 4 -25.5t18 -40.5t42 -38t75 -17q40 3 62.5 20.5t34 39t14 41t2.5 26.5v203q0 21 -7 45.5t-22.5 45.5t-41.5 34.5t-64 13.5z" />
    <glyph glyph-name="uni043F" unicode="&#x43f;" horiz-adv-x="525" 
d="M502 461h-45v-445h45v-16h-174v16h45v445h-178v-445h45v-16h-174v16h45v445h-45v14h436v-14z" />
    <glyph glyph-name="uni0440" unicode="&#x440;" horiz-adv-x="512" 
d="M188 0v-182h44v-15h-171v15h44v643h-44v14h234q48 0 84 -19t60 -51.5t36.5 -75.5t12.5 -91q-1 -53 -16.5 -96.5t-41 -75t-59.5 -49t-72 -17.5h-111zM400 334q0 26 -9 49t-24.5 40.5t-37.5 27.5t-48 10h-93v-445h95q28 0 50 11t37 29t22.5 42.5t7.5 51.5v184z" />
    <glyph glyph-name="uni0441" unicode="&#x441;" horiz-adv-x="455" 
d="M406 482q4 4 7 4q5 0 5 -9v-122q0 -6 -5 -6q-3 0 -5 6q-18 55 -53.5 85t-83.5 30q-33 0 -66 -13q-23 -8 -37 -25.5t-21.5 -37t-9.5 -38.5t-2 -30v-181q0 -21 5 -41t14.5 -38t23 -31.5t31.5 -20.5q28 -12 56 -12q44 0 81 29q14 12 32 36t38 70q3 6 6 6q4 0 4 -4v-139
q0 -1 -0.5 -3t-2.5 -2q-4 0 -9 5l-37 39q-27 -28 -54 -41t-60 -13q-26 0 -54 7q-42 10 -73.5 34t-53 57.5t-32 73t-10.5 80.5q0 48 14.5 93t43.5 80q36 43 79 59t83 16q42 0 73 -11.5t42 -22.5z" />
    <glyph glyph-name="uni0442" unicode="&#x442;" horiz-adv-x="471" 
d="M420 475q11 0 13.5 -4t4.5 -12l11 -127q0 -8 -7 -8t-8 8q-5 17 -9.5 39t-13.5 42t-23.5 34t-37.5 14h-61v-445h45v-16h-174v16h45v445h-60q-22 0 -37.5 -14.5t-25 -34.5t-14.5 -42.5t-7 -37.5q-1 -8 -8 -8q-4 0 -6 8l12 129q0 5 4.5 9.5t10.5 4.5h346z" />
    <glyph glyph-name="uni0443" unicode="&#x443;" horiz-adv-x="535" 
d="M219 461h-45l148 -357l121 357h-45v14h112v-14h-45l-168 -486q-4 -12 -10.5 -28.5t-16 -34t-22 -34.5t-27.5 -30q-34 -29 -65 -38t-62 -9q-10 0 -20 3t-18.5 10.5t-13.5 19.5t-5 29q3 25 19.5 38t37.5 13q24 0 38.5 -17.5t14.5 -39.5q0 -18 -12 -33q38 7 64.5 31
t43.5 51.5t26.5 51.5t13.5 32l-201 471h-45v14h182v-14z" />
    <glyph glyph-name="uni0444" unicode="&#x444;" horiz-adv-x="699" 
d="M303 445q-33 12 -61 12q-54 0 -83.5 -41t-29.5 -113v-139q0 -30 6.5 -57.5t20 -48.5t34.5 -33.5t50 -12.5q28 0 63 13v420zM430 600h-45v-137q39 16 76 16q32 0 60 -11.5t50.5 -32t39.5 -47.5t26 -58q14 -48 14 -95q0 -51 -15 -98t-44 -82q-29 -37 -60.5 -51t-63.5 -14
q-22 0 -43 5t-40 11v-172h45v-16h-174v16h47v172q-41 -16 -78 -16q-43 0 -76.5 19t-57.5 51t-37.5 73.5t-16.5 85.5q0 49 12 95.5t36 83t59 58.5t82 22q35 0 77 -15v137h-47v15h174v-15zM385 25q35 -13 63 -13q29 0 50 12.5t34.5 33.5t20 48.5t6.5 57.5v139q0 71 -29 112
t-83 41q-29 0 -62 -13v-418z" />
    <glyph glyph-name="uni0445" unicode="&#x445;" horiz-adv-x="520" 
d="M232 461h-46l95 -160l106 160h-43v14h105v-14h-47l-113 -174l162 -271h45v-16h-180v16h45l-119 199l-133 -199h45v-16h-103v16h45l138 211l-138 234h-45v14h181v-14z" />
    <glyph glyph-name="uni0446" unicode="&#x446;" horiz-adv-x="529" 
d="M225 461h-45v-445h181v445h-47v14h174v-14h-45v-445h63v-125q-2 13 -7 31.5t-15 36t-25.5 29.5t-36.5 12h-371v16h47v445h-47v14h174v-14z" />
    <glyph glyph-name="uni0447" unicode="&#x447;" horiz-adv-x="447" 
d="M215 461h-45v-213q0 -22 15.5 -31.5t38.5 -9.5q33 0 73 16v238h-45v14h174v-14h-43v-445h45v-16h-176v16h45v193q-20 -8 -51 -13.5t-60 -5.5h-12.5t-11.5 1q-31 4 -53.5 25t-22.5 44v201h-47v14h176v-14z" />
    <glyph glyph-name="uni0448" unicode="&#x448;" horiz-adv-x="775" 
d="M240 461h-45v-445h166v445h-47v14h176v-14h-45v-445h164v445h-43v14h174v-14h-45v-445h45v-16h-674v16h45v445h-45v14h174v-14z" />
    <glyph glyph-name="uni0449" unicode="&#x449;" horiz-adv-x="783" 
d="M240 461h-45v-445h160v445h-44v14h171v-14h-44v-445h164v445h-47v14h174v-14h-45v-445h62v-125q0 13 -7.5 31.5t-20.5 36t-30.5 29.5t-37.5 12h-584v16h45v445h-45v14h174v-14z" />
    <glyph glyph-name="uni044A" unicode="&#x44a;" horiz-adv-x="568" 
d="M309 475v-14h-45v-201h84q42 0 78.5 -10t59.5 -39q14 -18 21 -39t7 -41q0 -41 -22 -74t-58 -43q-7 -2 -13.5 -4.5t-15 -4.5t-20.5 -3.5t-30 -1.5h-220v16h45v445h-82q-31 -5 -44 -21.5t-21 -50.5v86h276zM264 246v-230h84q32 2 52 19t22 51v57q-1 19 -4 37.5t-12 32.5
t-25 23t-41 10h-76z" />
    <glyph glyph-name="uni044B" unicode="&#x44b;" horiz-adv-x="693" 
d="M236 475v-14h-47v-203h118q7 0 24.5 -3t37 -11.5t37.5 -23.5t26 -38q9 -24 9 -50q0 -20 -4.5 -38.5t-14.5 -34.5q-22 -29 -54 -44t-69 -15h-236v16h42v445h-42v14h173zM662 461h-45v-445h45v-16h-174v16h45v445h-45v14h174v-14zM350 150q-1 28 -8 46.5t-18 29t-24 14.5
t-25 4l-86 2v-230h92q26 3 40 11.5t20.5 20.5t7.5 27t1 32v43z" />
    <glyph glyph-name="uni044C" unicode="&#x44c;" horiz-adv-x="463" 
d="M348 137q0 41 -10 62t-22 31q-13 11 -28 13.5t-17 2.5h-83v-230h85q9 0 22 2.5t24.5 10t20 21.5t8.5 36v51zM234 461h-46v-201h95q25 0 52.5 -6t50.5 -21.5t37.5 -42t14.5 -67.5q-2 -45 -23 -69t-46 -36q-29 -14 -66 -18h-244v16h45v445h-45v14h175v-14z" />
    <glyph glyph-name="uni044D" unicode="&#x44d;" horiz-adv-x="465" 
d="M201 480q26 0 52.5 -4t51 -14.5t47 -30t41.5 -50.5q20 -35 30 -74.5t10 -80.5q0 -16 -1 -31.5t-4 -30.5q-11 -51 -34.5 -91t-63.5 -69q-23 -14 -53 -22t-59 -8q-34 0 -58 12q-17 8 -29 18t-26 21l-41 -43q-6 0 -7 4v141q0 5 1.5 5.5t4.5 0.5q2 -2 5 -11t9 -22t15.5 -29
t24.5 -34q20 -22 47.5 -36.5t65.5 -14.5q11 2 23 3.5t22 6.5q46 20 61.5 57t15.5 78v92q-3 2 -12.5 4.5t-15.5 4.5q-15 0 -27 -4.5t-23 -10.5t-23 -10.5t-28 -4.5q-11 0 -24 3q-8 2 -18 5.5t-19 6.5q-10 4 -16.5 7.5t-6.5 6.5q0 1 2 3t5 2q5 0 13 -4t20 -4q4 0 14 2
q8 2 15.5 7t16 9.5t19 8t24.5 3.5q22 0 47 -9t37 -15v88q0 28 -7 55.5t-27 50.5q-16 20 -40.5 29.5t-52.5 11.5q-48 0 -79 -19.5t-50 -51.5q-8 -13 -12 -22.5t-6 -16t-3.5 -10.5t-4.5 -5q-2 0 -4 1.5t-2 4.5v123q0 5 7 7q4 0 9 -3l33 -36q20 23 46 30.5t42 8.5z" />
    <glyph glyph-name="uni044E" unicode="&#x44e;" horiz-adv-x="764" 
d="M449 492q92 0 150.5 -42t82.5 -116q8 -23 11 -47t3 -47q0 -46 -13 -89t-37.5 -77t-60 -56.5t-81.5 -27.5q-8 -1 -16 -1.5t-16 -0.5q-45 0 -80 13.5t-64 37.5q-40 35 -57.5 84.5t-20.5 101.5h-68v-209h45v-16h-174v16h45v445h-45v14h174v-14h-45v-213h68q1 18 7 56
t26.5 78t59.5 72t106 38zM471 479q-41 0 -66 -18.5t-38 -43t-17 -49.5t-4 -38v-187q0 -69 37 -105t94 -36q67 6 95 44t28 100v196q0 23 -7 47t-22.5 44t-40 32.5t-59.5 13.5z" />
    <glyph glyph-name="uni044F" unicode="&#x44f;" horiz-adv-x="473" 
d="M260 461q-37 0 -54 -25t-18 -71q0 -11 1 -29t6 -35.5t16.5 -30t32.5 -12.5h80v203h-64zM451 475v-14h-45v-445h45v-16h-172v16h45v228h-51q-22 0 -39.5 -15.5t-26.5 -46.5q-5 -18 -6.5 -35.5t-1.5 -34.5v-20q0 -26 -4.5 -47t-24.5 -35q-23 -15 -57 -15q-21 0 -41 6.5
t-35 19.5q-2 2 -2 4l2 1q1 0 2 1q2 0 6 -4q9 -3 18 -3q14 0 24.5 6t16.5 15q3 5 4 12t1 15q0 11 -1 22t-1 19q2 26 8 53t30 49q9 8 21 14t24.5 10.5t23 7t16.5 3.5q-44 3 -76 20t-47 48q-7 17 -7 40q0 14 3 28t10 28q10 18 26.5 30t36.5 20t41.5 11.5t42.5 3.5h191z" />
    <glyph glyph-name="uni0451" unicode="&#x451;" horiz-adv-x="471" 
d="M244 490q22 0 55.5 -5t65 -25.5t54 -62.5t22.5 -116h-285v-152q0 -42 17.5 -74.5t56.5 -42.5q20 -5 36 -5q29 0 52 9t32 15q32 20 50.5 51t29.5 70q1 10 7 10q2 0 6 -4q3 -3 3.5 -7t0.5 -6q-2 -12 -10.5 -35.5t-26.5 -48.5q-13 -23 -36.5 -42t-64.5 -27q-20 -4 -45 -4
q-40 0 -73.5 13t-59.5 36q-24 21 -38 44t-22.5 46t-12 43t-5.5 35q-3 18 -3 38q0 39 11 81t34.5 78t60.5 60.5t88 27.5zM246 473q-38 -3 -64 -27t-26 -69v-78h194v84q0 42 -28 66t-76 24zM154 643q24 0 39.5 -17t15.5 -40q0 -22 -15.5 -38.5t-39.5 -16.5q-23 0 -39.5 16.5
t-16.5 38.5q0 23 16.5 40t39.5 17zM350 643q22 0 38 -16.5t16 -38.5q0 -23 -16 -40t-38 -17q-24 0 -40.5 17t-16.5 40q0 22 16.5 38.5t40.5 16.5z" />
    <glyph glyph-name="endash" unicode="&#x2013;" horiz-adv-x="500" 
d="M484 232h-500l32 61h500z" />
    <glyph glyph-name="emdash" unicode="&#x2014;" horiz-adv-x="1000" 
d="M986 232h-511h-491l32 61h511h489z" />
    <glyph glyph-name="quoteleft" unicode="&#x2018;" horiz-adv-x="221" 
d="M117 479q-28 0 -49 25q-21 23 -23 59q16 102 100 134l9 -23q-58 -34 -60 -92q14 14 33 14q20 0 36 -14q13 -15 15 -33v-8q0 -24 -13 -41q-17 -21 -48 -21z" />
    <glyph glyph-name="quoteright" unicode="&#x2019;" horiz-adv-x="221" 
d="M107 699q30 0 51 -24q20 -26 20 -62q0 -40 -29 -78q-30 -39 -69 -55l-12 22q28 19 44 39t19 53q-16 -13 -35 -16q-19 1 -33 17q-15 14 -16 34v8q0 20 14 40q16 20 46 22z" />
    <glyph glyph-name="quotesinglbase" unicode="&#x201a;" horiz-adv-x="438" 
d="M193 656q17 0 26 -9.5t9 -20.5q0 -9 -5 -16t-18 -10q0 -2 7.5 -6t20 -8.5t28 -8.5t32.5 -5q14 0 29.5 4.5t28.5 10.5q15 6 30 15q-11 2 -16 9.5t-5 16.5q0 11 6.5 19.5t20.5 8.5q17 0 24 -9.5t7 -17.5q0 -19 -14.5 -32.5t-34.5 -21.5t-41 -12t-35 -4q-15 1 -36.5 5
t-41 12t-33.5 20.5t-14 30.5q3 26 25 29z" />
    <glyph glyph-name="quotedblleft" unicode="&#x201c;" horiz-adv-x="355" 
d="M66 652q15 12 34 12q20 0 37 -14t19 -43q0 -25 -18 -40.5t-41 -15.5q-13 0 -25 6q-20 9 -28 24t-8 32q0 16 6 31.5t15 29.5q22 35 50.5 54.5t44.5 25.5q7 3 11.5 5.5t6.5 2.5t2 -2q0 -4 -12 -9.5t-29 -17.5t-35 -31t-30 -50zM234 652q15 12 34 12t35.5 -14t18.5 -43
q0 -25 -17.5 -40.5t-39.5 -15.5q-13 0 -25 6q-20 9 -28.5 24.5t-8.5 32.5q0 16 5.5 31.5t14.5 28.5q22 35 50.5 54.5t44.5 25.5q7 3 12 5.5t8 2.5q2 0 2 -2q0 -4 -12 -9.5t-29 -17.5t-35 -31t-30 -50z" />
    <glyph glyph-name="quotedblright" unicode="&#x201d;" horiz-adv-x="355" 
d="M295 650q-13 -10 -33 -10t-36.5 13t-18.5 42q0 26 17.5 41.5t40.5 15.5q12 0 24 -6q20 -9 29 -24.5t9 -33.5q0 -15 -5.5 -30.5t-14.5 -28.5q-23 -34 -51.5 -53t-44.5 -27q-12 -6 -19 -6q-3 0 -3 2q0 3 12 8.5t29 17t35 30.5t30 49zM129 650q-13 -10 -33 -10t-37 13
t-18 42q0 26 17.5 41.5t40.5 15.5q12 0 24 -6q20 -9 28 -24.5t8 -33.5q0 -15 -5 -30.5t-13 -28.5q-11 -17 -25 -30t-27.5 -23t-25 -16.5t-18.5 -10.5q-14 -6 -19 -6q-3 0 -3 2q0 3 12 8.5t29 17t35 30.5t30 49z" />
    <glyph glyph-name="quotedblbase" unicode="&#x201e;" horiz-adv-x="400" 
d="M277 109q27 0 50 -24q21 -24 21 -62q0 -40 -29 -78q-30 -38 -69 -54l-12 23q59 35 63 92q-14 -14 -35 -14q-18 0 -33 15q-14 13 -16 32v8q0 21 14 41q16 21 46 21zM105 109q31 0 51 -23q20 -25 20 -61q0 -41 -27 -78q-27 -40 -69 -56l-12 23q59 35 63 92q-17 -14 -35 -14
q-16 0 -33 14q-16 13 -18 35v6q0 21 15 41q16 21 45 21z" />
    <glyph glyph-name="dagger" unicode="&#x2020;" horiz-adv-x="648" 
d="M396 758q12 -2 29 -5t35 -10t36 -17.5t33 -26.5l53 53q6 7 12 7q5 0 7.5 -4t2.5 -9v-187q0 -5 -2 -8.5t-4 -3.5q-5 3 -7 9t-5.5 16t-10 24.5t-18.5 34.5q-31 51 -78 80t-120 29q-42 -3 -80 -17.5t-64 -46.5q-18 -21 -28.5 -44.5t-16 -49t-7 -52.5t-1.5 -54v-95
q10 4 25.5 10.5t33.5 12.5t37 10t35 4q22 -1 38 -7t29 -13t23.5 -14t22.5 -9q13 -3 24 -3q20 0 31 6t19 6q3 0 6 -3t3 -7q0 -6 -9.5 -11.5t-24.5 -10.5q-14 -5 -30 -10t-27 -8q-16 -4 -33 -4q-24 0 -43 7t-36.5 15.5t-36 15.5t-42.5 7q-9 -2 -24 -5.5t-21 -6.5
q1 -11 1 -23.5v-24.5v-38q0 -38 2.5 -76.5t14.5 -73t35.5 -63.5t65.5 -48q15 -8 33.5 -10.5t35.5 -5.5q60 0 103 22t72 54q23 27 37.5 52.5t23.5 46t13.5 34t7.5 16.5q4 2 5 2q7 0 7 -12v-215q-2 -8 -7 -8q-2 0 -4 1t-3 1l-62 67q-22 -20 -40 -34.5t-44 -26.5
q-18 -10 -41.5 -14.5t-49.5 -4.5q-45 0 -90.5 12.5t-80.5 33.5q-62 45 -98 105t-52 139q-9 46 -9 95q0 64 16 125.5t48 115.5q29 47 63 77t69.5 46.5t70 22.5t64.5 6h14t13 -1zM465 930q8 -7 8 -17t-8 -19.5t-16 -14.5q-11 -6 -24 -16t-26.5 -21.5t-25 -22t-19.5 -16.5
q-4 -4 -10 -4q-8 0 -8 7q0 5 6 10q22 26 41 49t33 49q5 7 14 14t20 7q7 0 15 -5z" />
    <glyph glyph-name="daggerdbl" unicode="&#x2021;" horiz-adv-x="789" 
d="M381 764q89 0 156 -33t112 -87.5t67.5 -124t22.5 -141.5v-16t-1 -16q-5 -83 -31.5 -150.5t-72 -115t-109 -73.5t-142.5 -26q-6 0 -12 0.5t-12 0.5q-60 4 -116.5 32.5t-100.5 79t-70.5 120t-26.5 155.5q1 70 20 139.5t59.5 125t104 91t152.5 39.5zM383 744q-43 -2 -80 -20
t-64.5 -49t-43 -71.5t-15.5 -85.5v-315q0 -27 7 -51.5t17.5 -44.5t22.5 -34.5t21 -21.5q26 -22 65 -35t81 -13q40 0 78 12.5t67 41.5q26 25 45.5 67.5t19.5 90.5v303q0 37 -13 77t-40 73t-68.5 54.5t-99.5 21.5zM488 926q9 -8 9 -17q-1 -10 -8.5 -19.5t-15.5 -14.5
q-11 -6 -24.5 -16t-27 -21.5t-25 -22t-19.5 -16.5q-4 -4 -10 -4q-7 0 -7 8q0 5 5 10q23 25 42 48t32 49q5 7 14 14t20 7q7 0 15 -5z" />
    <glyph glyph-name="bullet" unicode="&#x2022;" horiz-adv-x="461" 
d="M232 170q-71 0 -121 50t-50 120t50 122q50 50 121 50q73 0 123 -50q49 -50 49 -122q0 -70 -50 -120t-122 -50z" />
    <glyph glyph-name="ellipsis" unicode="&#x2026;" horiz-adv-x="1000" 
d="M102 58q0 22 16 41q20 23 44 24h4q33 0 48 -18q16 -19 18 -44q0 -24 -16 -46q-16 -21 -48 -23h-4q-21 0 -39 15q-20 17 -23 44v7zM436 58q0 22 16 41q20 23 44 24h4q33 0 48 -18q16 -19 18 -44q0 -24 -16 -46q-16 -21 -48 -23h-4q-21 0 -39 15q-20 17 -23 44v7zM768 58
q0 22 16 41q20 23 44 24h4q33 0 49 -19q17 -22 17 -43v-5q0 -20 -14 -40q-16 -22 -50 -24h-4q-21 0 -38 16q-21 16 -24 43v7z" />
    <glyph glyph-name="perthousand" unicode="&#x2030;" horiz-adv-x="1279" 
d="M711 682l-463 -682h-59l465 682h57zM191 697q75 -1 121 -58q43 -55 45 -149v-16q0 -88 -42 -142q-47 -60 -116 -62h-6q-69 0 -116 50q-50 51 -54 157v4q0 96 48 156q49 60 115 60h5zM96 482q0 -177 95 -179q6 2 8 2q86 8 86 185q0 76 -22 124q-23 50 -72 50
q-50 0 -72 -49q-23 -51 -23 -133zM707 420q76 -2 120 -57q43 -55 46 -150v-16q0 -57 -18 -100q-22 -51 -57 -76q-37 -28 -81 -29h-6q-72 0 -118 51q-50 52 -54 156q0 6 -2 12q2 65 26 113q25 48 64 73q35 23 74 23h6zM611 205q0 -6 -2 -14q5 -164 98 -164h8q86 8 86 186
q0 73 -21 123q-22 49 -73 49q-96 0 -96 -180zM1094 420q74 -2 119 -57q44 -58 47 -150v-16q0 -87 -42 -142q-46 -61 -116 -63h-6q-70 0 -116 51q-50 52 -54 156v11q0 90 47 149q49 61 115 61h6zM998 205q0 -179 94 -180q6 2 10 2q86 8 86 186q0 73 -21 123q-22 49 -73 49
q-96 0 -96 -180z" />
    <glyph glyph-name="guilsinglleft" unicode="&#x2039;" horiz-adv-x="947" 
d="M836 732h-49v-714h49v-18h-199v18h51v714h-51v18h199v-18zM229 18h134q27 0 50.5 9t41 30t27.5 56t10 88v22q-2 39 -8 71t-21.5 54.5t-42 34.5t-68.5 12h-123v-377zM279 732h-50v-318h140q56 -3 95 -16.5t64.5 -33t39.5 -42t20.5 -43t8 -36.5t1.5 -22q0 -67 -22.5 -110
t-58.5 -67.5t-81.5 -34t-91.5 -9.5h-266v18h51v714h-51v18h201v-18zM305 930q8 -7 8 -17t-8 -19.5t-16 -14.5q-11 -6 -24 -16t-26.5 -21.5t-25.5 -22t-20 -16.5q-4 -4 -9 -4q-8 0 -8 7q0 5 6 10q22 26 41 49t33 49q5 7 14 14t20 7q7 0 15 -5z" />
    <glyph glyph-name="guilsinglright" unicode="&#x203a;" horiz-adv-x="328" 
d="M262 732h-51v-714h51v-18h-199v18h48v714h-48v18h199v-18zM63 912q23 0 38.5 -16.5t15.5 -40.5q0 -22 -15.5 -38t-38.5 -16q-24 0 -40.5 16t-16.5 38q0 24 16.5 40.5t40.5 16.5zM258 912q22 0 38.5 -16t16.5 -39t-16.5 -39.5t-38.5 -16.5q-23 0 -40 16.5t-17 39.5t17 39
t40 16z" />
    <glyph glyph-name="trademark" unicode="&#x2122;" horiz-adv-x="980" 
d="M176 658h-45q-48 0 -60 -16q-13 -17 -14 -56h-24v96h340v-96h-23q0 39 -14 56q-13 14 -55 16h-51v-312q0 -10 -1 -14q5 -26 19 -30q15 -5 47 -5v-20h-184v20q34 0 50 8q15 7 15 35v318zM557 682l129 -309l132 309h114v-18q-34 0 -43 -6q-6 -5 -6 -15v-305q0 -25 10 -31
q9 -5 39 -10v-20h-157v20q25 0 39 8q12 7 12 33v14v289l-150 -364h-10l-152 366v-305q0 -4 -2 -12q6 -29 52 -29v-20h-125v20q32 0 41 6q8 6 8 25v22v273v22q0 11 -2 13q-5 6 -37 6v18h108z" />
    <glyph glyph-name="uni0401.001" horiz-adv-x="588" 
d="M502 750q3 0 8.5 -1t11 -3.5t9.5 -7.5t4 -13v-166q0 -14 -4 -18q-3 0 -5.5 1t-4.5 7q-2 26 -10.5 58t-24.5 59.5t-40 46.5t-55 19h-180v-328h113q16 0 27.5 16.5t19 37t11 38.5t3.5 22q0 6 3 12t7 6q5 0 5 -18v-247q0 -10 -7 -10q-8 0 -10 10q-3 18 -4.5 38t-6.5 37.5
t-16 29t-32 11.5h-113v-369h201q40 0 63 20.5t35.5 50.5t18 64t10.5 62q3 18 10 18q5 0 8.5 -7t3.5 -19v-176q0 -12 -3.5 -18t-8 -9t-9.5 -3.5t-7 -0.5h-472v18h48v714h-48v18h441v0z" />
  </font>
</defs>
</svg>
