<svg xmlns="http://www.w3.org/2000/svg" version="1.1" xmlns:xlink="http://www.w3.org/1999/xlink" xmlns:svgjs="http://svgjs.dev/svgjs" width="142" height="152"><svg width="142" height="152" viewBox="0 0 142 152" fill="none" xmlns="http://www.w3.org/2000/svg">
<path d="M99.2 0.800003C94.7 0.800003 87.8 1.4 82.1 3.7C77.8 5.4 73.8 8.6 70.6 11.7C67.4 8.7 63.4 5.5 59.1 3.7C53.4 1.4 46.5 0.900003 42.1 0.800003H34.8V76.2H42.1V8.2C46 8.2 51.8 8.7 56.4 10.5C62.6 13 68.7 19.8 70.6 22.3C72.6 19.9 78.6 13.1 84.8 10.5C89.3 8.7 95.2 8.2 99.1 8.2V76.2H106.5V0.800003H99.1H99.2Z" fill="#E7343F"></path>
<path d="M70.7 30.2C67.5 25.4 59.9 17.8 53.8 15.4C52 14.7 49.9 14.2 47.7 14V76.2H55.1V24.8C61.4 28.6 66.7 36.2 70.7 42C74.7 36.2 80 28.6 86.3 24.8V76.2H93.6V14C91.5 14.3 89.4 14.7 87.6 15.4C81.5 17.9 73.9 25.4 70.7 30.2Z" fill="#E7343F"></path>
<path d="M112.1 0.800003V81.7H84.1C78.5 81.7 73.8 84 70.7 87.8C67.6 84.1 62.9 81.7 57.3 81.7H29.3V0.800003H22V89.1H57.3C62.9 89.1 67 93 67 98.3H74.3C74.3 93 78.4 89.1 84 89.1H119.3V0.899994H112L112.1 0.800003Z" fill="#E7343F"></path>
<path d="M133.3 151.7H141.1V148.7H136.5V144.8H140V141.8H136.5V138.6H140.8V135.6H133.3V151.7ZM121 152H121.5L127.5 143.8V151.8H130.5V135.4H130L124 143.6V135.6H121V152ZM115 151.7H118.2V135.6H115V141.8H111.8V135.6H108.6V151.7H111.8V144.7H115V151.7ZM97.4 146.4L99.4 141.6L101.4 146.4H97.4ZM91.8 151.7H95.1L96.1 149.3H102.6L103.6 151.7H107L99.6 135.3H99.1L91.7 151.7H91.8ZM85.2 142V138.4C86.8 138.4 87.6 138.9 87.6 140.2C87.6 141.5 86.7 142 85.2 142ZM85.2 148.9V144.7C87.4 144.7 88.3 145.4 88.3 146.8C88.3 148.2 87.4 148.9 85.2 148.9ZM82.2 151.7H85.2C89.3 151.7 91.4 150 91.4 147C91.4 144 90.7 143.7 88.9 143.1C90.1 142.5 90.7 141.3 90.7 139.9C90.7 137.1 88.7 135.6 84.8 135.6H82.3V151.7H82.2ZM71.7 148.7C68.8 148.7 66.9 146.6 66.9 143.6C66.9 140.6 68.9 138.5 71.7 138.5C74.5 138.5 76.5 140.6 76.5 143.6C76.5 146.6 74.5 148.7 71.7 148.7ZM71.7 152C76.4 152 79.9 148.4 79.9 143.7C79.9 139 76.4 135.4 71.7 135.4C67 135.4 63.5 138.7 63.5 143.7C63.5 148.7 66.9 152 71.7 152ZM57.3 152C60 152 62 150.1 62 147.2C62 144.3 61.1 143.7 59.7 143.3C60.9 142.7 61.5 141.3 61.5 139.8C61.5 137.1 59.5 135.4 56.9 135.4C54.3 135.4 55.1 135.6 54.8 135.8V138.9C55.2 138.6 55.8 138.4 56.5 138.4C57.6 138.4 58.3 139.1 58.3 140C58.3 140.9 57.9 141.8 56.1 141.8V144.8C58.3 144.8 58.8 145.8 58.8 146.9C58.8 148 58.1 149 56.8 149C55.5 149 55.1 148.7 54.8 148.4V151.5C55.7 151.9 56.5 152 57.4 152M44 146.4L46 141.6L48 146.4H44ZM38.4 151.7H41.7L42.7 149.3H49.2L50.2 151.7H53.6L46.2 135.3H45.7L38.3 151.7H38.4ZM33.5 143.2V138.6C35.3 138.6 36.3 139.4 36.3 140.9C36.3 142.4 35.3 143.2 33.5 143.2ZM30.2 151.7H33.4V146.2C37.9 146.2 39.5 143.7 39.5 140.9C39.5 138.1 37.1 135.6 32.7 135.6H30.2V151.7ZM22.1 148.8V144.1C23.9 144.1 24.9 145 24.9 146.5C24.9 148 23.9 148.9 22.1 148.9M18.9 151.7H22.1C25.8 151.7 28.1 149.8 28.1 146.4C28.1 143 26.5 141.1 22.1 141.1V138.6H27V135.6H18.9V151.7ZM8.39999 148.7C5.49999 148.7 3.60001 146.6 3.60001 143.6C3.60001 140.6 5.59999 138.5 8.39999 138.5C11.2 138.5 13.2 140.6 13.2 143.6C13.2 146.6 11.2 148.7 8.39999 148.7ZM8.39999 152C13.1 152 16.6 148.4 16.6 143.7C16.6 139 13.1 135.4 8.39999 135.4C3.69999 135.4 0.200012 138.7 0.200012 143.7C0.200012 148.7 3.59999 152 8.39999 152Z" fill="#E7343F"></path>
<path d="M133.2 127.6H141V124.6H136.4V120.7H139.9V117.7H136.4V114.5H140.7V111.5H133.2V127.6ZM122.3 124.6C119.4 124.6 117.5 122.5 117.5 119.5C117.5 116.5 119.5 114.4 122.3 114.4C125.1 114.4 127.1 116.5 127.1 119.5C127.1 122.5 125.1 124.6 122.3 124.6ZM122.2 127.8C126.9 127.8 130.4 124.2 130.4 119.5C130.4 114.8 126.9 111.2 122.2 111.2C117.5 111.2 114 114.5 114 119.5C114 124.5 117.4 127.8 122.2 127.8ZM109.7 127.6H113.1L110.1 119.2L112.8 111.5H109.6L107.6 117.7H106.5V111.5H103.4V127.6H106.5V120.7H107.5L109.8 127.6H109.7ZM98.6 127.8C99.2 127.8 99.8 127.8 100.3 127.5V124.3C99.8 124.4 99.3 124.5 98.6 124.5C95.6 124.5 93.5 122.5 93.5 119.4C93.5 116.3 95.6 114.3 98.6 114.3C101.6 114.3 99.8 114.3 100.3 114.5V111.3C99.8 111.1 99.3 111.1 98.6 111.1C93.8 111.1 90.2 114.3 90.2 119.4C90.2 124.5 93.8 127.7 98.6 127.7M82.1 117.8V114.2C83.7 114.2 84.5 114.7 84.5 116C84.5 117.3 83.6 117.8 82.1 117.8ZM82.1 124.8V120.6C84.3 120.6 85.2 121.3 85.2 122.7C85.2 124.1 84.3 124.8 82.1 124.8ZM79.1 127.6H82.1C86.2 127.6 88.3 125.9 88.3 122.9C88.3 119.9 87.6 119.6 85.8 119C87 118.4 87.6 117.2 87.6 115.8C87.6 113 85.6 111.5 81.7 111.5H79.2V127.6H79.1ZM68.2 124.6C65.3 124.6 63.4 122.5 63.4 119.5C63.4 116.5 65.4 114.4 68.2 114.4C71 114.4 73 116.5 73 119.5C73 122.5 71 124.6 68.2 124.6ZM68.1 127.8C72.8 127.8 76.3 124.2 76.3 119.5C76.3 114.8 72.8 111.2 68.1 111.2C63.4 111.2 59.9 114.5 59.9 119.5C59.9 124.5 63.3 127.8 68.1 127.8ZM55.6 127.6H59L56 119.2L58.7 111.5H55.5L53.5 117.7H52.4V111.5H49.3V127.6H52.4V120.7H53.4L55.7 127.6H55.6ZM44.5 127.8C45.1 127.8 45.7 127.8 46.2 127.5V124.3C45.7 124.4 45.2 124.5 44.5 124.5C41.5 124.5 39.4 122.5 39.4 119.4C39.4 116.3 41.5 114.3 44.5 114.3C47.5 114.3 45.7 114.3 46.2 114.5V111.3C45.7 111.1 45.2 111.1 44.5 111.1C39.7 111.1 36.1 114.3 36.1 119.4C36.1 124.5 39.7 127.7 44.5 127.7M25.6 124.6C22.7 124.6 20.8 122.5 20.8 119.5C20.8 116.5 22.8 114.4 25.6 114.4C28.4 114.4 30.4 116.5 30.4 119.5C30.4 122.5 28.4 124.6 25.6 124.6ZM25.6 127.8C30.3 127.8 33.8 124.2 33.8 119.5C33.8 114.8 30.3 111.2 25.6 111.2C20.9 111.2 17.4 114.5 17.4 119.5C17.4 124.5 20.8 127.8 25.6 127.8ZM0.699982 111.5V127.6H3.79996V116.1L7.49997 120.1H7.69998L11.4 116.2V127.7H14.5V111.6C11.5 112 9.49998 113.7 7.59998 116C5.69998 113.7 3.59998 111.9 0.599976 111.6" fill="#E7343F"></path>
</svg><style>@media (prefers-color-scheme: light) { :root { filter: none; } }
@media (prefers-color-scheme: dark) { :root { filter: none; } }
</style></svg>