<svg width="500" height="509" viewBox="0 0 500 509" fill="none" xmlns="http://www.w3.org/2000/svg">
<g clip-path="url(#clip0_920_32246)">
<path d="M497.154 30.7761L0.931887 91.3585C0.874249 91.3657 0.815793 91.3557 0.763663 91.3297C0.709425 91.3019 0.662393 91.2616 0.626378 91.2119C0.58476 91.1554 0.553329 91.0918 0.533538 91.0242C0.510754 90.9465 0.499455 90.8658 0.50002 90.7848C0.500038 90.7009 0.511525 90.6175 0.534171 90.5368C0.555381 90.4623 0.587302 90.3913 0.628907 90.3262C0.665127 90.2677 0.711666 90.2164 0.766193 90.1751C0.815452 90.1375 0.87337 90.1134 0.934416 90.1051L497.154 28.6867C497.31 28.6663 497.469 28.6745 497.622 28.7109C497.759 28.7434 497.889 28.8034 498.004 28.8875C498.111 28.9664 498.199 29.0691 498.262 29.1878C498.324 29.3089 498.357 29.4436 498.356 29.5803C498.355 29.7252 498.323 29.8681 498.262 29.9989C498.198 30.1349 498.111 30.2581 498.004 30.3627C497.892 30.4733 497.763 30.5647 497.622 30.6335C497.475 30.7069 497.317 30.7551 497.154 30.7761Z" fill="#D9D9D9"/>
<path d="M498.048 508.994L0.818228 457.62C0.760442 457.614 0.705575 457.592 0.660326 457.555C0.613406 457.515 0.576256 457.466 0.551853 457.409C0.523471 457.345 0.506541 457.276 0.501867 457.205C0.496437 457.124 0.50287 457.043 0.52094 456.964C0.53908 456.882 0.568338 456.804 0.60786 456.73C0.644665 456.662 0.691136 456.6 0.745803 456.546C0.793789 456.497 0.850263 456.457 0.912408 456.429C0.968579 456.403 1.03032 456.392 1.09169 456.398L498.5 506.955C498.656 506.97 498.809 507.013 498.95 507.083C499.078 507.145 499.192 507.233 499.285 507.34C499.373 507.441 499.437 507.561 499.472 507.691C499.507 507.823 499.509 507.961 499.479 508.095C499.447 508.236 499.385 508.368 499.297 508.482C499.205 508.6 499.093 508.701 498.966 508.779C498.833 508.862 498.687 508.923 498.535 508.959C498.376 508.997 498.211 509.009 498.048 508.994Z" fill="#D9D9D9"/>
<path d="M10.7858 67.2912C11.432 67.1899 12.0932 67.2808 12.6897 67.5529C13.3031 67.8412 13.839 68.2754 14.252 68.8187C14.7262 69.4393 15.0844 70.1428 15.309 70.8944C15.5717 71.7632 15.7021 72.6677 15.6957 73.5765C15.6965 74.5207 15.5663 75.4604 15.309 76.3679C15.0732 77.2089 14.7171 78.0103 14.252 78.7464C13.8382 79.4095 13.3088 79.9906 12.6897 80.461C12.1311 80.8855 11.4764 81.1608 10.7858 81.2617C10.1397 81.351 9.48189 81.249 8.89152 80.968C8.28535 80.6703 7.75759 80.2306 7.35175 79.6852C6.8874 79.0656 6.53676 78.3663 6.31663 77.6206C6.06005 76.7618 5.93229 75.8686 5.93766 74.9712C5.93752 74.0387 6.06506 73.1107 6.31663 72.2138C6.54741 71.3799 6.89585 70.5843 7.35112 69.8516C7.75878 69.1881 8.28054 68.6042 8.89154 68.1279C9.44485 67.6939 10.0958 67.4064 10.7858 67.2912Z" fill="#1F1F1F"/>
<path d="M28.0284 64.665C28.7035 64.5592 29.3944 64.6499 30.0207 64.9267C30.6602 65.2161 31.2216 65.6575 31.6578 66.2135C32.1527 66.8443 32.5277 67.563 32.7638 68.333C33.0384 69.2204 33.1747 70.1458 33.1679 71.0759C33.1681 72.043 33.0314 73.0051 32.7618 73.9327C32.5144 74.7948 32.1423 75.6149 31.6578 76.3662C31.2225 77.0481 30.6687 77.644 30.0233 78.1246C29.4365 78.5633 28.7522 78.8482 28.031 78.9541C27.3562 79.0475 26.6691 78.9453 26.0491 78.6591C25.4176 78.3586 24.8653 77.9101 24.4378 77.3507C23.9526 76.7212 23.585 76.0068 23.3531 75.243C23.0848 74.3662 22.9511 73.4528 22.9567 72.5347C22.9567 71.5802 23.0902 70.6304 23.3531 69.7139C23.5954 68.8578 23.96 68.0423 24.4353 67.2935C24.8641 66.6118 25.4098 66.0136 26.0466 65.5272C26.6282 65.0803 27.3085 64.7844 28.0284 64.665Z" fill="#1F1F1F"/>
<path d="M46.0766 61.9129C46.7824 61.8013 47.5049 61.8907 48.1636 62.1713C48.8298 62.4642 49.4171 62.9152 49.8761 63.4862C50.3938 64.1276 50.7874 64.8625 51.0362 65.6522C51.3245 66.5578 51.4683 67.5043 51.4623 68.456C51.4622 69.447 51.3186 70.4327 51.0362 71.3814C50.7751 72.2683 50.384 73.1103 49.8761 73.8791C49.4176 74.5811 48.8374 75.1929 48.1636 75.6846C47.5461 76.1362 46.83 76.4293 46.0766 76.5389C45.3711 76.6371 44.6525 76.535 44.0006 76.2439C43.3422 75.9412 42.7637 75.4846 42.3126 74.9113C41.8071 74.2702 41.4233 73.5393 41.1808 72.7558C40.9004 71.8614 40.7604 70.9279 40.7658 69.9893C40.7656 69.0102 40.9055 68.0362 41.1808 67.0979C41.4353 66.2192 41.8167 65.3837 42.3126 64.6185C42.7642 63.9158 43.3361 63.3007 44.0013 62.8026C44.6131 62.3421 45.3248 62.037 46.0766 61.9129Z" fill="#1F1F1F"/>
<path d="M470.412 4.11886L440.154 8.55873C439.872 8.60226 439.583 8.59138 439.304 8.52667C439.053 8.4678 438.817 8.35641 438.611 8.19959C438.415 8.05048 438.255 7.85753 438.144 7.63569C438.03 7.40397 437.971 7.14829 437.973 6.88928C437.975 6.61341 438.033 6.34095 438.144 6.08923C438.258 5.82932 438.416 5.59157 438.611 5.38664C438.812 5.17313 439.047 4.99399 439.304 4.85611C439.57 4.71331 439.857 4.6173 440.154 4.57219L470.411 0.0296185C470.708 -0.0172864 471.012 -0.00841998 471.306 0.0557819C471.57 0.112724 471.819 0.224052 472.038 0.382863C472.249 0.536066 472.421 0.738789 472.538 0.97376C472.656 1.20873 472.715 1.469 472.712 1.73243C472.711 2.01713 472.649 2.29813 472.531 2.55668C472.41 2.82596 472.243 3.07151 472.038 3.28216C471.6 3.73344 471.029 4.02778 470.411 4.12081L470.412 4.11886Z" fill="#1F1F1F"/>
<path d="M470.411 11.7854L440.154 16.0375C439.871 16.0792 439.582 16.0666 439.304 16.0002C439.053 15.941 438.817 15.8296 438.61 15.6731C438.414 15.5228 438.255 15.3291 438.144 15.1066C438.028 14.8718 437.97 14.6126 437.972 14.3504C437.974 14.0749 438.032 13.8029 438.144 13.5516C438.258 13.2927 438.416 13.056 438.61 12.8523C438.812 12.641 439.046 12.4643 439.304 12.329C439.57 12.1878 439.857 12.0936 440.154 12.0503L470.41 7.69612C470.708 7.65118 471.012 7.66205 471.306 7.72818C471.57 7.78747 471.819 7.90102 472.038 8.06182C472.245 8.21393 472.414 8.41252 472.532 8.64206C472.653 8.88068 472.714 9.14529 472.712 9.41334C472.71 9.69762 472.648 9.97821 472.531 10.2363C472.409 10.5038 472.242 10.7474 472.037 10.9559C471.598 11.4048 471.026 11.6956 470.409 11.7841L470.411 11.7854Z" fill="#1F1F1F"/>
<path d="M470.411 19.4512L440.154 23.5071C439.87 23.5471 439.582 23.5327 439.304 23.4646C439.053 23.403 438.816 23.2894 438.61 23.131C438.41 22.9768 438.248 22.7772 438.137 22.5483C438.027 22.3193 437.97 22.0672 437.972 21.8121C437.974 21.5369 438.032 21.2651 438.143 21.014C438.257 20.7558 438.415 20.5199 438.61 20.3174C438.812 20.1058 439.046 19.929 439.304 19.794C439.57 19.6544 439.857 19.5619 440.154 19.5206L470.41 15.3627C470.709 15.3198 471.012 15.3326 471.306 15.4007C471.57 15.4617 471.819 15.5768 472.038 15.7389C472.245 15.8923 472.414 16.092 472.532 16.3224C472.652 16.5613 472.714 16.8261 472.712 17.0943C472.71 17.3782 472.648 17.6584 472.531 17.916C472.409 18.1837 472.242 18.4273 472.037 18.6356C471.597 19.0818 471.025 19.3691 470.409 19.4533L470.411 19.4512Z" fill="#1F1F1F"/>
<path d="M326.559 90.2428L472.714 77.6787V166.103L326.559 168.039V90.2428Z" fill="#F4F4F5"/>
<path d="M440.451 206.075L353.652 204.325C352.65 204.306 351.693 203.897 350.98 203.182C350.638 202.839 350.364 202.433 350.172 201.985C349.977 201.527 349.876 201.033 349.876 200.533C349.876 200.038 349.977 199.548 350.172 199.094C350.363 198.653 350.637 198.254 350.98 197.922C351.326 197.585 351.734 197.32 352.179 197.14C352.648 196.952 353.148 196.86 353.652 196.868L440.45 198.028C441.039 198.035 441.621 198.15 442.17 198.368C442.688 198.573 443.165 198.872 443.578 199.251C443.976 199.615 444.299 200.055 444.529 200.546C444.759 201.039 444.878 201.578 444.878 202.123C444.879 202.665 444.759 203.2 444.529 203.689C444.3 204.172 443.976 204.602 443.578 204.954C443.164 205.32 442.686 205.604 442.17 205.791C441.618 205.99 441.035 206.086 440.45 206.073L440.451 206.075Z" fill="#F0F0F0"/>
<path d="M425.539 192.175L366.777 191.674C366.26 191.67 365.748 191.565 365.269 191.365C364.812 191.173 364.395 190.896 364.04 190.548C363.69 190.205 363.409 189.797 363.213 189.346C363.013 188.885 362.91 188.386 362.91 187.882C362.91 187.378 363.013 186.879 363.213 186.418C363.409 185.969 363.69 185.564 364.04 185.225C364.395 184.88 364.812 184.607 365.269 184.421C365.748 184.225 366.26 184.125 366.777 184.127L425.539 184.229C426.112 184.229 426.68 184.336 427.215 184.544C427.721 184.741 428.186 185.032 428.588 185.401C428.977 185.758 429.293 186.19 429.516 186.672C429.74 187.157 429.856 187.687 429.856 188.223C429.856 188.76 429.74 189.289 429.516 189.775C429.293 190.254 428.977 190.682 428.588 191.035C428.186 191.4 427.721 191.686 427.215 191.878C426.68 192.081 426.112 192.182 425.54 192.176L425.539 192.175Z" fill="#F0F0F0"/>
<path d="M326.559 231.711L472.714 238.474V326.899L326.559 309.507V231.711Z" fill="#F4F4F5"/>
<path d="M440.451 362.605L353.652 349.376C353.134 349.295 352.635 349.12 352.179 348.859C351.729 348.601 351.324 348.27 350.98 347.877C350.64 347.493 350.367 347.053 350.172 346.576C349.979 346.103 349.879 345.597 349.877 345.085C349.873 344.601 349.974 344.122 350.172 343.682C350.36 343.271 350.636 342.908 350.98 342.619C351.331 342.326 351.74 342.114 352.179 341.997C352.66 341.87 353.161 341.843 353.652 341.919L440.45 354.557C441.051 354.646 441.632 354.838 442.17 355.124C442.693 355.402 443.168 355.763 443.578 356.194C443.974 356.608 444.296 357.09 444.529 357.617C444.756 358.127 444.875 358.68 444.879 359.24C444.882 359.768 444.763 360.289 444.529 360.76C444.303 361.209 443.977 361.599 443.578 361.9C443.158 362.214 442.679 362.435 442.17 362.55C441.605 362.677 441.022 362.696 440.45 362.604L440.451 362.605Z" fill="#F0F0F0"/>
<path d="M425.539 346.733L366.777 338.461C366.249 338.385 365.738 338.213 365.269 337.952C364.809 337.697 364.394 337.365 364.041 336.971C363.693 336.586 363.413 336.144 363.214 335.663C363.016 335.186 362.913 334.674 362.91 334.157C362.907 333.666 363.01 333.18 363.213 332.735C363.406 332.316 363.689 331.945 364.04 331.651C364.4 331.351 364.819 331.132 365.269 331.009C365.76 330.876 366.273 330.844 366.777 330.915L425.539 338.787C426.124 338.867 426.691 339.048 427.215 339.324C427.725 339.592 428.189 339.942 428.588 340.362C428.975 340.768 429.289 341.239 429.515 341.754C429.737 342.257 429.852 342.802 429.856 343.353C429.859 343.874 429.742 344.389 429.515 344.857C429.295 345.303 428.978 345.692 428.588 345.995C428.18 346.309 427.713 346.534 427.215 346.656C426.666 346.789 426.097 346.815 425.539 346.732V346.733Z" fill="#F0F0F0"/>
<path d="M241.655 310.175L11.8634 280.314C11.2379 280.224 10.645 279.975 10.1393 279.591C9.58333 279.17 9.10799 278.65 8.73681 278.055C8.32149 277.397 8.00378 276.681 7.79387 275.929C7.56417 275.116 7.44767 274.274 7.44776 273.428V126.137C7.44678 125.296 7.56331 124.459 7.79387 123.651C8.00249 122.913 8.32044 122.212 8.73681 121.571C9.10705 120.994 9.58292 120.495 10.1386 120.1C10.6488 119.738 11.2429 119.516 11.8627 119.457L241.655 100.36C242.639 100.274 243.63 100.408 244.558 100.753C245.486 101.098 246.328 101.645 247.025 102.355C247.732 103.075 248.29 103.931 248.664 104.873C249.068 105.89 249.273 106.977 249.269 108.074V302.816C249.275 303.903 249.069 304.981 248.664 305.987C248.292 306.909 247.734 307.74 247.025 308.429C246.335 309.095 245.508 309.598 244.604 309.901C243.653 310.214 242.646 310.308 241.655 310.175Z" fill="white"/>
<path d="M150.796 201.564C150.179 200.75 149.484 200.001 148.722 199.328C147.996 198.687 147.205 198.126 146.363 197.654C145.551 197.2 144.691 196.84 143.799 196.582C142.922 196.329 142.019 196.183 141.108 196.148C140.207 196.114 139.305 196.192 138.423 196.378C137.543 196.565 136.689 196.856 135.876 197.245C135.046 197.643 134.263 198.134 133.54 198.708C132.787 199.307 132.098 199.984 131.484 200.729L69.6535 275.728C68.9394 276.617 68.0244 277.317 66.9865 277.77C66.0355 278.174 64.9982 278.322 63.9746 278.199C62.9053 278.064 61.8814 277.679 60.9834 277.074C59.9534 276.379 59.0653 275.489 58.3679 274.452L50.1773 262.501C49.2352 261.084 48.0271 259.87 46.6221 258.928C45.4214 258.125 44.0484 257.626 42.6184 257.473C41.2607 257.341 39.8927 257.576 38.6532 258.154C37.2961 258.804 36.1121 259.775 35.2005 260.985L20.3823 280.055L227.529 306.599V302.87L150.796 201.564Z" fill="#E51740"/>
<path d="M241.654 312.991L11.8634 282.476C11.0255 282.352 10.2316 282.017 9.55477 281.5C8.81101 280.935 8.17538 280.236 7.67921 279.439C7.12445 278.557 6.70014 277.598 6.41981 276.591C6.11304 275.504 5.95726 274.379 5.95703 273.248V126.248C5.95625 125.124 6.11206 124.006 6.41981 122.926C6.69804 121.937 7.12268 120.997 7.67921 120.138C8.17435 119.364 8.81076 118.694 9.55411 118.164C10.2368 117.677 11.0322 117.378 11.8628 117.296L241.654 97.5398C242.974 97.421 244.305 97.5977 245.551 98.0575C246.796 98.5173 247.928 99.249 248.865 100.201C249.817 101.165 250.568 102.314 251.072 103.579C251.616 104.945 251.892 106.405 251.887 107.878V303.134C251.895 304.595 251.618 306.043 251.072 307.395C250.571 308.632 249.819 309.748 248.865 310.67C247.937 311.563 246.825 312.235 245.61 312.638C244.334 313.054 242.982 313.175 241.654 312.992L241.654 312.991ZM11.8634 121.619C11.4545 121.657 11.0622 121.802 10.7252 122.04C10.3579 122.3 10.0433 122.629 9.7984 123.009C9.52286 123.433 9.31248 123.896 9.1745 124.383C9.02187 124.917 8.9446 125.469 8.94504 126.025V273.606C8.94514 274.165 9.02239 274.721 9.1745 275.258C9.31337 275.755 9.52359 276.228 9.7984 276.662C10.0436 277.056 10.3582 277.401 10.7265 277.68C11.0606 277.932 11.4521 278.095 11.8647 278.154L241.656 307.354C242.309 307.44 242.973 307.377 243.599 307.169C244.194 306.968 244.738 306.636 245.192 306.196C245.658 305.742 246.025 305.193 246.269 304.586C246.535 303.924 246.67 303.215 246.666 302.499V108.269C246.669 107.548 246.534 106.833 246.269 106.163C246.023 105.542 245.657 104.978 245.192 104.504C244.733 104.034 244.179 103.672 243.568 103.444C242.957 103.215 242.305 103.125 241.656 103.179L11.8634 121.619Z" fill="#D9D9D9"/>
<path d="M44.0931 466.266L51.0022 466.265L54.2889 439.217L44.0923 439.218L44.0931 466.266Z" fill="#FFE5EF"/>
<path d="M42.3311 463.976L55.9375 463.976C58.2371 463.976 60.4431 464.903 62.0692 466.553C63.6953 468.204 64.6089 470.442 64.6091 472.776V473.062L42.3315 473.063L42.3311 463.976Z" fill="#80193E"/>
<path d="M107.774 475.521L114.683 475.52L117.97 448.472L107.773 448.473L107.774 475.521Z" fill="#FFE5EF"/>
<path d="M106.012 473.231L119.619 473.23C121.918 473.231 124.124 474.158 125.75 475.808C127.376 477.459 128.29 479.697 128.29 482.031V482.317L106.013 482.318L106.012 473.231Z" fill="#80193E"/>
<path d="M99.4328 258.222L103.941 287.393L61.1108 287.965L66.7467 259.938L99.4328 258.222Z" fill="#FFE5EF"/>
<path d="M102.698 280.271L116.339 317.138L118.03 469.917H106.477L78.8633 347.167L53.5034 457.458H42.2324L50.1221 332.295C50.1221 332.295 47.7955 305.316 59.7025 289.396L62.6007 280.898L102.698 280.271Z" fill="#1F1F1F"/>
<path d="M44.1852 309.01C45.3778 308.68 46.4845 308.089 47.4276 307.278C48.3706 306.467 49.127 305.456 49.6435 304.316C50.1599 303.177 50.4239 301.936 50.4168 300.681C50.4096 299.427 50.1316 298.189 49.6022 297.056L67.8227 236.763L54.4208 234.066L37.7564 293.166C35.939 294.195 34.5565 295.864 33.871 297.859C33.1854 299.853 33.2445 302.033 34.0369 303.986C34.8294 305.939 36.3001 307.529 38.1705 308.455C40.0409 309.381 42.181 309.579 44.1852 309.01Z" fill="#FFE5EF"/>
<path d="M68.216 274.333C67.9659 274.333 67.7165 274.308 67.4712 274.259C66.6466 274.091 65.8986 273.654 65.3415 273.015C64.7844 272.375 64.4489 271.568 64.3862 270.717C63.9625 264.83 61.8634 254.582 58.147 240.258C56.8925 235.389 57.1703 230.244 58.9417 225.544C60.713 220.844 63.889 216.825 68.0245 214.049C72.16 211.273 77.0476 209.881 82.0021 210.066C86.9567 210.252 91.7298 212.006 95.6524 215.084C98.164 217.037 100.26 219.485 101.815 222.282C103.369 225.079 104.35 228.166 104.698 231.357C106.545 247.867 103.063 264.442 101.48 270.803C101.272 271.633 100.802 272.371 100.141 272.904C99.4803 273.437 98.6656 273.736 97.8217 273.754L68.298 274.332C68.2706 274.333 68.2434 274.333 68.216 274.333Z" fill="#E00051"/>
<path d="M150.7 221.373C150.523 221.776 150.377 222.194 150.264 222.621L113.309 235.366L106.168 229.035L95.3447 238.724L106.913 251.18C107.848 252.186 109.078 252.858 110.421 253.093C111.764 253.329 113.145 253.116 114.359 252.487L153.903 231.986C155.333 232.876 156.996 233.303 158.671 233.211C160.347 233.118 161.954 232.51 163.281 231.468C164.607 230.425 165.589 228.998 166.097 227.375C166.604 225.752 166.613 224.01 166.122 222.382C165.63 220.754 164.662 219.317 163.346 218.26C162.03 217.204 160.429 216.58 158.754 216.471C157.08 216.361 155.413 216.771 153.974 217.647C152.535 218.523 151.393 219.822 150.7 221.373Z" fill="#FFE5EF"/>
<path d="M112.021 236.063L98.549 248.006C98.1657 248.346 97.7147 248.598 97.2268 248.745C96.7389 248.892 96.2255 248.93 95.7217 248.857C95.2178 248.785 94.7352 248.603 94.3069 248.324C93.8785 248.045 93.5144 247.676 93.2394 247.241L83.6033 232.011C81.9019 230.011 81.0514 227.407 81.2383 224.771C81.4251 222.136 82.6341 219.682 84.6001 217.95C86.5661 216.217 89.1288 215.347 91.7263 215.529C94.3238 215.711 96.7442 216.931 98.4569 218.921L111.988 230.62C112.376 230.955 112.687 231.371 112.902 231.839C113.117 232.308 113.229 232.817 113.233 233.334C113.236 233.851 113.129 234.362 112.92 234.833C112.711 235.304 112.404 235.723 112.021 236.063Z" fill="#E00051"/>
<path d="M65.6946 252.201L49.0464 245.562C48.5727 245.374 48.1446 245.083 47.7915 244.711C47.4383 244.339 47.1682 243.895 46.9996 243.407C46.8311 242.92 46.768 242.401 46.8148 241.887C46.8615 241.373 47.0168 240.874 47.2703 240.427L56.1529 224.732C57.1189 222.278 59.0043 220.313 61.3956 219.267C63.7869 218.222 66.489 218.182 68.9096 219.155C71.3302 220.129 73.2717 222.037 74.3085 224.461C75.3454 226.885 75.3929 229.627 74.4407 232.087L70.44 249.665C70.3253 250.168 70.1051 250.641 69.7944 251.05C69.4836 251.459 69.0897 251.795 68.6394 252.036C68.189 252.276 67.6929 252.416 67.1847 252.444C66.6765 252.473 66.1683 252.39 65.6946 252.201Z" fill="#E00051"/>
<path d="M78.0355 206.351C88.0369 206.351 96.1447 198.121 96.1447 187.97C96.1447 177.819 88.0369 169.59 78.0355 169.59C68.034 169.59 59.9263 177.819 59.9263 187.97C59.9263 198.121 68.034 206.351 78.0355 206.351Z" fill="#FFE5EF"/>
<path d="M102.279 181.774H73.5239V169.052C79.8354 166.507 86.0115 164.343 89.7449 169.052C93.0692 169.052 96.2573 170.392 98.608 172.778C100.959 175.164 102.279 178.4 102.279 181.774Z" fill="#1F1F1F"/>
<path d="M71.8662 207.014C83.3112 207.014 92.5893 197.597 92.5893 185.981C92.5893 174.364 83.3112 164.947 71.8662 164.947C60.4211 164.947 51.1431 174.364 51.1431 185.981C51.1431 197.597 60.4211 207.014 71.8662 207.014Z" fill="#1F1F1F"/>
<path d="M56.9454 183.457C64.2702 183.457 70.2082 177.43 70.2082 169.996C70.2082 162.561 64.2702 156.534 56.9454 156.534C49.6206 156.534 43.6826 162.561 43.6826 169.996C43.6826 177.43 49.6206 183.457 56.9454 183.457Z" fill="#1F1F1F"/>
</g>
<defs>
<clipPath id="clip0_920_32246">
<rect width="499" height="509" fill="white" transform="translate(0.5)"/>
</clipPath>
</defs>
</svg>
