<svg width="157" height="120" viewBox="0 0 157 120" fill="none" xmlns="http://www.w3.org/2000/svg">
<g clip-path="url(#clip0_1574_5758)">
<path d="M106.393 119.616C106.24 119.747 106.083 119.873 105.923 119.999H86.5783C86.4673 119.873 86.3561 119.747 86.2468 119.616C85.3536 118.547 84.5673 117.393 83.8991 116.17C82.3108 113.314 81.7637 109.569 81.7637 105.754C81.7637 105.521 81.7653 105.289 81.7701 105.056C81.7879 103.986 81.8474 102.914 81.9359 101.86C81.952 101.677 81.9681 101.495 81.9858 101.314C82.129 99.8019 82.3302 98.3302 82.5587 96.9549C82.5876 96.7798 82.6166 96.6063 82.6471 96.4344C83.1128 93.703 83.7372 91.0009 84.517 88.3418C84.517 88.3418 84.5427 88.3482 84.5925 88.3611C84.7358 88.4012 85.0785 88.496 85.5822 88.6455C86.9692 89.0567 89.5744 89.8858 92.5787 91.1181C92.7429 91.1839 92.9086 91.253 93.0759 91.3237C95.6176 92.3699 98.0778 93.6034 100.436 95.0141C100.583 95.1025 100.727 95.1925 100.872 95.2824V95.2953L100.555 105.541L103.387 97.0112C103.965 97.4498 104.517 97.9045 105.043 98.3752C105.188 98.5037 105.333 98.6355 105.473 98.772C106.668 99.866 107.688 101.137 108.498 102.54C112.735 110.166 110.957 115.773 106.393 119.616Z" fill="#F5F6F7"/>
<path d="M103.666 119.999H103.151C103.148 119.872 103.143 119.745 103.135 119.617C102.927 115.762 101.272 111.506 99.0171 107.398C98.9367 107.249 98.8547 107.096 98.7678 106.947C97.6735 104.993 96.4538 103.081 95.1939 101.264C95.0973 101.123 94.9975 100.98 94.8977 100.838C93.221 98.4492 91.4896 96.2385 89.9255 94.3507C89.8161 94.2157 89.7035 94.084 89.5925 93.9539C87.2737 91.1776 85.3604 89.1549 84.5928 88.3612C84.4786 88.2439 84.3901 88.1539 84.329 88.0913C84.2726 88.0302 84.2389 87.9981 84.2324 87.9917L84.4127 87.8117L84.4142 87.8069L84.5977 87.627C84.6041 87.635 84.7152 87.741 84.9114 87.9451C85.0772 88.1138 85.304 88.3499 85.5825 88.6456C86.5544 89.6738 88.1619 91.4234 90.0221 93.6422C90.1299 93.7707 90.2409 93.9041 90.3519 94.0374C91.6216 95.5685 92.9973 97.3037 94.3603 99.169C94.703 99.6381 95.0356 100.103 95.358 100.565C95.4593 100.707 95.5591 100.848 95.6556 100.989C97.0186 102.953 98.2088 104.841 99.2264 106.654L99.4805 107.109C102.074 111.832 103.471 116.016 103.651 119.617C103.658 119.745 103.663 119.872 103.666 119.999Z" fill="white"/>
<path d="M92.8626 90.7424C92.7709 90.8694 92.6776 90.9947 92.5794 91.1184C91.8415 92.0679 90.9818 92.9165 90.0225 93.6424C89.8825 93.7452 89.7392 93.8513 89.5929 93.9541C89.1935 94.2323 88.7799 94.4897 88.3538 94.7253C86.5984 95.7014 84.6514 96.2847 82.6478 96.4347C82.5835 96.4411 82.5175 96.446 82.4531 96.4492C82.4241 96.6211 82.3968 96.793 82.3662 96.9681C82.4306 96.9649 82.4949 96.9617 82.5593 96.9553C84.6816 96.8173 86.7467 96.2098 88.6048 95.1767C89.0595 94.925 89.5005 94.6493 89.9259 94.3509C90.0707 94.2497 90.2123 94.1437 90.3523 94.0376C91.3784 93.2594 92.2948 92.3467 93.0766 91.324C93.17 91.2003 93.2617 91.075 93.3518 90.9497C93.1844 90.879 93.0219 90.8099 92.8626 90.7424Z" fill="white"/>
<path d="M100.612 94.6504C100.556 94.7725 100.496 94.893 100.436 95.0135C99.289 97.2962 97.5314 99.2174 95.358 100.564C95.2067 100.659 95.0539 100.751 94.8978 100.838C94.8511 100.865 94.8013 100.894 94.7546 100.919C92.8116 101.996 90.6392 102.593 88.4181 102.662C86.1971 102.73 83.9919 102.268 81.9861 101.313C81.9378 101.291 81.8911 101.268 81.8444 101.246C81.8268 101.429 81.8107 101.612 81.7979 101.797C81.8429 101.818 81.8895 101.84 81.9362 101.859C83.9996 102.809 86.2581 103.26 88.5286 103.175C90.7991 103.09 93.0175 102.472 95.004 101.371C95.0683 101.336 95.1311 101.3 95.1939 101.263C95.35 101.173 95.5044 101.082 95.6557 100.989C97.8831 99.6022 99.6873 97.6329 100.872 95.2946C100.935 95.1742 100.995 95.052 101.053 94.9283C100.906 94.8351 100.76 94.742 100.612 94.6504Z" fill="white"/>
<path d="M105.129 98.0117C105.101 98.1338 105.074 98.2559 105.043 98.3764C104.215 101.768 102.139 104.724 99.2263 106.655C99.0766 106.757 98.9221 106.853 98.7677 106.948C98.6019 107.047 98.4362 107.147 98.2656 107.24C95.6446 108.689 92.6269 109.258 89.6572 108.865C86.6875 108.472 83.9227 107.137 81.7703 105.057C81.7333 105.023 81.6979 104.988 81.6625 104.952C81.6625 105.192 81.6609 105.428 81.6641 105.666C81.6963 105.696 81.7301 105.727 81.7638 105.756C84.005 107.783 86.8251 109.06 89.8292 109.407C92.8333 109.754 95.8709 109.154 98.5166 107.692C98.6872 107.598 98.8545 107.502 99.017 107.399C99.1747 107.306 99.3276 107.21 99.4804 107.11C102.434 105.159 104.567 102.192 105.473 98.7733C105.503 98.6576 105.534 98.5419 105.561 98.4246C105.421 98.2832 105.275 98.1499 105.129 98.0117Z" fill="white"/>
<path d="M91.6374 71.848H0V3.20312H91.6374V71.848Z" fill="white"/>
<path d="M22.2053 17.53C24.2198 17.53 25.8529 15.8994 25.8529 13.8881C25.8529 11.8767 24.2198 10.2461 22.2053 10.2461C20.1907 10.2461 18.5576 11.8767 18.5576 13.8881C18.5576 15.8994 20.1907 17.53 22.2053 17.53Z" fill="#BCC4CF"/>
<path d="M30.6303 11.4609C30.4692 11.4612 30.3149 11.5253 30.2011 11.6391C30.0873 11.7529 30.0234 11.9071 30.0234 12.0679C30.0234 12.2287 30.0873 12.383 30.2011 12.4968C30.3149 12.6106 30.4692 12.6746 30.6303 12.6749H75.017C75.178 12.6746 75.3324 12.6106 75.4462 12.4968C75.5599 12.383 75.6238 12.2287 75.6238 12.0679C75.6238 11.9071 75.5599 11.7529 75.4462 11.6391C75.3324 11.5253 75.178 11.4612 75.017 11.4609H30.6303Z" fill="#BCC4CF"/>
<path d="M30.6297 15.1016C30.4685 15.1012 30.3137 15.1648 30.1995 15.2784C30.0852 15.392 30.0208 15.5463 30.0205 15.7073C30.0202 15.8683 30.0839 16.0228 30.1977 16.1369C30.3114 16.2509 30.4659 16.3152 30.6272 16.3155H58.6889C58.7688 16.3157 58.848 16.3001 58.9219 16.2697C58.9958 16.2392 59.0629 16.1945 59.1195 16.1381C59.176 16.0818 59.2209 16.0148 59.2515 15.9411C59.2822 15.8674 59.2979 15.7884 59.2979 15.7086C59.2979 15.6288 59.2822 15.5497 59.2515 15.476C59.2209 15.4023 59.176 15.3353 59.1195 15.279C59.0629 15.2226 58.9958 15.1779 58.9219 15.1475C58.848 15.117 58.7688 15.1014 58.6889 15.1016H30.6297Z" fill="#BCC4CF"/>
<path d="M91.6374 71.848H0V3.20312H91.6374V71.848ZM1.02565 70.824H90.6118V4.22719H1.02565V70.824Z" fill="#BCC4CF"/>
<path d="M5.12109 24.1367V64.9655H86.5148V24.1367H5.12109ZM86.1235 34.2462H66.2642V24.5274H86.1235V34.2462ZM46.0136 34.2462V24.5274H65.8729V34.2462H46.0136ZM65.8729 34.6369V44.3558H46.0136V34.6369H65.8729ZM45.6223 34.2462H25.763V24.5274H45.6223V34.2462ZM45.6223 34.6369V44.3558H25.763V34.6369H45.6223ZM25.3717 44.3558H5.51241V34.6369H25.3717V44.3558ZM25.3717 44.7465V54.4653H5.51241V44.7465H25.3717ZM25.763 44.7465H45.6223V54.4653H25.763V44.7465ZM45.6223 54.856V64.5748H25.763V54.856H45.6223ZM46.0136 54.856H65.8729V64.5748H46.0136V54.856ZM46.0136 54.4653V44.7465H65.8729V54.4653H46.0136ZM66.2642 44.7465H86.1235V54.4653H66.2642V44.7465ZM66.2642 44.3558V34.6369H86.1235V44.3558H66.2642ZM25.3717 24.5274V34.2462H5.51241V24.5274H25.3717ZM5.51241 54.856H25.3717V64.5748H5.51241V54.856ZM66.2642 64.5748V54.856H86.1235V64.5748H66.2642Z" fill="#BCC4CF"/>
<path d="M38.535 35.1209L30.4362 34.9378C29.6261 31.8046 29.9908 28.8214 30.6373 26.0723L38.7361 26.2553C37.9169 29.1457 37.8477 32.1965 38.535 35.1209Z" fill="#E51740"/>
<path d="M32.0244 28.0323L32.0287 27.7246L36.2246 27.8742L36.2201 28.1819L32.0244 28.0323Z" fill="white"/>
<path d="M32.0068 29.263L32.0111 28.9553L36.2068 29.1052L36.2025 29.4128L32.0068 29.263Z" fill="white"/>
<path d="M31.9893 30.4952L31.9938 30.1875L36.1894 30.3373L36.1851 30.645L31.9893 30.4952Z" fill="white"/>
<path d="M31.9717 31.7237L31.976 31.416L36.1719 31.5659L36.1674 31.8735L31.9717 31.7237Z" fill="white"/>
<path d="M31.9531 32.9542L31.9574 32.6465L36.1533 32.7963L36.1488 33.104L31.9531 32.9542Z" fill="white"/>
<path d="M20.9257 57.783L12.8268 57.5999C12.0168 54.4667 12.3815 51.4835 13.0279 48.7344L21.1267 48.9175C20.3075 51.8078 20.2383 54.8587 20.9257 57.783Z" fill="#0C6BF2"/>
<path d="M14.416 50.6924L14.4203 50.3848L18.6162 50.5344L18.6117 50.8421L14.416 50.6924Z" fill="white"/>
<path d="M14.3984 51.9249L14.4027 51.6172L18.5984 51.767L18.5941 52.0747L14.3984 51.9249Z" fill="white"/>
<path d="M14.3799 53.1553L14.3844 52.8477L18.5801 52.9975L18.5758 53.3052L14.3799 53.1553Z" fill="white"/>
<path d="M14.3623 54.3858L14.3666 54.0781L18.5625 54.228L18.558 54.5356L14.3623 54.3858Z" fill="white"/>
<path d="M14.3447 55.616L14.349 55.3083L18.5449 55.4582L18.5404 55.7659L14.3447 55.616Z" fill="white"/>
<path d="M63.1874 47.4276L55.0886 47.2445C54.2785 44.1113 54.6432 41.128 55.2896 38.3789L63.3884 38.562C62.5692 41.4523 62.5001 44.5032 63.1874 47.4276Z" fill="#0C6BF2"/>
<path d="M56.6777 40.3389L56.682 40.0312L60.8779 40.1809L60.8734 40.4886L56.6777 40.3389Z" fill="white"/>
<path d="M56.6602 41.5714L56.6645 41.2637L60.8601 41.4135L60.8558 41.7212L56.6602 41.5714Z" fill="white"/>
<path d="M56.6426 42.8018L56.6471 42.4941L60.8428 42.644L60.8385 42.9517L56.6426 42.8018Z" fill="white"/>
<path d="M56.625 44.0303L56.6293 43.7227L60.8252 43.8725L60.8207 44.1802L56.625 44.0303Z" fill="white"/>
<path d="M56.6064 45.2628L56.6108 44.9551L60.8066 45.1049L60.8021 45.4126L56.6064 45.2628Z" fill="white"/>
<path d="M59.6659 45.4744L51.5671 45.2913C50.757 42.1581 51.1217 39.1749 51.7682 36.4258L59.8669 36.6089C59.0478 39.4992 58.9786 42.5501 59.6659 45.4744Z" fill="#E51740"/>
<path d="M53.1553 38.3858L53.1596 38.0781L57.3555 38.2278L57.351 38.5354L53.1553 38.3858Z" fill="white"/>
<path d="M53.1377 39.6163L53.142 39.3086L57.3377 39.4584L57.3334 39.7661L53.1377 39.6163Z" fill="white"/>
<path d="M53.1201 40.8467L53.1246 40.5391L57.3203 40.6889L57.316 40.9966L53.1201 40.8467Z" fill="white"/>
<path d="M53.1025 42.0792L53.1068 41.7715L57.3027 41.9213L57.2982 42.229L53.1025 42.0792Z" fill="white"/>
<path d="M53.085 43.3077L53.0893 43L57.2852 43.1498L57.2806 43.4575L53.085 43.3077Z" fill="white"/>
<path d="M89.536 63.3221L81.4372 63.139C80.6271 60.0058 80.9918 57.0225 81.6383 54.2734L89.737 54.4565C88.9179 57.3468 88.8487 60.3977 89.536 63.3221Z" fill="#E51740"/>
<path d="M83.0254 56.2315L83.0299 55.9238L87.2256 56.0737L87.2211 56.3813L83.0254 56.2315Z" fill="white"/>
<path d="M83.0088 57.4622L83.0131 57.1545L87.209 57.3044L87.2045 57.6121L83.0088 57.4622Z" fill="white"/>
<path d="M82.9902 58.6944L82.9947 58.3867L87.1904 58.5364L87.1861 58.844L82.9902 58.6944Z" fill="white"/>
<path d="M82.9727 59.9249L82.9772 59.6172L87.1728 59.7668L87.1683 60.0745L82.9727 59.9249Z" fill="white"/>
<path d="M82.9551 61.1553L82.9594 60.8477L87.1553 60.9975L87.1508 61.3052L82.9551 61.1553Z" fill="white"/>
<path d="M80.7968 36.6854L72.6979 36.5023C71.8878 33.3691 72.2526 30.3858 72.899 27.6367L80.9978 27.8198C80.1786 30.7101 80.1094 33.761 80.7968 36.6854Z" fill="#0C6BF2"/>
<path d="M74.2871 29.5948L74.2914 29.2871L78.4873 29.4367L78.4828 29.7444L74.2871 29.5948Z" fill="white"/>
<path d="M74.2695 30.8272L74.2738 30.5195L78.4695 30.6694L78.4652 30.9771L74.2695 30.8272Z" fill="white"/>
<path d="M74.252 32.0577L74.2565 31.75L78.4521 31.8998L78.4478 32.2075L74.252 32.0577Z" fill="white"/>
<path d="M74.2334 33.2881L74.2377 32.9805L78.4336 33.1303L78.4291 33.438L74.2334 33.2881Z" fill="white"/>
<path d="M74.2158 34.5186L74.2201 34.2109L78.416 34.3608L78.4115 34.6685L74.2158 34.5186Z" fill="white"/>
<path d="M89.0992 56.7858C89.3785 56.7171 89.6394 56.5881 89.8633 56.4079C90.0873 56.2278 90.269 56.0007 90.3956 55.7428C90.5221 55.485 90.5906 55.2025 90.596 54.9154C90.6014 54.6282 90.5437 54.3434 90.427 54.081L95.5335 49.3125L92.0008 48.4648L87.6932 53.123C87.2645 53.348 86.9335 53.7223 86.7628 54.1747C86.592 54.6272 86.5935 55.1265 86.7668 55.5779C86.9401 56.0294 87.2733 56.4018 87.7032 56.6244C88.133 56.847 88.6298 56.9044 89.0993 56.7858H89.0992Z" fill="#FEE5EA"/>
<path d="M91.737 52.9462L89.3555 49.5936L98.3007 40.3561L100.378 25.7953C100.48 25.0756 100.74 24.3873 101.14 23.7792C101.539 23.1711 102.067 22.6582 102.687 22.2769C103.307 21.8956 104.003 21.6553 104.727 21.5729C105.45 21.4905 106.183 21.5682 106.873 21.8004C108.119 22.2211 109.146 23.1181 109.731 24.2946C110.315 25.471 110.408 26.8308 109.989 28.0756L104.69 43.7738L91.737 52.9462Z" fill="#BCC4CF"/>
<path d="M108.532 114.988L105.889 114.988L104.631 104.807L108.533 104.807L108.532 114.988Z" fill="#FEE5EA"/>
<path d="M109.955 120.001H108.079L107.744 118.232L106.887 120.001H101.911C101.673 120.001 101.441 119.925 101.249 119.783C101.057 119.642 100.915 119.444 100.844 119.216C100.773 118.989 100.776 118.745 100.854 118.52C100.932 118.295 101.08 118.1 101.276 117.965L105.249 115.225V113.438L109.428 113.687L109.955 120.001Z" fill="#383D45"/>
<path d="M124.844 112.302L122.522 113.564L116.543 105.221L119.97 103.359L124.844 112.302Z" fill="#FEE5EA"/>
<path d="M128.492 116.025L126.844 116.92L125.703 115.527L125.797 117.489L121.427 119.864C121.217 119.978 120.977 120.022 120.74 119.989C120.504 119.957 120.284 119.85 120.113 119.684C119.942 119.519 119.828 119.302 119.789 119.068C119.749 118.833 119.786 118.592 119.894 118.379L122.072 114.076L121.216 112.506L125.006 110.73L128.492 116.025Z" fill="#383D45"/>
<path d="M109.646 111.363H104.183V91.9378L100.8 79.2738C98.3729 70.2173 97.7278 60.7766 98.9008 51.4748L98.9056 51.4368L98.9349 51.4121C99.0218 51.3393 107.679 44.1925 113.154 49.6597C116.845 53.3449 113.377 66.596 113.183 67.3233V90.1668L109.646 111.363Z" fill="#383D45"/>
<path d="M97.2383 55.0041L98.9992 37.4223C98.7704 36.9429 95.4774 33.9059 98.9206 28.5665L102.64 19.8503L109.605 19.7422L109.634 19.7715C111.272 21.4039 112.481 23.4158 113.152 25.6277C113.822 27.8397 113.935 30.183 113.478 32.4487L111.426 42.6944L113.204 49.7963L97.2383 55.0041Z" fill="#BCC4CF"/>
<path d="M106.388 92.038L117.611 107.8L121.917 104.744L112.543 85.5115L106.388 92.038Z" fill="#383D45"/>
<path d="M105.47 18.0769C109.022 18.0769 111.902 15.202 111.902 11.6556C111.902 8.10927 109.022 5.23438 105.47 5.23438C101.918 5.23438 99.0391 8.10927 99.0391 11.6556C99.0391 15.202 101.918 18.0769 105.47 18.0769Z" fill="#FEE5EA"/>
<path opacity="0.1" d="M103.89 34.8828L105.651 45.4319L103.89 54.2228H100.368L101.969 45.4319L103.89 34.8828Z" fill="#13151A"/>
<path d="M105.57 63.278C105.784 63.0861 105.953 62.8497 106.066 62.5854C106.179 62.3212 106.232 62.0355 106.222 61.7485C106.212 61.4615 106.139 61.1801 106.008 60.9243C105.878 60.6684 105.693 60.4442 105.466 60.2676L107.722 53.6602L104.206 54.5731L102.602 60.7076C102.33 61.1076 102.215 61.5934 102.277 62.0729C102.34 62.5523 102.577 62.9921 102.943 63.3089C103.309 63.6258 103.778 63.7976 104.262 63.7919C104.746 63.7862 105.212 63.6033 105.57 63.278Z" fill="#FEE5EA"/>
<path d="M106.086 58.6516L102.404 56.8135L105.939 44.4588L100.905 30.6366C100.656 29.9533 100.561 29.2238 100.626 28.4997C100.692 27.7757 100.916 27.0749 101.283 26.447C101.65 25.8192 102.151 25.2798 102.751 24.867C103.35 24.4543 104.033 24.1783 104.751 24.0588C106.049 23.8443 107.378 24.1525 108.449 24.9158C109.519 25.679 110.242 26.8349 110.46 28.1299L113.187 44.4704L106.086 58.6516Z" fill="#BCC4CF"/>
<path d="M130.483 11.3424C129.672 12.6576 127.953 13.2373 126.429 12.974C124.904 12.7107 123.58 11.7283 122.601 10.5318C121.623 9.33528 120.946 7.92686 120.28 6.53269C119.614 5.13851 118.941 3.72902 117.967 2.52854C116.994 1.32805 115.676 0.338127 114.154 0.0624042C113.325 -0.0876503 112.387 0.0114163 111.783 0.596584C111.366 1.03519 111.138 1.61967 111.149 2.22413C110.886 2.13152 110.603 2.10504 110.327 2.14702C110.051 2.189 109.79 2.29815 109.566 2.46485C109.342 2.63155 109.162 2.85069 109.043 3.10294C108.924 3.3552 108.869 3.63282 108.883 3.91135C108.86 3.91092 108.838 3.90943 108.816 3.90943C105.979 2.2994 101.674 3.2347 101.674 4.99287C100.118 4.99287 98.2158 6.52743 98.2158 8.85767V8.85768C101.434 8.85768 103.328 12.9747 101.449 15.9266C100.964 16.6796 100.43 17.3995 99.8488 18.0815H103.873C104.211 17.5978 104.415 17.0337 104.464 16.4462C104.612 16.9799 104.7 17.5284 104.727 18.0815C104.727 18.0815 115.72 19.4958 112.883 8.55554C113.071 8.54618 113.253 8.49092 113.415 8.39462C113.843 8.1368 114.076 7.59152 114.117 7.03823C114.223 7.06653 114.329 7.09477 114.434 7.12294C115.191 7.3268 115.976 7.59094 116.496 8.17676C117.373 9.16684 117.188 10.6696 117.507 11.9528C117.891 13.5002 119.04 14.7518 120.317 15.7091C121.689 16.7377 123.292 17.5191 124.999 17.6813C126.707 17.8435 128.524 17.325 129.708 16.0848C130.891 14.8447 131.303 12.8469 130.483 11.3424Z" fill="#383D45"/>
</g>
<defs>
<clipPath id="clip0_1574_5758">
<rect width="156.761" height="120" fill="white"/>
</clipPath>
</defs>
</svg>
