<svg width="141" height="170" viewBox="0 0 141 170" fill="none" xmlns="http://www.w3.org/2000/svg">
<path d="M70.6229 11.2954C71.8123 10.2921 71.2874 1.90693 71.2874 0C69.9518 1.02988 70.5498 9.39512 70.6229 11.2954Z" fill="#030207"/>
<path d="M100.456 20.9434C102.449 19.9733 105.672 12.0333 106.243 9.76758C105.267 10.6313 101.26 19.269 100.456 20.9434Z" fill="#030207"/>
<path d="M39.2948 20.2122C39.2948 17.787 36.2982 12.1593 34.9029 10.0796C34.5972 11.6211 38.3447 18.4781 39.2948 20.2122Z" fill="#030207"/>
<path d="M74.5032 129.166C75.4069 122.01 78.0713 109.08 81.8984 103.074H82.4299C82.4299 103.546 79.4333 110.628 79.0147 111.871C77.0812 117.678 76.1311 123.166 75.2407 129.146C75.2009 130.741 75.0879 131.924 74.9085 133.505C80.9948 133.598 87.1608 133.738 93.247 133.751C93.247 124.409 95.2934 116.23 102.111 109.499C104.463 107.14 107.114 105.107 109.373 102.642C126.648 83.7852 125.266 52.6298 107.24 34.6435C86.782 14.2321 54.4373 13.3816 33.9726 34.1984C24.4114 43.9523 19.2421 58.3307 19.4348 71.7988C19.6009 83.8052 24.6041 96.6221 33.3148 104.948C43.1751 114.382 46.5039 119.392 47.0421 133.598C50.0387 133.525 61.8059 133.85 64.0782 133.346L64.4171 132.621C63.8324 123.984 62.3573 116.176 59.1016 108.143C58.5302 106.748 57.1083 104.443 57.0618 103.08H57.3807C61.8922 108.967 64.6895 124.847 65.148 132.203C65.3672 133.086 65.148 132.721 65.7526 133.365C67.7459 133.797 71.9784 133.571 74.1511 133.525C74.2242 132.056 74.3703 130.615 74.5032 129.166ZM74.2109 64.0515C77.9728 64.7772 81.435 66.6024 84.1595 69.296C86.8839 71.9897 88.7483 75.4309 89.5168 79.1843C90.2852 82.9378 89.9232 86.8348 88.4766 90.3824C87.0299 93.9301 84.5636 96.969 81.3895 99.1148C78.2155 101.261 74.4764 102.417 70.6452 102.437C66.814 102.458 63.0627 101.341 59.8661 99.2294C56.6694 97.1176 54.1708 94.1051 52.6865 90.573C51.2021 87.041 50.7986 83.148 51.527 79.3867C52.5076 74.3503 55.4478 69.9094 59.7014 67.04C63.955 64.1707 69.1738 63.1077 74.2109 64.0847V64.0515Z" fill="#E00051"/>
<path d="M18.292 41.8594L18.5577 41.6468C17.9464 40.4441 11.1493 37.8329 9.50146 37.1353L9.23571 37.4542C9.69417 38.0788 17.0428 41.2348 18.292 41.8594Z" fill="#030207"/>
<path d="M133.598 72.2837C135.067 72.3169 139.837 72.5295 141 71.8119C139.659 71.5172 138.285 71.401 136.914 71.4664C134.369 71.4664 132.356 71.3734 129.857 71.9648C131.082 72.255 132.342 72.3624 133.598 72.2837Z" fill="#030207"/>
<path d="M1.78735 72.2775C3.5016 72.2775 9.68085 72.4502 11.0496 71.8522C10.4383 71.3207 10.1526 71.5134 9.09615 71.4735C7.48821 71.4071 1.17607 71.128 1.71661e-05 71.9253C0.637876 72.4236 0.77741 72.2442 1.78735 72.2775Z" fill="#030207"/>
<path d="M75.2407 129.153C76.1311 123.173 77.0812 117.678 79.0147 111.878C79.4333 110.635 82.4565 103.552 82.4299 103.081H81.8984C78.0712 109.06 75.4069 122.017 74.5032 129.173L75.2407 129.153Z" fill="#030207"/>
<path d="M65.1147 132.183C64.6364 124.827 61.859 108.928 57.3475 103.061H57.0286C57.1017 104.389 58.497 106.728 59.0684 108.124C62.3574 116.157 63.8324 123.984 64.3839 132.601C64.6513 132.508 64.8991 132.366 65.1147 132.183Z" fill="#030207"/>
<path d="M75.2407 129.153H74.5032C74.3703 130.601 74.2241 132.043 74.1178 133.492C71.9451 133.538 67.7326 133.764 65.7194 133.332C65.0948 132.668 65.334 133.053 65.1147 132.169C64.9211 132.356 64.6962 132.506 64.4503 132.615L64.1114 133.339C61.8391 133.844 50.0719 133.518 47.0753 133.591V147.544C57.806 147.99 68.9353 147.385 79.7124 147.657C83.9714 147.764 89.081 147.81 93.2935 147.471V133.744C87.2073 133.744 81.0413 133.591 74.955 133.498C75.0879 131.93 75.2009 130.747 75.2407 129.153Z" fill="#030207"/>
<path d="M53.3875 163.524C58.0662 167.326 63.9185 169.388 69.9472 169.359C75.9758 169.33 81.8079 167.212 86.4498 163.365C91.3799 159.192 92.6623 155.551 93.1606 149.325C77.759 149.544 62.2378 149.272 46.8162 149.438C47.2016 155.95 48.9557 159.146 53.3875 163.524Z" fill="#030207"/>
</svg>
