<svg width="40" height="50" viewBox="0 0 40 50" fill="none" xmlns="http://www.w3.org/2000/svg">
<g clip-path="url(#clip0_623_1443)">
<path d="M23.251 21.2395H23.1589H23.228H23.251ZM16.4251 19.8436L16.2754 19.9158L16.1258 20.0121H16.333L16.5057 19.9158L16.6898 19.8436L16.9316 19.7714L17.1618 19.6631H17.3229H17.4841L17.6682 19.5909H17.8639H18.0711L17.9215 19.6751V19.7473L17.8064 19.8677L17.956 20.0361L18.1172 19.9158H18.3244L18.4855 19.7955H18.6812L18.8308 19.6631H18.6121L18.4164 19.7353H18.5085H18.3589L18.4164 19.3984H18.2668L18.4164 19.254H18.6121L18.7733 19.1817H18.6467H18.497H18.6006L18.4164 19.254H18.1977H17.887L17.7143 19.3141L17.8639 19.254H18.0481H18.2438H18.4164H18.5546H18.7157H18.8884H19.5675H19.7517H19.9244H20.1661H20.3387H20.5114H20.3157H20.1085H19.9244H20.0855H20.2236H20.4078H20.569H20.7186H20.8913H21.0524H21.2251H21.3862H21.5589H21.7431H21.9272L22.0999 19.3382L22.2611 19.4465L22.4222 19.5067L22.5603 19.5909H22.7215L22.8826 19.6511L23.0323 19.7353H23.2049H23.3776L23.5503 19.8075L23.3431 19.6511L23.5042 19.7233L23.6539 19.8195L23.815 19.9038L23.7459 19.8075L23.5848 19.7353L23.4352 19.6511L23.2625 19.5909L23.1129 19.5067L22.9517 19.4465L22.7905 19.3623L22.6409 19.2901L22.4682 19.2299H22.3071L22.1459 19.1577L21.9618 19.254H21.7891L21.628 19.1938H21.4553L21.2826 19.1336H21.11H20.9373H20.7647H19.1877H19.015H18.8308H18.6582H18.4855L18.3129 19.1938H18.1402H17.9675H17.8064L17.6452 19.266L17.4841 19.3262H17.3229H17.4726H17.6337L17.4611 19.4224H17.5416H17.369L17.1963 19.4946L17.0352 19.5548H16.851L17.0006 19.4465L16.8625 19.5187H16.7013L16.5402 19.5909L16.379 19.6631L16.2409 19.7594L16.1143 19.976L16.2985 19.8917L16.4251 19.8436ZM17.956 19.3623H18.0711L17.956 19.4224V19.3623ZM19.6136 19.1216H19.7287H19.9128H19.5675H19.6136ZM18.6121 19.1938H18.9805H19.1071H18.8999H19.0035H18.7963H18.5776H18.6121ZM27.5445 31.9736L27.6136 31.7931L27.4869 31.9375L27.3834 32.0939L27.2798 32.2503L27.1762 32.4068L27.1071 32.5993H27.0265L26.9344 32.7317L26.8308 32.8641L26.7618 33.0205L26.7042 33.1769L26.5316 33.2973L26.4395 33.4778L26.3359 33.6222L26.1977 33.7425L26.0826 33.8869L25.9445 34.0073L25.8064 34.1156L25.6567 34.2239L25.5186 34.3442L25.415 34.4886L25.3344 34.6571V34.7293L25.2539 34.9098L25.1387 35.0783L24.9891 35.2227L25.0812 35.1625C25.1309 35.1371 25.1742 35.1001 25.2078 35.0542L25.2769 34.994L25.415 34.8857C26.2827 34.1247 26.9985 33.1924 27.5215 32.142V32.0578L27.4409 32.1661L27.5445 31.9736ZM17.5762 34.7052H17.415L17.2654 34.8978L17.1503 35.0181H16.9546L16.7934 35.2227L16.897 35.4272H16.7819V35.6077L16.897 35.7281L17.0467 35.8244H17.2193H17.392L17.4726 35.7281L17.4035 35.6198L17.5071 35.5115L17.6337 35.4272V35.2588V35.0903V34.8978L17.5762 34.7052ZM27.8553 31.2876L27.7747 31.4561L27.7057 31.6246L27.6481 31.7931V31.9615V31.8773L27.7862 31.5644V31.396V31.2756L27.8553 31.1432V31.2876ZM25.2193 33.1408L25.2999 32.9844L25.4035 32.84L25.3229 32.6836L25.1503 32.5873L25.0121 32.491L25.0927 32.4068L25.2078 32.3225V32.142L25.1272 31.9736L25.0121 31.8292H24.874L24.7474 31.7449V31.5283V31.3237L24.897 31.1793L25.0582 31.2756L25.2308 31.3478L25.3229 31.2876L25.4726 31.1553L25.5762 30.9748L25.6913 30.8063V30.6138V30.4573V30.3009V30.1444L25.5071 30.0241L25.3229 29.9399V29.7594L25.392 29.5909L25.4495 29.4104H25.7028L25.8294 29.278L25.91 29.1216L26.0251 28.9772L26.1517 28.8448V28.6523L26.2553 28.4838L26.3129 28.2913L26.3819 28.1108V27.3286L26.2668 27.1962L26.1402 27.0879L26.0136 26.9676V26.7991L25.956 26.6426L26.0136 26.4742H25.8524H25.6567L25.7258 26.2576L25.8754 26.1974L26.0021 26.1132L26.1172 26.1854H26.2323L26.3474 26.3779L26.4855 26.5343L26.6467 26.3538V26.1733L26.474 26.065L26.3819 25.9086L26.2668 25.7642V25.6438V25.4513L26.2208 25.2708V25.0903L26.3244 25.0181V24.8256V24.633V24.4525L26.2438 24.2239L26.1287 24.0674L26.0481 23.911L25.9675 23.7666L25.8985 23.6342L26.0251 23.7064L26.1172 23.8508L26.2208 23.9952L26.3589 24.0674V23.911L26.2438 23.8147L26.1632 23.6703L26.0826 23.5259L25.956 23.4176L25.8409 23.2852L25.7028 23.2251V23.3935H25.5186L25.4611 23.5379L25.3459 23.3815L25.2423 23.2251V23.0446V22.852V22.6595V22.479V22.2624H25.3344L25.2308 22.1059L25.1503 21.9495V21.769L25.0352 21.5765L25.1618 21.6848L25.2539 21.8532L25.3575 21.9976L25.4726 22.13L25.5762 22.2744L25.7028 22.4068L25.9215 22.5271L26.1402 22.6234L26.0366 22.4549L25.91 22.3105L25.7143 22.13L25.5992 21.9976L25.4726 21.8773L25.3575 21.7449L25.0927 21.6607L24.9891 21.5043L24.8855 21.3358L24.7819 21.1793L24.6553 21.047L24.5402 20.8905L24.4136 20.7461L24.2409 20.6739L24.0798 20.5897L23.9531 20.4573L23.8265 20.349L23.6999 20.2527V20.4333V20.6017L23.7805 20.7702L23.9186 20.9026L23.838 21.1071L23.7459 21.1793V21.2756H23.6539V21.3598H23.5272L23.4121 21.4802V21.5644L23.32 21.7329V21.9375L23.251 22.1059H23.0668H22.8711L22.733 22.2142L22.5834 22.3105H22.4567L22.3762 22.4549L22.2611 22.5392V22.3947V22.2383H22.1229H21.9618H21.8121L21.697 22.479L21.4898 22.5392H21.2711L21.1675 22.7317L20.9834 22.84V22.9844L20.8798 23.1047L20.9834 23.2251L20.8222 23.2852H20.6495H20.4654V23.4176V23.5379L20.3503 23.3574L20.2582 23.1408L20.1316 23.3213V23.5259L20.074 23.7185H19.7977L19.6366 23.6583H19.487L19.3258 23.7185H19.1646H19.0035H18.6006H18.4049L18.2438 23.5861L18.1172 23.8147H17.9675H17.8064L17.6567 23.8869H17.4956L17.392 23.7546V23.5861L17.4726 23.5139L17.6337 23.6222H17.8179H18.0136V23.5861L17.887 23.4778L17.7834 23.3454L17.6567 23.2371L17.5071 23.1649L17.4035 22.9483L17.2654 22.8641H17.0927H16.9431L16.8049 22.9242H16.6553L16.4366 23.0085H16.2524L16.0913 23.0927L15.9186 23.1649H15.7459H15.5848L15.4467 23.3093L15.3085 23.4417L15.2395 23.6102L15.3891 23.8268V23.9832V24.1396V24.3081L15.5272 24.4284L15.7229 24.3442L15.8841 24.2479L16.0337 24.1035V23.9471L16.0913 23.7786L16.2409 23.6703L16.4021 23.5861L16.5747 23.5259H16.7474L16.6323 23.6342L16.4826 23.7064L16.3445 23.7786L16.2754 24.0073L16.333 24.1637L16.2639 24.3322L16.1373 24.4405H15.9877L15.8726 24.5608L15.7805 24.6932H15.5848H15.3891L15.2625 24.5969L15.1474 24.4886L14.9632 24.3201L15.1129 24.2479V24.0674L15.1819 23.899L15.0438 24.0193L14.9172 24.1517L14.779 24.284L14.687 24.1998H14.5488H14.4222L14.2611 24.272L14.1114 24.3683H13.9387L13.8352 24.2961H13.697L13.628 24.4766V24.645L13.5474 24.8015L13.4208 24.9098L13.2366 24.7895L13.11 24.5849L12.9603 24.7413L12.8107 24.8737L12.7416 25.0061V25.1625L12.6611 25.2708V25.4754V25.6799L12.7992 25.7401H12.9373L13.087 25.6559L13.2136 25.5115H13.3517L13.5704 25.3791L13.697 25.4754H13.8352L13.9733 25.5355V25.704V25.8845L14.0308 26.065L14.1229 26.2335L14.192 26.414L14.1344 26.5704V26.7509L14.2611 26.6306L14.3762 26.4862V26.5704V26.3659V26.2335V26.0891L14.2841 25.8845L14.3531 25.6559L14.4798 25.7882L14.5373 25.9808L14.6179 26.1854V26.402L14.4798 26.4982V26.6667V26.8352V27.0398V27.2684L14.6064 27.3406L14.7215 27.4128V27.2203H14.8021V26.8352L14.9402 26.7509L15.0898 26.8833H15.2855L15.1474 26.9916V27.1721V27.3526V27.6775L15.297 27.7377L15.4467 27.8099L15.5963 27.8821L15.7459 27.9663H15.9186V28.1709V28.3635L15.7575 28.4838L15.6539 28.5921L15.5272 28.5319L15.274 28.4718H15.0668L14.9632 28.2792L14.8366 28.1589L14.6985 28.0145L14.5488 27.8941L14.4107 27.7738H14.2726L14.0999 27.9663L13.9963 27.834L13.9042 27.6775L13.8121 27.5331V27.3406L13.651 27.2443L13.5819 27.0638L13.6395 26.8713V26.6787V26.4862L13.5013 26.3899L13.3517 26.2816L13.2136 26.1613L13.0754 26.041L12.9028 25.9808H12.7646V25.716L12.5575 25.8364H12.3503L12.2352 26.0049L12.097 26.1372H11.9013L11.7402 26.2816L11.6596 26.4862L11.5905 26.6908V26.8713L11.5215 27.0398V27.2203V27.4008V27.5813V27.7618V27.9423V28.1108V28.2913V28.5319V28.8809L11.579 29.0734V29.254V29.4465L11.6711 29.615L11.7977 29.7594L11.8898 29.9519L12.0164 30.0963L12.2121 30.1685L12.2927 30.3009L12.3618 30.4453L12.4423 30.5777L12.5805 30.7221L12.6956 30.8785L12.7646 31.059L12.6611 31.2876V31.4922L12.7186 31.6848L12.8222 31.8653V32.0458L12.9143 32.2142V32.3947L13.0064 32.5632L13.0985 32.7197L13.2136 32.8641V33.0205V33.1649V33.2612V33.4417V33.6944L13.3402 33.8268L13.4783 33.9351L13.5819 34.0795L13.674 34.2239L13.7776 34.3683L13.8812 34.5127L13.9848 34.6571L14.0999 34.7774L14.2265 34.9098C14.5179 35.1714 14.8256 35.4126 15.1474 35.6318H15.2164L15.3546 35.692L15.5042 35.7521H15.6539L15.815 35.6198V35.4272L15.9186 35.2949V35.1745V35.0301L16.0452 34.9579L16.1143 34.8978H16.2754L16.379 34.7534L16.31 34.5728V34.3803L16.2524 34.1998L16.1143 34.0073V33.8147L16.0222 33.6944L16.1603 33.55L16.3215 33.4417L16.5057 33.3695L16.6553 33.2371L16.7934 33.0927L16.9776 33.0085L17.1618 32.9483L17.3229 32.828V32.6354L17.415 32.4669L17.5186 32.2985L17.6567 32.1902V32.0097L17.5416 31.9375H17.4265H17.2654H17.0697H16.6898L16.5517 31.781V31.6366H16.7359H16.92H17.0927H17.2769H17.4611H17.6337L17.7949 31.5644L17.956 31.4561H18.2093L18.4164 31.2876H18.5776L18.6697 31.1312L18.7618 30.9748L18.8769 30.8304L18.9805 30.686L18.9229 30.5416V30.3851L18.7157 30.0843L18.6121 29.9038H18.7848L18.9344 29.988H19.0956L19.2452 30.0722H19.3949L19.5675 30.0843H19.7402H19.9013V30.1565L20.028 30.2648L20.1776 30.325L20.2812 30.4453L20.4423 30.6138L20.592 30.7582H20.7416L20.8222 30.8785L20.9143 30.9988V31.1673V31.5283L21.0179 31.6366L21.1445 31.7209V31.9254L21.2366 32.0578L21.3172 32.1781L21.3977 32.2985L21.5244 32.3707L21.5934 32.491L21.72 32.3586L21.8582 32.2503L21.9387 32.0819L22.0423 31.9375V31.757V31.396L22.1344 31.2395L22.2726 31.1071L22.4337 31.0109L22.6064 30.9387L22.733 30.686L22.9172 30.5777L23.0323 30.4092L23.1934 30.3009L23.3661 30.2287H23.5733L23.7114 30.337L23.8265 30.4814L23.9071 30.6499L24.0107 30.7943H24.1718H24.3675L24.4711 30.9387V31.1312V31.3117V31.5043V31.6848L24.5402 31.8532L24.6898 31.9375V32.142L24.7589 32.3225L24.6323 32.2383H24.4711H24.3215H24.1718V32.3346L24.333 32.479L24.5517 32.5512V32.6956L24.7128 32.7919V32.9363L24.7704 33.0807L24.92 33.1408H25.0927H25.2193ZM15.1589 32.9844L15.0208 32.7798L15.1359 32.84V32.7798L15.2395 32.8761L15.1589 32.9844ZM16.31 31.1432L16.1143 30.9266L15.9992 30.7943L15.8956 30.6378L15.815 30.4814V30.3009L15.9186 30.1324L15.838 29.976L15.6769 29.9158V29.7473L15.6193 29.5909V29.4345V29.266V29.0975H15.7575L15.8956 29.1938L15.9762 29.3502V29.5548V29.7353L16.0337 29.9278L16.1143 30.0843L16.1834 30.2527L16.287 30.3972L16.3905 30.5536L16.4711 30.7702V31.1192V31.2876L16.31 31.1432ZM16.92 27.2323H16.6898L16.5402 27.1601H16.3675L16.2409 27.0398H16.0682H15.8956H15.7114H15.5272L15.6539 26.9074L15.7229 26.7509L15.7805 26.5945L15.8841 26.4501H16.0107H16.1258L16.1143 26.4742V26.6065L16.0222 26.6667L16.1834 26.8231L16.4021 26.7389L16.2064 26.6186L16.333 26.5103H16.4941H16.6438V26.6547L16.5172 26.775L16.6208 26.9074L16.7244 27.0277L16.828 27.1601L16.92 27.2323ZM17.8524 26.9676V26.8231L18.0366 26.7509H18.1977H18.3244L18.1747 26.8833L18.0136 26.9676V27.2564L18.0826 27.4008V27.5692V27.7377V27.9062V28.0867H17.933H17.7603L17.6798 27.9062L17.6222 27.7016L17.7488 27.6053L17.6798 27.4248L17.6222 27.2564V27.0638L17.8524 26.9676ZM18.3129 30.0722H18.1517L17.956 30.0843L17.8524 29.9519L17.7603 29.8075L17.6567 29.6631L17.5877 29.5067L17.4611 29.3863H17.5762H17.7028V29.5307L17.7718 29.6872L17.8754 29.8075L17.9675 29.9399H18.1517L18.3244 30.0121L18.3129 30.0722ZM22.9172 21.5524L23.1359 21.6366V21.4441H23.0208L22.9172 21.5524ZM13.8121 25.9086H13.7085V26.2094L13.8121 26.041V25.9086ZM14.8481 27.6775H14.9632L14.8941 27.5331L14.8481 27.6775ZM13.8927 26.787V26.9435L14.0308 26.8111V26.6426H13.8812V26.5223L13.8121 26.5945L13.8927 26.787ZM27.3603 31.4561L27.51 31.2876V31.1553L27.3949 31.2876L27.3603 31.4561ZM26.8769 26.414H26.7618V26.5945H26.9229L26.8769 26.414ZM26.6582 29.7473L26.8308 29.8556L27.0495 29.7353L26.9575 29.5548L26.8654 29.3863V29.2419V29.1095H26.7157V29.3141V29.5187L26.6582 29.7473ZM26.6582 30.5295L26.7387 30.3731L26.5891 30.4573V30.6619L26.6582 30.5295ZM27.0035 30.0361H26.9344V30.0843L27.0035 30.1444V30.0361ZM26.8999 25.2708V25.4393V25.8003L26.8423 25.9688V26.1372V26.3298H27.015L27.1301 26.2094V26.041V25.8725V25.5115V25.331L27.038 25.1745L26.969 25.0061L26.8884 24.8256V24.8857L26.9575 25.0903L26.8999 25.2708ZM25.7488 33.0566H25.5531H25.3229L25.2078 33.213H25.5071H25.6452H25.8409L26.0136 33.1288L26.1402 32.9603H25.887L25.7488 33.0566ZM25.6452 29.7112L25.5646 29.8677L25.7258 29.9519V29.8195V29.6872L25.6452 29.7112ZM26.5316 28.2672V28.4357V28.6162H26.5891V28.4236V28.2431L26.5316 28.2672ZM22.0999 32.2383H21.9387L21.8467 32.3707L21.8697 32.491L21.9503 32.6354V32.7076H22.1575V32.5271V32.3586L22.0999 32.2383ZM26.5085 24.5849L26.5891 24.7293L26.6467 24.6089V24.4525V24.2961L26.5085 24.2239H26.474L26.5431 24.3923L26.5085 24.5849ZM28.1085 30.2527L28.0049 30.4333L27.9013 30.6017L27.8438 30.8063L27.7287 30.698L27.6366 30.8424V30.9988L27.7057 31.1673L27.8898 31.0349V31.1312L27.9704 30.9387L28.0395 30.7582L28.1085 30.6378C28.1085 30.5656 28.1085 30.4934 28.1085 30.4333V30.3731V30.1685V30.2527ZM27.1301 30.4934H27.2798V30.3129V30.0843V29.9038L27.1877 30.0963L27.1186 30.2889L27.0035 30.4694L27.1301 30.4934ZM26.7848 32.491L26.8423 32.3586L26.7157 32.4429L26.6352 32.5753L26.5776 32.7197L26.6697 32.5993L26.7848 32.491ZM21.5359 22.1781H21.7085L21.4783 22.0939L21.5359 22.1781ZM26.3819 32.2142L26.4625 32.0698V31.8893L26.5431 31.7329L26.6121 31.5765V31.396V31.2154L26.7042 31.1071L26.7733 30.9627L26.6467 30.8665H26.474L26.4164 31.047L26.3359 31.2154L26.2438 31.3839L26.0941 31.5885L26.0021 31.7209L25.8754 31.8292L25.7603 31.9375L25.6567 32.0819V32.2383L25.7488 32.3947H25.9215H26.0941H26.2783L26.3819 32.2142ZM17.7949 21.8653V21.6968L17.6222 21.6607L17.4841 21.7329L17.3805 21.8653V22.0337H17.5992L17.7949 21.9495L17.8524 22.0217L18.1057 21.9495L17.956 21.8292L17.7949 21.8653ZM15.5388 20.4573L15.4006 20.5656L15.251 20.6499L15.1359 20.7702L14.9517 20.9026L14.8481 21.1071L15.0093 21.047L15.1359 20.9627H15.274V21.047L15.4467 21.1071L15.5388 21.2636V21.4321H15.6999H15.8611L15.9877 21.3237H16.1143L16.2524 21.2636L16.4596 21.1793H16.5977H16.7244H16.897H17.0697H17.2654V21.047V20.9146L17.438 20.8183V20.4573L17.6107 20.2527H17.5416L17.6337 20.0361H17.5071L17.5992 19.9399V19.8075H17.7028H17.5416H17.3805L17.2308 19.8797L17.0812 19.9519V20.0121L16.92 20.0843L16.7704 20.1565H16.6093L16.4596 20.2407L16.2639 20.3129L16.1028 20.3851L15.9646 20.4694V20.4092H15.8035L15.6423 20.4814L15.5388 20.4573ZM14.9632 21.7449L14.8711 21.8893V22.0578H15.1589L15.2395 21.8412L15.1359 21.6607L14.9632 21.7449ZM19.4294 22.9724H19.5905L19.7287 22.8641H19.9128V22.7678L19.7402 22.7076H19.556L19.4524 22.8641L19.2798 22.9242L19.1071 23.0205L19.015 23.189L18.9459 23.3815L19.0726 23.4417L19.1877 23.5259L19.2567 23.4417V23.2732L19.3834 23.1529L19.4294 22.9724ZM21.2251 21.9736H21.0754V22.1902H21.4093L21.3287 22.0578L21.2251 21.9736ZM15.0208 20.5295L15.1934 20.4453L15.3431 20.325L15.5272 20.2527L15.6884 20.1685L15.7805 20.0361L15.6078 20.1324C15.3168 20.3026 15.0362 20.4915 14.7675 20.698L14.9172 20.6258L15.0208 20.5295ZM27.0726 31.2876L26.8769 31.3839L26.8078 31.5524L26.7042 31.7088V31.8773V32.0578V32.2142H26.8654L26.969 32.0578V31.8773V31.6848H26.8884L27.0035 31.5404L27.1071 31.3839L27.1992 31.2034L27.0726 31.2876ZM13.9733 23.6222L14.1229 23.562L14.2495 23.4537V23.2852H14.0769L13.9387 23.3815L13.7891 23.4657V23.5981L13.9733 23.6222ZM26.9229 32.491L27.0495 32.3105L27.1416 32.118L27.0265 32.3105L26.9229 32.491ZM14.2611 23.6703L14.0999 23.7666L13.9618 23.8869L13.8121 24.0674V24.2359H14.0193H14.2265L14.3186 24.0554V23.8629L14.3877 23.6824L14.5258 23.55L14.6294 23.3815V23.189L14.4913 23.2612H14.3646V23.4176L14.238 23.55L14.2611 23.6703ZM14.2611 21.1312L14.1114 21.2876L14.2726 21.1312H14.2611Z" fill="white"/>
<path d="M12.7877 43.4657C12.7877 43.4657 6.39926 39.7112 6.90573 33.935C6.59509 35.2221 6.71701 36.5816 7.25106 37.7858C7.25106 37.7858 4.14314 36.5825 6.83667 31.6968C6.83667 31.6968 10.2899 34.2118 7.83811 37.8099C8.45462 39.0688 9.41123 40.1107 10.5892 40.8063C11.5388 41.394 12.4536 42.041 13.3288 42.7437C13.3435 42.828 13.3412 42.9146 13.322 42.9979C13.3027 43.0813 13.267 43.1595 13.2172 43.2275C13.1673 43.2955 13.1043 43.3518 13.0323 43.3929C12.9604 43.4339 12.881 43.4587 12.7993 43.4657" fill="white"/>
<path d="M7.89547 39.4103C7.11151 40.3716 5.99747 40.9722 4.7937 41.0825C3.58993 41.1928 2.39293 40.804 1.46094 39.9999C1.46094 39.9999 4.45374 36.9915 7.49259 38.6882C6.53225 38.7008 5.58442 38.9178 4.70698 39.326C5.75953 39.0718 6.85655 39.1008 7.89547 39.4103Z" fill="white"/>
<path d="M9.47255 39.2777C9.33794 38.9501 9.27085 38.5966 9.27563 38.24C9.28041 37.8835 9.35696 37.5321 9.5003 37.2085C9.64363 36.885 9.85054 36.5966 10.1076 36.3623C10.3646 36.1279 10.6659 35.9527 10.992 35.8481C10.992 35.8481 11.3488 39.0732 9.47255 39.2777Z" fill="white"/>
<path d="M20.0058 17.3525C19.4993 16.5944 16.1151 9.62685 0 10.8302V40.1684C0 40.1684 0.368345 46.9915 6.46906 46.9915C12.5698 46.9915 17.0935 46.6064 19.9597 49.9999C21.7885 48.2556 24.1406 47.2304 26.613 47.0998C30.3079 47.0998 33.5194 47.0998 33.5194 47.0998C33.5194 47.0998 39.9885 46.6906 39.9885 39.6509V10.8302C23.8734 9.62685 20.4892 16.5944 19.9942 17.3525" fill="#E51740"/>
<g opacity="0.5">
<mask id="mask0_623_1443" style="mask-type:luminance" maskUnits="userSpaceOnUse" x="0" y="0" width="40" height="19">
<path d="M40 0H0V18.917H40V0Z" fill="white"/>
</mask>
<g mask="url(#mask0_623_1443)">
<mask id="mask1_623_1443" style="mask-type:luminance" maskUnits="userSpaceOnUse" x="0" y="0" width="40" height="19">
<path d="M40 0H0V18.917H40V0Z" fill="white"/>
</mask>
<g mask="url(#mask1_623_1443)">
<path d="M40 18.9168V0.0840803C23.8849 -1.11929 20.5007 10.072 20.0058 10.8302C19.4993 10.072 16.1151 -1.10726 0 0.0840803V18.9168" fill="#B5B7C0"/>
</g>
</g>
</g>
<path d="M40 19.2537V2.91193C23.8849 1.70856 20.5007 12.936 20.0058 13.7423C19.4993 12.9841 16.1612 1.70856 0 2.91193V19.2537" fill="white"/>
<path d="M40 19.8194V5.92052C23.8849 4.71715 20.5007 15.006 20.0058 15.7641C19.4993 15.006 16.1151 4.72918 0 5.92052V19.8194" fill="#E00051"/>
<path d="M40 18.9171V9.02537C23.8849 7.822 20.5007 15.8244 20.0058 16.5946C19.4993 15.8244 16.1151 7.83403 0 9.02537V18.9171" fill="white"/>
<path d="M40 22.2503V11.8411C23.8849 10.6377 20.5007 16.5944 20.0058 17.3525C19.4993 16.5944 16.1151 10.6498 0 11.8411V22.2503" fill="#E51740"/>
<path d="M23.6431 21.492H23.5395H23.6201H23.6431ZM16.8172 20.096L16.6676 20.1682L16.518 20.2645H16.7252L16.8978 20.1682L17.082 20.096L17.3352 20.0359L17.5539 19.9155H17.7151H17.8762L18.0604 19.8433H18.2561H18.4633L18.3136 19.9155L18.3712 19.9877L18.2561 20.1081L18.4057 20.2766L18.5669 20.1682H18.7741L18.9352 20.0359H19.1309L19.2921 19.9155H19.0618L18.8662 19.9757H18.9582H18.8086L18.7511 19.8794L18.8086 19.8193H18.6475L18.8201 19.7591H19.0158H19.177H18.9122H19.0158L18.8086 19.8193H18.6014H18.3021L18.1295 19.8794L18.2791 19.8193L18.4633 19.7591H18.659H18.8086L18.9467 19.6989H19.1079H19.2921H19.2345H19.8676H20.0518H20.2244H20.4662H20.6388H20.8115H20.6158H20.4892H20.2935H20.4547H20.5928H20.777H20.9381H21.0993H21.2719H21.4331H21.6057H21.7669H21.9395H22.1237H22.3079L22.4806 19.7952L22.6417 19.8915L22.8029 19.9516L22.941 20.0359H23.1136L23.2633 20.1081L23.4129 20.1803H23.5856H23.7582L23.9309 20.2525L23.7237 20.096L23.8849 20.1682L24.0345 20.2645L24.1957 20.3488L24.1726 20.2645L24.0115 20.2043L23.8618 20.1081L23.6892 20.0479L23.5395 19.9637L23.3784 19.9035L23.2172 19.8193L23.0216 19.7471L22.8604 19.6869H22.6877L22.5266 19.6147L22.3539 19.5545H22.1813L22.0201 19.4944H21.8475H21.6748H21.5021H21.3295H21.1568H20.282H20.1093H19.9252H19.5683H19.3957H19.223H19.0503H18.8777H18.705H18.5324H18.3597H18.1985L18.0489 19.5666L17.8762 19.6267H18.0259L17.8532 19.723H17.9338H17.7611L17.5885 19.7952L17.4273 19.8554H17.2662L17.4158 19.7591H17.2777H17.1165L16.9554 19.8313L16.7942 19.9035L16.6561 19.9998L16.4949 20.096L16.6791 20.0118L16.8172 20.096ZM20.0057 19.374H19.9136H19.741H20.1324H20.305H20.0057ZM19.0158 19.4462H19.3726H19.4993H19.2921H19.3957H19.1885H18.9698H19.0158ZM27.9367 32.226L28.0057 32.0455L27.8791 32.1899L27.7755 32.3463L27.6259 32.4908L27.5223 32.6592L27.4532 32.8397H27.3726L27.2806 32.9601L27.177 33.0924L27.1079 33.2489L27.0503 33.4053L26.8777 33.5256L26.7856 33.7062L26.682 33.8626L26.5439 33.9709L26.4288 34.1153L26.2906 34.2356L26.1525 34.356L26.0029 34.4522L25.8647 34.5726L25.7611 34.717L25.6806 34.8855V34.9577L25.6 35.1502L25.4849 35.3066L25.3352 35.451H25.4273L25.5654 35.3427L25.623 35.2826L25.7611 35.1622C26.6292 34.3968 27.3449 33.4605 27.8676 32.4065V32.3343L27.787 32.4546L27.9367 32.226ZM17.9683 34.9577H17.8072L17.7151 35.1141L17.5885 35.2344H17.3928L17.2431 35.439L17.3352 35.6436H17.2662V35.8241L17.3813 35.9444L17.5309 36.0407H17.7036H17.8762L17.9568 35.9444L17.8877 35.8361L17.9913 35.7278L18.118 35.6436V35.4751V35.3066L18.0144 35.1502L17.9683 34.9577ZM28.2475 31.5762L28.1669 31.7447L28.0978 31.9131L28.0403 32.0816V32.2501V32.1658L28.1784 31.853V31.6965L28.2359 31.5642L28.2935 31.4318L28.2475 31.5762ZM25.6115 33.4294L25.6921 33.2729L25.7957 33.1285L25.7036 32.936L25.5309 32.8397L25.4043 32.6953L25.4849 32.6111L25.6 32.5269V32.3463L25.5079 32.1779L25.3928 32.0335H25.2662L25.128 31.9613V31.7447V31.5281L25.2777 31.3837L25.4388 31.4799L25.6115 31.5521L25.7957 31.6123L25.9453 31.4799L26.0489 31.2994L26.164 31.1309V30.9504V30.782V30.6255V30.4691L25.9798 30.3488L25.7957 30.2404V30.0599L25.8647 29.8915L25.9223 29.711L26.1755 29.7711L26.3021 29.6388L26.3942 29.4823L26.4978 29.3379L26.6244 29.2056V29.013L26.728 28.8445L26.7856 28.664L26.8547 28.4715V27.6773L26.7395 27.5569L26.6129 27.4366L26.4748 27.2922V27.1237V26.9553L26.5439 26.7988L26.3597 26.7266H26.1525L26.2216 26.51L26.3712 26.4498L26.4978 26.3656L26.4748 26.4739H26.5899L26.705 26.6664L26.8431 26.8229L27.0043 26.6424V26.4619L26.9122 26.3175L26.8086 26.161L26.6935 26.0166V25.8963V25.7037L26.6014 25.5353V25.3548L26.705 25.2826V25.09V24.8975V24.717L26.6244 24.5004L26.4748 24.3319V24.1755L26.3597 24.0672L26.2906 23.9348L26.4172 24.019L26.4748 24.0672L26.5784 24.2116L26.7165 24.2838V24.1394L26.6014 24.0672L26.4748 23.9348V23.7904L26.3482 23.6821L26.2331 23.5617L26.0949 23.4895V23.658H25.9108L25.8532 23.8024L25.7381 23.658L25.6345 23.5016V23.309V23.1165V22.924V22.7435V22.5509H25.7266L25.623 22.3945L25.5424 22.238V22.0696L25.4273 21.865L25.5654 21.9853L25.646 22.1418L25.7496 22.2862L25.8647 22.4185L25.9683 22.575L26.0949 22.6953L26.3136 22.8157L26.4748 22.8638L26.3712 22.6953L26.2446 22.5509L26.0489 22.3704L25.9338 22.238L25.8072 22.1177L25.6921 21.9853L25.5424 21.877L25.3813 21.6604L25.3237 21.5401L25.2201 21.3716L25.0935 21.2392L24.9784 21.0828L24.8518 20.9384L24.6791 20.8662L24.518 20.782L24.3913 20.6496L24.1726 20.5413L24.0921 20.4571V20.6376V20.8181L24.1726 20.9745L24.3223 21.1069L24.2417 21.3114L24.1381 21.3837V21.4799H24.046V21.5642H23.9194L23.8043 21.6845V21.7808L23.7122 21.9372V22.1418L23.6431 22.3102H23.5971H23.4014L23.2633 22.4185L23.1136 22.5148H23.0216L22.941 22.6592L22.8144 22.7314V22.587V22.4306H22.6762H22.5266H22.3654L22.2503 22.6592L22.0431 22.7194H21.8244L21.7208 22.9119L21.5367 23.0202V23.1646L21.4446 23.285H21.387L21.5021 23.4053L21.3295 23.4655H21.1568H20.9841V23.5979V23.7302L20.869 23.5377L20.777 23.3211L20.6503 23.5016V23.7062L20.5928 23.8987H20.4316L20.2705 23.8385H20.1208L19.9712 23.8987H19.5683H19.4072H18.9928H18.7971L18.6359 23.7663L18.5093 23.995H18.4172H18.2561L18.1065 24.0672H17.9453L17.8417 23.9348V23.7663L17.9223 23.6941L18.0949 23.8145H18.2676H18.4172V23.6219L18.2906 23.5256L18.187 23.3933L18.0604 23.285L17.9108 23.2007L17.8072 22.9841L17.646 22.924H17.2662L17.128 22.9841H16.9784L16.7597 23.0804H16.5755L16.4144 23.1646L16.2417 23.2489H16.1151H15.9539L15.8158 23.3933L15.6777 23.5256L15.6086 23.6941L15.7583 23.9107V24.0672V24.2356V24.3921L15.8964 24.5124L16.0921 24.4282L16.2532 24.3319L16.4029 24.1995V24.0431V23.8746L16.5525 23.7663L16.7252 23.6821L16.8863 23.6219H17.059L16.9439 23.7302L16.7942 23.8024L16.6561 23.8746L16.587 24.1153L16.6446 24.2597L16.5755 24.4282L16.4489 24.5485H16.2993L16.1842 24.6688L16.0921 24.8012H15.8964H15.7007L15.5741 24.717L15.459 24.6087L15.3669 24.5004L15.505 24.4402V24.2597L15.5741 24.0792L15.4359 24.1995L15.3093 24.3319L15.1712 24.4643L15.0791 24.38H14.941L14.8144 24.3199L14.6532 24.3921L14.5036 24.4883H14.3309L14.2273 24.4161H14.0892L14.0201 24.5846V24.7531L13.9395 24.9095L13.8129 25.0178L13.6288 24.8975L13.5021 24.6929L13.3525 24.8494L13.2144 24.9817L13.1338 25.1141V25.2705V25.427V25.6195V25.8361H13.2719H13.41L13.5597 25.7398L13.6863 25.5954H13.8129L14.0316 25.4751L14.1583 25.5593H14.2964L14.4345 25.6195V25.9805L14.4921 26.149L14.5842 26.3175L14.6532 26.498L14.5957 26.6544V26.8349L14.7223 26.7146L14.8374 26.5702V26.6544V26.4498V26.3175V26.1851L14.7453 25.9805L14.8144 25.7398L14.941 25.8722L14.9985 26.0648L15.0906 26.2693V26.498L14.9525 26.5822V26.7507V26.9192V27.1237V27.3644L15.0791 27.4366L15.1942 27.5208V27.3283H15.2748V26.9432L15.4129 26.859L15.5741 26.9914H15.7583L15.6201 27.1117V27.2802V27.4607V27.6532L15.7583 27.7254L15.9079 27.7976L16.0575 27.8698L16.2072 27.942H16.3798V28.1346V28.3271L16.2187 28.4474L16.1151 28.5557L15.9885 28.4956L15.7352 28.4354H15.5395L15.4014 28.3271L15.2748 28.2188L15.1367 28.0624L14.987 27.942L14.8489 27.8217H14.6993L14.5381 28.0142L14.423 27.8818L14.3309 27.7254L14.2388 27.569V27.3764L14.0777 27.2802L14.0086 27.1117L14.0662 26.9192V26.7146V26.522L13.928 26.4258L13.7784 26.3295L13.5827 26.4739L13.4561 26.3536H13.2834H13.1338V26.1009L12.9266 26.2092H12.7194L12.6043 26.3776L12.4662 26.51H12.2705L12.1093 26.6664L12.0288 26.859L11.9597 27.0636V27.2441L11.8906 27.4125V27.593V27.7735V27.954V28.1346V28.3151V28.4956V28.6761V28.9047V29.0972V29.2898L11.9482 29.4823V29.6628V29.8554L12.0403 30.0359L12.1669 30.1682L12.259 30.3608L12.3856 30.5052L12.5813 30.5774L12.6618 30.7098L12.7309 30.8542L12.8115 30.9865L12.9496 31.1309L13.0647 31.2874L13.1338 31.4679V31.6725V31.877L13.1913 32.0696L13.2949 32.2501V32.4306L13.387 32.5991V32.7796L13.4791 32.948L13.5712 33.1045L13.6863 33.2489V33.4053V33.5617V33.646V33.8385V34.0311L13.8014 34.1634L13.9395 34.2838L14.0431 34.4161L14.1352 34.5605L14.2388 34.705L14.3424 34.8494L14.446 34.9938L14.5726 35.1141L14.6877 35.2465C14.9792 35.5081 15.2868 35.7493 15.6086 35.9685H15.6892H15.8158H15.9654H16.1151L16.2762 35.8361V35.6436L16.3798 35.5112V35.3909V35.2465L16.4949 35.1743H16.6561H16.8172L16.9208 35.0299L16.8518 34.8494V34.6568L16.7942 34.4763L16.7021 34.3078V34.1153L16.6331 33.9348L16.7712 33.7784L16.9324 33.6701L17.1165 33.5979L17.2662 33.4655L17.4043 33.3211L17.5885 33.2368L17.7726 33.1767L17.9338 33.0563V32.8638L18.0259 32.7074L18.1295 32.5389L18.2676 32.4185V32.2501L18.1525 32.1779L18.0374 32.1057H17.8417H17.6575H17.2662L17.128 31.9492V31.8169H17.3122H17.4964H17.669H17.8532H18.0374H18.21L18.3712 31.7447L18.5324 31.6364H18.7856L18.9467 31.5762H19.0964L19.1885 31.4198L19.2806 31.2633L19.3957 31.1189L19.4993 30.9865L19.4417 30.8301V30.6737L19.2921 30.5172L19.1885 30.3367H19.3611L19.5108 30.421H19.6834L19.8216 30.5052L19.9712 30.445H20.1439H20.3165H20.4777V30.5172L20.6043 30.6255L20.7539 30.6857L20.869 30.806L21.0187 30.9745L21.1683 31.1189H21.318L21.3985 31.2392L21.4906 31.3475V31.516V31.877L21.5942 31.9853L21.7208 32.0816V32.2741L21.8129 32.4065L21.8935 32.5269L21.9741 32.6592H22.1007L22.1813 32.7796L22.2964 32.6472L22.2158 32.4908L22.2964 32.3223L22.4 32.1779V31.9974V31.6364L22.4921 31.4799L22.6302 31.3475L22.7913 31.2513L22.964 31.1791L23.0906 30.9264L23.2748 30.8181L23.3899 30.6496L23.5511 30.5413L23.7237 30.4691H23.9309L24.0806 30.5774L24.1841 30.7218L24.2647 30.8903L24.3683 31.0467H24.564H24.7597L24.8633 31.2031V31.3837V31.5642V31.7567V31.9372L24.9324 32.1057L25.082 32.1899V32.3945L25.1511 32.575L25.0705 32.4908H24.9093H24.7597H24.587V32.587L24.7482 32.7314L24.9669 32.8036V32.948L25.128 33.0323V33.1887L25.1856 33.3211H25.3352H25.5079L25.6115 33.4294ZM15.5511 33.2729L15.4129 33.0804H15.528V33.0202L15.6316 33.1165L15.5511 33.2729ZM16.7021 31.4318L16.5985 31.1791L16.4834 31.0467L16.3913 30.9023L16.2993 30.7338V30.5533L16.4029 30.3969L16.3223 30.2404L16.1151 30.1682V29.9998V29.8433L16.046 29.6869V29.5184V29.35H16.1842L16.3223 29.4583L16.4029 29.6147V29.8072V29.9998L16.4604 30.1803L16.541 30.3488L16.61 30.5052L16.7252 30.6496L16.8172 30.806L16.8978 31.0226V31.3716V31.5401L16.7021 31.4318ZM17.2662 27.5208H17.0359L16.8863 27.4366H16.7136L16.587 27.3163H16.4259H16.2417H16.0575H15.8734L16 27.1959L16.069 27.0275V26.871L16.1726 26.7266H16.2993H16.4144L16.4834 26.859V26.9914L16.3913 27.0515L16.5525 27.208L16.7712 27.1237L16.5755 27.0034L16.7021 26.8951H16.8633H17.0129V27.0275L16.8863 27.1478L16.9899 27.2802L17.0935 27.4005L17.1971 27.5329L17.2662 27.5208ZM18.1985 27.2561V27.1117L18.3827 27.0395H18.5439H18.6705L18.5324 27.1719L18.3712 27.2681V27.5449L18.4403 27.7013L18.4978 27.8578V28.0263V28.1947V28.3752H18.3482H18.1755L18.0949 28.1947L18.0374 27.9901L18.164 27.8939L18.0949 27.7134L18.0374 27.5449V27.3644L18.1985 27.2561ZM18.659 30.3728H18.4978L18.3482 30.3127L18.2446 30.1803L18.1525 30.0359L18.0489 29.9035L17.9798 29.735L17.8532 29.6147H17.9683H18.0949V29.7711L18.164 29.9155L18.2676 30.0359L18.4172 30.084H18.6014L18.7856 30.1562L18.659 30.3728ZM23.3439 21.7567L23.5626 21.8289V21.6604H23.3784L23.3439 21.7567ZM14.2043 26.1731H14.1007V26.4739L14.2043 26.3054V26.1731ZM15.2403 27.9179H15.3324L15.2633 27.7856L15.2403 27.9179ZM14.3424 27.0275V27.1719L14.4806 27.0515V26.883H14.3309V26.7627V26.871L14.3424 27.0275ZM27.81 31.6845L27.9136 31.5762V31.4438L27.7525 31.6003L27.81 31.6845ZM27.3381 26.6424H27.2115V26.8349H27.3726L27.3381 26.6424ZM27.1079 29.9877L27.2806 30.084L27.4993 29.9637L27.4072 29.7952L27.3151 29.6147V29.4703V29.3379H27.177V29.5425V29.7471L27.1079 29.9877ZM27.1079 30.7579L27.1885 30.6015L27.0388 30.6857V30.8903L27.1079 30.7579ZM27.4532 30.2645H27.3842V30.3849L27.4532 30.4571V30.2645ZM27.3036 25.5112V25.6797V25.8602V26.0407V26.2092V26.3776V26.5702H27.4762L27.5913 26.4378V26.2693V26.1009V25.7398V25.5714L27.4993 25.4029L27.4417 25.2344L27.3496 25.0539L27.4187 25.2585L27.3036 25.5112ZM26.1525 33.309H25.9568H25.7496L25.6345 33.4534H25.9338H26.0834H26.2676L26.4403 33.3692L26.5669 33.2128H26.3136L26.1525 33.309ZM26.0489 29.9637L25.9683 30.1081L26.1295 30.1923V30.0599V29.9276L26.0489 29.9637ZM26.9352 28.5076V28.6761V28.8566V28.652V28.4715V28.5076ZM22.5151 32.4908H22.3539L22.2618 32.6231V32.7796L22.3424 32.924V32.9962H22.5496V32.8277V32.6472L22.5151 32.4908ZM26.9352 24.8373L27.0043 24.9938L27.0734 24.8614V24.705V24.5485L26.9467 24.4763H26.8201L26.8892 24.6448L26.9352 24.8373ZM28.5237 30.5052L28.4201 30.6857L28.3165 30.8542L28.259 31.0587L28.1439 30.9625L28.0518 31.0948V31.2513L28.1208 31.4198L28.305 31.2874V31.3837L28.3856 31.2031L28.4547 31.0106L28.5237 30.8903C28.5237 30.8181 28.5237 30.7579 28.5237 30.6857V30.4811V30.5052ZM27.5453 30.7459H27.6949V30.5654V30.3849V30.2043L27.6029 30.3969L27.5338 30.5894L27.4187 30.7699L27.5453 30.7459ZM27.177 32.8638L27.2345 32.7314L27.1194 32.8157L27.0273 32.936L26.9698 33.0804L27.0734 32.9601L27.177 32.8638ZM21.928 22.5389H22.1007L21.8705 22.4546L21.928 22.5389ZM26.7741 32.4908L26.8547 32.3343V32.1658L26.9352 31.9974L27.0043 31.8409V31.6604V31.492L27.0964 31.3716L27.1654 31.2272L27.0388 31.1309H26.8892L26.8316 31.3114L26.7511 31.4799L26.659 31.6484L26.5208 31.853L26.4288 31.9974L26.2906 32.0936L26.1755 32.214L26.0719 32.3463V32.5028L26.164 32.6592H26.3367H26.5093H26.6935L26.7741 32.4908ZM18.187 22.1658V21.9974L18.0259 21.9372L17.8877 22.0214L17.7841 22.1418V22.3102H18.0029L18.1985 22.226L18.2561 22.2982L18.5093 22.226L18.3597 22.1057L18.187 22.1658ZM15.8849 20.6857L15.7467 20.782L15.5971 20.8662L15.482 20.9865L15.2978 21.1189L15.1942 21.3355L15.3554 21.2633L15.482 21.1791H15.6201V21.2633L15.7928 21.3355L15.8849 21.4799V21.6484H16.1151H16.2762L16.4029 21.5401H16.564L16.7021 21.4799L16.9093 21.3957H17.0475H17.1741H17.3467H17.6806V21.2633V21.143L17.8532 21.0347V20.8301L18.0144 20.6255H17.9453L18.0374 20.4089H17.9108L18.0029 20.3127V20.1803H18.1065H17.9453H17.7841L17.6345 20.2525L17.4849 20.3247L17.3237 20.3969L17.1741 20.4691H17.0129L16.8633 20.5533L16.6676 20.6255L16.5065 20.6977L16.3683 20.782V20.7218H16.2072L16.0575 20.806L15.8849 20.6857ZM15.3554 22.0094L15.2518 22.1418V22.3102H15.4014H15.5395L15.6201 22.0816L15.4705 21.877L15.3554 22.0094ZM19.9136 23.2248H20.0748L20.2244 23.1165H20.3971V22.9841L20.2244 22.924H20.0403L19.8906 23.0202L19.7065 23.0804L19.5453 23.1767L19.4532 23.3572L19.3842 23.5377L19.5108 23.5979L19.6259 23.6821L19.6949 23.6099V23.4294L19.8216 23.309L19.9136 23.2248ZM21.7093 22.226H21.5597V22.4426H21.8705L21.7899 22.3102L21.7093 22.226ZM27.8791 31.1309V30.9865V31.143V31.2874V31.1309ZM15.4475 20.794L15.6201 20.6977L15.7698 20.5774L15.9539 20.5052L16.1151 20.4571L16.1957 20.3247L16.023 20.421C15.732 20.5911 15.4513 20.78 15.1827 20.9865L15.3324 20.9143L15.4475 20.794ZM27.4647 31.504L27.269 31.6003L27.2 31.7687L27.1079 31.9252L27.0503 32.1057V32.2741V32.4426L27.2115 32.3704L27.3151 32.214V32.0335V31.8409H27.2345L27.3496 31.7086L27.4532 31.5401L27.6259 31.2874L27.4647 31.504ZM14.3654 23.8746L14.5151 23.8145L14.6417 23.7062V23.5377L14.4806 23.5979L14.3309 23.6821L14.1813 23.7784V23.8987L14.3654 23.8746ZM27.3151 32.7555L27.4417 32.563L27.5338 32.3704L27.4187 32.563L27.3151 32.7555ZM14.6532 23.9228L14.5036 24.0672L14.3654 24.1875L14.2273 24.3199V24.4763H14.4345H14.6417L14.7338 24.2958V24.1033L14.8029 23.9228L14.941 23.7904L15.0446 23.634V23.4414H14.9065L14.7798 23.5016V23.658L14.6532 23.7904V23.9228ZM14.6532 21.3837L14.5036 21.5401L14.6647 21.3837H14.6532Z" fill="white"/>
<path d="M13.1801 43.7182C13.1801 43.7182 6.79163 40.0118 7.28659 34.1875C6.97595 35.4745 7.09787 36.834 7.63192 38.0383C7.63192 38.0383 4.524 36.8349 7.21753 31.9492C7.68088 32.2715 8.07637 32.6894 8.37973 33.1772C8.6831 33.665 8.88795 34.2125 8.98172 34.786C9.07549 35.3596 9.0562 35.9471 8.92504 36.5125C8.79388 37.078 8.55361 37.6095 8.21897 38.0744C8.8373 39.3288 9.79374 40.3664 10.97 41.0587C11.9225 41.646 12.8376 42.2972 13.7096 43.0082C13.7244 43.0918 13.7221 43.1778 13.7028 43.2605C13.6835 43.3431 13.6476 43.4206 13.5976 43.4876C13.5475 43.5547 13.4845 43.61 13.4125 43.6497C13.3405 43.6895 13.2613 43.7128 13.1801 43.7182Z" fill="white"/>
<path d="M8.28826 39.7112C7.50303 40.6673 6.3905 41.2633 5.18958 41.3713C3.98865 41.4793 2.7951 41.0906 1.86523 40.2888C1.86523 40.2888 4.84653 37.3045 7.88538 38.9411C6.92866 38.9528 5.98445 39.1699 5.11128 39.5788C6.16353 39.3365 7.25779 39.3821 8.28826 39.7112Z" fill="white"/>
<path d="M9.86562 39.5427C9.72906 39.2145 9.66042 38.8598 9.66421 38.5019C9.668 38.144 9.74413 37.7909 9.88761 37.4659C10.0311 37.141 10.2387 36.8513 10.4967 36.6161C10.7548 36.3809 11.0575 36.2054 11.385 36.1011C11.385 36.1011 11.7419 39.3141 9.86562 39.5307" fill="white"/>
<path d="M31.6538 27.3527C31.4508 24.4212 30.2214 21.6707 28.2006 19.6271C27.1171 18.5276 25.8488 17.6465 24.4596 17.0278C24.31 17.4731 24.0222 17.9424 24.1373 18.1109C24.3905 18.4959 24.1373 18.6885 23.9992 18.9171C23.861 19.1458 23.6423 18.9171 23.4697 18.9171C21.8211 18.2515 20.0258 18.0881 18.292 18.4459C16.5582 18.8038 14.9569 19.6681 13.674 20.9388C12.3352 22.1442 11.3563 23.7268 10.8542 25.4978C10.3521 27.2688 10.348 29.1534 10.8423 30.9268C11.1421 32.2131 11.6924 33.4209 12.4589 34.4748C13.2253 35.5287 14.1915 36.406 15.297 37.0519L15.8956 37.4129C15.769 37.6656 15.6769 38.0387 15.5733 38.0507C14.9287 38.0507 15.1013 38.6885 14.733 39.0736C16.2556 39.8101 17.8939 40.2505 19.5675 40.3732V41.6488H20.8222V40.4454C22.3612 40.3452 23.8656 39.925 25.2473 39.2095C26.6291 38.4939 27.8603 37.4973 28.869 36.278C29.8778 35.0587 30.6436 33.6413 31.1218 32.1088C31.6 30.5762 31.7809 28.9593 31.6538 27.3527ZM13.9963 35.1024C12.5057 33.6219 11.5464 31.6515 11.2786 29.5203C11.0108 27.3892 11.4507 25.2266 12.5249 23.3938C13.5991 21.5611 15.2424 20.1693 17.1803 19.451C19.1181 18.7327 21.2331 18.7316 23.1717 19.4476C25.1102 20.1637 26.755 21.5537 27.8311 23.3852C28.9071 25.2168 29.3493 27.3789 29.0837 29.5104C28.8181 31.6418 27.8607 33.6133 26.3717 35.0955C24.8827 36.5777 22.9521 37.4807 20.9028 37.6536H20.5574C20.027 37.6836 19.4949 37.6594 18.969 37.5814C18.4607 37.515 17.9596 37.3982 17.4726 37.2324C17.2308 37.2324 16.9661 37.076 16.7013 37.0278V36.9556C16.3665 36.8107 16.0399 36.6459 15.7229 36.4622C15.5679 36.3798 15.418 36.2874 15.274 36.1855C14.8042 35.8696 14.3647 35.5069 13.9618 35.1024M29.5128 32.9965C28.3571 35.5327 26.304 37.5001 23.7869 38.4835C21.2698 39.4669 18.4857 39.3894 16.0222 38.2673L16.3215 37.5934C17.7704 38.2395 19.3489 38.5038 20.9183 38.3633C22.4878 38.2227 24.0002 37.6815 25.3229 36.7872C27.0927 35.621 28.4412 33.8726 29.156 31.8172C29.97 29.4777 29.9357 26.9074 29.0598 24.5924C28.1838 22.2775 26.5267 20.3783 24.402 19.2541L24.7474 18.508C27.2119 19.7616 29.1008 21.9851 30.0005 24.6917C30.9002 27.3982 30.7372 30.3672 29.5474 32.9484" fill="white"/>
<path d="M23.6096 42.6714H16.7837C16.2063 42.6854 15.655 42.9258 15.2393 43.3448C14.8235 43.7639 14.5736 44.331 14.5391 44.9337H25.7851C25.7519 44.343 25.5118 43.7857 25.1104 43.3684C24.7091 42.9511 24.1748 42.7029 23.6096 42.6714Z" fill="white"/>
<path d="M22.8032 42.2382C22.5593 42.0833 22.29 41.9772 22.0089 41.9253C20.7888 41.9253 19.5572 41.9253 18.337 41.9253C18.0515 41.9869 17.7786 42.101 17.5312 42.2622L17.6003 42.4307H22.7341L22.8032 42.2382Z" fill="white"/>
</g>
<defs>
<clipPath id="clip0_623_1443">
<rect width="40" height="50" fill="white"/>
</clipPath>
</defs>
</svg>
