<svg width="17" height="16" viewBox="0 0 17 16" fill="none" xmlns="http://www.w3.org/2000/svg">
<path opacity="0.2" d="M8.95743 13.5018C8.77755 13.6547 8.62188 13.7799 8.5 13.875C8.37812 13.7799 8.22245 13.6547 8.04257 13.5018C7.58775 13.1152 6.98189 12.5547 6.3773 11.8594C5.15592 10.4548 4 8.56997 4 6.5C4 5.30653 4.47411 4.16193 5.31802 3.31802C6.16193 2.47411 7.30653 2 8.5 2C9.69347 2 10.8381 2.47411 11.682 3.31802C12.5259 4.16193 13 5.30653 13 6.5C13 8.56997 11.8441 10.4548 10.6227 11.8594C10.0181 12.5547 9.41225 13.1152 8.95743 13.5018ZM7.11107 8.57867C7.5222 8.85338 8.00555 9 8.5 9C9.16304 9 9.79893 8.73661 10.2678 8.26777C10.7366 7.79893 11 7.16304 11 6.5C11 6.00555 10.8534 5.5222 10.5787 5.11107C10.304 4.69995 9.91352 4.37952 9.45671 4.1903C8.99989 4.00108 8.49723 3.95157 8.01227 4.04804C7.52732 4.1445 7.08186 4.3826 6.73223 4.73223C6.3826 5.08186 6.1445 5.52732 6.04804 6.01227C5.95157 6.49723 6.00108 6.99989 6.1903 7.45671C6.37952 7.91352 6.69995 8.30397 7.11107 8.57867Z" fill="#E51740" stroke="#E51740"/>
<path d="M8.5 8.5C9.60457 8.5 10.5 7.60457 10.5 6.5C10.5 5.39543 9.60457 4.5 8.5 4.5C7.39543 4.5 6.5 5.39543 6.5 6.5C6.5 7.60457 7.39543 8.5 8.5 8.5Z" stroke="#E51740" stroke-linecap="round" stroke-linejoin="round"/>
<path d="M13.5 6.5C13.5 11 8.5 14.5 8.5 14.5C8.5 14.5 3.5 11 3.5 6.5C3.5 5.17392 4.02678 3.90215 4.96447 2.96447C5.90215 2.02678 7.17392 1.5 8.5 1.5C9.82608 1.5 11.0979 2.02678 12.0355 2.96447C12.9732 3.90215 13.5 5.17392 13.5 6.5V6.5Z" stroke="#E51740" stroke-linecap="round" stroke-linejoin="round"/>
</svg>
