<svg width="861" height="572" viewBox="0 0 861 572" fill="none" xmlns="http://www.w3.org/2000/svg">
<g clip-path="url(#clip0_920_33454)">
<path d="M424.397 160.527C432.066 147.843 441.154 134.3 455.387 130.158C471.869 125.361 488.8 134.89 503.161 144.292C546.111 172.412 587.472 202.887 627.055 235.575L627.011 236.068C596.194 233.943 565.377 231.817 534.56 229.692C512.295 228.157 489.265 226.41 469.588 215.877C462.122 211.88 454.844 206.541 446.383 206.169C435.871 205.707 426.706 213.048 419.503 220.718C376.895 266.089 364.566 335.472 316.765 375.334C346.906 300.999 382.897 229.171 424.397 160.527Z" fill="#FAFAFA"/>
<path d="M162.497 545.355C167.209 539.406 169.134 538.012 173.782 532.008C211.625 483.064 247.194 432.466 280.49 380.215C303.105 344.729 324.6 308.561 344.972 271.711C354.672 254.192 364.105 236.536 373.272 218.742C380.386 204.946 387.341 191.066 394.137 177.104C396.08 173.117 397.969 169.111 399.848 165.095C404.276 155.653 408.621 146.165 413.287 136.851C418.604 126.235 425.076 115.106 434.84 107.974C439.283 104.595 444.596 102.55 450.158 102.079C458.106 101.566 465.44 104.848 472.334 108.432C522.773 134.733 569.993 167.708 612.704 205.23C655.524 242.836 693.798 285.322 726.745 331.821C727.753 333.26 730.137 331.885 729.12 330.437C725.113 324.772 721.028 319.167 716.863 313.624C665.074 244.746 601.573 185.515 529.263 138.638C517.098 130.755 504.704 123.24 492.081 116.096C485.718 112.493 479.329 108.936 472.829 105.599C466.458 102.327 459.692 99.3839 452.414 99.2739C427.643 98.8889 414.818 126.941 406.009 145.816C403.24 151.757 400.438 157.679 397.602 163.583C386.886 185.997 375.757 208.206 364.215 230.211C357.092 243.797 349.813 257.303 342.378 270.73C319.24 312.542 294.647 353.508 268.6 393.627C234.094 446.77 199.863 493.716 160.554 543.412C159.472 544.787 161.406 546.749 162.497 545.355Z" fill="#F4F4F5"/>
<path d="M615.149 191.378C616.588 189.773 618.018 188.169 619.467 186.565C630.889 173.932 643.146 161.446 658.831 154.204C666.31 150.642 674.475 148.75 682.758 148.658C691.32 148.686 699.69 150.932 707.601 154.076C711.341 155.57 714.999 157.266 718.602 159.072C722.718 161.144 726.761 163.353 730.785 165.581C738.339 169.761 745.795 174.125 753.153 178.672C767.794 187.72 781.976 197.459 795.699 207.888C802.813 213.297 809.78 218.883 816.601 224.646C822.945 230 829.16 235.497 835.247 241.138C836.549 242.339 838.492 240.395 837.191 239.194C835.586 237.7 833.964 236.215 832.341 234.748C827.757 230.605 823.1 226.541 818.37 222.556C809.744 215.277 800.894 208.279 791.821 201.563C777.713 191.112 763.118 181.37 748.038 172.337C740.503 167.827 732.863 163.506 725.12 159.375C722.782 158.128 720.417 156.909 718.024 155.754C712.596 153.015 706.955 150.719 701.157 148.887C692.944 146.23 684.254 145.377 675.681 146.385C667.403 147.589 659.428 150.348 652.176 154.516C636.775 163.124 624.83 176.435 613.206 189.425C612.032 190.745 613.966 192.698 615.149 191.378Z" fill="#F4F4F5"/>
<path d="M299.592 322.285L262.687 308.787L244.364 302.085C238.396 299.903 232.443 297.418 226.274 295.855C220.913 294.324 215.22 294.396 209.9 296.064C205.156 297.82 200.812 300.512 197.129 303.98C193.366 307.445 189.865 311.184 186.654 315.167C182.665 319.961 178.735 324.805 174.787 329.634C158.492 349.561 142.305 369.575 126.223 389.675C110.143 409.775 94.1694 429.96 78.3037 450.231C62.3991 470.551 46.604 490.957 30.9182 511.447C28.9967 513.957 27.0768 516.468 25.1585 518.981C24.0987 520.369 21.709 519 22.7838 517.593C38.5853 496.896 54.497 476.285 70.5188 455.758C86.5799 435.182 102.752 414.694 119.035 394.292C135.318 373.891 151.711 353.579 168.214 333.355C172.325 328.316 176.443 323.284 180.568 318.256C184.048 314.016 187.488 309.729 191.305 305.782C198.31 298.537 207.062 292.134 217.539 291.96C223.699 291.858 229.66 293.813 235.383 295.883C241.553 298.115 247.707 300.389 253.869 302.643L291.032 316.235L300.323 319.633C301.971 320.236 301.259 322.895 299.592 322.285Z" fill="#F4F4F5"/>
<path d="M663.69 170.1C682.444 160.461 706.462 162.349 723.695 174.391C690.823 180.062 658.311 187.651 626.325 197.117C639.607 189.333 649.998 177.137 663.69 170.1Z" fill="#FAFAFA"/>
<path d="M723.878 174.358L727.488 177.293C726.267 176.265 724.997 175.302 723.693 174.391C723.755 174.38 723.816 174.369 723.878 174.358Z" fill="#FAFAFA"/>
<path d="M198.519 322.42C202.151 317.998 206.079 313.367 211.513 311.571L216.586 311.771C177.968 380.01 125.812 439.637 63.3187 486.992C108.385 432.135 153.452 377.277 198.519 322.42Z" fill="#FAFAFA"/>
<path d="M513.982 285.94C511.634 294.47 506.345 301.894 499.051 306.899C496.231 308.819 492.894 310.661 491.929 313.934C491.422 316.02 491.735 318.221 492.803 320.084C493.87 321.922 495.167 323.616 496.664 325.125L496.801 325.637C503.799 321.49 510.457 316.244 514.323 309.086C518.189 301.928 518.729 292.547 513.982 285.94Z" fill="#FAFAFA"/>
<path d="M280.982 488.94C278.634 497.47 273.345 504.894 266.051 509.899C263.231 511.819 259.894 513.661 258.929 516.934C258.422 519.02 258.735 521.221 259.803 523.084C260.87 524.922 262.167 526.616 263.664 528.125L263.801 528.637C270.799 524.49 277.457 519.244 281.323 512.086C285.189 504.928 285.729 495.547 280.982 488.94Z" fill="#FAFAFA"/>
<path d="M745.982 474.94C743.634 483.47 738.345 490.894 731.051 495.899C728.231 497.819 724.894 499.661 723.929 502.934C723.422 505.02 723.735 507.221 724.803 509.084C725.87 510.922 727.167 512.616 728.664 514.125L728.801 514.637C735.799 510.49 742.457 505.244 746.323 498.086C750.189 490.928 750.729 481.547 745.982 474.94Z" fill="#FAFAFA"/>
<path d="M141.053 79.8702C165.77 76.5292 193.989 89.8889 200.395 113.994C202.009 109.708 204.944 106.046 208.776 103.538C212.608 101.029 217.138 99.8039 221.712 100.039C226.286 100.273 230.666 101.956 234.221 104.843C237.776 107.731 240.321 111.674 241.488 116.102L238.659 118.129C185.691 129.583 130.861 129.335 77.9998 117.403C95.1926 99.3338 116.337 83.2111 141.053 79.8702Z" fill="#F0F0F0"/>
<path d="M1.19214 570.841L858.942 571.148C859.099 571.148 859.253 571.117 859.398 571.057C859.542 570.998 859.674 570.91 859.784 570.799C859.895 570.689 859.982 570.558 860.042 570.413C860.102 570.269 860.133 570.114 860.133 569.957C860.133 569.801 860.102 569.646 860.042 569.502C859.982 569.357 859.895 569.226 859.784 569.116C859.674 569.005 859.542 568.917 859.398 568.857C859.253 568.798 859.099 568.767 858.942 568.767L1.19214 568.459C0.876953 568.46 0.574951 568.586 0.352417 568.809C0.129883 569.033 0.00488281 569.335 0.00488281 569.65C0.00488281 569.965 0.129883 570.268 0.352417 570.491C0.574951 570.714 0.876953 570.84 1.19214 570.841Z" fill="#D9D9D9"/>
</g>
<defs>
<clipPath id="clip0_920_33454">
<rect width="860.131" height="571.148" fill="white" transform="matrix(-1 0 0 1 860.133 0)"/>
</clipPath>
</defs>
</svg>
