<svg width="17" height="16" viewBox="0 0 17 16" fill="none" xmlns="http://www.w3.org/2000/svg">
<path opacity="0.2" d="M5.83023 8.01538L5.83024 8.01537C5.7564 7.86108 5.72337 7.69042 5.73431 7.51972C5.74525 7.34902 5.7998 7.18398 5.89274 7.04037L5.8947 7.03734L5.89471 7.03735L6.93512 5.45493L6.93417 5.45274L6.93418 5.45274L5.67793 2.52149L5.67774 2.52107C5.07652 2.59922 4.52411 2.8932 4.12345 3.34837C3.7218 3.80466 3.50016 4.39165 3.5 4.99953L5.83023 8.01538ZM5.83023 8.01538L5.83124 8.01745M5.83023 8.01538L5.83124 8.01745M5.83124 8.01745C6.39498 9.18163 7.33636 10.1206 8.50199 10.6814L8.50477 10.6827M5.83124 8.01745L8.50477 10.6827M8.50477 10.6827C8.66172 10.757 8.83531 10.7892 9.00846 10.776C9.18119 10.7629 9.34754 10.7051 9.49122 10.6084C9.49157 10.6082 9.49192 10.6079 9.49227 10.6077L11.0527 9.5653L11.0527 9.56531L11.0528 9.56526M8.50477 10.6827L11.0528 9.56526M11.0528 9.56526L13.9777 10.8215L13.9777 10.8215L13.9785 10.8218C13.9003 11.423 13.6063 11.9754 13.1512 12.3761C12.6949 12.7777 12.1079 12.9994 11.5 12.9995L11.0528 9.56526ZM13.9791 10.8171L13.9791 10.8172L13.9791 10.8171ZM11.0497 9.56391C11.0497 9.56391 11.0497 9.5639 11.0496 9.5639L11.0497 9.56391ZM11.4999 12.9995C9.3782 12.9995 7.34341 12.1567 5.84315 10.6564C4.34288 9.15612 3.50003 7.12134 3.5 4.99965L11.4999 12.9995Z" fill="#E51740" stroke="#E51740"/>
<path d="M6.28125 7.79953C6.79576 8.86204 7.65492 9.719 8.71875 10.2308C8.79722 10.2679 8.88402 10.284 8.97059 10.2774C9.05717 10.2709 9.14054 10.2419 9.2125 10.1933L10.775 9.14953C10.844 9.10271 10.9238 9.07414 11.0069 9.06649C11.0899 9.05884 11.1736 9.07236 11.25 9.10578L14.175 10.362C14.275 10.4036 14.3585 10.477 14.4127 10.5707C14.4669 10.6644 14.4888 10.7734 14.475 10.8808C14.3823 11.6044 14.0291 12.2694 13.4815 12.7514C12.9339 13.2334 12.2295 13.4994 11.5 13.4995C9.24566 13.4995 7.08365 12.604 5.48959 11.0099C3.89553 9.41588 3 7.25387 3 4.99953C3.00016 4.27003 3.26613 3.56558 3.74814 3.018C4.23015 2.47043 4.89516 2.11724 5.61875 2.02453C5.72615 2.01074 5.83511 2.03263 5.92884 2.08684C6.02258 2.14105 6.09589 2.22456 6.1375 2.32453L7.39375 5.25578C7.42642 5.331 7.44009 5.4131 7.43355 5.49484C7.42701 5.57659 7.40046 5.65547 7.35625 5.72453L6.3125 7.31203C6.26603 7.38383 6.23876 7.46636 6.23329 7.55171C6.22782 7.63706 6.24433 7.72239 6.28125 7.79953V7.79953Z" stroke="#E51740" stroke-linecap="round" stroke-linejoin="round"/>
</svg>
