<svg width="500" height="500" viewBox="0 0 500 500" fill="none" xmlns="http://www.w3.org/2000/svg">
<g clip-path="url(#clip0_4334_4106)">
<rect width="500" height="500" fill="#FAFAFA"/>
<path d="M335.769 222.394C337.329 196.704 365.128 178.283 389.604 180.127C397.455 180.719 401.743 182.979 407.856 187.871C411.978 186.631 416.297 186.614 420.141 188.734C430.517 194.456 429.071 204.158 436.324 212.431C442.905 219.938 448.277 221.865 455.361 227.358C462.559 234.759 465.268 242.299 465.659 252.405C466.095 263.653 451.635 275.368 456.779 286.245C467.408 308.723 494.714 311.725 479.041 342.363C479.921 343.378 481.711 345.328 482.399 346.365L480.448 346.802L480.115 346.42C471.694 336.788 454.299 327.511 442.43 322.412C440.046 321.388 435.094 319.326 432.724 319.17L431.526 318.331L430.747 318.518C428.224 316.624 423.994 314.995 420.809 315.48C419.497 316.441 419.82 316.398 419.031 318.092L417.811 317.678L419.264 314.413C412.559 313.282 405.136 315.584 398.17 316.553C396.164 315.808 396.369 316.919 394.356 316.49L393.94 315.783C399.542 314.601 405.513 313.645 411.164 312.719C411.107 307.82 410.522 302.203 410.069 297.32L410.234 295.29C411.032 291.414 409.694 284.254 408.986 280.238C413.154 274.817 416.987 268.13 418.909 261.585C421.179 253.86 419.338 256.778 425.994 254.629L426.17 254.153C433.347 247.633 432.238 239.253 423.038 234.567C419.669 232.851 422.636 232.481 421.286 231.104C414.056 223.732 409.922 216.018 406.008 206.351C397.654 216.059 387.676 224.176 375.575 228.79C373.295 228.214 363.887 231.966 360.82 232.722C359.307 233.095 350.439 235.658 349.848 236.159L349.897 236.369C347.232 238.482 346.325 239.644 345.801 243.131C345.039 248.206 348.044 253.267 353.02 254.595L353.806 254.461C358.562 264.875 361.833 275.22 370.447 283.178L370.683 284.893C369.801 284.232 368.721 283.466 367.911 282.756C367.874 289.97 367.306 304.585 362.348 310.324C359.87 310.779 357.152 314.754 356.836 317.144C354.919 316.618 346.111 320.353 344.011 321.56C342.563 322.393 341.763 323.357 340.673 324.604L340.997 323.131L340.717 322.894L339.797 323.662C334.94 324.294 325.316 330.07 320.756 332.364C319.919 332.786 317.907 334.091 317.274 334.353L316.543 333.219L318.881 331.868C313.874 325.308 306.864 314.922 309.537 306.175C313.786 292.266 336.158 294.309 339.62 280.247C342.268 269.115 328.617 265.378 324.423 257.026C318.148 244.533 326.694 234.918 337.158 229.354C336.402 226.694 336.165 225.156 335.769 222.394Z" fill="#030207"/>
<path d="M349.897 236.369C353.841 236.284 371.38 230.471 375.575 228.79C387.676 224.176 397.654 216.059 406.008 206.352C409.922 216.018 414.056 223.732 421.286 231.105C422.636 232.481 419.669 232.851 423.038 234.568C432.238 239.253 433.347 247.633 426.17 254.153C422.912 254.711 422.525 255.264 420.201 252.664C419.464 253.269 417.709 262.286 416.972 264.353C409.906 284.167 389.843 295.989 370.447 283.178C361.833 275.22 358.562 264.875 353.806 254.461C352.574 251.469 350.918 248.844 349.997 245.735C349.12 242.778 350.674 241.187 352.307 238.531L351.965 238.433C344.478 242.069 351.16 250.184 353.02 254.595C348.044 253.267 345.039 248.206 345.801 243.131C346.325 239.644 347.232 238.482 349.897 236.369ZM402.147 228.27C400.737 229.328 400.123 229.693 400.114 231.595C401.869 230.503 402.214 229.715 403.955 229.517L405.403 230.12C406.299 231.366 406.303 231.856 407.461 232.255C408.435 229.619 404.302 228.244 402.147 228.27ZM403.321 237.481C402.748 237.704 402.346 238.227 402.28 238.839C402.212 239.451 402.492 240.048 403.003 240.39C403.515 240.731 404.175 240.76 404.714 240.463C405.475 240.045 405.781 239.107 405.413 238.32C405.046 237.533 404.131 237.166 403.321 237.481ZM373.568 237.758C372.985 237.963 372.564 238.474 372.475 239.085C372.386 239.696 372.644 240.306 373.145 240.668C373.645 241.029 374.305 241.083 374.857 240.807C375.64 240.415 375.984 239.483 375.643 238.677C375.302 237.872 374.394 237.469 373.568 237.758ZM424.359 237.412C422.899 238.18 422.82 238.194 421.897 239.51L421.901 240.076L422.609 240.026C423.518 239.329 424.314 238.712 425.182 237.963L425.11 237.608L424.359 237.412ZM388.209 243.917L388.122 244.379C387.488 247.575 385.693 249.661 386.402 252.035C387.882 253.437 389.176 253.292 391.136 253.076L391.022 252.253C388.852 251.494 388.704 252.533 387.273 251.408C386.743 248.482 391.046 245.943 388.209 243.917ZM376.204 265.52C381.574 273.782 393.23 273.335 399.776 266.566L399.067 265.857C398.052 266.247 398.313 266.305 397.525 266.909C393.586 269.929 391.638 270.61 387.047 270.51C381.507 270.389 378.928 265.609 376.204 265.52Z" fill="#FFBFD6"/>
<path d="M405.403 230.12L403.955 229.517C402.214 229.715 401.869 230.503 400.114 231.595C400.123 229.693 400.737 229.328 402.147 228.27C404.302 228.244 408.435 229.619 407.461 232.255C406.303 231.856 406.299 231.366 405.403 230.12Z" fill="#030207"/>
<path d="M375.575 228.79C371.38 230.47 353.841 236.283 349.897 236.369L349.848 236.159C350.439 235.658 359.307 233.095 360.82 232.722C363.887 231.966 373.295 228.214 375.575 228.79Z" fill="#030207"/>
<path d="M404.714 240.463C404.174 240.759 403.515 240.731 403.003 240.39C402.492 240.048 402.212 239.45 402.28 238.838C402.346 238.227 402.748 237.704 403.321 237.481C404.131 237.166 405.046 237.533 405.413 238.32C405.781 239.107 405.475 240.045 404.714 240.463Z" fill="#030207"/>
<path d="M374.857 240.807C374.305 241.083 373.645 241.029 373.145 240.668C372.644 240.306 372.386 239.696 372.475 239.084C372.564 238.474 372.985 237.963 373.568 237.758C374.394 237.469 375.302 237.871 375.643 238.677C375.984 239.483 375.64 240.415 374.857 240.807Z" fill="#030207"/>
<path d="M422.609 240.026L421.901 240.076L421.897 239.51C422.82 238.194 422.899 238.18 424.359 237.412L425.11 237.608L425.182 237.963C424.314 238.712 423.518 239.329 422.609 240.026Z" fill="#030207"/>
<path d="M353.02 254.595C351.16 250.184 344.478 242.068 351.965 238.433L352.307 238.531C350.674 241.187 349.12 242.778 349.997 245.735C350.918 248.844 352.574 251.468 353.806 254.461L353.02 254.595Z" fill="#030207"/>
<path d="M391.136 253.076C389.176 253.292 387.882 253.437 386.402 252.035C385.693 249.661 387.488 247.575 388.122 244.38L388.209 243.917C391.045 245.943 386.743 248.482 387.273 251.408C388.704 252.533 388.852 251.494 391.022 252.253L391.136 253.076Z" fill="#030207"/>
<path d="M370.447 283.178C389.843 295.989 409.906 284.167 416.972 264.353C417.709 262.286 419.464 253.269 420.201 252.665C422.525 255.264 422.912 254.711 426.17 254.153L425.994 254.629C419.337 256.778 421.179 253.86 418.909 261.585C416.987 268.13 413.154 274.817 408.986 280.238C409.693 284.254 411.032 291.414 410.234 295.29C409.676 290.649 409.414 285.758 408.643 281.194C397.037 289.025 395.591 290.109 381.499 289.966C379.494 288.659 375.098 287.772 370.683 284.893L370.447 283.178Z" fill="#030207"/>
<path d="M399.776 266.566C393.23 273.335 381.574 273.782 376.204 265.52C378.928 265.609 381.507 270.389 387.047 270.51C391.638 270.61 393.586 269.929 397.525 266.909C398.313 266.305 398.052 266.247 399.067 265.857L399.776 266.566Z" fill="#030207"/>
<path d="M381.499 289.966C395.591 290.109 397.037 289.025 408.643 281.194C409.414 285.758 409.676 290.649 410.234 295.29L410.069 297.32C401.719 306.382 387.95 296.713 381.499 289.966Z" fill="#030207"/>
<path d="M367.911 282.756C368.721 283.466 369.801 284.232 370.683 284.893C375.098 287.771 379.494 288.659 381.499 289.966C387.95 296.713 401.719 306.382 410.069 297.319C410.522 302.202 411.107 307.82 411.164 312.719C405.513 313.645 399.542 314.601 393.94 315.783C387.564 317.381 384.766 316.283 378.324 315.229C372.773 314.321 366.93 313.831 361.473 312.538C361.272 311.653 361.723 311.388 362.348 310.324C367.305 304.585 367.874 289.97 367.911 282.756Z" fill="#FFBFD6"/>
<path d="M356.836 317.143C357.152 314.754 359.87 310.779 362.348 310.324C361.723 311.388 361.272 311.653 361.473 312.538C366.93 313.831 372.773 314.321 378.324 315.229C384.766 316.283 387.564 317.381 393.94 315.783L394.356 316.49C396.369 316.919 396.164 315.808 398.17 316.553L389.281 318.351C392.827 324.054 396.175 329.752 399.523 335.562C401.397 338.814 405.135 346.806 408.408 348.331L409.111 348.133C410.484 344.129 410.987 340.323 412.058 336.327C413.695 330.217 415.609 323.587 417.811 317.678L419.031 318.092C409.282 347.719 404.693 378.408 401.425 409.36C401.078 412.644 400.623 418.828 399.671 421.845L399.174 421.099C398.979 418.138 400.136 409.179 400.463 405.801C402.3 386.811 405.203 368.926 408.994 350.216C403.69 348.673 400.69 340.538 397.941 335.901C394.619 330.296 391.749 324.866 388.109 319.398C380.996 328.916 377.058 340.428 369.529 349.332C368.956 350.009 366.216 348.964 365.38 348.904C365.395 350.796 367.911 364.46 368.314 367.51C369.688 377.909 371.15 388.489 372.123 398.986C372.638 404.536 373.587 410.753 373.79 416.269L373.804 416.721C373.739 418.273 373.684 419.635 373.519 421.188C373.007 420.759 373.214 420.83 372.991 419.909C370.784 405.829 370.426 390.95 368.133 376.794C365.968 362.886 364.501 348.462 360.835 334.877C359.231 328.934 355.194 323.507 356.836 317.143ZM360.221 313.177C358.384 315.937 357.942 316.704 357.195 320.071C358.349 324.265 365.981 345.511 367.719 347.852L368.283 348.08C370.649 346.908 373.367 341.243 374.702 338.821C378.673 331.766 382.45 325.05 386.96 318.296C380.319 316.512 364.677 315.377 360.221 313.177Z" fill="#030207"/>
<path d="M357.195 320.071C357.942 316.704 358.384 315.937 360.221 313.177C364.677 315.377 380.319 316.512 386.96 318.296C382.45 325.05 378.673 331.766 374.702 338.821C373.367 341.243 370.648 346.908 368.283 348.08L367.719 347.852C365.981 345.511 358.349 324.265 357.195 320.071Z" fill="#E00051"/>
<path d="M389.281 318.351L398.17 316.553C405.136 315.584 412.559 313.282 419.264 314.413L417.811 317.678C415.609 323.587 413.695 330.217 412.058 336.327C410.987 340.323 410.484 344.129 409.111 348.133L408.409 348.331C405.135 346.806 401.397 338.814 399.523 335.562C396.175 329.752 392.827 324.054 389.281 318.351Z" fill="#E00051"/>
<path d="M340.673 324.604C341.763 323.358 342.563 322.393 344.011 321.56C346.111 320.353 354.919 316.618 356.836 317.144C355.194 323.507 359.231 328.934 360.835 334.877C364.501 348.462 365.968 362.886 368.133 376.795C370.426 390.95 370.784 405.829 372.991 419.909L372.729 421.362C371.25 422.513 364.013 421.987 361.627 421.92C357.822 417.956 357.677 416.473 352.179 414.661C350.989 411.913 350.032 409.264 349.036 406.439C343.05 389.464 336.409 372.698 329.728 355.984C332.229 355.464 334.592 355.115 336.89 354.003L336.848 353.651C334.908 353.072 327.726 353.379 327.606 356.153C330.034 359.894 334.045 370.983 335.862 375.62C340.921 388.534 345.719 401.65 350.167 414.789L330.837 415.125L328.86 415.043C328.658 414.867 328.457 414.691 328.254 414.515C326.969 406.966 325.388 396.957 323.54 389.773C320.11 376.437 315.637 361.637 309.074 349.645C308.629 348.983 307.82 347.3 307.424 346.534C306.586 344.837 306.19 343.933 305.008 342.411C306.956 340.568 314.779 335.894 317.274 334.353C317.907 334.091 319.919 332.786 320.756 332.364C325.316 330.07 334.94 324.294 339.797 323.662C334.716 330.517 330.971 337.345 326.756 344.747C330.007 345.476 343.348 348.744 345.57 348.15C344.745 346.211 331.801 344.328 329.156 343.864C333.109 336.552 336.099 331.502 340.673 324.604Z" fill="#FEFEFE"/>
<path d="M373.804 457.841L373.79 416.269C373.587 410.753 372.638 404.536 372.123 398.985C371.149 388.489 369.688 377.909 368.314 367.509C367.911 364.46 365.395 350.796 365.38 348.904C366.216 348.964 368.956 350.009 369.529 349.332C377.058 340.428 380.996 328.916 388.109 319.397C391.749 324.866 394.619 330.296 397.941 335.901C400.69 340.538 403.69 348.673 408.994 350.216C405.203 368.926 402.3 386.811 400.463 405.801C400.136 409.179 398.979 459.258 399.174 462.219C399.082 462.355 398.52 462.94 398.435 462.941C390.364 463.031 382.28 462.868 374.196 462.977C374.152 460.899 374.093 459.917 373.804 457.841Z" fill="#E00051"/>
<path d="M339.797 323.662L340.717 322.894L340.997 323.131L340.673 324.604C336.099 331.502 333.109 336.551 329.156 343.863C331.801 344.328 344.745 346.211 345.57 348.15C343.348 348.744 330.007 345.476 326.756 344.747C330.971 337.345 334.716 330.516 339.797 323.662Z" fill="#030207"/>
<path d="M482.399 346.365C485.139 349.373 488.323 353.35 490.423 356.839C489.393 356.189 488.986 355.774 488.141 354.886L487.879 354.964C488.24 355.954 488.434 356.418 488.896 357.363C485.936 355.935 483.697 350.346 480.448 346.802L482.399 346.365Z" fill="#030207"/>
<path d="M419.031 318.092C419.82 316.398 419.497 316.441 420.809 315.48C423.994 314.995 428.224 316.624 430.747 318.518C435.031 324.545 441.61 336.188 445.322 342.978C442.217 343.858 428.722 347.301 427.407 348.826C430.331 349.345 444.288 344.985 447.266 343.687C445.139 338.962 435.96 323.173 432.723 319.17C435.094 319.326 440.046 321.388 442.43 322.413C454.298 327.511 471.694 336.788 480.114 346.42L480.447 346.802C483.697 350.346 485.936 355.936 488.896 357.363C490.828 359.213 494.023 366.034 495.396 368.756C508.097 393.928 515.639 423.919 516.589 452.087C517.197 470.111 517.064 487.831 503.793 501.842C497.878 508.086 491.296 511.015 482.739 511.127L428.557 511.323C429.098 497.035 430.07 482.026 429.994 467.786C436.287 465.33 442.851 463.137 449.295 460.883C465.814 455.108 482.584 445.968 500.594 450.123C502.966 450.67 504.985 452.532 507.041 452.717L507.403 452.192C506.953 451.081 506.519 450.829 505.263 450.289C494.333 445.592 481.835 447.617 470.935 451.278C466.645 452.719 461.154 455.004 456.999 456.165C457.501 426.01 463.577 385.515 482.088 360.311C482.787 359.361 483.804 358.898 483.067 357.852C481.579 358.108 479.947 360.696 479.084 361.923C462.648 385.3 455.359 428.979 455.383 456.877C449.378 459.168 434.149 465.049 428.549 466.149C428.505 469.008 428.624 474.593 428.409 477.095C424.678 476.992 423.568 476.756 420.064 478.116L414.94 455.322C413.915 450.96 411.054 442.002 412.543 438.149C417.887 426.163 421.575 412.543 426.96 400.269C433.842 384.589 441.254 369.576 448.703 354.199C446.18 353.782 436.879 351.936 435.065 352.884C437.496 354.448 443.48 354.825 446.692 355.233C443.165 361.261 439.613 369.226 436.527 375.61C426.739 395.857 418.568 416.645 411.344 437.942C407.435 430.31 411.247 424.013 399.671 421.845C400.623 418.828 401.078 412.644 401.425 409.36C404.693 378.408 409.282 347.719 419.031 318.092Z" fill="#FEFEFE"/>
<path d="M430.747 318.518L431.525 318.331L432.723 319.17C435.96 323.173 445.139 338.962 447.266 343.687C444.288 344.985 430.331 349.345 427.407 348.826C428.722 347.301 442.217 343.858 445.322 342.978C441.61 336.188 435.031 324.545 430.747 318.518Z" fill="#030207"/>
<path d="M411.344 437.942C418.568 416.645 426.739 395.857 436.527 375.61C439.613 369.226 443.165 361.261 446.692 355.232C443.48 354.825 437.496 354.448 435.065 352.884C436.879 351.936 446.18 353.782 448.703 354.199C441.254 369.576 433.842 384.589 426.961 400.269C421.575 412.543 417.887 426.162 412.543 438.148L411.774 438.794L411.375 438.646L411.344 437.942Z" fill="#030207"/>
<path d="M488.896 357.363C488.434 356.418 488.24 355.954 487.879 354.964L488.141 354.886C488.986 355.774 489.393 356.189 490.423 356.84C499.875 370.342 508.306 395.341 512.543 411.017C514.109 422.076 517.033 431.376 517.591 443.078C518.913 470.796 520.745 496.543 492.96 511.227C503.151 511.448 513.38 511.265 523.571 511.175C524.689 511.165 525.998 511.577 527.019 512.017L527.279 512.431C524.524 513.836 437.569 512.764 426.879 513.203C427.23 511.221 427.4 510.554 427.226 508.487C427.119 503.783 427.89 496.284 427.988 490.926C428.452 487.442 428.071 481.338 428.409 477.095C428.624 474.593 428.505 469.008 428.549 466.149C434.149 465.049 449.378 459.168 455.383 456.877C455.359 428.979 462.648 385.3 479.084 361.923C479.947 360.696 481.579 358.108 483.067 357.852C483.804 358.898 482.787 359.361 482.088 360.311C463.577 385.515 457.501 426.01 456.999 456.165C461.154 455.004 466.645 452.719 470.935 451.278C481.835 447.617 494.333 445.592 505.263 450.289C506.519 450.829 506.953 451.081 507.403 452.192L507.041 452.717C504.985 452.532 502.966 450.67 500.594 450.123C482.584 445.968 465.814 455.108 449.295 460.883C442.851 463.137 436.287 465.33 429.994 467.786C430.07 482.026 429.098 497.035 428.557 511.322L482.739 511.127C491.296 511.015 497.878 508.086 503.793 501.842C517.064 487.831 517.197 470.11 516.589 452.087C515.639 423.919 508.097 393.928 495.396 368.756C494.023 366.034 490.828 359.213 488.896 357.363Z" fill="#030207"/>
<path d="M355.334 322.605C354.563 320.949 354.879 320.992 353.597 320.052C350.486 319.579 346.352 321.17 343.887 323.02C339.702 328.909 333.274 340.285 329.647 346.919C332.681 347.778 345.865 351.142 347.15 352.632C344.294 353.14 330.658 348.879 327.748 347.611C329.826 342.995 338.794 327.569 341.956 323.658C339.64 323.81 334.802 325.825 332.473 326.826C320.877 331.807 303.881 340.871 295.654 350.281L295.329 350.655C292.154 354.117 289.966 359.579 287.074 360.973C285.187 362.781 282.066 369.445 280.724 372.104C268.315 396.698 260.946 426 260.017 453.521C259.424 471.13 259.553 488.444 272.52 502.133C278.299 508.233 284.73 511.095 293.09 511.204L346.027 511.395C345.498 497.436 344.549 482.772 344.623 468.859C338.474 466.459 332.061 464.316 325.766 462.115C309.627 456.472 293.241 447.542 275.645 451.601C273.328 452.136 271.356 453.955 269.346 454.137L268.993 453.624C269.433 452.538 269.856 452.291 271.084 451.764C281.762 447.175 293.973 449.153 304.623 452.73C308.814 454.138 314.179 456.37 318.238 457.505C317.748 428.043 311.811 388.478 293.726 363.853C293.044 362.925 292.05 362.473 292.77 361.451C294.223 361.701 295.818 364.23 296.661 365.429C312.719 388.268 319.841 430.943 319.817 458.201C325.685 460.439 340.564 466.185 346.035 467.26C346.078 470.053 345.962 475.509 346.172 477.954C349.817 477.853 350.901 477.622 354.325 478.951L359.332 456.681C360.333 452.419 363.127 443.667 361.673 439.902C356.452 428.192 352.849 414.885 347.587 402.894C340.864 387.573 333.622 372.905 326.344 357.882C328.809 357.475 337.897 355.671 339.669 356.597C337.293 358.125 331.447 358.493 328.309 358.892C331.755 364.782 335.225 372.564 338.24 378.801C347.803 398.583 355.787 418.893 362.845 439.701C366.664 432.244 362.939 426.092 374.249 423.974C373.319 421.026 372.875 414.984 372.536 411.776C369.343 381.534 364.859 351.551 355.334 322.605Z" fill="#FEFEFE"/>
<path d="M343.887 323.02L343.127 322.838L341.956 323.658C338.794 327.569 329.826 342.995 327.748 347.611C330.658 348.879 344.294 353.14 347.15 352.632C345.865 351.142 332.681 347.778 329.647 346.919C333.274 340.285 339.702 328.909 343.887 323.02Z" fill="#030207"/>
<path d="M362.845 439.701C355.787 418.893 347.803 398.583 338.24 378.801C335.225 372.564 331.755 364.782 328.309 358.891C331.447 358.493 337.293 358.125 339.669 356.597C337.897 355.671 328.809 357.475 326.344 357.882C333.622 372.905 340.864 387.573 347.587 402.893C352.849 414.885 356.452 428.192 361.673 439.902L362.424 440.533L362.815 440.388L362.845 439.701Z" fill="#030207"/>
<path d="M290.501 360.973C290.953 360.05 291.142 359.597 291.495 358.629L291.239 358.553C290.413 359.421 290.015 359.826 289.009 360.462C279.775 373.654 271.537 398.079 267.397 413.394C265.867 424.199 263.011 433.286 262.466 444.719C261.174 471.8 259.384 496.955 286.531 511.302C276.574 511.518 266.58 511.339 256.623 511.251C255.531 511.241 254.252 511.644 253.254 512.074L253 512.478C255.692 513.851 340.649 512.804 351.093 513.232C350.75 511.296 350.584 510.644 350.754 508.625C350.859 504.029 350.105 496.702 350.01 491.467C349.557 488.063 349.929 482.1 349.599 477.954C349.389 475.509 349.505 470.053 349.462 467.26C343.99 466.185 329.111 460.439 323.244 458.201C323.268 430.943 316.146 388.268 300.087 365.429C299.244 364.23 297.65 361.7 296.196 361.451C295.477 362.473 296.47 362.925 297.153 363.853C315.238 388.478 321.175 428.043 321.665 457.505C317.606 456.37 312.241 454.138 308.049 452.73C297.4 449.153 285.189 447.175 274.51 451.763C273.283 452.291 272.859 452.538 272.419 453.624L272.773 454.136C274.782 453.955 276.755 452.136 279.072 451.601C296.668 447.542 313.053 456.472 329.192 462.115C335.488 464.316 341.901 466.459 348.049 468.859C347.976 482.772 348.925 497.436 349.454 511.395L296.517 511.204C288.157 511.095 281.725 508.233 275.947 502.133C262.98 488.444 262.85 471.13 263.444 453.52C264.373 426 271.742 396.698 284.151 372.104C285.492 369.445 288.613 362.781 290.501 360.973Z" fill="#030207"/>
<path d="M420.064 478.116C423.568 476.755 424.678 476.992 428.409 477.094C428.071 481.338 428.452 487.442 427.988 490.926C427.973 489.111 428.275 488.951 427.464 487.676C426.068 487.005 423.275 487.386 421.59 487.42C416.385 486.777 411.438 485.534 406.307 484.504C404.192 484.079 401.14 483.575 401.084 480.995C403.553 477.668 415.975 479.856 420.064 478.116Z" fill="#030207"/>
<path d="M421.589 487.42C423.275 487.386 426.068 487.005 427.464 487.676C428.275 488.952 427.973 489.111 427.988 490.926C427.89 496.284 427.119 503.783 427.226 508.487L426.716 510.993C426.134 510.453 421.826 489.78 421.589 487.42Z" fill="#FEFEFE"/>
<path d="M289.665 360.586C298.976 348.886 305.052 342.865 318.107 333.515" stroke="black" stroke-width="2"/>
<path d="M58.789 242.504C58.6469 242.613 58.5048 242.722 58.3634 242.83C28.5142 254.573 37.5498 296.189 67.2674 301.087C79.1458 303.046 88.1951 299.31 96.5677 289.774C78.0251 283.65 66.9748 273.554 60.8261 254.419C59.6671 250.811 60.107 246.2 58.789 242.504Z" fill="#E00051"/>
<path d="M78.2222 175.017C81.9581 173.817 85.352 170.665 88.9216 169.392C107.853 162.643 122.586 165.28 138.721 176.281L138.59 176.991C137.132 177.126 134.353 175.347 133.162 174.584C116.374 163.839 95.8422 166.173 79.3093 176.067C78.7884 176.378 78.029 176.325 77.4255 176.251L78.2222 175.017Z" fill="#030207"/>
<path d="M65.8212 271.29C47.4578 255.719 40.0577 228.313 50.3785 206.059C54.9008 196.308 67.0546 180.286 77.4255 176.251C78.029 176.325 78.7884 176.378 79.3093 176.067C95.8422 166.174 116.374 163.839 133.162 174.584C134.353 175.347 137.132 177.127 138.59 176.991C154.044 186.09 165.549 196.187 169.034 214.831C168.903 219.65 170.082 224.585 169.786 229.396C169.441 234.996 168.302 241.431 166.341 246.824C163.973 253.338 159.564 261.297 155.05 266.645C153.65 268.303 151.59 268.978 149.532 268.193C148.763 266.623 153.625 256.224 154.509 253.806C156.279 248.346 160.006 229.924 148.146 237.896C135.058 227.108 119.246 217.709 110.243 202.822C108.412 199.793 107.428 197.742 104.825 195.267C105.784 197.387 106.728 199.532 107.755 201.618C105.334 205.021 103.117 208.002 100.283 211.068C90.1009 222.122 76.9794 229.502 63.3052 235.347C61.2473 236.227 54.8149 237.235 53.9688 238.693C51.6652 242.663 53.7995 252.696 56.3449 255.987C57.9241 257.621 64.5433 268.786 65.8212 271.29Z" fill="#E00051"/>
<path d="M153.652 251.613C154.861 248.211 157.579 239.212 152.326 237.269C151.575 236.991 151.464 237.254 150.697 237.561C147.511 241.298 148.991 247.157 146.434 247.881C146.141 246.728 147.368 241.036 147.639 239.288C134.527 229.468 117.248 217.443 108.607 203.203C95.711 220.923 83.0078 227.424 64.0169 236.799C63.2384 238.585 62.5323 240.346 61.5447 242.023C62.4194 245.578 65.2956 254.595 65.7059 257.148C62.8901 252.382 60.7566 243.124 60.1825 237.674C59.3643 237.909 58.3146 238.196 57.5361 238.494C51.4783 240.816 55.0662 251.422 56.7449 255.604L56.3449 255.987C53.7995 252.695 51.6652 242.662 53.9689 238.693C54.8149 237.234 61.2473 236.227 63.3052 235.347C76.9794 229.502 90.1009 222.122 100.283 211.068C103.117 208.002 105.334 205.021 107.755 201.618C106.728 199.532 105.784 197.387 104.825 195.267C107.428 197.742 108.412 199.793 110.243 202.822C119.246 217.709 135.058 227.108 148.146 237.896C160.006 229.924 156.279 248.346 154.509 253.806L153.652 251.613Z" fill="#030207"/>
<path d="M153.652 251.613C151.868 255.522 150.051 259.078 145.459 259.993C143.876 264.763 142.305 268.403 139.639 272.668C139.134 273.475 137.251 276.437 136.919 277.248C127.401 289.793 120.588 296.41 104.47 296.934C87.208 294.815 78.4425 282.365 70.5797 268.02C68.6664 264.532 67.6359 260.645 65.7059 257.148C65.2956 254.595 62.4194 245.578 61.5447 242.023C62.5323 240.346 63.2384 238.585 64.0169 236.799C83.0078 227.424 95.711 220.923 108.607 203.203C117.248 217.443 134.527 229.468 147.639 239.289C147.368 241.036 146.141 246.728 146.434 247.881C148.991 247.157 147.511 241.298 150.697 237.561C151.464 237.254 151.575 236.991 152.326 237.269C157.579 239.212 154.861 248.211 153.652 251.613ZM86.7651 232.148C83.3926 232.686 81.5923 233.339 78.569 235.076L78.5133 235.765L78.1857 235.324L78.0704 235.837L77.9511 235.502L77.8231 235.886C80.2786 235.989 81.9947 234.752 84.3413 233.965L84.8391 233.891C87.5205 233.518 93.0057 234.506 93.8804 233.875C92.2551 232.308 88.924 231.967 86.7651 232.148ZM120.705 232.53L120.122 233.697L120.361 234.333C126.801 234.137 127.251 233.36 132.581 236.753L133.343 236.842L133.361 236.149C129.633 232.245 125.758 232.116 120.705 232.53ZM89.029 242.09C88.0151 244.336 87.3805 245.617 88.2083 247.975C89.4433 249.137 89.6953 249.278 91.4972 248.929C93.4749 245.829 93.3087 242.767 89.029 242.09ZM121.434 242.541C120.417 244.953 119.606 246.923 121.885 248.877C122.853 249.139 123.035 249.223 124.023 249.264C125.881 246.126 125.754 242.889 121.434 242.541ZM107.063 250.625C102.181 259.707 110.207 260.934 109.194 263.913C107.705 264.479 107.3 264.39 105.661 264.409L105.345 264.844C105.699 265.563 105.664 265.598 106.153 266.216C108.42 266.181 110.762 266.294 111.254 263.691C110.478 261.076 107.849 259.361 106.775 257.117C106.085 255.673 108.314 252.042 107.063 250.625ZM114.361 276.527C112.254 278.597 109.834 281.169 106.662 281.235C102.896 281.313 101.078 278.731 98.6866 277.241L98.2031 277.777L98.3439 278.703C101.106 281.149 102.872 282.613 106.811 282.41C110.03 282.245 114.183 280.668 114.601 277.052L114.361 276.527Z" fill="#FFBFD6"/>
<path d="M154.509 253.805C153.625 256.224 148.763 266.622 149.532 268.193C151.59 268.978 153.65 268.303 155.05 266.645C159.564 261.297 163.973 253.338 166.341 246.824C168.302 241.431 169.441 234.996 169.786 229.396C170.082 224.585 168.903 219.649 169.034 214.831C172.952 232.186 169.544 246.18 160.212 261.066C155.831 268.056 146.622 277.091 139.642 281.233C138.619 280.329 137.846 282.016 136.141 282.453L135.794 281.966C135.962 279.497 136.659 279.244 136.919 277.248C137.251 276.437 139.134 273.475 139.639 272.668C142.305 268.403 143.876 264.762 145.459 259.993C150.051 259.078 151.868 255.522 153.652 251.613L154.509 253.805Z" fill="#030207"/>
<path d="M84.3413 233.965C81.9946 234.752 80.2786 235.989 77.823 235.886L77.9511 235.502L78.0704 235.837L78.1857 235.324L78.5133 235.765L78.5689 235.076C81.5923 233.339 83.3926 232.686 86.765 232.149C88.924 231.967 92.255 232.308 93.8804 233.875C93.0057 234.506 87.5204 233.518 84.839 233.891L84.3413 233.965Z" fill="#030207"/>
<path d="M132.581 236.752C127.251 233.36 126.802 234.137 120.361 234.333L120.122 233.697L120.705 232.53C125.758 232.116 129.633 232.245 133.361 236.149L133.343 236.842L132.581 236.752Z" fill="#030207"/>
<path d="M56.7449 255.604C55.0662 251.422 51.4783 240.816 57.5361 238.494C58.3146 238.196 59.3642 237.909 60.1825 237.674C60.7566 243.124 62.8901 252.382 65.7059 257.148C64.4018 259.272 58.5277 257.293 56.7449 255.604Z" fill="#FFBFD6"/>
<path d="M91.4973 248.929C89.6954 249.278 89.4433 249.137 88.2084 247.975C87.3806 245.617 88.0152 244.336 89.029 242.09C93.3088 242.767 93.475 245.829 91.4973 248.929Z" fill="#030207"/>
<path d="M124.023 249.264C123.035 249.223 122.853 249.139 121.885 248.877C119.606 246.923 120.417 244.954 121.434 242.541C125.754 242.889 125.881 246.126 124.023 249.264Z" fill="#030207"/>
<path d="M106.153 266.216C105.664 265.599 105.699 265.563 105.345 264.845L105.661 264.409C107.3 264.391 107.705 264.479 109.194 263.913C110.207 260.934 102.182 259.707 107.063 250.625C108.314 252.042 106.085 255.674 106.775 257.117C107.849 259.361 110.478 261.076 111.254 263.692C110.762 266.294 108.42 266.181 106.153 266.216Z" fill="#030207"/>
<path d="M56.7448 255.604C58.5277 257.293 64.4018 259.272 65.7059 257.148C67.6358 260.645 68.6664 264.532 70.5796 268.02C78.4425 282.365 87.2079 294.815 104.47 296.934L105.068 297.619L105.021 297.867C97.124 298.213 89.2746 293.203 83.4276 288.474L82.6133 287.977C80.9784 284.346 69.2 274.863 65.8212 271.289C64.5433 268.785 57.9241 257.621 56.3448 255.987L56.7448 255.604Z" fill="#030207"/>
<path d="M98.3439 278.703L98.2032 277.777L98.6867 277.241C101.078 278.731 102.896 281.313 106.662 281.235C109.834 281.169 112.254 278.597 114.362 276.527L114.601 277.052C114.183 280.668 110.03 282.245 106.811 282.41C102.872 282.613 101.106 281.149 98.3439 278.703Z" fill="#030207"/>
<path d="M104.47 296.934C120.588 296.41 127.401 289.793 136.919 277.248C136.659 279.244 135.962 279.497 135.794 281.966L136.141 282.453C137.846 282.016 138.619 280.329 139.642 281.233C137.719 282.619 135.455 283.403 135.302 285.5C134.724 293.436 134.954 302.056 134.703 310.045L133.888 311.483C129.384 311.716 125.066 312.195 120.526 312.108C112.785 311.961 104.159 306.521 105.021 297.867L105.068 297.619L104.47 296.934Z" fill="#030207"/>
<path d="M82.6134 287.977L83.4277 288.473C83.4332 298.382 83.1438 309.549 83.4412 319.325C80.1642 321.198 77.8661 322.253 74.3903 323.783C83.799 328.919 97.3944 335.908 106.091 341.519C117.202 336.5 128.37 329.727 139.551 325.049L134.04 322.087C134 318.78 134.065 314.725 133.888 311.483L134.703 310.045C134.761 313.994 134.753 318.11 135.029 322.035C155.272 330.762 180.828 340.486 199.939 350.872C195.52 350.406 167.301 336.128 160.427 333.451C161.877 337.773 171.261 359.321 170.837 361.572C170.094 362.109 170.132 362.05 169.204 362.047L168.622 361.894L169.501 361.507L169.565 361.138L167.796 360.576L168.616 359.905C168.665 357.659 158.977 335.889 157.476 332.347C152.515 330.392 147.633 328.271 142.653 326.319C141.832 326.108 140.793 325.832 139.979 326.16C128.81 330.658 117.365 337.179 106.778 342.868C113.598 352.375 120.096 361.8 127.027 371.255C128.755 369.151 132.026 364.768 134.186 363.638L133.764 365.214C131.71 367.169 129.224 370.876 126.772 373.434C123.415 370.024 108.325 348.492 106.274 343.948C101.007 352.15 93.9497 364.993 87.899 372.134C85.0149 370.226 80.9618 366.45 78.3233 364.037C78.1603 363.81 77.9281 362.919 77.8311 362.602C80.3407 363.645 85.3584 368.222 87.6287 370.177C88.7427 368.83 89.8735 367.117 90.7951 365.632C95.5623 357.95 100.364 350.251 104.935 342.453C99.1463 338.307 80.6747 327.883 73.4527 324.792C72.5931 324.424 71.9689 325.002 71.4043 325.518C70.4819 325.713 70.6632 325.507 69.437 324.952C75.0972 322.771 77.2872 321.716 82.3669 318.436C82.2905 308.61 82.1887 297.736 82.6134 287.977Z" fill="#030207"/>
<path d="M83.4412 319.325C83.1438 309.549 83.4332 298.382 83.4277 288.473C89.2747 293.202 97.1241 298.213 105.021 297.867C104.159 306.52 112.785 311.961 120.526 312.108C125.066 312.195 129.384 311.716 133.888 311.483C134.065 314.725 134 318.78 134.04 322.087L139.551 325.049C128.37 329.726 117.202 336.5 106.091 341.519C97.3945 335.908 83.799 328.919 74.3903 323.783C77.8661 322.253 80.1642 321.198 83.4412 319.325Z" fill="#FFBFD6"/>
<path d="M58.4371 328.501C62.0504 327.271 65.7592 325.937 69.437 324.952C70.6632 325.507 70.4819 325.713 71.4043 325.518C71.5355 330.704 76.2566 357.331 77.8311 362.602C77.9281 362.919 78.1603 363.81 78.3233 364.037C78.3599 367.691 80.7955 379.297 81.5375 383.505L87.7607 420.254C88.8199 426.653 90.6575 435.995 91.0313 442.37C88.3626 442.412 85.5914 442.343 82.9298 442.23C75.0423 441.895 73.3843 442.89 72.8897 450.484C70.1272 444.797 68.0319 438.833 65.426 433.114C56.9159 414.435 49.5715 394.414 40.8585 375.929C44.0743 372.551 56.1922 363.731 56.8737 361.481L56.4785 360.787C53.9959 359.832 49.5285 360.806 46.7382 361.215C44.6261 361.207 41.6362 361.477 39.4614 361.609C40.7575 359.012 43.2656 355.43 44.7701 352.761C49.2073 344.888 54.5279 336.613 58.4371 328.501Z" fill="#E00051"/>
<path d="M71.4042 325.519C71.9688 325.003 72.593 324.424 73.4526 324.793C80.6746 327.884 99.1462 338.307 104.935 342.453C100.364 350.251 95.5622 357.951 90.795 365.632C89.8734 367.118 88.7426 368.83 87.6286 370.177C85.3583 368.222 80.3406 363.645 77.831 362.602C76.2565 357.331 71.5354 330.704 71.4042 325.519Z" fill="#FEFEFE"/>
<path d="M106.778 342.868C117.365 337.179 128.81 330.658 139.979 326.16C140.793 325.833 141.832 326.109 142.653 326.319C140.222 337.225 137.328 353.471 134.186 363.639C132.026 364.769 128.755 369.151 127.027 371.255C120.096 361.8 113.598 352.375 106.778 342.868Z" fill="#FEFEFE"/>
<path d="M142.653 326.319C147.633 328.272 152.515 330.392 157.476 332.347C158.977 335.89 168.665 357.659 168.616 359.905L167.796 360.576C163.227 360.599 158.678 361.441 154.193 361.223L153.342 362.012C154.409 364.519 167.523 372.236 169.217 375.581C169.183 376.049 169.149 376.518 169.115 376.988C167.777 379.457 163.467 391.817 162.262 395.142C158.388 405.825 152.053 419.729 149.016 430.319C139.3 430.603 135.168 431.469 134.279 442.005C129.143 442.242 124.688 442.395 119.554 442.325C120.496 438.883 121.531 432.606 122.241 428.973L127.625 400.656L131.738 378.173C132.42 374.382 133.582 368.955 133.764 365.214L134.186 363.639C137.327 353.471 140.222 337.225 142.653 326.319Z" fill="#E00051"/>
<path d="M56.4619 329.153L58.4372 328.501C54.528 336.613 49.2073 344.888 44.7702 352.761C43.2657 355.429 40.7576 359.012 39.4615 361.609C41.6363 361.477 44.6262 361.206 46.7383 361.214C47.5064 361.288 52.6815 361.549 52.9344 361.723L52.3166 361.797C51.5898 361.894 51.3082 361.948 50.6156 362.118L50.5138 362.691C45.4993 363.167 41.8041 363.303 36.7824 363.191C37.4878 361.304 38.4508 359.533 39.4654 357.797C45.0699 348.221 50.6045 338.577 56.4619 329.153Z" fill="#030207"/>
<path d="M199.939 350.873L202.8 352.298C201.081 354.511 197.236 359.329 195.92 361.614L194.686 363.577C184.296 380.486 179.225 399.81 176.305 419.274C176.013 421.228 174.798 428.938 174.903 430.505C169.238 430.409 155.196 431.105 150.435 430.223C151.905 427.934 155.526 417.538 156.764 414.517C161.863 402.074 166.342 389.411 170.909 376.766C171.918 372.423 160.483 366.298 157.273 362.787C160.122 362.83 166.489 362.63 169.204 362.047C170.132 362.051 170.094 362.109 170.837 361.572C171.261 359.321 161.877 337.773 160.427 333.451C167.301 336.128 195.52 350.406 199.939 350.873Z" fill="#E00051"/>
<path d="M91.0313 442.37C90.6576 435.995 88.8199 426.653 87.7607 420.254L81.5375 383.505C80.7956 379.297 78.3599 367.691 78.3233 364.037C80.9618 366.45 85.0149 370.226 87.8991 372.134C93.9497 364.993 101.007 352.15 106.274 343.948C108.325 348.491 123.415 370.024 126.772 373.434C129.224 370.876 131.71 367.169 133.764 365.214C133.582 368.955 132.42 374.382 131.738 378.173L127.625 400.655L122.241 428.972C121.531 432.606 120.496 438.883 119.554 442.324C110.187 442.192 100.429 442.351 91.0313 442.37Z" fill="#FEFEFE"/>
<path d="M46.7381 361.215C49.5285 360.806 53.9959 359.832 56.4785 360.787L56.8737 361.481C56.1922 363.732 44.0742 372.551 40.8585 375.929C49.5714 394.414 56.9158 414.435 65.426 433.114C68.0318 438.833 70.1272 444.797 72.8897 450.484C73.3843 442.89 75.0423 441.895 82.9298 442.23C85.5913 442.344 88.3626 442.412 91.0312 442.371C100.429 442.351 110.187 442.192 119.554 442.325C124.688 442.394 129.143 442.242 134.279 442.005C135.168 431.469 139.3 430.603 149.016 430.319L150.435 430.222C155.196 431.105 169.238 430.409 174.903 430.505L174.098 432.543C164.058 432.564 153.87 432.28 143.869 432.604C137.284 432.817 135.991 437.544 136.209 442.908L136.282 444.518C116.387 444.976 95.9837 444.25 76.1746 444.806C75.0184 449.333 74.6359 453.937 73.9934 458.551C71.4663 476.692 69.8974 495.206 66.4876 513.194L64.8693 512.718C65.3473 508.615 65.9524 504.597 66.4033 500.46C66.8382 494.946 67.8943 488.472 68.6179 482.919L72.337 453.462C68.695 447.558 61.5224 429.473 58.4975 422.256L38.6844 375.69C42.6723 370.809 47.8116 367.215 52.6226 363.225C52.6639 363.021 52.7061 362.816 52.7474 362.612L50.5137 362.691L50.6155 362.118C51.3081 361.948 51.5896 361.894 52.3164 361.798L52.9343 361.723C52.6814 361.549 47.5063 361.288 46.7381 361.215Z" fill="#030207"/>
<path d="M154.193 361.223C158.678 361.441 163.227 360.599 167.796 360.576L169.565 361.138L169.501 361.507L168.622 361.894L169.204 362.047C166.489 362.63 160.122 362.83 157.273 362.787C156 361.698 155.844 361.712 154.193 361.223Z" fill="#030207"/>
<path d="M169.115 376.988C169.149 376.518 169.183 376.049 169.217 375.581C167.523 372.236 154.409 364.519 153.342 362.013L154.193 361.223C155.844 361.713 156 361.698 157.273 362.787C160.483 366.299 171.918 372.423 170.909 376.766C170.625 376.294 170.508 376.218 170.134 375.81L169.115 376.988Z" fill="#030207"/>
<path d="M-39.4368 426.993C-38.4943 423.304 -36.7367 418.983 -35.5395 415.333C-31.065 401.696 -25.4334 390.93 -17.6156 379.012C-3.9504 358.18 18.9341 342.325 42.0941 333.679C46.2554 332.125 52.1319 330.004 56.4617 329.154C50.6043 338.577 45.0697 348.222 39.4652 357.798C38.4505 359.533 37.4876 361.305 36.7822 363.192C41.8039 363.303 45.4991 363.167 50.5136 362.692L52.7473 362.612C52.706 362.817 52.6638 363.021 52.6225 363.225C47.8116 367.216 42.6722 370.809 38.6843 375.69L58.4974 422.256C61.5223 429.473 68.6949 447.558 72.3369 453.462L68.6178 482.919C67.8942 488.472 66.8382 494.947 66.4032 500.461C64.1608 500.341 62.7906 500.109 60.6158 499.733C59.5232 498.6 54.1715 497.528 52.1732 496.849C44.6189 494.283 35.8407 491.569 28.6355 488.223C28.4939 449.628 19.9472 405.659 -2.76334 372.933C-2.99116 372.605 -3.5606 372.312 -3.92742 372.153L-4.52222 372.413C-4.7883 373.257 -5.02653 373.179 -4.4796 373.983C17.9107 406.896 26.1576 448.521 26.6308 487.466C12.5964 482.084 -1.60704 476.332 -16.9715 478.382C-20.6916 478.878 -28.1124 480.068 -30.2208 483.364C-30.0164 484.211 -30.2389 483.9 -29.6593 484.363C-28.0504 483.643 -23.5806 481.579 -22.0865 481.226C-7.96613 477.885 6.41217 481.727 19.54 486.949C32.5884 492.141 44.9075 497.014 58.4083 501.033C57.5861 515.629 57.4923 530.282 56.8943 544.89C56.8068 547.03 56.8998 549.586 56.6971 551.666C40.7797 551.588 24.8201 552.12 8.89079 551.921C-6.08963 551.734 -13.3657 553.929 -26.3629 545.287C-28.3699 543.617 -34.4505 537.772 -36.0625 537.083C-37.5086 534.955 -39.5729 531.876 -40.782 529.688C-55.2057 503.575 -47.5878 454.874 -39.4368 426.993Z" fill="#E00051"/>
<path d="M28.6354 488.223C35.8407 491.569 44.6188 494.283 52.1732 496.849C54.1715 497.528 59.5232 498.6 60.6158 499.733C60.4464 504.406 60.471 509.436 60.2365 514.02C59.9748 516.605 59.7299 521.195 59.9526 523.74C59.4452 527.597 59.4715 532.969 59.5391 536.935L59.5955 543.077C60.0432 540.942 60.5132 538.811 60.8766 536.661C61.5843 532.376 62.0885 528.082 62.824 523.784L65.2374 523.935C63.4117 531.281 62.3342 543.527 60.778 551.827L67.8091 551.846L67.1332 552.26C64.047 552.287 61.0921 552.084 58.1658 552.986L58.0171 553.27C61.6304 553.912 78.7032 552.924 80.1076 553.914L53.3723 553.927C54.8816 553.421 55.4406 553.983 56.833 553.254L56.697 551.666C56.8998 549.586 56.8068 547.03 56.8942 544.89C57.4922 530.282 57.5861 515.629 58.4083 501.033C44.9075 497.014 32.5884 492.141 19.54 486.949C6.41216 481.727 -7.96614 477.885 -22.0866 481.226C-23.5807 481.579 -28.0504 483.643 -29.6593 484.363C-30.2389 483.9 -30.0164 484.211 -30.2208 483.364C-28.1125 480.068 -20.6916 478.878 -16.9716 478.382C-1.60706 476.332 12.5964 482.084 26.6308 487.466C26.1576 448.521 17.9107 406.896 -4.47961 373.983C-5.02655 373.179 -4.78831 373.257 -4.52224 372.413L-3.92743 372.153C-3.56061 372.312 -2.99117 372.605 -2.76335 372.933C19.9472 405.659 28.4939 449.628 28.6354 488.223Z" fill="#030207"/>
<path d="M256.572 431.072C255.629 427.384 253.872 423.062 252.674 419.413C248.2 405.776 242.568 395.01 234.75 383.092C221.085 362.26 198.201 346.405 175.041 337.759C170.879 336.205 165.003 334.084 160.673 333.233C166.531 342.657 172.065 352.301 177.67 361.878C178.684 363.613 179.647 365.385 180.353 367.272C175.331 367.383 171.636 367.247 166.621 366.771L164.388 366.692C164.429 366.896 164.471 367.101 164.512 367.305C169.323 371.295 174.463 374.889 178.451 379.77L158.637 426.336C155.613 433.553 148.44 451.638 144.798 457.542L148.517 486.999C149.241 492.552 150.297 499.027 150.732 504.54C152.974 504.42 154.344 504.189 156.519 503.813C157.612 502.68 162.963 501.608 164.962 500.929C172.516 498.363 181.294 495.649 188.499 492.303C188.641 453.708 197.188 409.739 219.898 377.013C220.126 376.684 220.695 376.392 221.062 376.233L221.657 376.493C221.923 377.337 222.161 377.259 221.614 378.062C199.224 410.976 190.977 452.601 190.504 491.546C204.538 486.164 218.742 480.412 234.106 482.462C237.826 482.958 245.247 484.148 247.356 487.444C247.151 488.291 247.374 487.98 246.794 488.443C245.185 487.723 240.715 485.659 239.221 485.305C225.101 481.965 210.723 485.806 197.595 491.029C184.546 496.221 172.227 501.094 158.727 505.113C159.549 519.709 159.643 534.362 160.241 548.97C160.328 551.109 160.235 553.666 160.438 555.745C176.355 555.667 192.315 556.199 208.244 556.001C223.224 555.814 230.5 558.008 243.498 549.367C245.505 547.696 251.585 541.852 253.197 541.163C254.643 539.034 256.708 535.956 257.917 533.768C272.341 507.654 264.723 458.954 256.572 431.072Z" fill="#E00051"/>
<path d="M188.499 492.303C181.294 495.649 172.516 498.363 164.962 500.929C162.963 501.608 157.612 502.68 156.519 503.813C156.688 508.486 156.664 513.516 156.898 518.1C157.16 520.685 157.405 525.275 157.182 527.82C157.69 531.677 157.663 537.049 157.596 541.015L157.539 547.158C157.092 545.022 156.622 542.891 156.258 540.741C155.55 536.456 155.046 532.163 154.311 527.864L151.897 528.016C153.723 535.361 154.801 547.608 156.357 555.907L149.326 555.926L150.002 556.34C153.088 556.367 156.043 556.164 158.969 557.066L159.118 557.35C155.504 557.992 138.432 557.004 137.027 557.994L163.762 558.007C162.253 557.501 161.694 558.063 160.302 557.334L160.438 555.746C160.235 553.666 160.328 551.11 160.241 548.971C159.643 534.362 159.549 519.709 158.727 505.113C172.227 501.094 184.546 496.221 197.595 491.029C210.723 485.807 225.101 481.965 239.221 485.306C240.715 485.66 245.185 487.723 246.794 488.443C247.374 487.98 247.151 488.291 247.356 487.444C245.247 484.148 237.826 482.958 234.106 482.462C218.742 480.412 204.538 486.165 190.504 491.546C190.977 452.601 199.224 410.977 221.614 378.063C222.161 377.259 221.923 377.337 221.657 376.493L221.062 376.233C220.695 376.392 220.126 376.685 219.898 377.013C197.188 409.739 188.641 453.708 188.499 492.303Z" fill="#030207"/>
<path d="M169.115 376.987L170.134 375.81C170.508 376.218 170.625 376.294 170.909 376.765C166.342 389.411 161.863 402.074 156.764 414.516C155.526 417.537 151.905 427.934 150.435 430.222L149.016 430.319C152.053 419.729 158.388 405.825 162.262 395.142C163.467 391.817 167.777 379.456 169.115 376.987Z" fill="#030207"/>
<path d="M136.282 444.519L136.209 442.908C135.991 437.544 137.284 432.817 143.869 432.604C153.87 432.281 164.058 432.564 174.098 432.543C170.194 465.952 168.815 499.545 166.765 533.098C166.375 539.483 166.085 545.667 165.969 552.069C158.036 551.835 149.266 551.98 141.252 551.899L67.8091 551.846L60.778 551.827C62.3342 543.527 63.4117 531.281 65.2375 523.935C70.7975 524.298 97.617 517.032 97.5104 512.009C92.4506 507.572 72.5175 515.261 66.4875 513.194C69.8973 495.206 71.4662 476.692 73.9933 458.551C74.6359 453.937 75.0184 449.334 76.1746 444.806C95.9836 444.25 116.387 444.976 136.282 444.519Z" fill="#FEFEFE"/>
<path d="M60.6159 499.732C62.7907 500.109 64.1608 500.34 66.4033 500.46C65.9524 504.597 65.3473 508.615 64.8694 512.718C63.7982 513.723 61.78 513.793 60.2366 514.02C60.4711 509.435 60.4465 504.405 60.6159 499.732Z" fill="#FFBFD6"/>
<path d="M104 350L82.5 470L104 505.5L410.5 489.5L415.5 375L396.5 335.5L124.5 325.5L104 350Z" fill="#FEFEFE" stroke="black"/>
<path d="M202.427 169.74C201.471 167.297 196.728 162.877 194.885 160.718C185.348 149.547 184.651 133.981 194.844 122.913C196.301 120.933 199.428 117.689 199.822 115.288C200.928 108.541 196.463 101.129 200.964 94.8428C204.035 90.5574 211.934 88.0061 216.989 89.6173C220.245 90.656 223.515 93.9607 227.064 94.0446C228.725 93.2627 229.528 91.3808 230.847 89.9728C237.062 81.5784 247.709 94.5687 252.846 92.0061C264.93 85.9762 267.266 77.4651 282.61 76C294.22 77.5239 299.257 80.6236 302.894 92.173C303.384 99.2234 301.804 107.031 307.871 111.253C323.883 122.397 319.187 132.895 311.906 147.166C310.098 150.71 313.274 163.235 307.367 167.155C305.416 169.042 305.443 169.094 303.004 170.851L299.982 171.339C298.901 171.579 298.845 171.682 297.78 171.482C295.765 168.811 296.569 164.661 293.282 163.206C292.793 162.758 290.091 158.807 289.527 158.006C289.478 152.78 276.597 145.578 272.19 147.518L269.944 147.368C262.507 146.812 255.328 148.286 247.879 147.399C245.026 147.059 241.811 147.198 238.938 147.383L238.587 146.666C234.19 146.5 228.952 148.172 225.374 150.728L225.319 151.21C224.011 152.351 222.701 153.483 221.419 154.655C218.137 157.479 215.197 166.233 214.39 170.607L214.025 172.516C209.002 175.888 206.037 169.071 203.194 168.569C202.603 169.227 202.705 168.961 202.427 169.74Z" fill="#030207"/>
<path d="M238.938 147.384C235.664 147.875 233.57 148.337 230.42 149.439C229.759 149.669 225.724 151.149 225.319 151.21L225.374 150.728C228.952 148.172 234.19 146.501 238.587 146.666L238.938 147.384Z" fill="#030207"/>
<path d="M272.19 147.518C276.597 145.578 289.478 152.78 289.527 158.006C283.543 151.735 280.576 149.867 272.19 147.518Z" fill="#030207"/>
<path d="M225.319 151.21C225.724 151.149 229.759 149.669 230.42 149.438C233.57 148.336 235.664 147.875 238.938 147.383C241.811 147.198 245.026 147.059 247.879 147.399C255.328 148.286 262.507 146.812 269.944 147.368L272.19 147.517C280.576 149.867 283.543 151.735 289.527 158.006C290.091 158.807 292.793 162.758 293.282 163.206C294.174 165.104 296.378 169.277 295.075 171.093C293.427 170.931 288.701 167.115 286.631 166.136C275.555 160.898 264.437 160.802 258.251 172.971C255.728 172.933 252.864 173.127 250.309 173.243C241.276 158.398 228.783 162.202 216.049 168.442C217.988 163.528 219.896 159.87 221.419 154.655C222.701 153.482 224.011 152.351 225.319 151.21Z" fill="#FFBFD6"/>
<path d="M202.427 169.74C202.705 168.961 202.602 169.227 203.194 168.569C206.037 169.071 209.002 175.888 214.025 172.516L214.39 170.607C215.197 166.233 218.137 157.479 221.419 154.655C219.895 159.87 217.988 163.528 216.049 168.442C228.783 162.202 241.276 158.398 250.309 173.243C252.864 173.127 255.728 172.933 258.251 172.971C264.437 160.802 275.555 160.898 286.631 166.136C288.701 167.115 293.427 170.931 295.075 171.093C296.378 169.277 294.174 165.104 293.282 163.206C296.569 164.661 295.765 168.811 297.78 171.482C298.845 171.682 298.901 171.579 299.982 171.339C299.263 172.713 299.063 173.427 297.747 174.244C296.423 174.431 295.609 174.511 294.314 174.921C292.643 177.657 292.85 180.665 291.984 183.552C288.8 194.171 274.947 199.834 265.48 193.53C258.93 189.169 257.29 183.279 257.288 175.998C255.796 175.089 254.847 175.346 252.981 175.43C250.949 174.81 250.718 174.914 248.537 175.108C242.875 160.491 226.769 164.404 216.311 170.764C215.958 177.518 216.329 183.606 221.333 188.686C231.385 198.89 246.57 194.001 248.849 179.951L250.598 180.002C247.826 201.893 218.866 200.567 214.849 180.195C214.577 178.818 214.525 175.51 213.875 174.622C205.822 178.554 207.96 171.969 201.715 171.057L202.427 169.74ZM272.754 164.997C268.344 165.56 264.657 166.783 261.919 170.551C257.077 177.214 259.618 187.374 266.513 191.604C270.826 194.251 274.014 194.219 278.759 193.701C298.623 185.32 295.558 163.806 272.754 164.997Z" fill="#030207"/>
<path d="M216.311 170.764C226.769 164.404 242.875 160.491 248.537 175.109C248.669 176.69 248.864 178.376 248.849 179.951C246.57 194.002 231.385 198.89 221.333 188.686C216.329 183.606 215.958 177.518 216.311 170.764ZM233.333 177.337C231.88 178.369 231.627 178.193 231.02 179.569C231.48 180.883 232.189 181.141 233.374 181.915C235.05 180.704 234.808 181.225 235.568 179.554C235.081 178.244 235.002 178.154 233.333 177.337Z" fill="#FFBFD6"/>
<path d="M278.759 193.702C274.014 194.22 270.826 194.251 266.513 191.604C259.618 187.374 257.077 177.214 261.918 170.552C264.657 166.783 268.344 165.561 272.753 164.998C295.558 163.806 298.623 185.32 278.759 193.702ZM274.247 177.231C272.578 178.661 272.554 178.232 272.033 179.993C273.118 181.391 274.017 181.386 275.785 181.542C277.237 180.121 276.907 180.923 277.234 179.256C276.424 177.987 275.832 177.739 274.247 177.231Z" fill="#FFBFD6"/>
<path d="M299.982 171.339L303.004 170.851C306.283 174.4 307.64 176.829 307.415 181.866C306.979 191.631 303.57 197.912 294.112 200.921C293.044 207.812 291.46 213.156 289.585 219.86C288.35 221.329 286.959 222.91 285.787 224.407C280.826 228.909 277.302 232.817 271.552 236.467C268.013 238.715 263.935 240.258 260.989 242.028C254.849 244.053 253.697 244.613 247.637 242.619L247.132 242.382C243.37 240.572 226.635 229.523 225.962 229.35C225.911 232.124 239.89 240.69 242.87 241.603C244.094 241.979 246.628 242.934 247.643 243.434C251.255 246.736 259.012 250.515 263.818 251.566C266.576 252.789 274.733 254.379 277.619 254.265C281.278 254.882 285.15 255.059 289.147 255.744C279.601 272.524 268.832 280.358 252.901 290.025C240.715 277.71 227.308 266.99 215.17 254.732C215.743 253.686 215.962 225.99 215.652 222.887C214.839 214.769 211.082 213.314 212.222 202.277C201.368 197.898 192.582 180.9 201.715 171.057C207.96 171.969 205.822 178.554 213.875 174.622C214.525 175.51 214.577 178.818 214.849 180.195C218.866 200.567 247.826 201.893 250.598 180.002C250.602 178.097 250.279 177.196 251.174 175.774L252.981 175.43C254.847 175.346 255.796 175.089 257.288 175.999C257.29 183.279 258.929 189.169 265.48 193.53C274.947 199.834 288.8 194.171 291.984 183.552C292.85 180.665 292.643 177.657 294.314 174.921C295.609 174.511 296.423 174.431 297.747 174.245C299.063 173.427 299.263 172.713 299.982 171.339ZM297.502 183.994C296.619 186.006 295.461 188.614 295.931 190.836C296.587 191.045 296.333 191.084 296.688 190.991C297.449 189.344 299.231 186.129 298.814 184.517C298.43 184.356 297.886 184.102 297.502 183.994ZM208.223 186.862C208.519 189.204 209.144 191.533 211.728 192.075L212.68 191.724C211.793 189.583 210.08 188.198 208.223 186.862ZM247.964 201.671C248.238 202.792 248.013 202.956 248.759 203.331C251.182 204.549 256.743 204.066 259.288 203.612L258.801 202.143C257.269 201.765 250.703 201.981 247.964 201.671ZM272.536 210.116C268.094 215.703 266.769 216.295 259.7 217.848C255.869 218.689 250.177 216.782 248.682 217.177C248.522 218.404 248.453 217.821 249.078 218.921C255.588 220.821 262.688 220.033 268.588 216.658C270.584 215.516 275.173 212.671 272.536 210.116Z" fill="#FFBFD6"/>
<path d="M248.537 175.109C250.718 174.914 250.948 174.81 252.981 175.43L251.174 175.774C250.279 177.196 250.602 178.097 250.598 180.002L248.849 179.951C248.864 178.376 248.669 176.69 248.537 175.109Z" fill="#030207"/>
<path d="M233.374 181.915C232.189 181.141 231.48 180.883 231.02 179.569C231.627 178.193 231.88 178.369 233.333 177.337C235.002 178.154 235.081 178.244 235.568 179.554C234.808 181.225 235.05 180.704 233.374 181.915Z" fill="#030207"/>
<path d="M275.785 181.541C274.017 181.386 273.118 181.391 272.033 179.993C272.554 178.231 272.578 178.66 274.247 177.231C275.832 177.738 276.424 177.987 277.234 179.255C276.907 180.923 277.237 180.121 275.785 181.541Z" fill="#030207"/>
<path d="M296.688 190.991C296.333 191.083 296.588 191.045 295.931 190.836C295.461 188.614 296.619 186.006 297.502 183.994C297.886 184.102 298.43 184.356 298.815 184.517C299.231 186.129 297.449 189.344 296.688 190.991Z" fill="#030207"/>
<path d="M212.68 191.723L211.728 192.075C209.144 191.533 208.519 189.204 208.223 186.862C210.08 188.198 211.793 189.583 212.68 191.723Z" fill="#030207"/>
<path d="M259.288 203.612C256.743 204.066 251.182 204.549 248.76 203.331C248.013 202.955 248.238 202.792 247.964 201.671C250.703 201.981 257.269 201.765 258.802 202.142L259.288 203.612Z" fill="#030207"/>
<path d="M249.078 218.921C248.453 217.821 248.522 218.404 248.682 217.177C250.177 216.782 255.869 218.689 259.7 217.848C266.769 216.295 268.095 215.703 272.536 210.116C275.173 212.671 270.584 215.516 268.588 216.658C262.688 220.033 255.588 220.821 249.078 218.921Z" fill="#030207"/>
<path d="M285.787 224.407C286.959 222.91 288.351 221.329 289.585 219.86L289.661 225.361C288.409 224.543 287.299 224.784 285.787 224.407Z" fill="#030207"/>
<path d="M260.989 242.028C263.935 240.258 268.013 238.715 271.552 236.467C277.302 232.817 280.826 228.909 285.787 224.407C287.299 224.784 288.409 224.543 289.661 225.361C289.702 229.757 289.54 250.943 290.427 253.242C286.324 255.27 280.86 252.453 277.619 254.265C274.733 254.379 266.576 252.789 263.818 251.566C261.886 249.055 256.485 249.42 254.831 246.027C256.278 243.79 259.231 244.475 260.989 242.028Z" fill="#030207"/>
<path d="M247.643 243.434C246.628 242.934 244.094 241.979 242.87 241.603C239.89 240.69 225.911 232.124 225.962 229.35C226.635 229.522 243.37 240.572 247.132 242.382L247.637 242.619L247.643 243.434Z" fill="#030207"/>
<path d="M247.637 242.619C253.697 244.613 254.849 244.053 260.989 242.028C259.23 244.475 256.278 243.79 254.831 246.027C256.485 249.42 261.886 249.055 263.818 251.566C259.013 250.515 251.255 246.736 247.643 243.434L247.637 242.619Z" fill="#030207"/>
<path d="M290.427 253.242C293.261 252.306 296.303 253.745 298.118 254.893C304.009 258.616 307.805 259.525 307.506 266.214C307.448 267.54 318.103 278.064 320.191 279.626C321.359 281.695 326.476 287.356 328.324 289.319C331.276 292.455 333.985 296.415 336.66 299.392C342.042 305.383 348.858 316.854 354.194 322.118C351.394 332.087 349.99 341.504 344.667 350.452C342.157 354.673 338.803 364.561 336.828 369.46C333.629 377.39 329.961 385.681 327.163 393.685C338.131 393.712 349.259 393.808 360.22 393.648C360.32 396.776 360.345 400.53 360.66 403.585L336.838 403.717C332.62 403.711 327.32 403.476 323.268 403.676C318.929 414.335 287.461 496.605 285.685 498.058L284.776 497.503C284.608 494.389 289.921 483.701 291.199 480.123C306.85 436.312 326.123 393.703 342.187 350.093L324.775 338.438C322.368 336.827 317.337 333.709 315.462 331.941C316.856 330.262 346.335 322.726 350.803 321.614C342.189 309.576 334.796 299.796 325.002 288.615C319.65 282.505 310.214 273.131 306.029 266.966C300.271 277.886 294.69 289.012 288.487 299.655C286.67 302.773 283.917 307.929 281.797 310.677C279.063 315.005 277.184 318.133 273.702 321.902C269.786 317.055 264.719 309.021 261.241 303.628C260.338 300.521 255.594 294.193 253.469 291.605C251.1 294.684 248.242 300.009 246.635 303.557C243.349 308.983 236.449 321.364 233.315 325.691L227.502 315.866C219.087 302.656 210.548 287.019 202.098 273.244C188.884 288.043 176.836 302.799 163.816 317.65C170.964 320.993 178.973 324.116 186.211 327.432C190.326 329.317 194.864 330.692 198.78 332.999C194.502 335.105 169.363 346.011 165.68 346.702C177.367 371.869 187.381 400.052 198.433 425.65C204.852 440.517 211.161 455.673 217.295 470.653C219.467 475.961 224.006 486.739 225.015 491.916C219.783 483.766 213.566 466.785 209.611 457.295L182.77 392.408C175.173 373.753 167.217 355.231 159.301 336.711C158.226 334.195 156.507 332.037 156.931 329.265L157.632 329.225C160.008 331.495 163.63 341.675 165.149 345.428C174.351 342.047 184.445 336.777 194.29 332.994C183.753 329.13 171.552 323.049 161.083 318.419C166.355 311.298 199.084 275.062 200.187 271.838C202.947 269.744 203.748 266.136 205.316 263.053C207.352 259.046 209.507 254.974 211.175 250.807L215.17 254.732C227.308 266.99 240.715 277.71 252.901 290.025C268.832 280.359 279.601 272.524 289.147 255.744C285.15 255.059 281.279 254.882 277.619 254.265C280.86 252.454 286.324 255.27 290.427 253.242ZM211.61 254.195C209.047 259.283 205.434 266.009 203.62 271.278C212.606 287.688 223.719 306.381 233.601 322.138L237.272 315.555C242.198 307.389 246.949 299.54 251.503 291.149C238.417 278.774 224.132 266.705 211.61 254.195ZM291.946 254.077C282.627 271.153 271.755 280.987 255.079 290.883C260.716 298.751 266.706 308.254 271.962 316.485C273.054 317.994 272.673 318.005 274.041 318.314C276.148 317.067 286.909 299.552 288.264 296.671C290.88 291.111 306.13 266.393 304.933 262.169C302.841 259.186 295.116 254.845 291.946 254.077ZM351.616 323.208C340.923 326.062 329.224 329.698 318.622 332.164C322.351 334.499 326.349 336.908 329.982 339.353C333.766 341.933 340.947 346.567 344.083 349.607C348.598 341.389 350.458 332.942 352.263 323.77C351.723 323.216 351.988 323.322 351.616 323.208ZM326.714 395.004C325.698 397.469 324.642 399.963 323.66 402.436C334.721 402.522 345.728 402.248 356.771 402.262L358.414 402.19C359.774 400.584 358.819 397.185 358.86 394.945L326.714 395.004Z" fill="#030207"/>
<path d="M203.62 271.278C205.434 266.009 209.047 259.282 211.61 254.195C224.132 266.705 238.417 278.774 251.503 291.148C246.948 299.54 242.198 307.389 237.271 315.555L233.601 322.138C223.719 306.38 212.606 287.688 203.62 271.278Z" fill="white"/>
<path d="M255.079 290.883C271.755 280.987 282.627 271.153 291.946 254.077C295.115 254.845 302.841 259.186 304.933 262.169C306.129 266.393 290.88 291.111 288.264 296.671C286.909 299.552 276.148 317.067 274.041 318.314C272.673 318.005 273.054 317.994 271.962 316.485C266.706 308.254 260.716 298.751 255.079 290.883Z" fill="white"/>
<path d="M320.191 279.626C343.324 288.553 368.016 301.183 384.731 319.79C385.792 320.971 391.105 327.122 391.731 328.448C391.92 330.845 397.545 337.959 399.269 340.592L399.616 340.43C401.108 342.352 401.608 343.493 402.666 345.633C401.209 349.906 395.016 356.274 392.346 360.558C370.945 394.893 370.705 437.692 369.741 476.726C369.104 502.558 369.362 527.952 369.218 553.58L283.946 553.676C275.177 553.602 260.871 554.128 252.685 553.522C258.745 552.918 273.333 553.274 280.095 553.307L281.564 371.677C281.636 363.54 282.838 313.323 281.797 310.677C283.917 307.929 286.67 302.773 288.487 299.655C294.69 289.012 300.271 277.886 306.029 266.966C310.214 273.131 319.65 282.505 325.002 288.615C334.796 299.796 342.189 309.576 350.803 321.614C346.335 322.726 316.856 330.262 315.462 331.941C317.337 333.709 322.368 336.827 324.775 338.438L342.187 350.093C326.123 393.703 306.85 436.312 291.199 480.123C289.921 483.701 284.608 494.389 284.776 497.503L285.685 498.058C287.461 496.605 318.929 414.335 323.268 403.676C327.32 403.476 332.62 403.711 336.838 403.717L360.66 403.585C360.345 400.53 360.32 396.776 360.22 393.648C349.259 393.808 338.131 393.712 327.163 393.685C329.961 385.681 333.629 377.39 336.828 369.46C338.803 364.561 342.157 354.673 344.667 350.452C349.99 341.504 351.394 332.087 354.194 322.118C348.858 316.854 342.042 305.383 336.66 299.392C333.985 296.415 331.276 292.455 328.324 289.319C326.476 287.356 321.359 281.695 320.191 279.626ZM293.761 513.053C291.197 513.814 289.712 516.487 290.42 519.068C291.128 521.648 293.77 523.187 296.364 522.532C298.091 522.096 299.447 520.761 299.909 519.042C300.37 517.322 299.867 515.487 298.591 514.244C297.316 513.002 295.468 512.546 293.761 513.053Z" fill="#030207"/>
<path d="M112.872 336.302C113.366 335.958 119.338 328.161 120.463 326.865C135.879 309.096 154.189 298.452 174.647 287.444C182.922 282.991 192.125 276.966 200.187 271.838C199.084 275.062 166.355 311.298 161.083 318.419C171.552 323.049 183.753 329.13 194.29 332.994C184.445 336.777 174.351 342.047 165.149 345.428C163.63 341.675 160.008 331.496 157.632 329.225L156.931 329.265C156.507 332.037 158.226 334.195 159.301 336.712C167.217 355.231 175.173 373.753 182.77 392.408L209.611 457.295C213.566 466.785 219.783 483.766 225.015 491.916C224.006 486.739 219.467 475.961 217.295 470.653C211.161 455.673 204.852 440.517 198.433 425.65C187.381 400.052 177.367 371.869 165.681 346.702C169.363 346.011 194.502 335.105 198.78 332.999C194.864 330.692 190.326 329.317 186.211 327.432C178.973 324.116 170.964 320.993 163.816 317.65C176.836 302.799 188.884 288.043 202.098 273.244C210.548 287.019 219.087 302.657 227.502 315.866C226.487 318.963 226.868 346.057 226.82 351.227L226.549 502.592C226.593 517.966 225.809 538.755 226.559 553.572C197.148 553.968 167.783 553.775 138.371 553.652C138.147 528.907 137.163 504.88 136.662 480.246L135.696 438.157C134.564 399.431 134.31 376.215 105.39 346.435C106.82 343.95 111.003 338.709 112.872 336.302Z" fill="#030207"/>
<path d="M246.635 303.557C248.242 300.009 251.1 294.684 253.469 291.605C255.594 294.193 260.338 300.521 261.241 303.627C260.22 311.362 262.082 333.063 262.577 341.463L268.266 425.362C268.673 430.743 271.211 453.506 270.213 457.21C266.546 470.795 259.146 493.71 254.19 507.163C250.695 498.975 247.426 487.935 244.237 479.318C243.113 473.874 236.542 461.131 236.677 456.043C237.014 443.331 238.526 427.126 239.384 414.578L244.433 335.73C245.072 325.439 246.238 313.555 246.635 303.557Z" fill="#E00051"/>
<path d="M233.315 325.691C236.449 321.363 243.349 308.983 246.635 303.557C246.238 313.555 245.072 325.439 244.433 335.731L239.384 414.578C238.526 427.126 237.014 443.331 236.677 456.043C236.542 461.131 243.113 473.874 244.237 479.318C247.426 487.935 250.695 498.975 254.19 507.163C259.146 493.71 266.546 470.795 270.213 457.21C271.211 453.506 268.673 430.743 268.266 425.362L262.577 341.463C262.082 333.063 260.22 311.362 261.241 303.628C264.719 309.021 269.786 317.055 273.702 321.901C277.184 318.133 279.063 315.005 281.797 310.677C282.838 313.323 281.636 363.539 281.564 371.677L280.095 553.307C273.333 553.274 258.745 552.917 252.685 553.522L226.559 553.572C225.809 538.754 226.593 517.966 226.549 502.592L226.82 351.226C226.868 346.057 226.487 318.963 227.502 315.865L233.315 325.691Z" fill="white"/>
<path d="M318.622 332.164C329.224 329.698 340.923 326.062 351.616 323.208C351.988 323.322 351.723 323.216 352.263 323.77C350.458 332.942 348.598 341.388 344.083 349.606C340.947 346.567 333.766 341.932 329.982 339.352C326.349 336.907 322.351 334.499 318.622 332.164Z" fill="#030207"/>
<path d="M82.5305 421.362C82.4164 419.657 83.7379 411.273 84.0562 409.147C87.2311 387.978 92.7463 366.96 104.048 348.571C108.144 351.065 112.97 357.368 115.812 361.247C133.251 385.051 132.751 412.655 133.585 440.631L135.6 513.762C135.808 524.433 135.376 543.757 136.423 553.75C121.407 553.605 106.781 555.423 91.6938 554.014C85.6907 553.453 78.9041 554.022 72.8137 553.577C72.94 546.614 73.2557 539.889 73.6803 532.944C75.91 496.451 77.4097 459.915 81.6553 423.579L82.5305 421.362Z" fill="#030207"/>
<path d="M371.409 553.609C371.436 527.215 371.542 501.346 372.054 474.331C372.782 435.921 373.468 390.563 397.069 357.865C399.122 355.022 401.781 351.381 404.748 349.56C413.03 364.693 418.675 383.37 423.003 400.201C425.335 409.266 427.33 421.897 428.953 431.423C429.208 431.645 429.462 431.868 429.716 432.09L432.212 432.193C430.984 432.362 430.651 432.386 429.441 432.766C428.795 434.144 430.4 443.994 430.693 446.271C435.212 481.447 437.928 518.123 437.579 553.6L371.409 553.609Z" fill="#030207"/>
<path d="M323.661 402.436C324.642 399.963 325.698 397.469 326.714 395.004L358.86 394.946C358.819 397.185 359.774 400.584 358.414 402.19L356.771 402.262C345.728 402.248 334.721 402.522 323.661 402.436Z" fill="#EDF2F4"/>
<path d="M308.49 267.135L346.976 321.622L315.841 334.595L340.49 351.46L300.274 439.244" stroke="white" stroke-width="2"/>
<path d="M204.706 267.135L166.219 321.622L197.355 334.595L172.706 351.46L212.922 439.244" stroke="white" stroke-width="2"/>
</g>
<defs>
<clipPath id="clip0_4334_4106">
<rect width="500" height="500" fill="white"/>
</clipPath>
</defs>
</svg>
