<svg width="161" height="140" viewBox="0 0 161 140" fill="none" xmlns="http://www.w3.org/2000/svg">
<g clip-path="url(#clip0_1574_6791)">
<path d="M40.5595 133.458C40.382 133.466 40.2064 133.419 40.0563 133.324C39.9063 133.229 39.7891 133.09 39.7205 132.926C39.652 132.763 39.6355 132.582 39.6733 132.408C39.7111 132.235 39.8013 132.077 39.9317 131.956C39.9535 131.869 39.9692 131.807 39.991 131.72C39.8213 131.289 39.5265 130.918 39.1446 130.655C38.7628 130.393 38.3111 130.25 37.8476 130.246C37.3841 130.241 36.9298 130.375 36.5431 130.631C36.1563 130.886 35.8546 131.252 35.6767 131.68C34.6501 134.083 33.3215 136.57 33.9823 139.217C29.6178 129.967 31.1021 118.461 37.5521 110.55C39.335 109.568 40.7801 107.823 41.1563 105.797C40.2739 106.096 39.1738 105.378 39.8372 104.449C40.1248 104.094 40.4151 103.741 40.7027 103.386C37.3509 99.8165 33.3573 105.427 37.0466 110.245C35.8397 111.758 34.7943 113.393 33.9275 115.123C34.1277 113.286 33.8887 111.427 33.2304 109.7C32.5631 108.09 31.3124 106.734 30.211 105.343C28.8719 103.647 26.1158 104.429 25.9356 106.581C27.1714 106.987 27.332 108.772 25.9183 109.017C26.2886 113.02 28.9037 116.698 32.5056 118.454C31.1754 122.186 30.6561 126.159 30.982 130.107C30.3462 125.493 25.3926 124.373 21.9303 122.539C21.7099 122.397 21.4532 122.323 21.1914 122.325C20.9296 122.327 20.6741 122.406 20.456 122.55C20.238 122.695 20.0668 122.9 19.9633 123.141C19.8598 123.381 19.8286 123.647 19.8734 123.905C20.3513 124.099 20.8087 124.34 21.2388 124.625C21.4404 124.761 21.5951 124.955 21.6818 125.182C21.7685 125.409 21.7828 125.657 21.7229 125.893C21.663 126.128 21.5318 126.339 21.3472 126.497C21.1626 126.655 20.9337 126.752 20.6919 126.774C22.4371 131.094 26.9493 133.994 31.5835 133.978C32.0289 135.913 32.6742 137.797 33.5089 139.599H40.3871C40.4118 139.522 40.4339 139.443 40.4561 139.367C39.8195 139.407 39.1803 139.369 38.5529 139.254C40.2373 137.259 41.54 136.242 40.5597 133.458L40.5595 133.458Z" fill="#F5F6F7"/>
<path d="M101.879 133.458C102.056 133.466 102.232 133.419 102.382 133.324C102.532 133.229 102.649 133.09 102.718 132.926C102.786 132.763 102.803 132.582 102.765 132.408C102.727 132.235 102.637 132.077 102.507 131.956C102.485 131.869 102.469 131.807 102.447 131.72C102.617 131.289 102.912 130.918 103.294 130.655C103.676 130.393 104.127 130.25 104.591 130.246C105.054 130.241 105.509 130.375 105.895 130.631C106.282 130.886 106.584 131.252 106.762 131.68C107.788 134.083 109.117 136.57 108.456 139.217C112.821 129.967 111.336 118.461 104.886 110.55C103.103 109.568 101.658 107.823 101.282 105.797C102.165 106.096 103.265 105.378 102.601 104.449C102.314 104.094 102.023 103.741 101.736 103.386C105.088 99.8165 109.081 105.427 105.392 110.245C106.599 111.758 107.644 113.393 108.511 115.123C108.311 113.286 108.55 111.427 109.208 109.7C109.875 108.09 111.126 106.734 112.227 105.343C113.567 103.647 116.323 104.429 116.503 106.581C115.267 106.987 115.107 108.772 116.52 109.017C116.15 113.02 113.535 116.698 109.933 118.454C111.263 122.186 111.782 126.159 111.456 130.107C112.092 125.493 117.046 124.373 120.508 122.539C120.729 122.397 120.985 122.323 121.247 122.325C121.509 122.327 121.764 122.406 121.982 122.55C122.201 122.695 122.372 122.9 122.475 123.141C122.579 123.381 122.61 123.647 122.565 123.905C122.087 124.099 121.63 124.34 121.2 124.625C120.998 124.761 120.843 124.955 120.757 125.182C120.67 125.409 120.656 125.657 120.716 125.893C120.775 126.128 120.907 126.339 121.091 126.497C121.276 126.655 121.505 126.752 121.747 126.774C120.001 131.094 115.489 133.994 110.855 133.978C110.41 135.913 109.764 137.797 108.93 139.599H102.051C102.027 139.522 102.005 139.443 101.982 139.367C102.619 139.407 103.258 139.369 103.886 139.254C102.201 137.259 100.899 136.242 101.879 133.458Z" fill="#F5F6F7"/>
<path d="M104.43 134.479L101.468 135.153L97.459 124.048L101.831 123.053L104.43 134.479Z" fill="#FEE5EA"/>
<path d="M105.237 137.545L96.1285 139.618L96.1023 139.502C95.8884 138.562 96.0568 137.575 96.5703 136.759C97.0839 135.943 97.9007 135.364 98.8409 135.15L100.218 133.509L103.609 134.065L104.405 133.884L105.237 137.545Z" fill="#383D45"/>
<path d="M152.214 80.3508L153.842 82.9152L144.726 90.4172L142.322 86.6321L152.214 80.3508Z" fill="#FEE5EA"/>
<path d="M154.831 78.5615L159.839 86.4474L159.74 86.5108C158.926 87.0277 157.939 87.2001 156.998 86.9901C156.057 86.7801 155.238 86.2048 154.721 85.3908L152.713 84.6442L152.099 81.2625L151.662 80.5741L154.831 78.5615Z" fill="#383D45"/>
<path d="M57.7921 52.9338L57.0605 48.6933L68.1832 43.6708L70.5852 39.418C70.5077 39.0448 70.5348 38.6575 70.6635 38.2987C70.7923 37.9399 71.0177 37.6237 71.3149 37.3851C71.6121 37.1464 71.9694 36.9945 72.3475 36.9461C72.7256 36.8978 73.1097 36.9549 73.4574 37.1112C73.805 37.2674 74.1027 37.5167 74.3176 37.8315C74.5325 38.1464 74.6562 38.5145 74.675 38.8952C74.6938 39.2759 74.607 39.6543 74.4242 39.9888C74.2414 40.3233 73.9697 40.6007 73.6391 40.7905L69.6878 46.8995L57.7921 52.9338Z" fill="#FEE5EA"/>
<path d="M54.4111 49.4675L59.42 46.9089L60.7459 51.8876L57.2668 54.4665L54.4111 49.4675Z" fill="#0C6BF2"/>
<path d="M43.1716 134.093L46.2001 134.093L47.6408 122.411L43.1709 122.412L43.1716 134.093Z" fill="#FEE5EA"/>
<path d="M47.2079 134.366V132.313L46.4117 132.361L43.1707 132.553L42.4206 132.599L41.8471 139.476L41.8164 139.844H43.9668L44.036 139.478L44.3483 137.814L45.1547 139.478L45.3314 139.844H51.0326C51.3719 139.842 51.6966 139.706 51.9363 139.466C52.1759 139.226 52.3112 138.901 52.3126 138.562C52.5533 137.438 47.8121 135.008 47.2079 134.366Z" fill="#383D45"/>
<path d="M7.22162 87.7336L6.51562 90.6789L17.5394 94.8037L18.5813 90.4569L7.22162 87.7336Z" fill="#FEE5EA"/>
<path d="M6.25489 91.5952L8.25147 92.0739L8.3898 91.2883L8.95877 88.0919L9.08886 87.3517L2.53577 85.1908L2.18444 85.075L1.68304 87.1661L2.02292 87.3187L3.56827 88.0104L1.76207 88.4066L1.36489 88.493L0.035587 94.0371C-0.0414272 94.3675 0.0150089 94.715 0.192651 95.004C0.370294 95.2931 0.654793 95.5004 0.984367 95.5809C2.02115 96.077 5.48915 92.0329 6.25489 91.5952Z" fill="#383D45"/>
<path d="M47.8545 58.4902L43.9562 56.668L36.1824 66.0757L31.4472 67.2733C31.1076 67.1002 30.7268 67.0244 30.3468 67.0541C29.9668 67.0839 29.6024 67.2181 29.2939 67.4419C28.9854 67.6658 28.7447 67.9705 28.5985 68.3226C28.4524 68.6746 28.4063 69.0602 28.4655 69.4367C28.5247 69.8132 28.6868 70.1661 28.934 70.4563C29.1811 70.7465 29.5037 70.9627 29.866 71.0811C30.2283 71.1994 30.6163 71.2154 30.9871 71.1271C31.3579 71.0388 31.6971 70.8498 31.9672 70.5808L38.901 68.3773L47.8545 58.4902Z" fill="#FEE5EA"/>
<path d="M103.12 23.6639C102.294 23.6639 101.486 23.4189 100.799 22.9598C100.112 22.5007 99.5766 21.8482 99.2604 21.0848C98.9442 20.3214 98.8615 19.4814 99.0227 18.6709C99.1839 17.8605 99.5818 17.1161 100.166 16.5318C100.75 15.9475 101.495 15.5496 102.305 15.3884C103.116 15.2272 103.956 15.3099 104.719 15.6261C105.482 15.9423 106.135 16.4778 106.594 17.1649C107.053 17.8519 107.298 18.6597 107.298 19.486C107.297 20.5937 106.856 21.6556 106.073 22.4388C105.29 23.2221 104.228 23.6627 103.12 23.6639ZM103.12 15.7876C102.389 15.7876 101.674 16.0045 101.066 16.4109C100.457 16.8173 99.9833 17.3949 99.7034 18.0707C99.4234 18.7465 99.3502 19.4901 99.4929 20.2075C99.6356 20.925 99.9878 21.584 100.505 22.1012C101.022 22.6184 101.681 22.9707 102.399 23.1134C103.116 23.2561 103.86 23.1828 104.536 22.9029C105.211 22.623 105.789 22.1489 106.195 21.5407C106.602 20.9325 106.819 20.2175 106.819 19.486C106.818 18.5054 106.428 17.5654 105.734 16.872C105.041 16.1787 104.101 15.7887 103.12 15.7876Z" fill="#BCC4CF"/>
<path d="M102.825 21.0599C102.817 21.0599 102.808 21.0596 102.8 21.0592C102.726 21.0556 102.653 21.036 102.587 21.0018C102.521 20.9675 102.464 20.9195 102.418 20.8608L101.76 20.0147C101.718 19.9613 101.688 19.9002 101.67 19.835C101.652 19.7697 101.647 19.7016 101.655 19.6344C101.664 19.5673 101.685 19.5025 101.719 19.4436C101.752 19.3848 101.797 19.3331 101.85 19.2916L101.874 19.2732C101.927 19.2316 101.988 19.2009 102.054 19.183C102.119 19.165 102.187 19.1601 102.254 19.1685C102.322 19.1769 102.386 19.1984 102.445 19.2319C102.504 19.2654 102.556 19.3101 102.597 19.3635C102.63 19.4062 102.673 19.4412 102.721 19.4662C102.769 19.4911 102.821 19.5053 102.875 19.508C102.929 19.5106 102.983 19.5015 103.034 19.4814C103.084 19.4613 103.129 19.4305 103.166 19.3913L104.503 17.9805C104.597 17.8815 104.726 17.8237 104.863 17.82C104.999 17.8163 105.132 17.8669 105.231 17.9607L105.253 17.9816C105.302 18.0281 105.342 18.0839 105.369 18.1457C105.397 18.2075 105.412 18.2741 105.414 18.3418C105.416 18.4094 105.404 18.4768 105.38 18.5399C105.356 18.6031 105.319 18.6609 105.273 18.7101L103.199 20.8989C103.151 20.9498 103.093 20.9903 103.029 21.0179C102.964 21.0456 102.895 21.0599 102.825 21.0599Z" fill="#BCC4CF"/>
<path d="M82.2638 74.2462C81.4375 74.2462 80.6298 74.0011 79.9427 73.5421C79.2557 73.083 78.7202 72.4305 78.404 71.6671C78.0877 70.9037 78.005 70.0636 78.1662 69.2532C78.3274 68.4428 78.7253 67.6983 79.3096 67.1141C79.8939 66.5298 80.6383 66.1319 81.4488 65.9707C82.2592 65.8095 83.0992 65.8922 83.8626 66.2084C84.626 66.5246 85.2785 67.0601 85.7376 67.7472C86.1967 68.4342 86.4417 69.242 86.4417 70.0683C86.4405 71.1759 85.9999 72.2379 85.2167 73.0211C84.4334 73.8044 83.3715 74.2449 82.2638 74.2462ZM82.2638 66.3698C81.5323 66.3698 80.8173 66.5867 80.2091 66.9931C79.6009 67.3995 79.1268 67.9771 78.8469 68.6529C78.567 69.3287 78.4937 70.0724 78.6365 70.7898C78.7792 71.5072 79.1314 72.1662 79.6486 72.6835C80.1659 73.2007 80.8249 73.5529 81.5423 73.6956C82.2597 73.8383 83.0034 73.7651 83.6792 73.4852C84.355 73.2053 84.9326 72.7312 85.339 72.123C85.7453 71.5148 85.9623 70.7998 85.9623 70.0683C85.9611 69.0877 85.5711 68.1477 84.8778 67.4543C84.1844 66.761 83.2444 66.371 82.2638 66.3698Z" fill="#BCC4CF"/>
<path d="M81.9696 71.6421C81.9612 71.6421 81.9528 71.6419 81.9444 71.6415C81.8702 71.6379 81.7977 71.6183 81.7318 71.5841C81.6659 71.5498 81.6082 71.5017 81.5626 71.4431L80.9045 70.597C80.863 70.5436 80.8323 70.4825 80.8144 70.4173C80.7964 70.352 80.7915 70.2839 80.7999 70.2167C80.8083 70.1496 80.8298 70.0847 80.8632 70.0259C80.8967 69.9671 80.9414 69.9154 80.9948 69.8739L81.0185 69.8554C81.0719 69.8139 81.133 69.7832 81.1983 69.7652C81.2635 69.7473 81.3317 69.7424 81.3989 69.7507C81.466 69.7591 81.5309 69.7807 81.5897 69.8142C81.6486 69.8476 81.7002 69.8924 81.7418 69.9458C81.775 69.9885 81.8171 70.0235 81.8651 70.0484C81.9131 70.0734 81.9659 70.0876 82.02 70.0903C82.074 70.0929 82.128 70.0838 82.1782 70.0637C82.2284 70.0435 82.2737 70.0128 82.3109 69.9735L83.6471 68.5628C83.7412 68.4637 83.8707 68.406 84.0073 68.4023C84.1439 68.3986 84.2763 68.4492 84.3757 68.543L84.3976 68.5639C84.4467 68.6104 84.4862 68.6662 84.5138 68.728C84.5414 68.7898 84.5565 68.8564 84.5583 68.924C84.5601 68.9917 84.5486 69.059 84.5244 69.1222C84.5002 69.1854 84.4638 69.2432 84.4172 69.2923L82.3435 71.4812C82.2954 71.532 82.2374 71.5725 82.1731 71.6002C82.1089 71.6279 82.0396 71.6421 81.9696 71.6421Z" fill="#BCC4CF"/>
<path d="M36.4767 17.9105C35.6504 17.9105 34.8427 17.6654 34.1556 17.2064C33.4686 16.7473 32.9331 16.0948 32.6169 15.3314C32.3006 14.568 32.2179 13.7279 32.3791 12.9175C32.5403 12.1071 32.9382 11.3627 33.5225 10.7784C34.1068 10.1941 34.8512 9.79617 35.6617 9.63497C36.4721 9.47376 37.3121 9.5565 38.0755 9.87271C38.8389 10.1889 39.4914 10.7244 39.9505 11.4115C40.4096 12.0985 40.6546 12.9063 40.6546 13.7326C40.6534 14.8402 40.2128 15.9022 39.4296 16.6854C38.6463 17.4687 37.5844 17.9092 36.4767 17.9105ZM36.4767 10.0341C35.7452 10.0341 35.0302 10.2511 34.422 10.6574C33.8138 11.0638 33.3397 11.6415 33.0598 12.3173C32.7799 12.9931 32.7066 13.7367 32.8493 14.4541C32.9921 15.1715 33.3443 15.8305 33.8615 16.3478C34.3788 16.865 35.0378 17.2172 35.7552 17.36C36.4726 17.5027 37.2163 17.4294 37.8921 17.1495C38.5679 16.8696 39.1455 16.3955 39.5519 15.7873C39.9583 15.1791 40.1752 14.4641 40.1752 13.7326C40.174 12.752 39.784 11.812 39.0907 11.1186C38.3973 10.4253 37.4573 10.0353 36.4767 10.0341Z" fill="#BCC4CF"/>
<path d="M36.1815 15.3064C36.1731 15.3064 36.1647 15.3062 36.1563 15.3058C36.0822 15.3022 36.0096 15.2826 35.9437 15.2484C35.8778 15.2141 35.8201 15.166 35.7746 15.1074L35.1164 14.2613C35.0749 14.2079 35.0442 14.1468 35.0263 14.0816C35.0083 14.0163 35.0034 13.9482 35.0118 13.881C35.0202 13.8139 35.0417 13.749 35.0752 13.6902C35.1086 13.6314 35.1533 13.5797 35.2067 13.5382L35.2304 13.5197C35.2838 13.4782 35.3449 13.4475 35.4102 13.4295C35.4754 13.4116 35.5436 13.4067 35.6108 13.415C35.6779 13.4234 35.7428 13.445 35.8016 13.4785C35.8605 13.5119 35.9121 13.5567 35.9537 13.6101C35.9869 13.6528 36.029 13.6878 36.077 13.7127C36.125 13.7377 36.1778 13.7519 36.2319 13.7546C36.2859 13.7572 36.3399 13.7481 36.3901 13.728C36.4403 13.7078 36.4856 13.6771 36.5228 13.6378L37.8591 12.2271C37.9531 12.128 38.0827 12.0703 38.2192 12.0666C38.3558 12.0629 38.4883 12.1135 38.5876 12.2073L38.6095 12.2282C38.6586 12.2747 38.6981 12.3305 38.7257 12.3923C38.7533 12.4541 38.7684 12.5207 38.7702 12.5883C38.7721 12.656 38.7605 12.7233 38.7363 12.7865C38.7121 12.8497 38.6757 12.9075 38.6291 12.9566L36.5554 15.1455C36.5073 15.1963 36.4494 15.2368 36.3851 15.2645C36.3208 15.2922 36.2515 15.3064 36.1815 15.3064Z" fill="#BCC4CF"/>
<path d="M69.9251 89.7799C60.2371 89.7799 49.1032 79.0291 39.2524 84.1371C9.42685 99.6027 13.5325 73.7234 4.96387 64.0987L5.24518 63.5344C14.6997 72.0119 26.504 78.9093 39.3819 83.4808C51.0196 87.6124 62.7445 89.5267 73.2848 89.0215L73.3031 89.6997C72.19 89.7534 71.064 89.7801 69.9251 89.7799Z" fill="#F5F6F7"/>
<path d="M56.6354 17.0926C57.7538 17.0926 58.6605 15.8768 58.6605 14.3771C58.6605 12.8774 57.7538 11.6616 56.6354 11.6616C55.517 11.6616 54.6104 12.8774 54.6104 14.3771C54.6104 15.8768 55.517 17.0926 56.6354 17.0926Z" fill="#BCC4CF"/>
<path d="M80.0244 59.4547C79.0985 60.0715 78.151 58.6033 79.0946 58.0139C80.0204 57.397 80.9679 58.8652 80.0244 59.4547Z" fill="#BCC4CF"/>
<path d="M74.6956 10.0272C76.152 10.0272 77.3326 8.84654 77.3326 7.39017C77.3326 5.9338 76.152 4.75317 74.6956 4.75317C73.2392 4.75317 72.0586 5.9338 72.0586 7.39017C72.0586 8.84654 73.2392 10.0272 74.6956 10.0272Z" fill="#0C6BF2"/>
<path opacity="0.3" d="M83.9186 21.8407L98.9238 -21.9834L82.4471 21.3161C82.3656 21.4189 82.3098 21.5396 82.2843 21.6683C82.2588 21.797 82.2643 21.9298 82.3004 22.0559C82.3366 22.182 82.4022 22.2977 82.492 22.3933C82.5817 22.489 82.693 22.5618 82.8165 22.6059C82.9401 22.6499 83.0723 22.6639 83.2024 22.6466C83.3324 22.6293 83.4564 22.5813 83.5641 22.5065C83.6719 22.4316 83.7602 22.3322 83.8219 22.2165C83.8835 22.1007 83.9167 21.9719 83.9186 21.8407Z" fill="#F5F6F7"/>
<path d="M68.7727 75.2314C70.1896 75.2314 71.3383 74.0827 71.3383 72.6657C71.3383 71.2488 70.1896 70.1001 68.7727 70.1001C67.3557 70.1001 66.207 71.2488 66.207 72.6657C66.207 74.0827 67.3557 75.2314 68.7727 75.2314Z" fill="#F5F6F7"/>
<path d="M43.9237 73.6443C43.9237 73.6443 37.5276 77.8092 39.2189 80.5767C39.2772 80.6721 31.5789 90.8396 31.5789 90.8396L17.0462 89.9171L16.5342 94.7812L29.4722 98.5283C29.4722 98.5283 32.6373 100.854 35.0825 98.2916C37.5277 95.7295 45.6722 87.8838 45.6722 87.8838L46.065 103.724L41.9765 125.674L48.0812 125.287L54.0229 103.266L56.2161 78.3212L43.9237 73.6443Z" fill="#383D45"/>
<path d="M48.4802 48.6482L45.7905 50.6865L42.7249 57.2296L45.6728 61.2332C45.6728 61.2332 48.1525 65.5307 44.1834 69.6925C40.2142 73.8543 37.1664 78.2994 40.3433 78.1407C43.5202 77.982 56.387 84.5263 56.4716 79.1647C56.5563 73.8031 56.7276 69.6925 56.7276 69.6925L60.101 61.1364C60.101 61.1364 62.1108 56.0323 60.6997 54.5044C59.2887 52.9765 57.3994 51.0241 57.3994 51.0241L53.9636 47.5884H50.8613L48.4802 48.6482Z" fill="#0C6BF2"/>
<path d="M53.5005 36.0766C59.5345 39.5103 54.5809 48.5698 48.4344 45.3438C42.4005 41.9103 47.3542 32.8507 53.5005 36.0766Z" fill="#FEE5EA"/>
<path d="M56.7276 37.9806C56.3048 38.5305 55.4215 38.2726 53.6917 38.665C53.6954 38.0787 53.6277 37.4941 53.4899 36.9241C53.3612 37.6298 53.0792 38.2986 52.6637 38.8833C51.1616 39.0499 53.003 43.6131 52.2339 46.968C51.243 39.8901 49.1588 41.7445 50.2117 43.1484C50.8858 44.0471 50.4364 46.7433 48.4142 45.3952C45.0777 46.9809 40.3255 39.104 45.5924 35.4098C45.4983 33.413 47.7201 33.0976 49.0883 33.7115C52.4086 31.2381 56.2021 34.4074 56.7276 37.9806Z" fill="#383D45"/>
<path d="M41.2455 32.816C39.9021 41.0756 32.7016 31.2969 29.316 39.4252C28.2515 42.3688 30.0779 44.4746 31.2331 46.9179C31.4968 48.9259 28.8846 49.9446 28.611 51.793C28.5348 56.0304 35.3712 55.7711 37.2824 53.0977C39.2462 50.299 36.9012 46.5441 38.0815 43.5401C39.7405 39.3695 46.4872 39.3385 47.075 34.4864C45.9367 32.8654 42.8758 31.0089 41.2455 32.816Z" fill="#383D45"/>
<path d="M46.688 33.623C46.644 33.6415 46.6001 33.66 46.5608 33.6808H46.5584C46.5214 33.6993 46.4844 33.7178 46.4474 33.7386C46.4428 33.7409 46.4405 33.7432 46.4359 33.7456C46.3873 33.6993 46.3387 33.653 46.2878 33.6068C46.2747 33.6821 46.2778 33.7594 46.2971 33.8334L46.304 33.8612C46.3503 33.9098 46.3989 33.956 46.4497 34.0046C46.496 33.9699 46.54 33.9329 46.5862 33.8982C46.614 33.8751 46.6417 33.8519 46.6718 33.8288C46.6764 33.7687 46.6834 33.6993 46.6903 33.6229L46.688 33.623ZM48.0805 31.0508C47.0488 30.8149 46.7157 32.1634 46.6163 32.8134C46.2416 30.454 44.6825 31.1965 45.2215 32.8064C45.3933 33.2831 45.6636 33.7181 46.0149 34.0832C46.0635 34.1388 46.1167 34.1943 46.1722 34.2498C46.1097 34.5736 46.4243 34.4904 46.8499 34.192C47.1642 33.9685 47.4548 33.7135 47.7173 33.431C48.5662 32.5404 49.2277 31.3492 48.0805 31.0508ZM48.1128 32.3785C47.7946 32.7889 47.4375 33.1677 47.0465 33.5096C46.9239 33.6206 46.799 33.727 46.6718 33.8288C46.6695 33.8496 46.6695 33.8681 46.6672 33.8843C46.6582 33.9068 46.6474 33.9285 46.6348 33.9491C46.5053 34.1827 46.3595 34.0555 46.304 33.8612C46.2994 33.8543 46.2925 33.8473 46.2878 33.8404C46.103 33.6494 45.9422 33.4366 45.809 33.2066C44.8537 31.5504 46.3919 30.424 46.3156 33.5165C46.3015 33.5449 46.2921 33.5754 46.2878 33.6068C46.2747 33.6821 46.2778 33.7594 46.2971 33.8334L46.304 33.8612C46.3503 33.9098 46.3989 33.956 46.4497 34.0046C46.496 33.9699 46.54 33.9329 46.5862 33.8982C46.614 33.8751 46.6417 33.8519 46.6718 33.8288C46.6764 33.7687 46.6834 33.6993 46.6903 33.6229V33.6206C46.7504 33.0007 46.9147 31.8858 47.2177 31.5828C47.8839 31.0716 48.7466 31.6245 48.1128 32.3785ZM46.688 33.623C46.644 33.6415 46.6001 33.66 46.5608 33.6808H46.5584C46.5214 33.6993 46.4844 33.7178 46.4474 33.7386C46.4428 33.7409 46.4405 33.7432 46.4359 33.7456C46.3873 33.6993 46.3387 33.653 46.2878 33.6068C46.2747 33.6821 46.2778 33.7594 46.2971 33.8334L46.304 33.8612C46.3503 33.9098 46.3989 33.956 46.4497 34.0046C46.496 33.9699 46.54 33.9329 46.5862 33.8982C46.614 33.8751 46.6417 33.8519 46.6718 33.8288C46.6764 33.7687 46.6834 33.6993 46.6903 33.6229L46.688 33.623Z" fill="#383D45"/>
<path d="M102.458 79.1613L100.229 84.9731L89.7754 105.594L98.9613 129.583L103.702 128.332L99.7947 105.594L111.005 91.9731L124.319 101.003C124.319 101.003 130.223 105.612 132.469 101.243C134.716 96.8727 149.25 87.5781 149.25 87.5781L145.654 83.7425L128.917 91.5753L117.365 75.3152L102.458 79.1613Z" fill="#383D45"/>
<path d="M113.703 51.7475L110.035 47.8062L103.742 46.9404L96.0312 52.3383L96.1089 58.313L99.9206 72.392C99.9206 72.392 98.4687 82.507 102.524 82.4055C106.579 82.3041 108.79 80.2823 110.441 80.6939C112.093 81.1055 119.114 82.857 119.559 81.0223C120.004 79.1876 122.369 80.5013 122.265 78.7657C122.161 77.0301 115.862 64.5196 115.862 64.5196L117.429 52.0078L113.703 51.7475Z" fill="#E51740"/>
<path d="M136.931 33.6049C136.964 33.9318 136.924 34.2618 136.816 34.5719C136.707 34.8819 136.532 35.1644 136.302 35.3994C136.073 35.6344 135.795 35.8163 135.487 35.9321C135.18 36.048 134.851 36.095 134.523 36.0699L126.087 52.114L123.822 48.6371L132.445 33.495C132.524 32.9475 132.8 32.4479 133.223 32.0908C133.645 31.7338 134.184 31.544 134.737 31.5576C135.29 31.5711 135.818 31.787 136.223 32.1643C136.627 32.5417 136.879 33.0542 136.931 33.6049Z" fill="#FEE5EA"/>
<path d="M110.372 54.7308C110.372 54.7308 110.038 57.5847 113.25 58.2912C116.463 58.9977 125.364 53.9116 126.824 53.1348C127.281 52.8916 127.901 51.6992 128.537 50.176C128.822 49.4922 129.111 48.7417 129.39 47.9805C129.552 47.5399 130.324 47.4197 130.476 46.9828C130.627 46.5484 130.158 45.7972 130.295 45.3877C130.945 43.444 131.406 41.9021 131.406 41.9021L129.276 37.9021C126.298 39.4766 124.77 42.9446 123.647 46.9401L110.372 54.7308Z" fill="#E51740"/>
<path d="M72.8499 37.2893C72.8999 37.6139 73.0205 37.9237 73.2032 38.1967C73.3859 38.4697 73.6262 38.6994 73.9072 38.8695C74.1883 39.0396 74.5032 39.146 74.8298 39.1812C75.1564 39.2165 75.4867 39.1796 75.7976 39.0734L87.9804 52.4957L89.3031 48.5626L77.1653 36.0603C76.9521 35.5499 76.5592 35.1355 76.0609 34.8954C75.5626 34.6554 74.9936 34.6065 74.4617 34.758C73.9298 34.9095 73.4719 35.2509 73.1748 35.7174C72.8778 36.1839 72.7622 36.7432 72.8499 37.2893Z" fill="#FEE5EA"/>
<path d="M103.85 51.0965C103.85 51.0965 104.888 53.7759 101.954 55.2639C99.0205 56.752 89.1297 54.0554 87.5225 53.6684C87.0192 53.5473 86.1205 52.5481 85.1234 51.2326C84.6758 50.642 84.2083 49.9876 83.7478 49.3204C83.4813 48.9343 82.7032 49.0112 82.4467 48.6263C82.1915 48.2435 82.4579 47.3987 82.2228 47.0366C81.1071 45.3174 80.2754 43.9398 80.2754 43.9398L81.336 39.5342C84.6134 40.3132 86.9602 43.2887 89.0478 46.8759L103.85 51.0965Z" fill="#E51740"/>
<path d="M107.014 45.938C110.321 45.938 113.001 43.2573 113.001 39.9506C113.001 36.6438 110.321 33.9631 107.014 33.9631C103.707 33.9631 101.026 36.6438 101.026 39.9506C101.026 43.2573 103.707 45.938 107.014 45.938Z" fill="#FEE5EA"/>
<path d="M113.848 36.5221C113.218 35.5477 112.036 34.8984 110.891 35.0808C110.784 34.3496 110.479 33.6617 110.008 33.0919C109.538 32.5222 108.92 32.0924 108.222 31.8495C107.524 31.6066 106.773 31.5597 106.05 31.7142C105.328 31.8686 104.661 32.2183 104.124 32.7252C103.947 32.6007 103.741 32.524 103.526 32.5024C103.311 32.4809 103.094 32.5153 102.896 32.6023C102.501 32.7816 102.158 33.0569 101.898 33.4032C101.24 34.2231 100.818 35.2059 100.674 36.247C100.531 37.2881 100.673 38.3486 101.085 39.3156C100.945 38.8065 101.455 38.3276 101.97 38.2134C102.486 38.0992 103.026 38.2072 103.549 38.1328C104.219 38.0375 104.821 37.6489 105.492 37.5614C106.061 37.5244 106.632 37.5977 107.173 37.7774C107.714 37.957 108.284 38.0336 108.853 38.003C109.418 37.936 110.145 40.0762 110.136 41.5836C110.134 41.8692 110.193 42.236 110.472 42.2966C110.816 42.3713 111.015 41.8967 111.342 41.7675C111.493 41.7242 111.655 41.7412 111.793 41.8149C111.932 41.8886 112.036 42.0131 112.085 42.1623C112.126 42.314 112.13 42.4734 112.098 42.6271C112.065 42.7808 111.996 42.9245 111.896 43.0462C111.695 43.2874 111.456 43.4945 111.189 43.6596L111.324 43.7717C111.452 43.9069 111.623 43.9933 111.807 44.0163C111.992 44.0392 112.179 43.9972 112.336 43.8974C112.645 43.6882 112.895 43.4033 113.063 43.0699C113.695 42.0932 114.146 41.0112 114.396 39.8753C114.607 38.7345 114.478 37.4965 113.848 36.5221Z" fill="#383D45"/>
<path d="M158.143 60.137C150.42 65.9862 135.053 64.1383 130.285 74.1578C115.847 104.494 103.494 81.3851 90.8528 78.8861L90.7363 78.2664C103.392 79.3161 116.966 77.6875 129.992 73.5564C141.763 69.8236 152.266 64.2705 160.363 57.5039L160.787 58.0335C159.932 58.7484 159.051 59.4495 158.143 60.137Z" fill="#F5F6F7"/>
<path d="M125.491 139.591C125.307 140.136 20.2893 140.136 20.0908 139.593C20.2745 139.046 125.292 139.047 125.491 139.591Z" fill="#BCC4CF"/>
</g>
<defs>
<clipPath id="clip0_1574_6791">
<rect width="160.826" height="140" fill="white"/>
</clipPath>
</defs>
</svg>
