<svg width="25" height="24" viewBox="0 0 25 24" fill="none" xmlns="http://www.w3.org/2000/svg">
<path d="M22.4548 11.8281C22.4548 6.30528 17.9777 1.82812 12.4548 1.82812C6.93199 1.82812 2.45483 6.30528 2.45483 11.8281C2.45483 17.351 6.93199 21.8281 12.4548 21.8281C17.9777 21.8281 22.4548 17.351 22.4548 11.8281Z" fill="url(#paint0_linear_62_2652)"/>
<path d="M6.94958 11.6083C9.85763 10.3147 11.7968 9.46188 12.767 9.0498C15.5373 7.87334 16.113 7.66897 16.4882 7.66218C16.5707 7.66076 16.7552 7.68163 16.8747 7.78063C16.9756 7.86426 17.0034 7.97722 17.0167 8.05647C17.03 8.13576 17.0465 8.31634 17.0333 8.45743C16.8832 10.0679 16.2337 13.9762 15.9032 15.78C15.7633 16.5433 15.488 16.7992 15.2215 16.8242C14.6422 16.8786 14.2023 16.4333 13.6412 16.0578C12.7632 15.4702 12.2673 15.1044 11.415 14.531C10.4301 13.8683 11.0686 13.5041 11.6299 12.9089C11.7768 12.7531 14.3291 10.3827 14.3785 10.1677C14.3847 10.1408 14.3905 10.0406 14.3321 9.98763C14.2738 9.93472 14.1877 9.9528 14.1256 9.96718C14.0375 9.98759 12.635 10.9341 9.91788 12.8068C9.51975 13.0859 9.15917 13.2219 8.83608 13.2148C8.47992 13.2069 7.79479 13.0092 7.28546 12.8401C6.66075 12.6328 6.16422 12.5232 6.20746 12.1711C6.22998 11.9876 6.47735 11.8001 6.94958 11.6083Z" fill="white"/>
<defs>
<linearGradient id="paint0_linear_62_2652" x1="12.4548" y1="1.82812" x2="12.4548" y2="21.6798" gradientUnits="userSpaceOnUse">
<stop stop-color="#2AABEE"/>
<stop offset="1" stop-color="#229ED9"/>
</linearGradient>
</defs>
</svg>
