<svg width="42" height="42" viewBox="0 0 42 42" fill="none" xmlns="http://www.w3.org/2000/svg">
<g clip-path="url(#clip0_1120_19394)">
<path d="M41.9305 20.9613C41.9305 30.1348 36.0381 37.9315 27.8315 40.7733C24.5281 41.9107 20.994 42.2099 17.5465 41.6442C17.2193 41.5908 16.8944 41.5295 16.5719 41.4601C16.1349 41.3673 15.703 41.2606 15.2763 41.1399C6.4656 38.6601 0.0078125 30.5649 0.0078125 20.9613C0.0078125 9.38464 9.39245 0 20.9691 0C32.5458 0 41.9305 9.38464 41.9305 20.9613Z" fill="#F4F4F5"/>
<path d="M6.68111 25.8985C6.64421 25.9183 6.61665 25.9519 6.60448 25.9919C6.59231 26.032 6.59653 26.0752 6.6162 26.1121L14.4971 40.8732C14.5169 40.9101 14.5504 40.9377 14.5905 40.9498C14.6305 40.962 14.6738 40.9578 14.7107 40.9381L25.8511 34.9903C25.888 34.9705 25.9156 34.9369 25.9278 34.8969C25.9399 34.8568 25.9357 34.8136 25.916 34.7767L18.0351 20.0156C18.0154 19.9787 17.9818 19.9511 17.9418 19.939C17.9017 19.9268 17.8585 19.931 17.8215 19.9507L6.68111 25.8985Z" fill="#1F1F1F"/>
<path d="M8.87666 27.8622L16.0885 41.3699L25.9756 36.0913L18.7638 22.5835L8.87666 27.8622ZM8.25016 28.1967L8.25154 28.196L8.25 28.1968L8.25016 28.1967Z" fill="white"/>
<path d="M11.369 29.3475C11.2154 29.4295 11.1827 29.6689 11.296 29.881C11.4093 30.0932 11.6264 30.1992 11.78 30.1172L19.0213 26.2511C19.1749 26.1691 19.2076 25.9297 19.0943 25.7175C18.981 25.5054 18.7639 25.3993 18.6103 25.4814L11.369 29.3475Z" fill="#E51740"/>
<path d="M12.2616 31.0184C12.108 31.1004 12.0753 31.3398 12.1886 31.5519C12.3019 31.7641 12.519 31.8701 12.6726 31.7881L19.9138 27.922C20.0674 27.84 20.1001 27.6006 19.9869 27.3884C19.8736 27.1763 19.6565 27.0702 19.5029 27.1523L12.2616 31.0184Z" fill="#E51740"/>
<path d="M13.1542 32.6893C13.0006 32.7713 12.9679 33.0107 13.0811 33.2228C13.1944 33.435 13.4115 33.541 13.5652 33.459L20.8064 29.5929C20.96 29.5109 20.9927 29.2715 20.8794 29.0593C20.7662 28.8472 20.549 28.7411 20.3954 28.8232L13.1542 32.6893Z" fill="#E51740"/>
<path d="M14.0467 34.3606C13.8931 34.4426 13.8604 34.682 13.9737 34.8942C14.087 35.1064 14.3041 35.2124 14.4577 35.1304L21.699 31.2643C21.8526 31.1823 21.8853 30.9429 21.772 30.7307C21.6587 30.5186 21.4416 30.4125 21.288 30.4945L14.0467 34.3606Z" fill="#E51740"/>
<path d="M14.9393 36.0315C14.7857 36.1135 14.753 36.3529 14.8663 36.5651C14.9796 36.7773 15.1967 36.8833 15.3503 36.8013L22.5916 32.9352C22.7452 32.8532 22.7779 32.6138 22.6646 32.4016C22.5513 32.1895 22.3342 32.0834 22.1806 32.1654L14.9393 36.0315Z" fill="#E51740"/>
<path d="M16.3438 21.0536L22.9052 21.4542L24.7427 15.9743L18.9877 14.7583L16.3438 21.0536Z" fill="#1F1F1F"/>
<path d="M21.0773 19.6679C22.5266 19.6679 23.7015 18.493 23.7015 17.0436C23.7015 15.5943 22.5266 14.4194 21.0773 14.4194C19.628 14.4194 18.4531 15.5943 18.4531 17.0436C18.4531 18.493 19.628 19.6679 21.0773 19.6679Z" fill="#FFE5EF"/>
<path d="M27.8148 40.5688L27.8318 40.773C24.5285 41.9104 20.9944 42.2097 17.5468 41.644L16.5723 41.4599L17.4997 39.4032L18.1076 38.055L17.8887 33.3909L17.8655 32.9083L17.8369 32.2926L18.2329 32.2903L21.0484 32.2732L23.7316 32.2562L24.1408 32.2539C26.7064 35.4097 28.8234 37.9746 27.8148 40.5688Z" fill="#1F1F1F"/>
<path d="M24.1021 32.2156L17.8369 32.9117L17.6048 28.5802C16.8696 26.705 17.3549 25.0312 18.8809 23.5291L19.1911 22.3012C19.2726 21.9789 19.4408 21.6851 19.6776 21.4517C19.9143 21.2183 20.2105 21.0544 20.534 20.9776C21.5596 20.3894 22.7213 20.1091 24.0247 20.1493C24.5453 20.3526 24.9867 20.7179 25.2837 21.1912C25.5807 21.6646 25.7176 22.221 25.6741 22.7781C25.4045 26.1822 24.9206 29.3687 24.1021 32.2156Z" fill="#E00051"/>
<path d="M19.0913 13.9434C19.0913 13.9434 17.7344 14.4386 17.6996 16.2388C17.6976 16.5418 17.7381 16.8435 17.8197 17.1352C17.9077 17.4661 17.9783 18.184 17.3866 19.1409C17 19.7621 16.6505 20.4056 16.3398 21.068L17.8677 21.2154L18.1203 18.6827C18.2428 17.4547 18.5454 16.2515 19.0185 15.1117L19.0283 15.0879C19.0283 15.0879 19.7293 16.3062 21.0614 16.2687L20.5723 15.8063C20.5723 15.8063 22.2408 16.4346 23.1481 16.5608C23.2517 16.5752 23.3493 16.6176 23.4306 16.6834C23.5118 16.7492 23.5735 16.8359 23.6091 16.9342C23.6447 17.0325 23.6528 17.1387 23.6326 17.2413C23.6123 17.3438 23.5645 17.4389 23.4942 17.5163C23.4888 17.5221 23.4834 17.528 23.4779 17.5338C22.923 18.1209 21.8187 19.4852 22.5142 20.5131C23.2098 21.5411 22.6469 21.8426 22.6469 21.8426L23.6775 21.2422L24.1453 20.9433L24.156 21.324L26.622 20.9688C26.622 20.9688 27.2854 20.8549 25.8125 19.2775C25.8125 19.2775 25.4179 18.6599 25.5676 18.1134C25.6915 17.6979 25.7147 17.2588 25.6354 16.8324C25.2654 15.0576 23.911 11.5464 19.0913 13.9434Z" fill="#1F1F1F"/>
<path d="M19.6143 25.3653L19.6948 24.8672L22.3246 24.9445L22.2743 25.3243L21.4738 31.3644L21.0499 32.2733L20.9115 32.5703L16.9625 41.5152L15.1855 41.1113L15.982 39.486L17.8903 33.3909L18.0473 32.8882L18.2344 32.2903L18.7666 30.5909L19.6143 25.3653Z" fill="#FFE5EF"/>
<path d="M22.7873 25.4863C21.5717 25.0495 20.4056 25.0031 19.3066 25.4863L19.6653 22.3773C19.6522 21.9891 19.7919 21.6112 20.0545 21.3248C20.317 21.0385 20.6814 20.8667 21.0694 20.8463C21.4621 20.8256 21.847 20.9618 22.1393 21.2249C22.4316 21.488 22.6074 21.8564 22.6281 22.2491L22.6283 22.2542L22.7873 25.4863Z" fill="#E00051"/>
</g>
<defs>
<clipPath id="clip0_1120_19394">
<rect width="42" height="42" fill="white"/>
</clipPath>
</defs>
</svg>
