<svg width="394" height="151" viewBox="0 0 394 151" fill="none" xmlns="http://www.w3.org/2000/svg">
<path d="M108.715 65.0937C108.517 64.5171 108.184 63.9959 107.744 63.5733C107.582 63.423 107.406 63.2876 107.219 63.1689C105.729 62.1781 103.503 61.956 102.087 63.1689C101.944 63.2923 101.813 63.4276 101.693 63.5733C101.271 64.0915 100.837 64.5983 100.392 65.0937C99.6608 65.9251 98.913 66.728 98.1309 67.5082C97.9083 67.7246 97.6857 67.9467 97.4573 68.163C97.326 68.294 97.1947 68.4193 97.0634 68.5446C96.5611 69.0229 96.0473 69.4842 95.5278 69.9397C95.2538 70.1846 94.9798 70.4238 94.7001 70.6572C94.2834 71.0046 93.8666 71.352 93.4442 71.6879C93.4042 71.7164 93.3643 71.7449 93.3243 71.779C93.3129 71.7847 93.3072 71.7962 93.2958 71.8018C93.2901 71.8018 93.2844 71.8018 93.2787 71.8132C93.2632 71.8193 93.2495 71.8291 93.2387 71.8417C93.1131 71.9271 93.0275 71.984 92.9647 72.0353C92.9875 72.0239 93.0104 72.0068 93.0332 71.9954C92.9304 72.0752 92.822 72.1549 92.7192 72.2346C91.7202 72.9692 90.6984 73.6753 89.6537 74.3359C87.0691 75.986 84.3543 77.4239 81.5362 78.6352C81.3478 78.7093 81.1537 78.789 80.9596 78.863C73.5811 81.8785 65.5771 83.0552 57.6402 82.2911C56.8295 82.2285 56.0189 82.143 55.2083 82.0349C54.2721 81.8982 53.3417 81.733 52.4169 81.5451C48.8962 80.8444 45.4513 79.807 42.1301 78.4473C37.9755 76.5495 34.024 74.2371 30.3362 71.5456C29.7653 71.1413 29.1888 70.737 28.6122 70.344C29.2687 68.7382 29.9138 67.1323 30.5417 65.5151C30.8557 64.7349 31.1582 63.9548 31.4551 63.1689C33.7899 57.1157 35.982 51.0055 38.0827 44.8725C40.2063 38.6598 42.21 32.411 44.0938 26.1262C44.2879 25.4884 44.4763 24.8506 44.659 24.2128C45.6465 20.8929 46.5941 17.5654 47.5018 14.2304C47.5874 13.9058 47.6788 13.5869 47.7587 13.2623C48.0213 12.3056 48.2782 11.3489 48.5294 10.3923C49.1002 8.23403 47.8101 5.65443 45.5381 5.13623C44.4441 4.85645 43.2841 5.01115 42.3023 5.56777C41.3205 6.12439 40.5936 7.03945 40.2748 8.12015C40.0293 9.04266 39.7838 9.95948 39.5327 10.882C38.3282 15.3408 37.0609 19.7844 35.7308 24.2128C35.5367 24.8506 35.3426 25.4884 35.1485 26.1262C32.2143 35.7727 28.9928 45.3224 25.4839 54.7752C25.0615 55.9198 24.6334 57.0606 24.1995 58.1977C23.9883 58.7557 23.7771 59.3138 23.5601 59.8718C23.1434 60.9709 22.7153 62.0699 22.2872 63.1689C22.0417 63.8124 21.7905 64.4559 21.5393 65.0937C21.3738 65.498 21.2139 65.9023 21.0541 66.3009C19.4265 65.7179 17.7402 65.3132 16.0249 65.0937L15.7509 65.0595C14.421 64.8999 13.0761 64.9114 11.7492 65.0937C9.7632 65.3248 7.85238 65.9884 6.15178 67.0373C4.45118 68.0863 3.00232 69.495 1.90763 71.1641C-0.815348 75.4406 -0.781099 81.5565 3.03792 85.1896C6.97111 88.9309 12.9251 88.9024 17.5548 86.562C20.0082 85.2379 22.0769 83.3038 23.5601 80.9472C24.1284 80.093 24.6505 79.2091 25.1243 78.2993C25.2442 78.379 25.364 78.4587 25.4839 78.5441C25.9406 78.863 26.3973 79.1876 26.8483 79.5065C29.4759 81.4055 32.245 83.1017 35.1314 84.5803C41.3377 87.6581 48.0184 89.6736 54.8944 90.5424C55.0485 90.5595 55.1969 90.5823 55.3511 90.5994C56.1103 90.6962 56.8752 90.7702 57.6402 90.8329C68.6132 91.6578 79.5998 89.4178 89.3683 84.3639C90.196 83.9368 91.0162 83.4888 91.8287 83.02C93.0903 82.2911 94.3233 81.5167 95.5278 80.6967C96.1843 80.2525 96.8237 79.8026 97.4573 79.33C100.226 77.2955 102.807 75.0181 105.17 72.525C106.066 71.5854 106.924 70.6155 107.744 69.6151C108.52 68.7968 108.967 67.7227 109 66.597C108.996 66.0829 108.899 65.5738 108.715 65.0937ZM14.1867 78.658C14.3066 78.5726 14.4265 78.4815 14.5407 78.3904C14.5064 78.4758 14.3408 78.5726 14.1867 78.658ZM16.0192 76.8187C15.8879 76.9668 15.768 77.1148 15.6367 77.2629C15.2372 77.7088 14.8081 78.1273 14.3523 78.5156C14.2895 78.5726 14.221 78.6295 14.1525 78.6808C14.1517 78.6808 14.151 78.6809 14.1503 78.6812C14.1496 78.6815 14.1489 78.6819 14.1484 78.6824C14.1479 78.6829 14.1474 78.6836 14.1472 78.6843C14.1469 78.685 14.1467 78.6857 14.1468 78.6865C14.0643 78.7232 13.9842 78.7651 13.907 78.8118C13.6615 78.9598 13.4103 79.0965 13.1535 79.2218C12.6505 79.4065 12.1331 79.5493 11.6065 79.6488C11.2018 79.6783 10.7957 79.6821 10.3905 79.6602H10.3791C10.0995 79.5984 9.82326 79.5223 9.55138 79.4325C9.41438 79.3641 9.28308 79.2845 9.15178 79.2047C9.1004 79.1591 9.0547 79.1136 9.02619 79.0851C8.97042 79.0343 8.9189 78.9791 8.8721 78.92C8.87212 78.9192 8.87196 78.9184 8.87168 78.9177C8.8714 78.9171 8.871 78.9164 8.87046 78.9159C8.86993 78.9154 8.86928 78.9149 8.86858 78.9147C8.86788 78.9144 8.86714 78.9143 8.86639 78.9143C8.80356 78.8004 8.73506 78.6865 8.6723 78.5726C8.66904 78.5696 8.667 78.5656 8.66658 78.5612C8.62091 78.4189 8.58096 78.2708 8.54671 78.1227C8.53433 77.8628 8.53622 77.6023 8.55241 77.3426C8.62901 76.9788 8.73204 76.6209 8.86067 76.272C8.97625 76.0246 9.10783 75.7849 9.25456 75.5545C9.26598 75.5317 9.32307 75.4406 9.38587 75.3381C9.39157 75.3324 9.39156 75.3324 9.39156 75.3267C9.47719 75.2299 9.56283 75.1274 9.65417 75.0363C9.8083 74.8655 9.97385 74.7174 10.1394 74.5637C10.4614 74.3535 10.7949 74.1614 11.1384 73.9885C11.6834 73.7954 12.2426 73.645 12.811 73.5387C13.6492 73.4722 14.4916 73.4798 15.3285 73.5614C16.1211 73.6986 16.9031 73.8908 17.669 74.1366C17.2048 75.0351 16.6764 75.8991 16.0877 76.7219C16.0648 76.756 16.042 76.7902 16.0192 76.8187ZM9.67126 74.9452C9.62097 75.0257 9.56159 75.1002 9.4943 75.1672C9.53959 75.0833 9.59951 75.0081 9.67126 74.9452Z" fill="#E00051"/>
<path d="M91 6.26972C90.9507 8.05731 90.9014 9.84491 90.852 11.6325C90.7479 15.6005 90.6402 19.5704 90.5288 23.5422C90.4137 28.0112 90.2931 32.4782 90.1671 36.9434C90.1068 39.2491 90.0447 41.5548 89.9808 43.8604C89.811 50.0714 89.6429 56.2805 89.4767 62.4877C89.4603 63.131 89.4384 63.7687 89.4219 64.412C89.3397 67.4919 89.2575 70.5718 89.1753 73.6516C89.0822 76.9934 88.9909 80.3352 88.9014 83.677C88.8356 86.1818 88.768 88.6886 88.6986 91.1973C88.2055 109.375 87.7124 127.553 87.2192 145.73C87.1983 146.856 86.7587 147.929 85.9925 148.725C85.2262 149.522 84.193 149.978 83.1096 150C82.0224 149.991 80.9822 149.538 80.2133 148.739C79.4445 147.941 79.0088 146.86 79 145.73C79.274 135.506 79.5516 125.281 79.8329 115.057C80.0794 105.811 80.3297 96.5658 80.5836 87.3204C80.6657 84.2747 80.7479 81.2271 80.8301 78.1775C80.9562 73.589 81.0804 69.0005 81.2027 64.412C81.2192 63.7687 81.2411 63.131 81.2575 62.4877C81.2685 61.9241 81.2849 61.3662 81.3014 60.8026C81.5425 51.8932 81.7836 42.9818 82.0247 34.0685C82.1233 30.5616 82.2183 27.0529 82.3096 23.5422C82.4192 19.54 82.5288 15.5398 82.6383 11.5414C82.6877 9.78229 82.7315 8.02885 82.7808 6.26972C82.8017 5.1441 83.2413 4.07061 84.0075 3.27452C84.7738 2.47844 85.807 2.02164 86.8904 2C87.9776 2.0091 89.0178 2.46188 89.7866 3.26064C90.5554 4.05941 90.9912 5.14014 91 6.26972Z" fill="#E00051"/>
<path d="M325.274 8.12077C320.785 25.0823 315.419 41.8008 309.198 58.2092C307.482 62.7353 305.726 67.2523 303.849 71.7147L304.28 70.6943C303.443 72.8199 302.372 74.8468 301.09 76.7385C301.002 76.8604 300.913 76.9813 300.823 77.101C301.267 76.535 301.351 76.4232 301.076 76.7655C300.931 76.9367 300.788 77.1085 300.638 77.2755C300.238 77.7218 299.809 78.141 299.354 78.5304C299.239 78.6282 299.123 78.724 299.005 78.8176L299.54 78.4024C299.478 78.5486 299.042 78.7427 298.906 78.8255C298.466 79.0903 298.007 79.3223 297.533 79.5195L298.556 79.0889C297.779 79.4012 296.968 79.623 296.14 79.75L297.279 79.5974C296.465 79.7095 295.641 79.7184 294.825 79.6236L295.963 79.7762C295.296 79.6845 294.643 79.509 294.02 79.2539L295.042 79.6845C294.71 79.5399 294.389 79.3693 294.084 79.1741C293.929 79.0734 293.453 78.7136 294.076 79.1881C294.723 79.6813 294.159 79.2305 294.025 79.0994C293.915 78.9902 293.814 78.8715 293.706 78.7605C293.202 78.2453 294.275 79.6471 293.933 79.0444C293.75 78.7424 293.582 78.4313 293.431 78.1122L293.863 79.1327C293.666 78.647 293.527 78.1402 293.447 77.6225L293.6 78.7581C293.518 78.1143 293.518 77.4628 293.598 76.8188L293.445 77.9544C293.55 77.2356 293.741 76.5319 294.013 75.8583L293.582 76.8787C293.772 76.4257 293.997 75.9881 294.254 75.5696C294.373 75.3533 294.512 75.149 294.67 74.9594C294.698 74.9685 293.946 75.821 294.345 75.3905C294.449 75.278 294.547 75.1594 294.653 75.0477C294.822 74.8689 295.003 74.7054 295.181 74.5362C295.777 73.9698 294.347 75.0864 295.035 74.6382C295.533 74.3111 296.058 74.0255 296.604 73.7843L295.581 74.2149C296.495 73.8404 297.454 73.5839 298.433 73.4518L297.295 73.6044C298.521 73.4636 299.76 73.4783 300.983 73.6479L299.845 73.4954C301.393 73.7296 302.906 74.1543 304.35 74.7598L303.327 74.3291C306.404 75.647 309.128 77.6037 311.849 79.5224C314.476 81.4206 317.244 83.1165 320.129 84.5953C326.336 87.6743 333.017 89.6909 339.893 90.5608C349.755 91.7661 359.762 90.4811 368.997 86.8237C378.231 83.1663 386.398 77.2536 392.746 69.6281C393.521 68.8084 393.967 67.7336 394 66.6075C393.992 65.4762 393.542 64.3926 392.746 63.5869C391.175 62.1483 388.208 61.7421 386.691 63.5869C385.254 65.3381 383.708 66.9982 382.064 68.5575C381.296 69.2842 380.508 69.9886 379.699 70.6705C379.237 71.06 378.769 71.4419 378.294 71.816C378.07 71.993 377.37 72.4642 378.444 71.7036C378.198 71.8779 377.962 72.0683 377.719 72.2474C374.124 74.8917 370.228 77.1027 366.112 78.8343L367.135 78.4036C362.719 80.252 358.081 81.5199 353.337 82.1756L354.475 82.023C349.595 82.6635 344.652 82.6562 339.774 82.0013L340.912 82.1539C336.035 81.4856 331.265 80.1894 326.722 78.2978L327.745 78.7284C323.361 76.793 319.2 74.3884 315.337 71.5569C313.326 70.0713 311.205 68.7396 308.993 67.5733C306.415 66.2599 303.625 65.4136 300.751 65.0737C295.363 64.4411 289.872 66.535 286.91 71.1797C284.184 75.4542 284.219 81.5707 288.037 85.2054C291.969 88.9489 297.923 88.9172 302.557 86.5756C307.019 84.3204 309.7 79.6352 311.585 75.2174C315.827 65.2755 319.582 55.1039 323.081 44.8805C326.543 34.7661 329.683 24.5493 332.5 14.2302C332.848 12.9521 333.192 11.6728 333.531 10.392C334.102 8.23412 332.811 5.65324 330.541 5.13727C329.447 4.85622 328.286 5.01027 327.303 5.56692C326.32 6.12356 325.593 7.0392 325.274 8.12077Z" fill="#E00051"/>
<path d="M368.097 6.26971L366.495 60.8042L364.901 115.055L364 145.73C364.01 146.86 364.482 147.94 365.315 148.739C366.147 149.537 367.274 149.99 368.451 150C369.625 149.978 370.744 149.521 371.574 148.725C372.404 147.929 372.88 146.856 372.903 145.73L374.505 91.1958L376.099 36.9453L377 6.26971C376.99 5.14029 376.518 4.05984 375.685 3.26119C374.853 2.46254 373.726 2.00961 372.549 2C371.375 2.02175 370.256 2.47858 369.426 3.27464C368.596 4.0707 368.12 5.14412 368.097 6.26971Z" fill="#E00051"/>
<path d="M254.382 48.1455C249.493 38.6014 241.918 30.5711 233.01 24.6699C224.073 18.7768 213.818 15.188 203.159 14.2233C201.761 14.0963 200.361 14.0218 198.957 14.0001C197.298 13.9752 172.341 21.1795 163.98 27.0624C155.625 32.8735 148.751 40.5691 143.914 49.5282C139.086 58.5364 136.711 68.6575 137.028 78.875C137.442 89.1539 140.305 99.185 145.378 108.132C150.382 117.05 157.487 124.61 166.075 130.154C174.786 135.716 183.536 150.465 193.82 150.986C204.182 151.51 216 137.598 225.45 133.373C234.901 129.114 243.071 122.45 249.147 114.046C255.051 105.81 258.87 96.2637 260.277 86.2259C261.739 75.948 261.058 65.3482 257.551 55.5248C256.651 53.0006 255.592 50.5359 254.382 48.1455C253.371 46.1532 250.408 45.4197 248.554 46.6162C247.599 47.205 246.907 48.1397 246.622 49.2259C246.337 50.3121 246.482 51.4663 247.026 52.4485C247.619 53.6185 248.171 54.8078 248.682 56.0165L248.252 54.9982C250.183 59.6446 251.496 64.5247 252.157 69.5132L252.005 68.38C252.709 73.7921 252.696 79.2734 251.968 84.6822L252.12 83.549C251.384 88.9573 249.941 94.2455 247.829 99.2781L248.259 98.2598C247.173 100.828 245.906 103.315 244.47 105.704C243.742 106.912 242.969 108.09 242.153 109.241C241.794 109.745 241.424 110.242 241.051 110.736C240.565 111.382 241.714 109.893 241.212 110.526C241.126 110.634 241.041 110.742 240.955 110.85C240.697 111.172 240.436 111.492 240.17 111.809C238.4 113.923 236.467 115.896 234.391 117.711C233.874 118.162 233.348 118.604 232.813 119.036C232.547 119.251 232.284 119.475 232.007 119.675C232.017 119.667 232.904 118.993 232.379 119.384C232.214 119.507 232.05 119.632 231.885 119.755C230.783 120.572 229.652 121.347 228.492 122.081C225.821 123.765 223.019 125.231 220.112 126.465L221.13 126.035C216.116 128.147 210.847 129.59 205.457 130.327L206.589 130.175C201.202 130.903 195.743 130.913 190.353 130.203L191.486 130.356C186.587 129.697 181.796 128.401 177.234 126.5L178.251 126.929C175.608 125.813 173.06 124.484 170.632 122.956C169.43 122.198 168.259 121.393 167.12 120.542C166.958 120.42 166.796 120.297 166.635 120.175C166.115 119.782 167.008 120.465 167.015 120.469C166.713 120.252 166.422 120.02 166.143 119.773C165.593 119.325 165.051 118.866 164.518 118.397C162.385 116.517 160.394 114.482 158.559 112.31C158.1 111.766 157.65 111.215 157.211 110.655C157.021 110.413 156.673 109.922 157.44 110.956C157.34 110.82 157.235 110.687 157.133 110.551C156.888 110.226 156.647 109.899 156.408 109.569C155.574 108.414 154.782 107.231 154.03 106.019C152.332 103.276 150.85 100.405 149.597 97.4322L150.027 98.4505C147.977 93.5702 146.576 88.442 145.858 83.1972L146.01 84.3304C145.363 79.4958 145.353 74.5969 145.983 69.7598L145.83 70.893C146.476 66.2088 147.735 61.6302 149.576 57.2754L149.146 58.2937C150.304 55.5675 151.67 52.9346 153.232 50.4183C154.014 49.159 154.843 47.9305 155.719 46.7326C155.917 46.4604 156.119 46.1899 156.322 45.921C156.506 45.6778 157.012 45.0723 156.149 46.1418C156.233 46.0369 156.315 45.9291 156.398 45.8233C156.879 45.2142 157.371 44.6145 157.874 44.0244C159.781 41.7903 161.847 39.6969 164.055 37.7606C164.613 37.2711 165.18 36.792 165.756 36.3231C166.018 36.1101 166.281 35.8993 166.546 35.6906C166.652 35.6072 166.759 35.5254 166.865 35.4413C165.73 36.3448 166.55 35.6872 166.807 35.4941C167.994 34.6043 169.212 33.7591 170.462 32.9584C173.24 31.1801 176.164 29.6385 179.2 28.3502L178.183 28.7799C182.59 26.928 202.115 22.5567 205.666 23.0339L204.534 22.8816C209.754 23.6109 214.855 25.0215 219.709 27.0775L218.691 26.6478C221.151 27.6929 223.541 28.8945 225.847 30.2451C226.999 30.9211 228.129 31.6339 229.236 32.3836C229.76 32.7385 230.278 33.1013 230.791 33.472C231.047 33.6574 231.302 33.8447 231.555 34.034C231.696 34.1392 231.836 34.2458 231.976 34.3512C232.567 34.794 231.164 33.71 231.782 34.1997C233.853 35.8278 235.819 37.5843 237.67 39.4589C238.579 40.3853 239.457 41.3412 240.304 42.3264C240.738 42.832 241.163 43.3449 241.579 43.8653C241.786 44.1239 242.491 45.0594 241.627 43.9134C241.838 44.1935 242.052 44.4717 242.26 44.7539C244.055 47.185 245.649 49.7584 247.026 52.4485C248.044 54.4365 250.994 55.1777 252.854 53.9778C253.809 53.3893 254.501 52.4546 254.786 51.3683C255.071 50.2819 254.926 49.1276 254.382 48.1455Z" fill="#E00051"/>
<path d="M88 150C91.3137 150 94 147.314 94 144C94 140.686 91.3137 138 88 138C84.6863 138 82 140.686 82 144C82 147.314 84.6863 150 88 150Z" fill="#E00051"/>
<path d="M373 150C376.314 150 379 147.314 379 144C379 140.686 376.314 138 373 138C369.686 138 367 140.686 367 144C367 147.314 369.686 150 373 150Z" fill="#E00051"/>
<path d="M370.5 13C374.09 13 377 10.0899 377 6.5C377 2.91015 374.09 0 370.5 0C366.91 0 364 2.91015 364 6.5C364 10.0899 366.91 13 370.5 13Z" fill="#E00051"/>
<path d="M109 64.5153C108.996 66.1834 108.401 67.7861 107.337 68.9918C106.273 70.1975 104.822 70.9139 103.284 70.9927C101.746 71.0716 100.238 70.5068 99.074 69.4153C97.9096 68.3239 97.1772 66.7892 97.0282 65.129C96.8792 63.4687 97.3251 61.81 98.2736 60.496C99.2221 59.182 100.601 58.3133 102.124 58.0697C103.647 57.8261 105.199 58.2263 106.457 59.1873C107.715 60.1484 108.585 61.5969 108.885 63.233C108.962 63.6552 109.001 64.0848 109 64.5153Z" fill="#E00051"/>
<path d="M234.5 31C238.09 31 241 28.0899 241 24.5C241 20.9101 238.09 18 234.5 18C230.91 18 228 20.9101 228 24.5C228 28.0899 230.91 31 234.5 31Z" fill="#E00051"/>
<path d="M172 24.5153C171.996 26.1834 171.401 27.7861 170.337 28.9918C169.273 30.1975 167.822 30.9139 166.284 30.9927C164.746 31.0716 163.238 30.5068 162.074 29.4153C160.91 28.3239 160.177 26.7892 160.028 25.129C159.879 23.4687 160.325 21.81 161.274 20.496C162.222 19.182 163.601 18.3133 165.124 18.0697C166.647 17.8261 168.199 18.2263 169.457 19.1874C170.716 20.1484 171.585 21.5969 171.885 23.233C171.962 23.6552 172.001 24.0848 172 24.5153Z" fill="#E00051"/>
<path d="M91 6.51528C90.9964 8.18335 90.4009 9.78607 89.3369 10.9918C88.2728 12.1975 86.8216 12.9139 85.2836 12.9927C83.7456 13.0716 82.2384 12.5068 81.074 11.4153C79.9096 10.3239 79.1772 8.78924 79.0282 7.129C78.8792 5.46875 79.3251 3.80998 80.2736 2.49597C81.2221 1.18196 82.6006 0.313283 84.1238 0.0696984C85.6471 -0.173886 87.1985 0.226271 88.457 1.18736C89.7155 2.14845 90.5848 3.5969 90.8849 5.23297C90.9622 5.65525 91.0008 6.08478 91 6.51528Z" fill="#E00051"/>
<path d="M201 27C205.971 27 210 22.9706 210 18C210 13.0294 205.971 9 201 9C196.029 9 192 13.0294 192 18C192 22.9706 196.029 27 201 27Z" fill="#E00051"/>
</svg>
