<svg width="402" height="441" viewBox="0 0 402 441" fill="none" xmlns="http://www.w3.org/2000/svg">
<g clip-path="url(#clip0_920_33467)">
<path d="M279.146 89.4692C251.279 85.0257 219.545 82.6546 186.496 82.6546C156.251 82.6546 127.111 84.6375 101.031 88.3762C101.037 87.976 101.043 87.5759 101.061 87.1757C101.752 63.9488 111.509 41.9133 128.246 25.7792C144.983 9.64507 167.373 0.692223 190.629 0.834182C213.885 0.976141 236.163 10.2017 252.702 26.5389C269.24 42.8761 278.727 65.029 279.134 88.2627C279.14 88.6689 279.146 89.069 279.146 89.4692Z" fill="#E51740"/>
<g opacity="0.1">
<path d="M201.769 0.801097C189.4 -0.86823 176.817 0.0778959 164.838 3.57815C152.858 7.07841 141.748 13.0547 132.228 21.1196C122.708 29.1846 114.99 39.1583 109.574 50.3943C104.159 61.6303 101.166 73.8779 100.791 86.3433C100.773 86.7434 100.768 87.1436 100.762 87.5437C108.51 86.433 116.533 85.4812 124.77 84.6864C125.777 63.9196 134.03 44.1605 148.094 28.8378C162.159 13.5151 181.149 3.59578 201.769 0.801097Z" fill="white"/>
</g>
<path d="M318.106 96.5289C305.279 93.0543 292.267 90.2948 279.133 88.263C257.606 84.9299 235.904 82.846 214.135 82.0218C205.067 81.6516 195.832 81.4604 186.495 81.4604C179.095 81.4604 171.755 81.5799 164.516 81.8188C143.282 82.4456 122.098 84.2341 101.06 87.1761C85.4864 89.3187 70.0638 92.4426 54.8845 96.5289C19.4922 106.306 0 119.409 0 133.421C0 147.432 19.4923 160.535 54.8845 170.312C79.7746 177.192 110.463 181.881 143.9 184.031C157.702 184.927 171.97 185.381 186.495 185.381C201.068 185.381 215.384 184.921 229.228 184.025C259.659 182.06 287.813 177.993 311.375 172.08C311.501 172.044 311.621 172.014 311.746 171.984C313.336 171.59 314.902 171.178 316.45 170.766C317.006 170.611 317.556 170.461 318.106 170.312C318.137 170.3 318.169 170.29 318.202 170.282C318.728 170.139 319.248 169.99 319.768 169.846C320.808 169.548 321.836 169.255 322.846 168.95C322.894 168.939 322.936 168.927 322.978 168.915C323.856 168.652 324.717 168.389 325.572 168.126C326.271 167.905 326.965 167.69 327.652 167.469C328.154 167.308 328.65 167.147 329.14 166.986C329.499 166.866 329.852 166.753 330.198 166.633C330.671 166.478 331.143 166.317 331.609 166.155C331.806 166.09 332.004 166.024 332.195 165.952C332.643 165.803 333.079 165.648 333.516 165.492C333.988 165.325 334.46 165.152 334.926 164.985C335.315 164.847 335.704 164.704 336.086 164.561C336.409 164.435 336.726 164.316 337.049 164.196C337.927 163.868 338.788 163.527 339.637 163.193C340.061 163.02 340.486 162.853 340.904 162.679C341.316 162.512 341.735 162.339 342.141 162.166C342.811 161.885 343.468 161.604 344.114 161.324C344.425 161.18 344.742 161.043 345.046 160.912C345.28 160.804 345.507 160.703 345.74 160.595C345.907 160.523 346.075 160.446 346.236 160.368C346.84 160.093 347.437 159.813 348.023 159.532C350.271 158.457 352.369 157.358 354.317 156.235C366.541 149.242 372.991 141.483 372.991 133.421C372.991 119.409 353.498 106.306 318.106 96.5289ZM317.783 169.165C292.864 176.052 262.092 180.74 228.564 182.872C214.93 183.738 200.835 184.186 186.495 184.186C172.203 184.186 158.156 183.744 144.564 182.878C110.983 180.752 80.163 176.064 55.2073 169.165C20.3769 159.538 1.19548 146.847 1.19548 133.421C1.19743 132.234 1.34604 131.053 1.63795 129.903C4.6862 117.791 23.4374 106.455 55.2073 97.6756C70.2719 93.6211 85.5763 90.5153 101.03 88.3765C122.195 85.4179 143.507 83.6234 164.869 83.0013C171.994 82.7684 179.203 82.6529 186.495 82.6549C195.707 82.6549 204.816 82.8401 213.77 83.1984C235.666 84.0152 257.494 86.1092 279.145 89.4695C292.166 91.4922 305.065 94.2317 317.783 97.6756C349.547 106.455 368.293 117.785 371.347 129.891C371.644 131.044 371.794 132.23 371.795 133.421C371.795 146.847 352.614 159.538 317.783 169.165Z" fill="#1F1F1F"/>
<path d="M372.651 133.964C372.651 141.943 366.069 149.492 354.318 156.235C352.363 157.358 350.259 158.457 348.024 159.532C347.438 159.812 346.84 160.093 346.237 160.368C346.075 160.445 345.908 160.523 345.74 160.595C345.507 160.702 345.28 160.804 345.047 160.911C344.742 161.043 344.425 161.18 344.114 161.323C343.469 161.604 342.811 161.885 342.142 162.165C341.735 162.339 341.317 162.512 340.904 162.679C340.486 162.852 340.062 163.019 339.637 163.193C338.789 163.527 337.928 163.868 337.049 164.196C336.726 164.315 336.409 164.435 336.087 164.56C335.704 164.704 335.316 164.847 334.927 164.984C334.461 165.152 333.989 165.325 333.516 165.492C333.08 165.647 332.644 165.803 332.195 165.952C332.004 166.024 331.807 166.089 331.61 166.155C331.144 166.316 330.671 166.478 330.199 166.633C329.852 166.752 329.5 166.866 329.141 166.985C328.651 167.146 328.155 167.308 327.653 167.469C326.965 167.69 326.272 167.905 325.572 168.126C324.718 168.389 323.857 168.651 322.978 168.914C322.936 168.926 322.895 168.938 322.847 168.95C321.837 169.255 320.809 169.547 319.768 169.846C319.248 169.989 318.728 170.139 318.202 170.282C318.17 170.289 318.138 170.299 318.107 170.312C317.557 170.461 317.007 170.61 316.451 170.766C314.909 171.172 313.337 171.584 311.747 171.984C311.621 172.014 311.502 172.044 311.376 172.08C288.453 177.801 260.329 181.97 229.205 183.983C215.57 184.861 201.356 185.326 186.753 185.326C172.019 185.326 157.685 184.855 143.943 183.959C61.9086 178.613 0.855469 158.259 0.855469 133.964C0.861928 132.485 1.08746 131.016 1.52472 129.604C1.56062 129.705 1.59651 129.801 1.63855 129.902C10.168 152.287 70.7016 170.378 149.245 174.791C161.277 175.472 173.74 175.824 186.496 175.824C199.306 175.824 211.816 175.466 223.897 174.785C302.374 170.354 362.848 152.257 371.348 129.89C371.491 129.532 371.617 129.174 371.724 128.815C372.33 130.465 372.644 132.207 372.651 133.964Z" fill="#1F1F1F"/>
<path d="M54.7943 127.535C44.8463 127.535 34.2734 125.396 34.2734 121.433C34.2734 117.47 44.8463 115.331 54.7943 115.331C64.7423 115.331 75.3152 117.47 75.3152 121.433C75.3152 125.396 64.7423 127.535 54.7943 127.535ZM54.7943 116.526C43.4055 116.526 35.4689 119.112 35.4689 121.433C35.4689 123.754 43.4056 126.34 54.7943 126.34C66.1831 126.34 74.1197 123.754 74.1197 121.433C74.1197 119.112 66.1831 116.526 54.7943 116.526Z" fill="#1F1F1F"/>
<path d="M97.2356 155.606C87.2877 155.606 76.7148 153.467 76.7148 149.504C76.7148 145.54 87.2877 143.402 97.2356 143.402C107.184 143.402 117.757 145.54 117.757 149.504C117.757 153.467 107.184 155.606 97.2356 155.606ZM97.2356 144.596C85.847 144.596 77.9103 147.183 77.9103 149.504C77.9103 151.825 85.847 154.411 97.2356 154.411C108.624 154.411 116.561 151.825 116.561 149.504C116.561 147.183 108.624 144.596 97.2356 144.596Z" fill="#1F1F1F"/>
<path d="M317.802 127.535C307.854 127.535 297.281 125.396 297.281 121.433C297.281 117.47 307.854 115.331 317.802 115.331C327.75 115.331 338.323 117.47 338.323 121.433C338.323 125.396 327.75 127.535 317.802 127.535ZM317.802 116.526C306.413 116.526 298.477 119.112 298.477 121.433C298.477 123.754 306.413 126.34 317.802 126.34C329.191 126.34 337.128 123.754 337.128 121.433C337.128 119.112 329.191 116.526 317.802 116.526Z" fill="#1F1F1F"/>
<path d="M275.361 155.606C265.413 155.606 254.84 153.467 254.84 149.504C254.84 145.54 265.413 143.402 275.361 143.402C285.309 143.402 295.882 145.54 295.882 149.504C295.882 153.467 285.309 155.606 275.361 155.606ZM275.361 144.596C263.972 144.596 256.035 147.183 256.035 149.504C256.035 151.825 263.972 154.411 275.361 154.411C286.749 154.411 294.686 151.825 294.686 149.504C294.686 147.183 286.749 144.596 275.361 144.596Z" fill="#1F1F1F"/>
<path d="M186.298 168.745C176.35 168.745 165.777 166.606 165.777 162.643C165.777 158.679 176.35 156.541 186.298 156.541C196.246 156.541 206.819 158.679 206.819 162.643C206.819 166.606 196.246 168.745 186.298 168.745ZM186.298 157.735C174.909 157.735 166.973 160.322 166.973 162.643C166.973 164.964 174.909 167.55 186.298 167.55C197.687 167.55 205.624 164.964 205.624 162.643C205.624 160.322 197.687 157.735 186.298 157.735Z" fill="#1F1F1F"/>
<path d="M201.425 294.271C215.294 294.271 226.538 283.037 226.538 269.179C226.538 255.322 215.294 244.088 201.425 244.088C187.556 244.088 176.312 255.322 176.312 269.179C176.312 283.037 187.556 294.271 201.425 294.271Z" fill="#1F1F1F"/>
<path d="M191.874 285.665L179.652 291.78L183.068 298.596L195.29 292.481L191.874 285.665Z" fill="#1F1F1F"/>
<path d="M184.682 297.905C185.406 296.806 183.618 294.35 180.686 292.419C177.755 290.488 174.791 289.813 174.066 290.911C173.341 292.01 175.13 294.465 178.062 296.397C180.993 298.328 183.957 299.003 184.682 297.905Z" fill="#1F1F1F"/>
<path d="M210.975 285.665L207.559 292.481L219.781 298.596L223.197 291.781L210.975 285.665Z" fill="#1F1F1F"/>
<path d="M224.788 296.396C227.719 294.465 229.508 292.009 228.783 290.911C228.058 289.812 225.095 290.488 222.163 292.419C219.232 294.35 217.443 296.806 218.168 297.904C218.893 299.003 221.857 298.327 224.788 296.396Z" fill="#1F1F1F"/>
<path d="M199.669 271.617C204.409 271.617 208.251 267.778 208.251 263.042C208.251 258.306 204.409 254.466 199.669 254.466C194.929 254.466 191.086 258.306 191.086 263.042C191.086 267.778 194.929 271.617 199.669 271.617Z" fill="white"/>
<path d="M201.756 261.398C202.868 260.286 202.862 258.477 201.741 257.358C200.621 256.238 198.811 256.232 197.698 257.344C196.586 258.455 196.592 260.264 197.712 261.384C198.833 262.503 200.643 262.509 201.756 261.398Z" fill="#1F1F1F"/>
<path d="M221.234 241.883C221.612 232.593 213.599 224.725 203.337 224.309C193.076 223.892 184.451 231.085 184.073 240.374C183.695 249.664 190.829 251.774 201.09 252.191C211.352 252.607 220.857 251.172 221.234 241.883Z" fill="#E51740"/>
<path d="M235.712 282.318C237.364 280.901 235.041 275.491 230.524 270.234C226.007 264.976 221.006 261.863 219.354 263.28C217.702 264.697 220.025 270.107 224.542 275.364C229.059 280.622 234.06 283.735 235.712 282.318Z" fill="#1F1F1F"/>
<path d="M178.379 275.365C182.896 270.107 185.219 264.697 183.567 263.28C181.915 261.863 176.915 264.976 172.398 270.234C167.881 275.491 165.558 280.902 167.21 282.318C168.861 283.735 173.862 280.622 178.379 275.365Z" fill="#1F1F1F"/>
<path d="M208.323 279.068C208.595 280.56 208.263 282.098 207.399 283.345C206.536 284.592 205.212 285.445 203.719 285.716C202.226 285.988 200.686 285.656 199.438 284.793C198.19 283.93 197.336 282.607 197.065 281.116L197.063 281.105C196.5 277.998 198.904 276.898 202.013 276.336C205.123 275.773 207.76 275.961 208.323 279.068Z" fill="white"/>
<path d="M159 295.87C158.683 295.87 158.379 295.745 158.155 295.521C157.931 295.297 157.805 294.993 157.805 294.676V224.201C157.805 223.885 157.931 223.581 158.155 223.357C158.379 223.133 158.683 223.007 159 223.007C159.317 223.007 159.621 223.133 159.845 223.357C160.07 223.581 160.196 223.885 160.196 224.201V294.676C160.196 294.993 160.07 295.297 159.845 295.521C159.621 295.745 159.317 295.87 159 295.87Z" fill="#D9D9D9"/>
<path d="M141.067 359.178C140.75 359.178 140.445 359.052 140.221 358.828C139.997 358.604 139.871 358.3 139.871 357.984V306.621C139.871 306.304 139.997 306 140.221 305.776C140.445 305.552 140.75 305.426 141.067 305.426C141.384 305.426 141.688 305.552 141.912 305.776C142.136 306 142.262 306.304 142.262 306.621V357.984C142.262 358.3 142.136 358.604 141.912 358.828C141.688 359.052 141.384 359.178 141.067 359.178Z" fill="#D9D9D9"/>
<path d="M187.094 316.774C186.777 316.774 186.473 316.648 186.249 316.424C186.024 316.2 185.898 315.896 185.898 315.579V245.105C185.898 244.788 186.024 244.484 186.249 244.26C186.473 244.036 186.777 243.91 187.094 243.91C187.411 243.91 187.715 244.036 187.939 244.26C188.163 244.484 188.289 244.788 188.289 245.105V315.579C188.289 315.896 188.163 316.2 187.939 316.424C187.715 316.648 187.411 316.774 187.094 316.774Z" fill="#D9D9D9"/>
<path d="M169.758 367.539C169.441 367.539 169.137 367.413 168.913 367.189C168.688 366.965 168.563 366.661 168.562 366.345V337.677C168.562 337.36 168.688 337.056 168.913 336.832C169.137 336.608 169.441 336.482 169.758 336.482C170.075 336.482 170.379 336.608 170.603 336.832C170.827 337.056 170.953 337.36 170.953 337.677V366.345C170.953 366.661 170.827 366.965 170.603 367.189C170.379 367.413 170.075 367.539 169.758 367.539Z" fill="#D9D9D9"/>
<path d="M194.266 220.618C193.949 220.618 193.645 220.492 193.42 220.268C193.196 220.044 193.07 219.74 193.07 219.423V190.756C193.07 190.439 193.196 190.135 193.42 189.911C193.645 189.687 193.949 189.561 194.266 189.561C194.583 189.561 194.887 189.687 195.111 189.911C195.335 190.135 195.461 190.439 195.461 190.756V219.423C195.461 219.74 195.335 220.044 195.111 220.268C194.887 220.492 194.583 220.618 194.266 220.618Z" fill="#D9D9D9"/>
<path d="M134.492 233.16C134.175 233.16 133.871 233.034 133.647 232.81C133.423 232.586 133.297 232.282 133.297 231.965V203.298C133.297 202.981 133.423 202.677 133.647 202.453C133.871 202.229 134.175 202.103 134.492 202.103C134.809 202.103 135.113 202.229 135.338 202.453C135.562 202.677 135.688 202.981 135.688 203.298V231.965C135.688 232.282 135.562 232.586 135.338 232.81C135.113 233.034 134.809 233.16 134.492 233.16Z" fill="#D9D9D9"/>
<path d="M238.5 236.146C238.183 236.146 237.879 236.02 237.655 235.796C237.431 235.572 237.305 235.268 237.305 234.951V206.284C237.305 205.967 237.431 205.663 237.655 205.439C237.879 205.215 238.183 205.089 238.5 205.089C238.817 205.089 239.121 205.215 239.345 205.439C239.57 205.663 239.696 205.967 239.696 206.284V234.951C239.696 235.268 239.57 235.572 239.345 235.796C239.121 236.02 238.817 236.146 238.5 236.146Z" fill="#D9D9D9"/>
<path d="M236.11 325.732C235.792 325.732 235.488 325.606 235.264 325.382C235.04 325.158 234.914 324.854 234.914 324.538V289.898C234.914 289.581 235.04 289.277 235.264 289.053C235.488 288.829 235.792 288.703 236.11 288.703C236.427 288.703 236.731 288.829 236.955 289.053C237.179 289.277 237.305 289.581 237.305 289.898V324.538C237.305 324.854 237.179 325.158 236.955 325.382C236.731 325.606 236.427 325.732 236.11 325.732Z" fill="#D9D9D9"/>
<path d="M212.199 356.192C211.882 356.192 211.578 356.066 211.354 355.842C211.13 355.618 211.004 355.314 211.004 354.997V303.634C211.004 303.318 211.13 303.014 211.354 302.79C211.578 302.566 211.882 302.44 212.199 302.44C212.516 302.44 212.821 302.566 213.045 302.79C213.269 303.014 213.395 303.318 213.395 303.634V354.997C213.395 355.314 213.269 355.618 213.045 355.842C212.821 356.066 212.516 356.192 212.199 356.192Z" fill="#D9D9D9"/>
<path d="M216.981 268.397C216.664 268.397 216.36 268.271 216.135 268.047C215.911 267.823 215.785 267.52 215.785 267.203V196.728C215.785 196.411 215.911 196.108 216.135 195.884C216.359 195.66 216.664 195.534 216.981 195.534C217.298 195.534 217.602 195.66 217.826 195.884C218.05 196.108 218.176 196.411 218.176 196.728V267.203C218.176 267.52 218.05 267.823 217.826 268.047C217.602 268.271 217.298 268.397 216.981 268.397Z" fill="#D9D9D9"/>
<path d="M363.542 418.363C365.253 416.931 362.941 411.356 358.377 405.91C353.814 400.464 348.727 397.21 347.016 398.641C345.305 400.072 347.617 405.648 352.181 411.094C356.745 416.54 361.831 419.794 363.542 418.363Z" fill="#1F1F1F"/>
<path d="M352.321 412.17C356.817 398.693 349.527 384.126 336.039 379.634C322.551 375.142 307.973 382.425 303.477 395.902C298.981 409.379 306.27 423.945 319.758 428.438C333.246 432.93 347.825 425.646 352.321 412.17Z" fill="#1F1F1F"/>
<path d="M338.793 424.222H330.973V438.223H338.793V424.222Z" fill="#1F1F1F"/>
<path d="M323.153 424.222H315.332V438.223H323.153V424.222Z" fill="#1F1F1F"/>
<path d="M332.279 440.827C335.878 440.827 338.796 439.734 338.796 438.385C338.796 437.037 335.878 435.943 332.279 435.943C328.68 435.943 325.762 437.037 325.762 438.385C325.762 439.734 328.68 440.827 332.279 440.827Z" fill="#1F1F1F"/>
<path d="M316.634 440.502C320.234 440.502 323.152 439.409 323.152 438.06C323.152 436.711 320.234 435.618 316.634 435.618C313.035 435.618 310.117 436.711 310.117 438.06C310.117 439.409 313.035 440.502 316.634 440.502Z" fill="#1F1F1F"/>
<path d="M319.817 371.703C322.116 362.453 332.263 357.01 342.48 359.545C352.698 362.08 359.118 371.634 356.819 380.883C354.521 390.133 346.895 390.163 336.677 387.627C326.459 385.092 317.519 380.952 319.817 371.703Z" fill="#E00051"/>
<path d="M310.534 397.612C311.491 395.597 307.059 391.497 300.636 388.453C294.213 385.409 288.231 384.575 287.275 386.589C286.318 388.604 290.75 392.705 297.173 395.749C303.596 398.792 309.578 399.627 310.534 397.612Z" fill="#1F1F1F"/>
<path d="M324.052 407.184C328.792 407.184 332.634 403.344 332.634 398.608C332.634 393.872 328.792 390.033 324.052 390.033C319.311 390.033 315.469 393.872 315.469 398.608C315.469 403.344 319.311 407.184 324.052 407.184Z" fill="white"/>
<path d="M320.521 398.393C322.101 398.393 323.382 397.113 323.382 395.534C323.382 393.956 322.101 392.676 320.521 392.676C318.941 392.676 317.66 393.956 317.66 395.534C317.66 397.113 318.941 398.393 320.521 398.393Z" fill="#1F1F1F"/>
<path d="M323.977 420.097C325.958 420.097 327.564 418.492 327.564 416.513C327.564 414.534 325.958 412.93 323.977 412.93C321.996 412.93 320.391 414.534 320.391 416.513C320.391 418.492 321.996 420.097 323.977 420.097Z" fill="white"/>
<path d="M401.403 441H260.336C260.177 441 260.025 440.937 259.913 440.825C259.801 440.713 259.738 440.561 259.738 440.403C259.738 440.245 259.801 440.093 259.913 439.981C260.025 439.869 260.177 439.806 260.336 439.806H401.403C401.562 439.806 401.714 439.869 401.826 439.981C401.938 440.093 402.001 440.245 402.001 440.403C402.001 440.561 401.938 440.713 401.826 440.825C401.714 440.937 401.562 441 401.403 441Z" fill="#F0F0F0"/>
</g>
<defs>
<clipPath id="clip0_920_33467">
<rect width="402" height="441" fill="white"/>
</clipPath>
</defs>
</svg>
