<svg width="56" height="56" viewBox="0 0 56 56" fill="none" xmlns="http://www.w3.org/2000/svg">
<rect x="4" y="4" width="48" height="48" rx="24" fill="#FFD4DC"/>
<rect x="4" y="4" width="48" height="48" rx="24" stroke="#FEE5EA" stroke-width="8"/>
<path d="M21.2685 25.7501C21.2673 24.861 21.442 23.9804 21.7825 23.159C22.123 22.3377 22.6227 21.5918 23.2527 20.9644C23.8828 20.337 24.6307 19.8404 25.4535 19.5033C26.2762 19.1662 27.1575 18.9952 28.0467 19.0001C31.7592 19.0282 34.731 22.1126 34.731 25.8345V26.5001C34.731 29.8564 35.4342 31.8064 36.0529 32.8751C36.1186 32.9889 36.1533 33.118 36.1534 33.2494C36.1535 33.3809 36.1191 33.51 36.0536 33.624C35.9881 33.7379 35.8938 33.8326 35.7801 33.8986C35.6665 33.9647 35.5375 33.9996 35.406 34.0001H20.5935C20.4621 33.9996 20.3331 33.9647 20.2195 33.8986C20.1058 33.8326 20.0115 33.7379 19.946 33.624C19.8805 33.51 19.8461 33.3809 19.8462 33.2494C19.8463 33.118 19.881 32.9889 19.9467 32.8751C20.5654 31.8064 21.2685 29.8564 21.2685 26.5001V25.7501Z" stroke="#E51740" stroke-width="2" stroke-linecap="round" stroke-linejoin="round"/>
<path d="M25 34V34.75C25 35.5456 25.3161 36.3087 25.8787 36.8713C26.4413 37.4339 27.2044 37.75 28 37.75C28.7956 37.75 29.5587 37.4339 30.1213 36.8713C30.6839 36.3087 31 35.5456 31 34.75V34" stroke="#E51740" stroke-width="2" stroke-linecap="round" stroke-linejoin="round"/>
</svg>
