<svg width="80" height="87" viewBox="0 0 80 87" fill="none" xmlns="http://www.w3.org/2000/svg">
<g clip-path="url(#clip0_524_53462)">
<path d="M50.7462 48.8386L16.1651 57.7437C14.992 58.0443 13.7476 57.8674 12.7049 57.2517C11.6621 56.636 10.9062 55.6319 10.6029 54.4595L0.144657 13.8469C-0.155999 12.6738 0.0209202 11.4294 0.636604 10.3867C1.25229 9.34393 2.25645 8.58798 3.4288 8.28467L35.6009 0L43.8354 3.68633L54.0303 43.2765C54.331 44.4495 54.154 45.6939 53.5384 46.7366C52.9227 47.7794 51.9185 48.5353 50.7462 48.8386Z" fill="#F4F4F5"/>
<path d="M3.75709 9.55816C2.92223 9.77415 2.20714 10.3125 1.7687 11.055C1.33026 11.7976 1.20427 12.6838 1.41838 13.5191L11.8766 54.1318C12.0926 54.9666 12.6309 55.6817 13.3735 56.1202C14.1161 56.5586 15.0022 56.6846 15.8376 56.4705L50.4187 47.5655C51.2535 47.3495 51.9686 46.8112 52.407 46.0686C52.8455 45.326 52.9715 44.4399 52.7574 43.6045L42.7204 4.62782L35.4837 1.38818L3.75709 9.55816Z" fill="white"/>
<path d="M43.7478 3.89564L38.3959 5.27381C38.0052 5.37442 37.5905 5.3157 37.2431 5.11058C36.8957 4.90545 36.644 4.57072 36.5434 4.18001L35.5255 0.227182C35.521 0.209877 35.5215 0.191665 35.5269 0.174637C35.5324 0.157609 35.5425 0.142453 35.5561 0.130907C35.5697 0.119362 35.5864 0.111893 35.6041 0.109359C35.6217 0.106825 35.6398 0.109328 35.6561 0.11658L43.7626 3.71667C43.7807 3.72468 43.7958 3.73811 43.8058 3.7551C43.8159 3.77208 43.8204 3.79177 43.8188 3.81144C43.8172 3.83111 43.8094 3.84979 43.7967 3.86487C43.784 3.87996 43.7669 3.89071 43.7478 3.89564Z" fill="#F4F4F5"/>
<path d="M40.9319 38.5782L25.1876 42.6326C25.0909 42.6575 24.9902 42.6631 24.8913 42.6491C24.7924 42.6351 24.6972 42.6017 24.6112 42.551C24.5252 42.5002 24.45 42.4329 24.39 42.3531C24.33 42.2733 24.2862 42.1824 24.2613 42.0857C24.2364 41.9889 24.2308 41.8883 24.2448 41.7894C24.2588 41.6905 24.2922 41.5953 24.343 41.5093C24.3937 41.4233 24.461 41.3481 24.5408 41.2881C24.6206 41.228 24.7115 41.1843 24.8082 41.1594L40.5525 37.1051C40.6492 37.0802 40.7499 37.0746 40.8488 37.0886C40.9477 37.1026 41.0429 37.1359 41.1289 37.1867C41.2149 37.2375 41.2901 37.3047 41.3501 37.3845C41.4101 37.4644 41.4539 37.5553 41.4788 37.652C41.5037 37.7487 41.5093 37.8494 41.4953 37.9483C41.4813 38.0472 41.4479 38.1424 41.3972 38.2284C41.3464 38.3144 41.2791 38.3895 41.1993 38.4496C41.1195 38.5096 41.0286 38.5533 40.9319 38.5782Z" fill="#B5B7C0"/>
<path d="M44.6109 40.2817L25.8282 45.1184C25.6329 45.1687 25.4255 45.1394 25.2518 45.0368C25.0781 44.9343 24.9523 44.7669 24.902 44.5715C24.8517 44.3762 24.881 44.1688 24.9836 43.9951C25.0861 43.8214 25.2535 43.6956 25.4489 43.6453L44.2315 38.8085C44.4268 38.7584 44.634 38.7879 44.8075 38.8905C44.9811 38.9931 45.1068 39.1604 45.1571 39.3556C45.2074 39.5508 45.1781 39.7581 45.0757 39.9317C44.9732 40.1054 44.8061 40.2312 44.6109 40.2817Z" fill="#B5B7C0"/>
<path d="M18.762 47.5158C20.2468 47.5158 21.4504 46.3122 21.4504 44.8275C21.4504 43.3428 20.2468 42.1392 18.762 42.1392C17.2773 42.1392 16.0737 43.3428 16.0737 44.8275C16.0737 46.3122 17.2773 47.5158 18.762 47.5158Z" fill="#D3D4DB"/>
<path d="M39.2582 31.5426L18.3482 36.9251C17.7439 37.08 17.1029 36.9888 16.5657 36.6715C16.0286 36.3543 15.6392 35.837 15.483 35.233L11.1011 18.2102C10.9462 17.6059 11.0374 16.9648 11.3546 16.4277C11.6719 15.8905 12.1892 15.5011 12.7931 15.3449L33.7031 9.96239C34.3074 9.80756 34.9485 9.89875 35.4856 10.216C36.0228 10.5332 36.4122 11.0505 36.5684 11.6545L40.9503 28.6773C41.1051 29.2817 41.0139 29.9227 40.6967 30.4598C40.3795 30.997 39.8622 31.3864 39.2582 31.5426Z" fill="white"/>
<path d="M39.2582 31.5426L18.3482 36.9251C17.7439 37.08 17.1029 36.9888 16.5657 36.6715C16.0286 36.3543 15.6392 35.837 15.483 35.233L11.1011 18.2102C10.9462 17.6059 11.0374 16.9648 11.3546 16.4277C11.6719 15.8905 12.1892 15.5011 12.7931 15.3449L33.7031 9.96239C34.3074 9.80756 34.9485 9.89875 35.4856 10.216C36.0228 10.5332 36.4122 11.0505 36.5684 11.6545L40.9503 28.6773C41.1051 29.2817 41.0139 29.9227 40.6967 30.4598C40.3795 30.997 39.8622 31.3864 39.2582 31.5426ZM12.8622 15.613C12.3293 15.7508 11.8728 16.0944 11.5929 16.5684C11.313 17.0423 11.2325 17.6079 11.3691 18.1412L15.7511 35.164C15.8889 35.6969 16.2325 36.1534 16.7064 36.4333C17.1804 36.7132 17.746 36.7937 18.2792 36.657L39.1892 31.2745C39.7221 31.1367 40.1786 30.7931 40.4585 30.3191C40.7384 29.8452 40.8189 29.2796 40.6822 28.7464L36.3003 11.7235C36.1625 11.1906 35.8189 10.7341 35.3449 10.4542C34.871 10.1743 34.3053 10.0939 33.7721 10.2305L12.8622 15.613Z" fill="#D3D4DB"/>
<path d="M32.6421 15.6863L22.0891 18.4028C21.9968 18.4285 21.8982 18.4183 21.8132 18.3741C21.7282 18.33 21.6631 18.2552 21.6311 18.1649C21.6163 18.1178 21.6111 18.068 21.6161 18.0188C21.6211 17.9696 21.636 17.9219 21.66 17.8787C21.684 17.8354 21.7165 17.7975 21.7557 17.7673C21.7948 17.737 21.8397 17.7151 21.8876 17.7027L32.6299 14.9375C33.0638 15.1574 32.9498 15.6071 32.6421 15.6863Z" fill="#F4F4F5"/>
<path d="M33.1186 17.5373L22.5656 20.2539C22.4734 20.2796 22.3748 20.2694 22.2898 20.2252C22.2047 20.1811 22.1397 20.1063 22.1077 20.016C22.0928 19.9688 22.0877 19.9191 22.0927 19.8699C22.0976 19.8207 22.1125 19.773 22.1365 19.7298C22.1605 19.6865 22.1931 19.6486 22.2322 19.6184C22.2714 19.5881 22.3162 19.5661 22.3641 19.5538L33.1064 16.7886C33.5404 17.0084 33.4263 17.4581 33.1186 17.5373Z" fill="#F4F4F5"/>
<path d="M20.5558 21.8948L17.3351 22.7238C17.2299 22.7508 17.1184 22.7349 17.0249 22.6797C16.9314 22.6245 16.8636 22.5345 16.8364 22.4293L15.8581 18.6287C15.8311 18.5235 15.847 18.4119 15.9022 18.3184C15.9574 18.2249 16.0475 18.1571 16.1526 18.13L19.3733 17.3009C19.4784 17.274 19.59 17.2899 19.6835 17.3451C19.777 17.4003 19.8448 17.4903 19.872 17.5954L20.8503 21.3961C20.8773 21.5013 20.8614 21.6129 20.8062 21.7064C20.751 21.7999 20.6609 21.8676 20.5558 21.8948Z" fill="#D3D4DB"/>
<path d="M34.0635 21.3352L17.9577 25.4811C17.8654 25.5069 17.7668 25.4966 17.6818 25.4525C17.5968 25.4083 17.5318 25.3336 17.4998 25.2433C17.4849 25.1961 17.4798 25.1464 17.4847 25.0972C17.4897 25.048 17.5046 25.0003 17.5286 24.957C17.5526 24.9138 17.5852 24.8759 17.6243 24.8456C17.6635 24.8154 17.7083 24.7934 17.7562 24.7811L34.0515 20.5864C34.4854 20.8063 34.3712 21.256 34.0635 21.3352Z" fill="#F4F4F5"/>
<path d="M34.5401 23.1868L18.4343 27.3327C18.342 27.3584 18.2434 27.3482 18.1584 27.304C18.0734 27.2599 18.0083 27.1851 17.9764 27.0948C17.9615 27.0477 17.9563 26.9979 17.9613 26.9487C17.9663 26.8995 17.9812 26.8518 18.0052 26.8086C18.0292 26.7653 18.0618 26.7274 18.1009 26.6972C18.14 26.6669 18.1849 26.645 18.2328 26.6326L34.528 22.438C34.962 22.6579 34.8478 23.1076 34.5401 23.1868Z" fill="#F4F4F5"/>
<path d="M35.0166 25.0374L18.9108 29.1833C18.8186 29.209 18.72 29.1988 18.635 29.1546C18.55 29.1105 18.4849 29.0357 18.4529 28.9454C18.438 28.8982 18.4329 28.8485 18.4379 28.7993C18.4428 28.7501 18.4578 28.7024 18.4818 28.6592C18.5058 28.6159 18.5383 28.578 18.5774 28.5478C18.6166 28.5175 18.6615 28.4956 18.7094 28.4832L35.0046 24.2886C35.4385 24.5084 35.3244 24.9582 35.0166 25.0374Z" fill="#F4F4F5"/>
<path d="M35.4932 26.8889L19.3874 31.0348C19.2951 31.0606 19.1965 31.0503 19.1115 31.0062C19.0265 30.962 18.9615 30.8873 18.9295 30.797C18.9146 30.7498 18.9095 30.7001 18.9144 30.6509C18.9194 30.6017 18.9343 30.554 18.9583 30.5107C18.9823 30.4675 19.0149 30.4296 19.054 30.3993C19.0931 30.3691 19.138 30.3471 19.1859 30.3348L35.4812 26.1401C35.9151 26.36 35.8009 26.8097 35.4932 26.8889Z" fill="#F4F4F5"/>
<path d="M35.9693 28.7395L19.8635 32.8854C19.7712 32.9112 19.6726 32.9009 19.5876 32.8568C19.5026 32.8126 19.4375 32.7378 19.4055 32.6476C19.3907 32.6004 19.3855 32.5507 19.3905 32.5015C19.3955 32.4523 19.4104 32.4046 19.4344 32.3613C19.4584 32.3181 19.4909 32.2802 19.5301 32.2499C19.5692 32.2197 19.6141 32.1977 19.662 32.1854L35.9572 27.9907C36.3912 28.2106 36.277 28.6603 35.9693 28.7395Z" fill="#F4F4F5"/>
<path d="M18.9604 45.7697C18.9019 45.7849 18.84 45.7807 18.7841 45.7576L18.7806 45.7562L18.0483 45.4457C18.0143 45.4313 17.9835 45.4103 17.9576 45.384C17.9317 45.3577 17.9112 45.3266 17.8974 45.2924C17.8836 45.2581 17.8766 45.2215 17.877 45.1846C17.8773 45.1477 17.8849 45.1112 17.8993 45.0773C17.9138 45.0433 17.9348 45.0125 17.9611 44.9867C17.9875 44.9608 18.0187 44.9404 18.0529 44.9267C18.0871 44.9129 18.1238 44.906 18.1607 44.9064C18.1976 44.9068 18.234 44.9144 18.268 44.9289L18.7425 45.1308L19.3644 43.6679C19.3788 43.634 19.3998 43.6032 19.4261 43.5774C19.4524 43.5516 19.4835 43.5312 19.5177 43.5174C19.5519 43.5037 19.5884 43.4967 19.6253 43.4971C19.6621 43.4974 19.6986 43.505 19.7325 43.5194L19.7288 43.5291L19.7327 43.5194C19.8012 43.5487 19.8553 43.6038 19.8831 43.6728C19.9109 43.7419 19.9102 43.8191 19.8811 43.8876L19.1495 45.6076C19.1326 45.6473 19.1067 45.6825 19.0739 45.7106C19.0412 45.7386 19.0024 45.7587 18.9606 45.7694L18.9604 45.7697Z" fill="white"/>
<path d="M64.0101 64.3152H28.3009C27.0899 64.3139 25.929 63.8322 25.0727 62.9759C24.2164 62.1197 23.7348 60.9587 23.7334 59.7478V17.8101C23.7348 16.5992 24.2164 15.4382 25.0727 14.582C25.929 13.7257 27.0899 13.244 28.3009 13.2427H61.5225L68.5776 18.866V59.7478C68.5762 60.9587 68.0946 62.1197 67.2383 62.9759C66.382 63.8322 65.2211 64.3139 64.0101 64.3152Z" fill="#D3D4DB"/>
<path d="M28.3009 14.5576C27.4386 14.5586 26.6118 14.9016 26.0021 15.5114C25.3923 16.1211 25.0493 16.9479 25.0483 17.8102V59.7478C25.0493 60.6102 25.3923 61.4369 26.0021 62.0467C26.6118 62.6564 27.4386 62.9994 28.3009 63.0004H64.0102C64.8725 62.9994 65.6993 62.6564 66.309 62.0467C66.9188 61.4369 67.2618 60.6102 67.2628 59.7478V19.4996L61.0626 14.5576H28.3009Z" fill="white"/>
<path d="M57.0649 26.7517H40.807C40.6053 26.7517 40.4118 26.6715 40.2692 26.5289C40.1265 26.3863 40.0464 26.1928 40.0464 25.9911C40.0464 25.7893 40.1265 25.5959 40.2692 25.4532C40.4118 25.3106 40.6053 25.2305 40.807 25.2305H57.0649C57.2666 25.2305 57.4601 25.3106 57.6027 25.4532C57.7454 25.5959 57.8255 25.7893 57.8255 25.9911C57.8255 26.1928 57.7454 26.3863 57.6027 26.5289C57.4601 26.6715 57.2666 26.7517 57.0649 26.7517Z" fill="#E00051"/>
<path d="M60.2024 29.3186H40.8069C40.6054 29.3183 40.4122 29.238 40.2698 29.0954C40.1274 28.9528 40.0474 28.7595 40.0474 28.558C40.0474 28.3564 40.1274 28.1631 40.2698 28.0205C40.4122 27.8779 40.6054 27.7976 40.8069 27.7974H60.2024C60.3023 27.7972 60.4013 27.8168 60.4937 27.855C60.5861 27.8931 60.6701 27.9491 60.7409 28.0198C60.8116 28.0904 60.8677 28.1743 60.906 28.2667C60.9443 28.359 60.964 28.458 60.964 28.558C60.964 28.6579 60.9443 28.7569 60.906 28.8493C60.8677 28.9416 60.8116 29.0255 60.7409 29.0962C60.6701 29.1668 60.5861 29.2228 60.4937 29.261C60.4013 29.2991 60.3023 29.3187 60.2024 29.3186Z" fill="#E00051"/>
<path d="M57.0648 36.7344H40.8074C40.6057 36.7344 40.4123 36.8145 40.2696 36.9571C40.127 37.0998 40.0469 37.2932 40.0469 37.4949C40.0469 37.6966 40.127 37.8901 40.2696 38.0327C40.4123 38.1753 40.6057 38.2555 40.8074 38.2555H57.0648C57.2665 38.2555 57.46 38.1753 57.6026 38.0327C57.7453 37.8901 57.8254 37.6966 57.8254 37.4949C57.8254 37.2932 57.7453 37.0998 57.6026 36.9571C57.46 36.8145 57.2665 36.7344 57.0648 36.7344Z" fill="#B5B7C0"/>
<path d="M60.2025 39.3018H40.8074C40.6057 39.3018 40.4123 39.3819 40.2696 39.5245C40.127 39.6672 40.0469 39.8606 40.0469 40.0623C40.0469 40.264 40.127 40.4575 40.2696 40.6001C40.4123 40.7427 40.6057 40.8229 40.8074 40.8229H60.2025C60.4042 40.8229 60.5977 40.7427 60.7403 40.6001C60.8829 40.4575 60.9631 40.264 60.9631 40.0623C60.9631 39.8606 60.8829 39.6672 60.7403 39.5245C60.5977 39.3819 60.4042 39.3018 60.2025 39.3018Z" fill="#B5B7C0"/>
<path d="M57.0649 49.76H40.807C40.6053 49.76 40.4118 49.6798 40.2692 49.5372C40.1265 49.3946 40.0464 49.2011 40.0464 48.9994C40.0464 48.7977 40.1265 48.6042 40.2692 48.4615C40.4118 48.3189 40.6053 48.2388 40.807 48.2388H57.0649C57.2666 48.2388 57.4601 48.3189 57.6027 48.4615C57.7454 48.6042 57.8255 48.7977 57.8255 48.9994C57.8255 49.2011 57.7454 49.3946 57.6027 49.5372C57.4601 49.6798 57.2666 49.76 57.0649 49.76Z" fill="#B5B7C0"/>
<path d="M60.2024 52.3269H40.8069C40.6054 52.3266 40.4122 52.2463 40.2698 52.1037C40.1274 51.9611 40.0474 51.7678 40.0474 51.5663C40.0474 51.3647 40.1274 51.1714 40.2698 51.0288C40.4122 50.8862 40.6054 50.8059 40.8069 50.8057H60.2024C60.3023 50.8055 60.4013 50.8251 60.4937 50.8633C60.5861 50.9014 60.6701 50.9574 60.7409 51.0281C60.8116 51.0987 60.8677 51.1826 60.906 51.275C60.9443 51.3673 60.964 51.4663 60.964 51.5663C60.964 51.6662 60.9443 51.7652 60.906 51.8576C60.8677 51.9499 60.8116 52.0338 60.7409 52.1045C60.6701 52.1751 60.5861 52.2311 60.4937 52.2693C60.4013 52.3074 60.3023 52.327 60.2024 52.3269Z" fill="#B5B7C0"/>
<path d="M34.0365 29.9631C35.5212 29.9631 36.7248 28.7595 36.7248 27.2747C36.7248 25.79 35.5212 24.5864 34.0365 24.5864C32.5517 24.5864 31.3481 25.79 31.3481 27.2747C31.3481 28.7595 32.5517 29.9631 34.0365 29.9631Z" fill="#E00051"/>
<path d="M33.7704 28.3C33.7099 28.3001 33.651 28.2805 33.6026 28.2442L33.5996 28.242L32.9678 27.7587C32.9385 27.7363 32.9139 27.7083 32.8953 27.6764C32.8768 27.6444 32.8648 27.6091 32.8599 27.5726C32.855 27.536 32.8574 27.4988 32.8669 27.4631C32.8764 27.4274 32.8929 27.394 32.9154 27.3647C32.9378 27.3354 32.9659 27.3108 32.9978 27.2923C33.0298 27.2739 33.0651 27.2619 33.1017 27.2571C33.1383 27.2523 33.1755 27.2548 33.2112 27.2644C33.2468 27.274 33.2802 27.2905 33.3095 27.313L33.7187 27.6268L34.6857 26.3653C34.7082 26.336 34.7361 26.3115 34.768 26.293C34.7999 26.2746 34.8352 26.2626 34.8717 26.2578C34.9082 26.253 34.9454 26.2554 34.981 26.2649C35.0166 26.2744 35.05 26.2909 35.0792 26.3133L35.0733 26.3217L35.0795 26.3134C35.1385 26.3587 35.1771 26.4256 35.1868 26.4994C35.1965 26.5732 35.1766 26.6478 35.1314 26.7069L33.9939 28.1901C33.9676 28.2243 33.9338 28.252 33.8951 28.271C33.8563 28.2899 33.8138 28.2998 33.7706 28.2996L33.7704 28.3Z" fill="white"/>
<path d="M37.0013 38.7783C37.0015 39.1314 36.932 39.481 36.797 39.8073C36.662 40.1335 36.464 40.43 36.2144 40.6797C35.9648 40.9294 35.6685 41.1275 35.3423 41.2627C35.0161 41.3979 34.6665 41.4675 34.3134 41.4676C34.2903 41.468 34.2672 41.4671 34.2442 41.4648C33.7157 41.4512 33.2028 41.2821 32.7699 40.9785C32.3369 40.6749 32.0031 40.2504 31.8102 39.7581C31.6174 39.2658 31.5739 38.7275 31.6855 38.2106C31.797 37.6937 32.0584 37.2212 32.4371 36.8522C32.8159 36.4832 33.295 36.2341 33.8146 36.136C34.3342 36.0379 34.8711 36.0953 35.3583 36.3009C35.8455 36.5064 36.2612 36.8511 36.5534 37.2918C36.8457 37.7325 37.0015 38.2495 37.0013 38.7783Z" fill="#B5B7C0"/>
<path d="M34.0365 52.9714C35.5212 52.9714 36.7248 51.7678 36.7248 50.283C36.7248 48.7983 35.5212 47.5947 34.0365 47.5947C32.5517 47.5947 31.3481 48.7983 31.3481 50.283C31.3481 51.7678 32.5517 52.9714 34.0365 52.9714Z" fill="#B5B7C0"/>
<path d="M68.4403 19.0467H62.9138C62.5103 19.0467 62.1234 18.8864 61.8381 18.6012C61.5528 18.3159 61.3926 17.9289 61.3926 17.5255V13.4437C61.3926 13.4258 61.3976 13.4083 61.4071 13.3932C61.4166 13.3781 61.4302 13.3659 61.4463 13.3581C61.4624 13.3503 61.4803 13.3472 61.4981 13.3492C61.5158 13.3512 61.5327 13.3581 61.5467 13.3692L68.4993 18.8771C68.5148 18.8894 68.5261 18.9061 68.5316 18.9251C68.5371 18.944 68.5366 18.9642 68.5301 18.9829C68.5236 19.0015 68.5115 19.0177 68.4954 19.0291C68.4793 19.0406 68.46 19.0467 68.4403 19.0467Z" fill="#B5B7C0"/>
<path d="M37.0012 38.7784C37.0014 39.1315 36.932 39.4812 36.7969 39.8074C36.6619 40.1337 36.464 40.4301 36.2144 40.6799C35.9648 40.9296 35.6684 41.1277 35.3422 41.2629C35.0161 41.3981 34.6665 41.4677 34.3134 41.4677C34.2903 41.4682 34.2672 41.4672 34.2442 41.4649C33.8969 40.5987 33.763 39.6616 33.8538 38.7328C33.9446 37.8039 34.2575 36.9105 34.766 36.1279C35.3913 36.2351 35.9586 36.5599 36.3677 37.045C36.7767 37.53 37.0011 38.144 37.0012 38.7784Z" fill="#E00051"/>
<path d="M40.0464 37.4956C40.0467 37.2938 40.1271 37.1004 40.2697 36.9577C40.4124 36.8151 40.6058 36.7347 40.8076 36.7344H44.8588C45.0955 37.2156 45.2636 37.7276 45.3585 38.2555H40.8076C40.606 38.2554 40.4126 38.1754 40.2699 38.033C40.1272 37.8905 40.0468 37.6973 40.0464 37.4956Z" fill="#E00051"/>
<path d="M45.4524 39.3018C45.4527 39.8155 45.3847 40.327 45.2503 40.8229H40.8074C40.6057 40.8229 40.4123 40.7427 40.2696 40.6001C40.127 40.4575 40.0469 40.264 40.0469 40.0623C40.0469 39.8606 40.127 39.6672 40.2696 39.5245C40.4123 39.3819 40.6057 39.3018 40.8074 39.3018H45.4524Z" fill="#E00051"/>
<path d="M55.4762 48.6827C55.3615 48.8707 55.1768 49.0055 54.9628 49.0574C54.7487 49.1092 54.5228 49.0739 54.3348 48.9592L44.6456 43.0492C44.5525 42.9924 44.4715 42.9178 44.4072 42.8297C44.3429 42.7416 44.2966 42.6417 44.2709 42.5357C44.2452 42.4298 44.2407 42.3197 44.2575 42.212C44.2744 42.1043 44.3122 42.0009 44.369 41.9078C44.4258 41.8147 44.5004 41.7337 44.5885 41.6694C44.6766 41.6051 44.7765 41.5588 44.8825 41.5331C44.9885 41.5074 45.0985 41.5029 45.2062 41.5197C45.314 41.5366 45.4174 41.5745 45.5105 41.6312L55.1997 47.5413C55.3877 47.656 55.5225 47.8407 55.5743 48.0547C55.6262 48.2688 55.5909 48.4947 55.4762 48.6827Z" fill="#1D2533"/>
<path d="M45.787 42.7726C45.1028 43.8943 44.1013 44.788 42.9091 45.3406C41.717 45.8932 40.3878 46.0798 39.0895 45.8769C37.7913 45.6741 36.5824 45.0908 35.6157 44.2009C34.649 43.3109 33.9678 42.1543 33.6585 40.8773C33.3491 39.6002 33.4253 38.2601 33.8776 37.0264C34.3298 35.7927 35.1377 34.7209 36.1992 33.9463C37.2606 33.1718 38.5279 32.7294 39.8407 32.6751C41.1536 32.6208 42.453 32.957 43.5748 33.6413C45.0775 34.5602 46.1543 36.0376 46.569 37.7495C46.9838 39.4613 46.7025 41.2678 45.787 42.7726ZM35.8615 36.7184C35.3483 37.5597 35.0961 38.5343 35.1368 39.5189C35.1776 40.5036 35.5094 41.454 36.0903 42.2501C36.6711 43.0462 37.4751 43.6521 38.4003 43.9913C39.3256 44.3305 40.3307 44.3877 41.2885 44.1556C42.2462 43.9236 43.1137 43.4127 43.7811 42.6877C44.4486 41.9627 44.8861 41.056 45.0382 40.0823C45.1904 39.1086 45.0504 38.1117 44.6359 37.2176C44.2215 36.3235 43.5513 35.5724 42.7099 35.0592C41.5814 34.3726 40.2265 34.1616 38.9426 34.4727C37.6587 34.7837 36.5506 35.5913 35.8615 36.7184Z" fill="#1D2533"/>
<path d="M67.0728 40.3785C68.9502 40.3785 70.4722 38.8565 70.4722 36.979C70.4722 35.1016 68.9502 33.5796 67.0728 33.5796C65.1953 33.5796 63.6733 35.1016 63.6733 36.979C63.6733 38.8565 65.1953 40.3785 67.0728 40.3785Z" fill="#FFE5EF"/>
<path d="M66.8531 56.0363C66.7876 55.832 66.7659 55.6162 66.7896 55.403C66.8132 55.1897 66.8817 54.9839 66.9904 54.799C67.0992 54.6141 67.2458 54.4542 67.4206 54.3299C67.5955 54.2056 67.7946 54.1196 68.005 54.0776C68.0717 54.0646 68.1392 54.0563 68.207 54.0528L71.7878 48.3056L68.5169 45.196C68.3919 45.0772 68.2917 44.9348 68.2221 44.7771C68.1524 44.6193 68.1147 44.4493 68.1112 44.2769C68.1076 44.1045 68.1382 43.9331 68.2012 43.7726C68.2643 43.6121 68.3585 43.4657 68.4784 43.3418C68.5984 43.2179 68.7417 43.119 68.9 43.0508C69.0584 42.9826 69.2287 42.9464 69.4012 42.9444C69.5736 42.9424 69.7447 42.9746 69.9046 43.0391C70.0646 43.1036 70.2101 43.1991 70.3329 43.3202L74.8491 47.7733L74.8582 47.7844C74.9979 47.997 75.0653 48.2489 75.0505 48.5028C75.0357 48.7568 74.9394 48.9991 74.7759 49.194L69.7586 55.128C69.7736 55.1755 69.7861 55.2239 69.796 55.2727C69.8379 55.4831 69.835 55.7 69.7872 55.9092C69.7395 56.1184 69.6482 56.3151 69.5191 56.4865C69.3901 56.6579 69.2263 56.8001 69.0384 56.9038C68.8506 57.0075 68.643 57.0703 68.4292 57.0881C68.386 57.0919 68.343 57.0938 68.3002 57.0938C67.9783 57.0925 67.6651 56.9895 67.4053 56.7996C67.1454 56.6097 66.9522 56.3425 66.8531 56.0363Z" fill="#FFE5EF"/>
<path d="M61.4738 84.2908L59.7769 84.2906L58.9697 77.7456L61.4741 77.7457L61.4738 84.2908Z" fill="#FFE5EF"/>
<path d="M61.9069 85.9353L56.4355 85.9351V85.8659C56.4355 85.5862 56.4906 85.3093 56.5976 85.0509C56.7047 84.7926 56.8615 84.5578 57.0593 84.3601C57.257 84.1623 57.4918 84.0054 57.7502 83.8984C58.0086 83.7914 58.2855 83.7363 58.5652 83.7363L61.907 83.7365L61.9069 85.9353Z" fill="#1D2533"/>
<path d="M78.34 81.9445L76.8821 82.8126L72.8398 77.602L74.9917 76.3208L78.34 81.9445Z" fill="#FFE5EF"/>
<path d="M79.553 83.1364L74.8518 85.9355L74.8164 85.876C74.6733 85.6357 74.579 85.3696 74.5388 85.0928C74.4985 84.8161 74.5132 84.5341 74.5819 84.263C74.6507 83.992 74.7721 83.7371 74.9394 83.5129C75.1066 83.2888 75.3164 83.0998 75.5567 82.9567L78.4281 81.2471L79.553 83.1364Z" fill="#1D2533"/>
<path d="M58.756 81.4081C57.6193 68.0232 56.943 55.5888 61.0984 50.5164L61.1306 50.4771L68.1237 53.2744L68.1352 53.2994C68.1588 53.3508 70.4846 58.4666 69.942 61.9076L71.667 69.8423L77.2913 79.2597C77.3366 79.3355 77.3652 79.4201 77.3753 79.5078C77.3854 79.5955 77.3768 79.6844 77.3499 79.7685C77.3231 79.8526 77.2787 79.9301 77.2196 79.9958C77.1606 80.0614 77.0883 80.1138 77.0074 80.1493L74.5633 81.2247C74.4253 81.2847 74.2704 81.2931 74.1268 81.2482C73.9833 81.2033 73.8607 81.1082 73.7815 80.9803L67.6633 71.0039L64.2075 63.3518C64.1888 63.3103 64.1568 63.2761 64.1167 63.2545C64.0766 63.2329 64.0304 63.2251 63.9854 63.2324C63.9404 63.2396 63.899 63.2614 63.8677 63.2945C63.8363 63.3276 63.8167 63.37 63.8118 63.4154L61.8963 81.4218C61.8803 81.5748 61.8081 81.7165 61.6937 81.8193C61.5793 81.9222 61.4308 81.979 61.2769 81.9788H59.3768C59.2209 81.9779 59.071 81.9189 58.9562 81.8134C58.8414 81.7079 58.77 81.5634 58.756 81.4081Z" fill="#1D2533"/>
<path d="M61.122 50.6225L61.0887 50.6066L61.0835 50.5699C60.8222 48.7416 61.1315 46.71 62.0025 44.5319C62.4318 43.4658 63.2299 42.5895 64.2512 42.0625C65.2725 41.5355 66.4492 41.393 67.5668 41.6609C68.2105 41.8195 68.8143 42.1101 69.3399 42.5143C69.8655 42.9184 70.3015 43.4274 70.6201 44.0088C70.9347 44.5843 71.1263 45.2188 71.1828 45.8722C71.2394 46.5256 71.1596 47.1836 70.9485 47.8046C69.8504 51.0157 68.4259 54.0201 68.4117 54.0501L68.3818 54.1128L61.122 50.6225Z" fill="#E00051"/>
<path d="M53.4924 46.0682C53.6608 45.9353 53.8553 45.8394 54.0633 45.7869C54.2713 45.7344 54.4881 45.7264 54.6994 45.7635C54.9107 45.8006 55.1118 45.882 55.2895 46.0022C55.4671 46.1225 55.6174 46.2789 55.7304 46.4613C55.7659 46.5191 55.7974 46.5794 55.8244 46.6417L62.4617 47.9832L64.2289 43.8305C64.2964 43.6718 64.3947 43.5281 64.5181 43.4076C64.6414 43.2871 64.7875 43.1923 64.9477 43.1286C65.1079 43.0648 65.2792 43.0335 65.4516 43.0363C65.624 43.0391 65.7942 43.0761 65.9522 43.1451C66.1103 43.214 66.2531 43.3136 66.3724 43.4381C66.4918 43.5626 66.5853 43.7094 66.6475 43.8702C66.7098 44.031 66.7396 44.2026 66.7352 44.375C66.7308 44.5474 66.6923 44.7172 66.6219 44.8746L64.0323 50.6642L64.0251 50.6766C63.8749 50.8819 63.6625 51.0333 63.4195 51.1083C63.1764 51.1834 62.9157 51.1781 62.6759 51.0932L55.3606 48.4716C55.3213 48.5023 55.2804 48.5309 55.2381 48.5573C55.0557 48.6703 54.8515 48.7435 54.6389 48.772C54.4263 48.8006 54.21 48.7839 54.0043 48.7231C53.7985 48.6622 53.608 48.5586 53.4451 48.4189C53.2822 48.2793 53.1507 48.1068 53.0591 47.9128C53.0404 47.8737 53.0235 47.8341 53.0086 47.794C52.8971 47.492 52.8839 47.1626 52.9708 46.8527C53.0577 46.5428 53.2402 46.2682 53.4924 46.0682Z" fill="#FFE5EF"/>
<path d="M79.3536 40.6193C79.0262 40.0391 78.5491 39.5077 77.9184 39.2932C77.1039 39.0163 76.222 39.3112 75.3846 39.5081C74.7394 39.6597 74.0653 39.7526 73.415 39.6246C72.7647 39.4966 72.1374 39.1181 71.8415 38.5251C71.4062 37.6526 71.7729 36.6122 71.7464 35.6375C71.7328 35.1069 71.5989 34.5864 71.3549 34.1151C71.1108 33.6438 70.763 33.234 70.3376 32.9167C69.9121 32.5994 69.4202 32.3828 68.8989 32.2832C68.3775 32.1836 67.8404 32.2037 67.328 32.3419C66.5261 32.1105 65.8001 32.0891 65.3041 32.7056C64.6801 32.7056 64.0816 32.9535 63.6403 33.3947C63.1991 33.836 62.9512 34.4345 62.9512 35.0585H65.201C65.0944 35.6322 65.2163 36.2248 65.5407 36.7099C65.9379 37.2934 66.6285 37.7155 66.7614 38.4087C66.8903 39.0804 66.4337 39.7178 65.9547 40.2061C65.4757 40.6944 64.92 41.1783 64.7705 41.8458C64.6789 42.3524 64.7829 42.875 65.0616 43.308C65.3399 43.7357 65.685 44.1159 66.0839 44.4341C67.8812 45.9738 70.0172 47.0665 72.3175 47.623C73.9374 48.013 75.7093 48.1141 77.2131 47.3967C77.8147 47.1096 78.3509 46.702 78.7882 46.199C79.2256 45.6961 79.5549 45.1085 79.7556 44.4729C79.9564 43.8373 80.0243 43.1673 79.9551 42.5043C79.886 41.8414 79.6812 41.1997 79.3536 40.6193Z" fill="#1D2533"/>
<path d="M79.8617 86.0796H53.5642C53.5275 86.0796 53.4923 86.065 53.4663 86.039C53.4404 86.0131 53.4258 85.9779 53.4258 85.9411C53.4258 85.9044 53.4404 85.8692 53.4663 85.8433C53.4923 85.8173 53.5275 85.8027 53.5642 85.8027H79.8617C79.8984 85.8027 79.9336 85.8173 79.9596 85.8433C79.9855 85.8692 80.0001 85.9044 80.0001 85.9411C80.0001 85.9779 79.9855 86.0131 79.9596 86.039C79.9336 86.065 79.8984 86.0796 79.8617 86.0796Z" fill="#B5B7C0"/>
</g>
<defs>
<clipPath id="clip0_524_53462">
<rect width="80" height="86.0795" fill="white"/>
</clipPath>
</defs>
</svg>
