<svg width="106" height="120" viewBox="0 0 106 120" fill="none" xmlns="http://www.w3.org/2000/svg">
<g clip-path="url(#clip0_1574_4281)">
<path d="M68.1711 88.8449C68.4084 88.9717 68.6789 89.0225 68.946 88.9904C69.2131 88.9583 69.4638 88.8448 69.6643 88.6654C69.8648 88.486 70.0053 88.2493 70.0667 87.9873C70.1282 87.7254 70.1077 87.4509 70.0079 87.201C70.0346 87.0681 70.0538 86.9726 70.0806 86.8396C70.5938 86.3605 71.2385 86.0455 71.9319 85.9352C72.6252 85.8248 73.3358 85.9241 73.9724 86.2203C74.609 86.5165 75.1426 86.996 75.5049 87.5975C75.8673 88.199 76.0417 88.895 76.006 89.5963C75.8435 93.5515 76.0389 97.8193 73.4105 101.008C85.4066 91.2035 90.8763 74.5013 87.2129 59.4792C85.4153 56.9739 84.5767 53.6458 85.3828 50.6298C86.3944 51.6139 88.3664 51.3495 88.065 49.646C87.9034 48.9728 87.7361 48.3016 87.5745 47.6283C94.4838 44.9317 96.2877 55.207 88.1033 59.3906C88.7672 62.2466 89.1308 65.1641 89.1882 68.0957C90.1121 65.4523 91.6503 63.0661 93.6762 61.1332C95.6377 59.3669 98.2313 58.3282 100.644 57.1432C103.58 55.6973 106.839 58.5637 105.683 61.6237C103.728 61.3736 102.345 63.7102 104.119 64.9658C101.004 70.1985 95.0306 73.5244 88.9617 73.5772C88.3479 79.548 86.4688 85.3193 83.4497 90.5066C87.3266 84.6103 94.8294 86.3079 100.759 86.0567C101.152 86.0071 101.552 86.0731 101.908 86.2466C102.265 86.4201 102.563 86.6937 102.767 87.0339C102.971 87.3741 103.071 87.7663 103.056 88.1626C103.04 88.5589 102.91 88.9422 102.681 89.2657C101.901 89.2199 101.118 89.2517 100.344 89.3607C99.9805 89.4146 99.6421 89.5798 99.3758 89.8336C99.1094 90.0874 98.928 90.4174 98.8565 90.7783C98.785 91.1393 98.8268 91.5135 98.9763 91.8497C99.1258 92.1859 99.3756 92.4677 99.6915 92.6564C94.4901 97.4255 86.4303 98.4507 80.1046 95.4075C78.2344 97.7636 76.1244 99.919 73.8087 101.839L64.4043 97.3553C64.4204 97.2347 64.4415 97.1124 64.4609 96.9934C65.3053 97.4631 66.2041 97.8277 67.1371 98.0789C66.1338 94.2537 65.0158 92.0132 68.1708 88.8449H68.1711Z" fill="#0C6BF2"/>
<path d="M51.5538 79.795C51.3819 80.0019 51.1505 80.151 50.8911 80.222C50.6316 80.2931 50.3566 80.2826 50.1033 80.1921C49.8499 80.1016 49.6306 79.9353 49.4748 79.7159C49.3191 79.4965 49.2346 79.2346 49.2327 78.9655C49.1579 78.8525 49.1041 78.7713 49.0292 78.6582C48.3731 78.4081 47.6573 78.3596 46.9736 78.519C46.2898 78.6784 45.6692 79.0384 45.1913 79.5529C44.7134 80.0674 44.4001 80.7128 44.2913 81.4066C44.1826 82.1003 44.2835 82.8108 44.5811 83.4468C46.2232 87.0485 47.6519 91.0747 51.2886 93.0361C36.4811 88.4818 25.1164 75.0769 22.8438 59.7824C23.5638 56.784 23.0852 53.3853 21.2012 50.8963C20.6355 52.1893 18.7095 52.6884 18.3461 50.9971C18.2419 50.3126 18.1437 49.6278 18.0395 48.9434C10.6236 49.0526 12.8281 59.2494 21.9857 60.0362C22.4479 62.9317 23.2115 65.771 24.264 68.5077C22.4114 66.4081 20.0869 64.7784 17.4816 63.7527C14.9989 62.8568 12.2052 62.8734 9.5236 62.6861C6.25913 62.4548 4.32231 66.3388 6.54697 68.7366C8.26277 67.7676 10.4248 69.4098 9.25574 71.2418C14.1143 74.9127 20.9005 75.7395 26.541 73.4988C29.3612 78.7969 33.2781 83.433 38.0306 87.0981C32.2163 83.1 25.908 87.5028 20.3218 89.5071C19.9388 89.6096 19.5938 89.8213 19.3291 90.1166C19.0643 90.4118 18.8911 90.7777 18.8307 91.1696C18.7703 91.5616 18.8253 91.9627 18.9888 92.3239C19.1524 92.6852 19.4176 92.991 19.752 93.2041C20.4572 92.8674 21.194 92.6016 21.9517 92.4106C22.3091 92.3233 22.6847 92.3486 23.0271 92.4832C23.3696 92.6178 23.662 92.8549 23.8643 93.1622C24.0667 93.4695 24.1691 93.8319 24.1574 94.1997C24.1458 94.5675 24.0207 94.9226 23.7993 95.2165C30.4151 97.6711 38.2661 95.5798 42.9768 90.3749C45.5975 91.8515 48.3645 93.0516 51.2333 93.9561L58.252 86.2557C58.1916 86.15 58.1259 86.0447 58.063 85.9418C57.4582 86.6954 56.7633 87.3721 55.994 87.9568C55.4805 84.0357 55.6709 81.5388 51.5541 79.7948L51.5538 79.795Z" fill="#0C6BF2"/>
<path d="M53.3597 47.257C53.6273 47.23 53.8802 47.1213 54.084 46.9457C54.2879 46.7701 54.4328 46.5361 54.4992 46.2754C54.5656 46.0146 54.5503 45.7398 54.4553 45.4881C54.3603 45.2364 54.1902 45.0199 53.9681 44.8681C53.9162 44.7428 53.8789 44.6529 53.827 44.5276C53.986 43.8436 54.3455 43.2227 54.8596 42.7444C55.3737 42.2662 56.0189 41.9524 56.7125 41.8432C57.406 41.7341 58.1164 41.8346 58.7525 42.1319C59.3885 42.4291 59.9214 42.9096 60.2827 43.5118C62.3526 46.8857 64.8939 50.3197 64.4894 54.4323C68.9824 39.6037 64.2123 22.6884 52.797 12.2607C49.9082 11.1834 47.3568 8.88822 46.3447 5.93503C47.733 6.18781 49.2227 4.86871 48.0229 3.62261C47.5134 3.15388 47.0004 2.68998 46.4909 2.22122C50.7234 -3.87029 57.9489 3.65369 53.4868 11.6907C55.63 13.6913 57.5583 15.9105 59.2402 18.3122C58.5336 15.6025 58.4803 12.7638 59.0846 10.0296C59.7283 7.46944 61.3023 5.16088 62.6448 2.83158C64.2761 -0.00597433 68.5791 0.556413 69.3252 3.74131C67.5632 4.6236 67.7177 7.33453 69.89 7.38781C70.221 13.4689 67.1164 19.5608 62.1078 22.9889C64.9267 28.2877 66.5841 34.1266 66.9694 40.1165C66.9009 33.0598 74.0757 30.2851 78.8579 26.77C79.1568 26.5095 79.5251 26.3416 79.9178 26.2868C80.3105 26.232 80.7107 26.2927 81.0695 26.4615C81.4283 26.6303 81.7303 26.8999 81.9385 27.2374C82.1467 27.5748 82.2523 27.9657 82.2422 28.3621C81.5692 28.7591 80.9372 29.222 80.3556 29.7439C80.0836 29.9916 79.8948 30.3174 79.8152 30.6766C79.7355 31.0359 79.7689 31.411 79.9108 31.7505C80.0526 32.09 80.296 32.3773 80.6075 32.5731C80.919 32.7688 81.2834 32.8634 81.6508 32.8439C79.9915 39.7035 73.8722 45.0491 66.9246 46.0502C66.6855 49.0491 66.1354 52.0151 65.2833 54.9002L54.9769 56.4225C54.923 56.3134 54.8723 56.2001 54.8221 56.0905C55.785 56.0095 56.7343 55.811 57.6489 55.4993C54.6836 52.8833 52.5065 51.6467 53.3594 47.2572L53.3597 47.257Z" fill="#F5F6F7"/>
<path d="M63.726 43.9522C59.0338 43.9522 56.4888 43.3787 55.6 42.1546C54.8157 41.0745 55.3415 39.6494 55.9503 37.9993C56.3879 36.8133 56.8838 35.4691 56.8838 34.1386C56.8838 27.6678 60.1643 24.3867 66.634 24.3867C69.853 24.3867 73.3093 26.097 75.8796 28.9618C78.2163 31.5661 79.3803 34.6831 79.0733 37.5134C78.8215 39.8346 77.7413 41.3611 75.6737 42.3176L75.5528 42.3735L75.5184 42.2448C75.3399 41.5786 75.0377 40.9519 74.6277 40.3973C74.5878 41.2678 74.3684 42.1206 73.9833 42.9022L73.9613 42.9468L73.9135 42.9604C71.5735 43.6271 68.7963 43.8077 66.6383 43.8904C65.5879 43.9314 64.6172 43.952 63.726 43.9522Z" fill="#383D45"/>
<path d="M65.004 52.9674C64.8242 52.4386 64.5208 51.9604 64.1192 51.5724C63.7176 51.1844 63.2292 50.8978 62.6947 50.7364C62.1601 50.5749 61.5948 50.5433 61.0456 50.6442C60.4964 50.745 59.9791 50.9754 59.5367 51.3162L44.103 60.5452L39.2735 48.7593C39.6815 48.1606 39.8895 47.4482 39.8676 46.724C39.8457 45.9999 39.595 45.3013 39.1516 44.7285C38.7082 44.1556 38.0948 43.7379 37.3994 43.5353C36.704 43.3327 35.9622 43.3555 35.2806 43.6006C34.599 43.8457 34.0124 44.3003 33.6051 44.8994C33.1978 45.4985 32.9907 46.2112 33.0134 46.9353C33.0361 47.6594 33.2875 48.3577 33.7316 48.9301C34.1756 49.5024 34.7895 49.9194 35.4852 50.1212C35.7828 53.5199 37.4371 68.7107 43.192 68.1585C48.0292 67.6943 60.042 59.6927 63.7732 56.9183C64.3701 56.4748 64.8109 55.8534 65.0321 55.1433C65.2533 54.4333 65.2434 53.6714 65.004 52.9674Z" fill="#FEE5EA"/>
<path d="M76.6345 119.999H63.2016L60.949 108.859L60.2183 119.999H47.7402C47.745 111.25 48.2006 102.508 49.1053 93.8073L49.2599 93.2805L49.5042 92.4376L49.6589 91.9085L52.241 83.0399L52.445 82.3359H67.9938C68.8886 83.1766 69.7139 84.0882 70.4616 85.062C70.7149 85.3848 70.9794 85.7345 71.2506 86.1112C71.4389 86.3779 71.6339 86.6582 71.8289 86.9518C73.5614 89.5316 74.8565 92.3796 75.6618 95.3811V95.3833C75.7985 95.8967 75.9195 96.422 76.0249 96.9593V96.9616C76.119 97.4391 76.2019 97.9233 76.2669 98.4188C76.3163 98.7797 76.3589 99.1451 76.3902 99.515C76.5771 101.564 76.5116 103.629 76.1952 105.662L76.6345 119.999Z" fill="#383D45"/>
<path d="M5.41366 18.1409C6.28603 17.8032 6.80279 17.0373 6.56787 16.4304C6.33295 15.8234 5.43532 15.6051 4.56295 15.9429C3.69059 16.2806 3.17384 17.0465 3.40875 17.6535C3.64367 18.2604 4.54129 18.4787 5.41366 18.1409Z" fill="#BCC4CF"/>
<path d="M16.3971 16.731C17.2694 16.3933 17.7862 15.6274 17.5513 15.0204C17.3164 14.4135 16.4187 14.1952 15.5464 14.533C14.674 14.8707 14.1572 15.6366 14.3922 16.2435C14.6271 16.8505 15.5247 17.0688 16.3971 16.731Z" fill="#383D45"/>
<path d="M4.46054 27.5123C5.33291 27.1745 5.84967 26.4087 5.61475 25.8017C5.37983 25.1947 4.4822 24.9765 3.60983 25.3142C2.73747 25.652 2.22071 26.4178 2.45563 27.0248C2.69054 27.6318 3.58818 27.85 4.46054 27.5123Z" fill="#0C6BF2"/>
<path d="M1.28319 31.6466C1.68341 31.5518 1.89746 31.0085 1.76129 30.4331C1.62512 29.8577 1.19029 29.4681 0.790078 29.5628C0.389865 29.6576 0.175818 30.2008 0.311988 30.7762C0.448158 31.3516 0.882982 31.7413 1.28319 31.6466Z" fill="#BCC4CF"/>
<path d="M1.21777 38.6466C1.61798 38.5518 1.83203 38.0086 1.69586 37.4331C1.55969 36.8577 1.12486 36.4681 0.724649 36.5628C0.324436 36.6576 0.110388 37.2008 0.246558 37.7762C0.382728 38.3516 0.817552 38.7413 1.21777 38.6466Z" fill="#383D45"/>
<path d="M10.8584 24.1505C11.2586 24.0557 11.4726 23.5125 11.3365 22.937C11.2003 22.3616 10.7655 21.972 10.3653 22.0667C9.96506 22.1615 9.75101 22.7047 9.88718 23.2801C10.0234 23.8555 10.4582 24.2452 10.8584 24.1505Z" fill="#BCC4CF"/>
<path d="M5.07323 22.7442C5.47345 22.6495 5.68749 22.1062 5.55132 21.5308C5.41515 20.9554 4.98033 20.5657 4.58012 20.6605C4.1799 20.7552 3.96586 21.2985 4.10203 21.8739C4.2382 22.4493 4.67302 22.839 5.07323 22.7442Z" fill="#0C6BF2"/>
<path d="M11.2041 16.2989C11.6043 16.2042 11.8184 15.6609 11.6822 15.0855C11.546 14.5101 11.1112 14.1204 10.711 14.2152C10.3108 14.3099 10.0967 14.8532 10.2329 15.4286C10.3691 16.004 10.8039 16.3936 11.2041 16.2989Z" fill="#383D45"/>
<path d="M14.0562 64.744C14.478 64.2484 14.2425 63.355 13.5302 62.7486C12.8178 62.1421 11.8984 62.0523 11.4766 62.5479C11.0548 63.0435 11.2903 63.9369 12.0027 64.5434C12.715 65.1498 13.6344 65.2397 14.0562 64.744Z" fill="#BCC4CF"/>
<path d="M7.58745 55.7558C8.00925 55.2601 7.77373 54.3667 7.0614 53.7603C6.34907 53.1539 5.42968 53.064 5.00788 53.5596C4.58608 54.0553 4.8216 54.9487 5.53393 55.5551C6.24626 56.1615 7.16565 56.2514 7.58745 55.7558Z" fill="#383D45"/>
<path d="M22.7505 61.119C23.1723 60.6234 22.9368 59.73 22.2245 59.1236C21.5122 58.5171 20.5928 58.4273 20.171 58.9229C19.7492 59.4185 19.9847 60.3119 20.697 60.9184C21.4093 61.5248 22.3287 61.6147 22.7505 61.119Z" fill="#0C6BF2"/>
<path d="M27.0697 61.2187C27.5107 60.825 27.6463 60.257 27.3724 59.9501C27.0985 59.6432 26.519 59.7136 26.0779 60.1074C25.6369 60.5011 25.5013 61.0691 25.7752 61.376C26.049 61.6829 26.6286 61.6124 27.0697 61.2187Z" fill="#BCC4CF"/>
<path d="M33.2552 57.9436C33.6963 57.5498 33.8318 56.9818 33.558 56.675C33.2841 56.3681 32.7045 56.4385 32.2635 56.8322C31.8224 57.226 31.6869 57.7939 31.9607 58.1008C32.2346 58.4077 32.8141 58.3373 33.2552 57.9436Z" fill="#383D45"/>
<path d="M15.9183 56.3671C16.3594 55.9734 16.4949 55.4054 16.221 55.0985C15.9472 54.7917 15.3676 54.8621 14.9266 55.2558C14.4855 55.6496 14.3499 56.2175 14.6238 56.5244C14.8977 56.8313 15.4772 56.7609 15.9183 56.3671Z" fill="#BCC4CF"/>
<path d="M17.4368 62.1247C17.8779 61.731 18.0135 61.163 17.7396 60.8561C17.4657 60.5492 16.8862 60.6196 16.4451 61.0134C16.004 61.4071 15.8685 61.9751 16.1424 62.282C16.4162 62.5889 16.9958 62.5184 17.4368 62.1247Z" fill="#0C6BF2"/>
<path d="M8.8509 59.8007C9.29197 59.407 9.42752 58.839 9.15366 58.5321C8.8798 58.2253 8.30024 58.2957 7.85917 58.6894C7.4181 59.0832 7.28255 59.6511 7.55641 59.958C7.83027 60.2649 8.40984 60.1945 8.8509 59.8007Z" fill="#383D45"/>
<path d="M57.5152 7.09057C58.0991 6.80334 58.2379 5.88988 57.825 5.05032C57.4122 4.21075 56.6042 3.763 56.0202 4.05023C55.4363 4.33747 55.2976 5.25092 55.7104 6.09048C56.1232 6.93005 56.9313 7.37781 57.5152 7.09057Z" fill="#BCC4CF"/>
<path d="M59.8804 17.9089C60.4644 17.6217 60.6031 16.7082 60.1903 15.8687C59.7774 15.0291 58.9694 14.5814 58.3854 14.8686C57.8015 15.1558 57.6628 16.0693 58.0756 16.9088C58.4884 17.7484 59.2965 18.1962 59.8804 17.9089Z" fill="#383D45"/>
<path d="M48.0963 6.96167C48.6802 6.67443 48.8189 5.76098 48.4061 4.92141C47.9933 4.08184 47.1852 3.63408 46.6013 3.92132C46.0173 4.20855 45.8786 5.12201 46.2914 5.96158C46.7043 6.80115 47.5123 7.2489 48.0963 6.96167Z" fill="#0C6BF2"/>
<path d="M43.1459 3.52815C43.7071 3.34206 44.0571 2.8747 43.9276 2.48426C43.7982 2.09382 43.2384 1.92815 42.6772 2.11423C42.116 2.30032 41.7661 2.76769 41.8955 3.15813C42.0249 3.54857 42.5848 3.71423 43.1459 3.52815Z" fill="#BCC4CF"/>
<path d="M36.1684 4.07502C36.7295 3.88894 37.0795 3.42157 36.9501 3.03113C36.8207 2.64069 36.2608 2.47503 35.6997 2.66111C35.1385 2.8472 34.7885 3.31456 34.9179 3.705C35.0474 4.09544 35.6072 4.26111 36.1684 4.07502Z" fill="#383D45"/>
<path d="M51.4526 12.409C52.0137 12.2229 52.3637 11.7556 52.2343 11.3651C52.1049 10.9747 51.545 10.809 50.9839 10.9951C50.4227 11.1812 50.0727 11.6485 50.2021 12.039C50.3316 12.4294 50.8914 12.5951 51.4526 12.409Z" fill="#BCC4CF"/>
<path d="M52.3451 6.52228C52.9063 6.3362 53.2563 5.86883 53.1269 5.47839C52.9974 5.08795 52.4376 4.92229 51.8764 5.10837C51.3153 5.29446 50.9653 5.76183 51.0947 6.15227C51.2241 6.54271 51.784 6.70837 52.3451 6.52228Z" fill="#0C6BF2"/>
<path d="M59.3012 12.0672C59.8623 11.8811 60.2123 11.4138 60.0829 11.0233C59.9535 10.6329 59.3936 10.4672 58.8325 10.6533C58.2713 10.8394 57.9213 11.3067 58.0508 11.6972C58.1802 12.0876 58.74 12.2533 59.3012 12.0672Z" fill="#383D45"/>
<path d="M61.4566 45.7543L68.8569 45.373L72.2942 50.8053C72.2942 50.8053 78.7614 51.8867 78.3132 59.5089C77.8649 67.1311 70.4444 73.8196 70.4444 73.8196L70.7616 77.7889L70.2107 79.3632L70.2814 80.2473L71.0329 81.1835L71.1103 82.1517L70.4444 83.6836L71.3499 85.1504L52.3125 83.3056L51.6164 80.7692L52.6319 79.4072L52.0647 77.6307L52.9174 75.9219L53.3621 70.4943C53.3621 70.4943 48.4973 63.1842 54.082 57.6785L56.3234 53.8674L58.8314 50.807L61.4566 45.7543Z" fill="#E51740"/>
<path d="M65.1345 44.2208C69.4652 44.2208 72.9759 40.7095 72.9759 36.378C72.9759 32.0465 69.4652 28.5352 65.1345 28.5352C60.8037 28.5352 57.293 32.0465 57.293 36.378C57.293 40.7095 60.8037 44.2208 65.1345 44.2208Z" fill="#FEE5EA"/>
<path d="M64.0848 35.9014C63.4091 35.9014 62.7338 35.8824 62.0588 35.8443L61.9382 35.8375L61.9541 35.7177C62.0535 34.9691 61.9975 34.2081 61.7897 33.482C61.4367 34.3087 60.9115 35.0506 60.2491 35.6582L60.2117 35.6924L60.1614 35.687C58.3282 35.4864 56.5117 35.1551 54.7258 34.6955L54.6574 34.6779L54.6437 34.6088C54.5103 33.9536 54.4413 33.287 54.4375 32.6185C54.4375 30.53 55.1945 28.7722 56.5693 27.669C58.0655 26.468 60.2104 26.0987 62.6109 26.6284H70.2867C71.1305 26.6293 71.9396 26.9651 72.5363 27.5619C73.133 28.1587 73.4686 28.9678 73.4695 29.8118V34.6734L73.3858 34.6953C70.3498 35.4934 67.224 35.8987 64.0848 35.9014Z" fill="#383D45"/>
<path d="M10.5789 27.1766C10.2353 27.3023 9.95554 27.5591 9.80106 27.8909C9.64658 28.2226 9.62997 28.602 9.75487 28.946L18.0355 51.6711C18.1611 52.0147 18.4179 52.2945 18.7496 52.4491C19.0813 52.6036 19.4607 52.6202 19.8046 52.4953L51.9429 40.7806C52.2865 40.6549 52.5663 40.3981 52.7207 40.0663C52.8752 39.7346 52.8918 39.3552 52.7669 39.0112L44.4863 16.2861C44.3607 15.9424 44.1038 15.6627 43.7722 15.5081C43.4405 15.3536 43.0611 15.337 42.7172 15.4619L10.5789 27.1766Z" fill="#959EAB"/>
<path d="M39.9824 43.89L20.3104 51.0606C19.9403 51.195 19.532 51.1771 19.175 51.0108C18.8181 50.8445 18.5416 50.5434 18.4064 50.1735L10.896 29.5621C10.7615 29.1919 10.7794 28.7835 10.9457 28.4264C11.1119 28.0694 11.413 27.7929 11.7828 27.6576L42.1051 16.605C42.4753 16.4705 42.8836 16.4884 43.2406 16.6547C43.5976 16.821 43.874 17.1221 44.0092 17.492L47.6382 27.4513C48.7985 30.6468 48.6441 34.1722 47.2089 37.2539C45.7736 40.3357 43.1748 42.7223 39.9824 43.89Z" fill="white"/>
<path d="M25.8262 28.9998L21.1515 30.7038C21.0929 30.7252 21.0306 30.7348 20.9683 30.7321C20.9059 30.7294 20.8447 30.7144 20.7882 30.6881C20.7316 30.6617 20.6808 30.6245 20.6386 30.5785C20.5965 30.5325 20.5638 30.4787 20.5424 30.42C20.521 30.3614 20.5114 30.2991 20.5141 30.2368C20.5168 30.1744 20.5318 30.1132 20.5581 30.0567C20.5845 30.0001 20.6217 29.9493 20.6677 29.9071C20.7137 29.8649 20.7675 29.8322 20.8261 29.8108L25.5008 28.1069C25.6192 28.0637 25.7499 28.0693 25.8642 28.1226C25.9784 28.1758 26.0668 28.2722 26.11 28.3906C26.1531 28.509 26.1475 28.6398 26.0942 28.754C26.041 28.8683 25.9446 28.9567 25.8262 28.9998H25.8262Z" fill="#E51740"/>
<path d="M36.972 27.0057L21.8181 32.5294C21.7594 32.5509 21.6971 32.5606 21.6347 32.5579C21.5723 32.5553 21.5111 32.5404 21.4545 32.514C21.3978 32.4877 21.347 32.4505 21.3047 32.4044C21.2625 32.3584 21.2298 32.3045 21.2084 32.2458C21.187 32.1872 21.1774 32.1248 21.1801 32.0624C21.1829 32.0001 21.1978 31.9388 21.2242 31.8822C21.2506 31.8256 21.2879 31.7748 21.334 31.7326C21.3801 31.6904 21.434 31.6577 21.4927 31.6364L36.6466 26.1127C36.7052 26.0913 36.7675 26.0817 36.8298 26.0844C36.8922 26.0871 36.9534 26.1021 37.0099 26.1284C37.0665 26.1548 37.1173 26.192 37.1595 26.238C37.2017 26.284 37.2344 26.3378 37.2557 26.3965C37.2771 26.4551 37.2867 26.5174 37.284 26.5797C37.2813 26.6421 37.2664 26.7033 37.24 26.7599C37.2137 26.8164 37.1764 26.8673 37.1305 26.9094C37.0845 26.9516 37.0306 26.9843 36.972 27.0057Z" fill="#E51740"/>
<path d="M37.7351 29.1012L22.5812 34.6249C22.5226 34.6463 22.4603 34.6559 22.398 34.6532C22.3356 34.6505 22.2744 34.6356 22.2179 34.6092C22.1613 34.5829 22.1105 34.5456 22.0683 34.4996C22.0262 34.4536 21.9934 34.3998 21.9721 34.3412C21.9507 34.2825 21.9411 34.2202 21.9438 34.1579C21.9465 34.0956 21.9614 34.0343 21.9878 33.9778C22.0141 33.9212 22.0514 33.8704 22.0974 33.8282C22.1433 33.786 22.1972 33.7533 22.2558 33.7319L37.4097 28.2082C37.5281 28.1652 37.6587 28.171 37.7728 28.2243C37.8869 28.2775 37.9752 28.3739 38.0183 28.4922C38.0614 28.6105 38.0558 28.7411 38.0027 28.8553C37.9496 28.9695 37.8534 29.0579 37.7351 29.1012Z" fill="#E51740"/>
<path d="M38.4994 31.1971L23.3454 36.7208C23.2868 36.7423 23.2245 36.752 23.1621 36.7493C23.0997 36.7467 23.0384 36.7318 22.9818 36.7054C22.9252 36.6791 22.8743 36.6419 22.8321 36.5958C22.7899 36.5498 22.7571 36.4959 22.7358 36.4373C22.7144 36.3786 22.7048 36.3163 22.7075 36.2539C22.7102 36.1915 22.7252 36.1302 22.7516 36.0736C22.778 36.017 22.8153 35.9662 22.8613 35.924C22.9074 35.8818 22.9613 35.8492 23.02 35.8278L38.174 30.3041C38.2326 30.2828 38.2949 30.2731 38.3572 30.2758C38.4195 30.2785 38.4807 30.2935 38.5373 30.3198C38.5938 30.3462 38.6447 30.3834 38.6868 30.4294C38.729 30.4754 38.7617 30.5293 38.7831 30.5879C38.8044 30.6465 38.8141 30.7088 38.8114 30.7711C38.8087 30.8335 38.7937 30.8947 38.7674 30.9513C38.741 31.0078 38.7038 31.0587 38.6578 31.1008C38.6118 31.143 38.558 31.1757 38.4994 31.1971Z" fill="#E51740"/>
<path d="M39.2625 33.2928L24.1085 38.8165C23.9901 38.8597 23.8594 38.854 23.7452 38.8008C23.631 38.7476 23.5426 38.6512 23.4994 38.5328C23.4563 38.4143 23.4619 38.2836 23.5151 38.1694C23.5683 38.0551 23.6648 37.9667 23.7831 37.9235L38.9371 32.3998C38.9957 32.3785 39.058 32.3688 39.1203 32.3715C39.1827 32.3742 39.2439 32.3892 39.3004 32.4155C39.357 32.4419 39.4078 32.4791 39.45 32.5251C39.4921 32.5711 39.5248 32.625 39.5462 32.6836C39.5676 32.7422 39.5772 32.8045 39.5745 32.8668C39.5718 32.9292 39.5568 32.9904 39.5305 33.047C39.5041 33.1035 39.4669 33.1544 39.4209 33.1966C39.375 33.2387 39.3211 33.2714 39.2625 33.2928H39.2625Z" fill="#E51740"/>
<path d="M87.346 39.1158L79.049 58.9738C78.695 59.8141 78.0249 60.4815 77.1833 60.8319C76.3416 61.1824 75.396 61.1878 74.5503 60.8471C74.1129 60.6708 73.7159 60.4073 73.3836 60.0725C73.0513 59.7378 72.7906 59.3389 72.6175 58.9001C72.4444 58.4613 72.3624 57.9919 72.3766 57.5204C72.3908 57.0489 72.5008 56.5852 72.7 56.1577L81.9507 35.7943L87.0503 23.1837C86.6097 22.7441 86.315 22.1795 86.2063 21.5666C86.0976 20.9537 86.1803 20.3222 86.4429 19.7579C86.7056 19.1935 87.1356 18.7238 87.6745 18.4124C88.2135 18.101 88.8351 17.9631 89.4551 18.0174C90.0751 18.0717 90.6634 18.3156 91.14 18.716C91.6166 19.1163 91.9584 19.6537 92.119 20.2551C92.2796 20.8565 92.2512 21.4927 92.0377 22.0774C91.8241 22.6621 91.4358 23.1669 90.9254 23.5232L87.346 39.1158Z" fill="#FEE5EA"/>
</g>
<defs>
<clipPath id="clip0_1574_4281">
<rect width="105.979" height="120" fill="white"/>
</clipPath>
</defs>
</svg>
