<svg width="47" height="50" viewBox="0 0 47 50" fill="none" xmlns="http://www.w3.org/2000/svg">
<path d="M32.8341 0.263184C31.3446 0.263184 29.0608 0.46055 27.1742 1.21713C25.751 1.77634 24.427 2.82897 23.3679 3.84871C22.3087 2.86187 20.9848 1.80923 19.5615 1.21713C17.6749 0.46055 15.3911 0.296078 13.9348 0.263184H11.5186V25.0658H13.9348V2.69739C15.2256 2.69739 17.1453 2.86187 18.6679 3.45397C20.72 4.27634 22.739 6.51318 23.3679 7.33555C24.0298 6.54608 26.0157 4.30924 28.0679 3.45397C29.5573 2.86187 31.5101 2.69739 32.801 2.69739V25.0658H35.2502V0.263184H32.801H32.8341Z" fill="#E7343F"/>
<path d="M23.4008 9.93429C22.3416 8.35535 19.8261 5.85534 17.8071 5.06587C17.2113 4.83561 16.5163 4.67114 15.7881 4.60535V25.0659H18.2374V8.15798C20.3226 9.40798 22.0768 11.908 23.4008 13.8159C24.7247 11.908 26.4789 9.40798 28.5641 8.15798V25.0659H30.9803V4.60535C30.2853 4.70403 29.5902 4.83561 28.9944 5.06587C26.9754 5.88824 24.4599 8.35535 23.4008 9.93429Z" fill="#E7343F"/>
<path d="M37.1041 0.263184V26.875H27.8365C25.9829 26.875 24.4273 27.6316 23.4012 28.8816C22.3752 27.6645 20.8195 26.875 18.966 26.875H9.69842V0.263184H7.28223V29.3092H18.966C20.8195 29.3092 22.1766 30.5921 22.1766 32.3355H24.5928C24.5928 30.5921 25.9498 29.3092 27.8034 29.3092H39.4872V0.296075H37.071L37.1041 0.263184Z" fill="#E7343F"/>
<path d="M44.1206 49.9013H46.7023V48.9145H45.1798V47.6316H46.3382V46.6447H45.1798V45.5921H46.603V44.6053H44.1206V49.9013ZM40.0495 50H40.215L42.2009 47.3026V49.9342H43.1939V44.5395H43.0284L41.0425 47.2369V44.6053H40.0495V50ZM38.0636 49.9013H39.1227V44.6053H38.0636V46.6447H37.0044V44.6053H35.9453V49.9013H37.0044V47.5987H38.0636V49.9013ZM32.2382 48.1579L32.9002 46.579L33.5622 48.1579H32.2382ZM30.3847 49.9013H31.477L31.808 49.1119H33.9594L34.2903 49.9013H35.4157L32.9664 44.5066H32.8009L30.3516 49.9013H30.3847ZM28.2002 46.7105V45.5263C28.7298 45.5263 28.9946 45.6908 28.9946 46.1184C28.9946 46.5461 28.6967 46.7105 28.2002 46.7105ZM28.2002 48.9803V47.5987C28.9284 47.5987 29.2263 47.829 29.2263 48.2895C29.2263 48.75 28.9284 48.9803 28.2002 48.9803ZM27.2073 49.9013H28.2002C29.5573 49.9013 30.2523 49.3421 30.2523 48.3553C30.2523 47.3684 30.0206 47.2698 29.4249 47.0724C29.822 46.875 30.0206 46.4803 30.0206 46.0198C30.0206 45.0987 29.3587 44.6053 28.0678 44.6053H27.2403V49.9013H27.2073ZM23.7319 48.9145C22.772 48.9145 22.1432 48.2237 22.1432 47.2369C22.1432 46.25 22.8051 45.5592 23.7319 45.5592C24.6587 45.5592 25.3206 46.25 25.3206 47.2369C25.3206 48.2237 24.6587 48.9145 23.7319 48.9145ZM23.7319 50C25.2875 50 26.446 48.8158 26.446 47.2698C26.446 45.7237 25.2875 44.5395 23.7319 44.5395C22.1763 44.5395 21.0178 45.625 21.0178 47.2698C21.0178 48.9145 22.1432 50 23.7319 50ZM18.9657 50C19.8594 50 20.5213 49.375 20.5213 48.4211C20.5213 47.4671 20.2234 47.2697 19.7601 47.1382C20.1573 46.9408 20.3558 46.4803 20.3558 45.9869C20.3558 45.0987 19.6939 44.5395 18.8333 44.5395C17.9727 44.5395 18.2375 44.6053 18.1382 44.6711V45.6908C18.2706 45.5921 18.4692 45.5263 18.7009 45.5263C19.065 45.5263 19.2967 45.7566 19.2967 46.0526C19.2967 46.3487 19.1643 46.6447 18.5685 46.6447V47.6316C19.2967 47.6316 19.4622 47.9605 19.4622 48.3224C19.4622 48.6842 19.2305 49.0132 18.8002 49.0132C18.3699 49.0132 18.2375 48.9145 18.1382 48.8158V49.8355C18.4361 49.9671 18.7009 50 18.9988 50M14.5636 48.1579L15.2256 46.579L15.8875 48.1579H14.5636ZM12.7101 49.9013H13.8023L14.1333 49.1119H16.2847L16.6157 49.9013H17.7411L15.2918 44.5066H15.1263L12.677 49.9013H12.7101ZM11.0882 47.1053V45.5921C11.684 45.5921 12.015 45.8553 12.015 46.3487C12.015 46.8421 11.684 47.1053 11.0882 47.1053ZM9.99598 49.9013H11.0551V48.0921C12.5446 48.0921 13.0741 47.2698 13.0741 46.3487C13.0741 45.4276 12.2798 44.6053 10.8234 44.6053H9.99598V49.9013ZM7.315 48.9474V47.4013C7.91077 47.4013 8.24175 47.6974 8.24175 48.1908C8.24175 48.6842 7.91077 48.9803 7.315 48.9803M6.25584 49.9013H7.315C8.53964 49.9013 9.30091 49.2763 9.30091 48.1579C9.30091 47.0395 8.77133 46.4145 7.315 46.4145V45.5921H8.93682V44.6053H6.25584V49.9013ZM2.78048 48.9145C1.82063 48.9145 1.19176 48.2237 1.19176 47.2369C1.19176 46.25 1.85372 45.5592 2.78048 45.5592C3.70725 45.5592 4.36922 46.25 4.36922 47.2369C4.36922 48.2237 3.70725 48.9145 2.78048 48.9145ZM2.78048 50C4.33612 50 5.49457 48.8158 5.49457 47.2698C5.49457 45.7237 4.33612 44.5395 2.78048 44.5395C1.22485 44.5395 0.0664062 45.625 0.0664062 47.2698C0.0664062 48.9145 1.19175 50 2.78048 50Z" fill="#E7343F"/>
<path d="M44.088 41.9737H46.6696V40.9868H45.1471V39.7039H46.3055V38.7171H45.1471V37.6644H46.5703V36.6776H44.088V41.9737ZM40.4802 40.9868C39.5203 40.9868 38.8915 40.296 38.8915 39.3092C38.8915 38.3223 39.5534 37.6315 40.4802 37.6315C41.407 37.6315 42.0689 38.3223 42.0689 39.3092C42.0689 40.296 41.407 40.9868 40.4802 40.9868ZM40.4471 42.0394C42.0027 42.0394 43.1612 40.8552 43.1612 39.3092C43.1612 37.7631 42.0027 36.5789 40.4471 36.5789C38.8915 36.5789 37.733 37.6644 37.733 39.3092C37.733 40.9539 38.8584 42.0394 40.4471 42.0394ZM36.3098 41.9737H37.4351L36.4422 39.2105L37.3358 36.6776H36.2767L35.6147 38.7171H35.2506V36.6776H34.2246V41.9737H35.2506V39.7039H35.5816L36.3429 41.9737H36.3098ZM32.6358 42.0394C32.8344 42.0394 33.033 42.0394 33.1985 41.9408V40.8881C33.033 40.921 32.8675 40.9539 32.6358 40.9539C31.6429 40.9539 30.9478 40.296 30.9478 39.2763C30.9478 38.2565 31.6429 37.5986 32.6358 37.5986C33.6288 37.5986 33.033 37.5987 33.1985 37.6644V36.6118C33.033 36.546 32.8675 36.546 32.6358 36.546C31.0471 36.546 29.8556 37.5986 29.8556 39.2763C29.8556 40.9539 31.0471 42.0065 32.6358 42.0065M27.1746 38.75V37.5658C27.7041 37.5658 27.9689 37.7302 27.9689 38.1579C27.9689 38.5855 27.671 38.75 27.1746 38.75ZM27.1746 41.0526V39.671C27.9027 39.671 28.2006 39.9013 28.2006 40.3618C28.2006 40.8223 27.9027 41.0526 27.1746 41.0526ZM26.1816 41.9737H27.1746C28.5316 41.9737 29.2267 41.4144 29.2267 40.4276C29.2267 39.4408 28.995 39.3421 28.3992 39.1447C28.7964 38.9473 28.995 38.5526 28.995 38.0921C28.995 37.171 28.333 36.6776 27.0422 36.6776H26.2147V41.9737H26.1816ZM22.5739 40.9868C21.614 40.9868 20.9851 40.296 20.9851 39.3092C20.9851 38.3223 21.6471 37.6315 22.5739 37.6315C23.5006 37.6315 24.1626 38.3223 24.1626 39.3092C24.1626 40.296 23.5006 40.9868 22.5739 40.9868ZM22.5408 42.0394C24.0964 42.0394 25.2548 40.8552 25.2548 39.3092C25.2548 37.7631 24.0964 36.5789 22.5408 36.5789C20.9851 36.5789 19.8267 37.6644 19.8267 39.3092C19.8267 40.9539 20.952 42.0394 22.5408 42.0394ZM18.4034 41.9737H19.5288L18.5358 39.2105L19.4295 36.6776H18.3703L17.7084 38.7171H17.3443V36.6776H16.3182V41.9737H17.3443V39.7039H17.6753L18.4365 41.9737H18.4034ZM14.7295 42.0394C14.9281 42.0394 15.1267 42.0394 15.2922 41.9408V40.8881C15.1267 40.921 14.9612 40.9539 14.7295 40.9539C13.7365 40.9539 13.0415 40.296 13.0415 39.2763C13.0415 38.2565 13.7365 37.5986 14.7295 37.5986C15.7225 37.5986 15.1267 37.5987 15.2922 37.6644V36.6118C15.1267 36.546 14.9612 36.546 14.7295 36.546C13.1408 36.546 11.9492 37.5986 11.9492 39.2763C11.9492 40.9539 13.1408 42.0065 14.7295 42.0065M8.47387 40.9868C7.51401 40.9868 6.88513 40.296 6.88513 39.3092C6.88513 38.3223 7.54711 37.6315 8.47387 37.6315C9.40063 37.6315 10.0626 38.3223 10.0626 39.3092C10.0626 40.296 9.40063 40.9868 8.47387 40.9868ZM8.47387 42.0394C10.0295 42.0394 11.1879 40.8552 11.1879 39.3092C11.1879 37.7631 10.0295 36.5789 8.47387 36.5789C6.91823 36.5789 5.75978 37.6644 5.75978 39.3092C5.75978 40.9539 6.88513 42.0394 8.47387 42.0394ZM0.232319 36.6776V41.9737H1.25837V38.1908L2.48302 39.5065H2.54922L3.77386 38.2237V42.0065H4.79992V36.7105C3.80696 36.8421 3.14499 37.4013 2.51612 38.1579C1.88725 37.4013 1.19218 36.8092 0.199219 36.7105" fill="#E7343F"/>
</svg>
