<svg width="52" height="53" viewBox="0 0 52 53" fill="none" xmlns="http://www.w3.org/2000/svg">
<circle cx="26" cy="26.8096" r="26" fill="#BA0C2F"/>
<g clip-path="url(#clip0_96_35)">
<path d="M28.5936 28.7535C28.2363 28.7535 27.9456 29.0443 27.9456 29.4016C27.9456 29.759 28.2363 30.0497 28.5936 30.0497C28.951 30.0497 29.2417 29.759 29.2417 29.4016C29.2417 29.0443 28.951 28.7535 28.5936 28.7535Z" fill="white"/>
<path d="M23.4076 23.5691C23.0502 23.5691 22.7595 23.8598 22.7595 24.2172C22.7595 24.5745 23.0502 24.8652 23.4076 24.8652C23.765 24.8652 24.0557 24.5745 24.0557 24.2172C24.0557 23.8598 23.7649 23.5691 23.4076 23.5691Z" fill="white"/>
<path d="M26.0002 17.0597C20.624 17.0597 16.2503 21.4334 16.2503 26.8096C16.2503 28.7939 16.8385 30.6875 17.9553 32.3128L16.3216 35.5802C16.1988 35.8253 16.2363 36.1203 16.4165 36.3274C16.5473 36.4776 16.7346 36.5595 16.927 36.5595C16.9996 36.5595 17.0725 36.5481 17.1434 36.5241L21.0475 35.2055C22.5449 36.0924 24.2503 36.5595 26.0001 36.5595C31.3763 36.5595 35.75 32.1858 35.75 26.8096C35.75 21.4334 31.3763 17.0597 26.0002 17.0597ZM21.4636 24.2173C21.4636 23.1452 22.3358 22.2731 23.4079 22.2731C24.48 22.2731 25.3521 23.1452 25.3521 24.2173C25.3521 25.2894 24.48 26.1616 23.4079 26.1616C22.3358 26.1615 21.4636 25.2894 21.4636 24.2173ZM23.7087 30.018C23.5821 30.1446 23.4163 30.2079 23.2505 30.2079C23.0847 30.2079 22.9188 30.1446 22.7923 30.018C22.5392 29.7648 22.5392 29.3547 22.7923 29.1015L28.2913 23.6021C28.5445 23.349 28.9546 23.349 29.2077 23.6021C29.4609 23.8553 29.4609 24.2654 29.2077 24.5186L23.7087 30.018ZM28.5925 31.3462C27.5204 31.3462 26.6482 30.474 26.6482 29.4019C26.6482 28.3298 27.5204 27.4577 28.5925 27.4577C29.6646 27.4577 30.5367 28.3298 30.5367 29.4019C30.5367 30.474 29.6646 31.3462 28.5925 31.3462Z" fill="white"/>
</g>
<defs>
<clipPath id="clip0_96_35">
<rect width="19.5" height="19.5" fill="white" transform="translate(16.25 17.0596)"/>
</clipPath>
</defs>
</svg>
