<svg width="52" height="53" viewBox="0 0 52 53" fill="none" xmlns="http://www.w3.org/2000/svg">
<circle cx="26" cy="26.8096" r="26" fill="#F2F4F6"/>
<path d="M28.2297 12.6005L12.585 28.2453L19.9765 34.8656L34.8501 19.992L28.2297 12.6005Z" fill="#254A5D"/>
<path fill-rule="evenodd" clip-rule="evenodd" d="M24.4986 37.1423C22.5669 38.6413 20.9507 36.9814 20.3841 35.964L36.1469 20.2012C37.1642 20.7678 38.8242 22.384 37.3252 24.3157L33.6022 28.0387C33.1699 28.5391 32.6501 29.7295 34.0305 30.4881C34.4334 30.7284 34.8778 30.9726 35.3391 31.2259L35.3392 31.226C36.8712 32.0676 38.5883 33.0109 39.583 34.2534C42.2447 37.5787 37.7616 42.0618 34.4363 39.4001C33.1938 38.4054 32.2505 36.6883 31.4089 35.1563C31.1555 34.695 30.9113 34.2505 30.671 33.8476C29.9124 32.4672 28.722 32.987 28.2216 33.4194L24.4986 37.1423ZM25.3122 33.648C25.4843 33.8201 25.4843 34.0991 25.3122 34.2712C25.1401 34.4433 24.8611 34.4433 24.689 34.2712C24.5168 34.0991 24.5169 33.8201 24.689 33.648C24.8611 33.4759 25.1401 33.4758 25.3122 33.648ZM34.2671 24.6931C34.4392 24.8652 34.4391 25.1442 34.267 25.3163C34.0949 25.4884 33.8159 25.4885 33.6438 25.3164C33.4717 25.1442 33.4717 24.8652 33.6438 24.6931C33.8159 24.521 34.0949 24.521 34.2671 24.6931ZM37.8087 37.6258C38.3017 37.1328 38.3017 36.3335 37.8087 35.8405C37.3157 35.3475 34.4839 33.315 33.9909 33.808C33.4979 34.301 35.5304 37.1328 36.0234 37.6258C36.5164 38.1188 37.3157 38.1188 37.8087 37.6258Z" fill="#254A5D"/>
</svg>
