<svg width="560" height="560" viewBox="0 0 560 560" fill="none" xmlns="http://www.w3.org/2000/svg">
<g clip-path="url(#clip0_524_52413)">
<path d="M560 280C560.035 310.618 555.039 341.033 545.213 370.031C544.65 371.688 544.073 373.339 543.482 374.985C533.076 403.761 518.029 430.639 498.939 454.553C493.239 461.702 487.2 468.555 480.821 475.114C474.443 481.683 467.746 487.932 460.733 493.86C421.61 527.037 374.086 548.767 323.4 556.653H323.392C316.93 557.656 310.405 558.437 303.817 558.998C295.972 559.66 288.033 559.994 280 560C242.645 560.049 205.66 552.599 171.237 538.091C136.814 523.584 105.654 502.315 79.6013 475.544C77.7705 473.672 75.9673 471.772 74.1918 469.845C69.7681 465.048 65.5129 460.103 61.4261 455.008C59.1314 452.142 56.892 449.232 54.7078 446.277C41.2537 428.101 30.0599 408.356 21.3729 387.477C17.6682 378.585 14.433 369.504 11.6806 360.272C11.4817 359.618 11.2912 358.963 11.1007 358.309C10.6865 356.901 10.2861 355.484 9.89951 354.059C3.30967 329.925 -0.0197117 305.018 8.77894e-05 280C8.77894e-05 125.362 125.362 0 280 0C434.638 0 560 125.362 560 280Z" fill="#F4F4F5"/>
<path d="M118.75 167.364C118.317 169.996 118.466 172.691 119.186 175.259C119.907 177.827 121.182 180.206 122.922 182.228C124.662 184.25 126.823 185.867 129.255 186.963C131.687 188.059 134.33 188.609 136.997 188.573L181.693 318.627L210.212 299.027L155.157 168.771C154.801 164.294 152.814 160.104 149.574 156.994C146.335 153.884 142.066 152.07 137.579 151.897C133.091 151.723 128.696 153.202 125.226 156.053C121.755 158.903 119.451 162.928 118.75 167.364Z" fill="#FFE5EF"/>
<path d="M352.034 211.367C332.186 233.949 283.244 273.746 242.925 301.149C234.211 307.072 225.894 312.407 218.363 316.872C213.277 319.888 208.547 322.497 204.289 324.626C201.431 326.05 198.31 326.868 195.121 327.03C191.933 327.191 188.745 326.692 185.758 325.565C182.771 324.437 180.049 322.705 177.762 320.476C175.476 318.248 173.674 315.571 172.47 312.614L144.553 245.075L154.212 238.671L178.028 222.874L183.438 219.295L205.772 272.487L229.323 253.582L243.944 241.844L310.598 188.354L316.347 186.647L329.759 199.736L339.244 208.998L348.166 210.547C349.499 210.779 350.792 211.052 352.034 211.367Z" fill="#E51740"/>
<path d="M530.111 396.939C531.494 398.695 532.928 400.443 534.361 402.199C529.424 412.336 523.875 422.162 517.743 431.624C517.287 431.301 516.832 430.978 516.376 430.655C516.304 430.616 516.235 430.571 516.169 430.522C514.471 429.313 512.764 428.12 511.066 426.911V426.902C509.665 422.135 508.883 417.207 508.738 412.24C509.614 412.039 510.407 411.573 511.01 410.906C511.612 410.24 511.995 409.404 512.106 408.512C512.217 407.62 512.052 406.716 511.631 405.922C511.211 405.127 510.557 404.481 509.757 404.071C509.534 403.682 509.376 403.4 509.152 403.003C509.161 402.903 509.177 402.796 509.186 402.696C510.486 392.35 523.674 388.738 530.111 396.939Z" fill="white"/>
<path d="M544.981 361.484C545.975 364.217 546.881 366.982 547.698 369.776C547.135 371.433 546.558 373.084 545.967 374.73C545.743 373.86 545.511 372.99 545.271 372.12C543.924 367.284 542.306 362.527 540.425 357.872C538.884 354.053 537.178 350.314 535.306 346.655C525.125 326.779 510.373 309.602 492.262 296.537C484.777 294.806 478.003 290.822 472.852 285.122C470.995 283.073 469.441 280.769 468.238 278.279C469 278.171 469.762 278.022 470.508 277.865C470.74 277.815 470.98 277.757 471.212 277.707L471.303 277.691C472.118 277.502 472.861 277.081 473.443 276.48C474.025 275.879 474.42 275.122 474.582 274.301C474.744 273.48 474.665 272.63 474.356 271.853C474.046 271.076 473.518 270.405 472.836 269.92C472.413 269.614 471.982 269.316 471.56 269.017C470.914 268.545 470.259 268.098 469.605 267.634C469.536 267.591 469.47 267.544 469.406 267.493C468.661 266.963 467.915 266.449 467.178 265.911C467.75 264.065 468.739 262.376 470.069 260.974C474.7 256.194 482.967 256.302 488.368 260.195C493.778 264.088 496.495 270.906 496.843 277.55C497.149 283.241 495.923 288.874 494.308 294.367C494.714 294.665 495.136 294.946 495.542 295.253C503 300.78 509.898 307.026 516.136 313.9C512.533 305.351 511.224 294.201 512.16 286.522C513.229 277.774 517.478 269.465 520.958 261.189C525.124 251.248 539.34 251.116 543.349 261.123C543.391 261.222 543.432 261.313 543.465 261.413C542.794 262.084 542.148 262.78 541.527 263.5C540.747 264.408 540.259 265.531 540.128 266.721C539.996 267.911 540.227 269.113 540.79 270.169C541.354 271.226 542.223 272.087 543.284 272.642C544.345 273.196 545.549 273.417 546.737 273.275L546.862 273.259C547.378 276.212 547.672 279.2 547.74 282.197C547.843 290.583 546.212 298.9 542.951 306.626C539.689 314.352 534.867 321.321 528.786 327.097C528.388 327.47 527.999 327.834 527.593 328.19C531.431 333.647 534.877 339.369 537.907 345.313C540.596 350.552 542.959 355.953 544.981 361.484Z" fill="white"/>
<path d="M385.361 283.769L382.859 455.588L180.762 449.789L213.036 378.547C212.804 376.26 227.202 360.214 227.119 357.837C226.871 350.87 232.073 344.417 232.918 337.127C234.641 322.091 224.775 265.313 229.323 253.582C231.26 248.344 233.742 243.324 236.729 238.605C239.313 234.695 241.964 232.06 244.499 231.108L251.971 213.695L258.598 203.754L310.597 188.354L316.346 186.647L329.758 199.736L339.243 208.998L348.165 210.547C349.499 210.779 350.791 211.052 352.034 211.367C358.019 212.747 363.596 215.51 368.32 219.436C383.894 232.665 385.708 257.55 385.361 283.769Z" fill="#E51740"/>
<path d="M501.425 454.298C495.725 461.447 489.686 468.301 483.307 474.859L461.454 474.875L343.929 475.008L322.771 475.033L308.705 475.049L287.78 475.066L271.684 475.082L241.952 475.116L224.415 475.14L187.485 475.174L169.856 475.198L121.006 475.248L90.3216 475.281L82.0873 475.29C80.2565 473.417 78.4533 471.518 76.6778 469.59C72.2541 464.794 67.9989 459.848 63.9121 454.753L80.9606 454.737L92.5748 454.729L119.465 454.695L171.356 454.646L188.893 454.629L195.984 454.621H196.009L201.576 454.613L204.07 454.604L210.456 454.596H213.157L232.094 454.579L272.943 454.53L290.919 454.513L308.133 454.497L324.271 454.48L347.425 454.455L471.088 454.331L501.425 454.298Z" fill="#797E8B"/>
<path d="M221.818 196.308L221.773 196.312C219.383 196.535 217.003 195.799 215.156 194.266C213.309 192.733 212.146 190.53 211.924 188.14L207.213 137.856C206.36 128.848 207.327 119.761 210.057 111.134C215.407 94.2973 227.048 80.1746 242.555 71.7093C250.561 67.3498 259.368 64.6566 268.443 63.7919C305.572 60.2547 319.14 67.9874 342.075 124.614C365.011 181.241 346.794 174.975 346.794 174.975C346.908 176.186 346.778 177.409 346.41 178.569C345.688 180.833 344.12 182.731 342.032 183.865C340.961 184.446 339.783 184.806 338.57 184.923C294.676 196.08 250.385 207.825 221.81 196.309L221.818 196.308Z" fill="#1D2533"/>
<path d="M303.517 111.438C309.026 119.59 311.997 129.192 312.053 139.032C312.109 148.872 309.247 158.507 303.83 166.721C298.413 174.936 290.683 181.361 281.617 185.185C272.55 189.008 262.554 190.06 252.891 188.206C246.494 186.999 240.4 184.536 234.962 180.957C229.524 177.379 224.85 172.757 221.211 167.359C215.713 159.209 212.751 149.614 212.698 139.783C212.645 129.952 215.504 120.326 220.915 112.118C226.326 103.909 234.045 97.4868 243.101 93.6598C252.157 89.8328 262.142 88.7726 271.8 90.613C278.202 91.8123 284.302 94.2708 289.747 97.8459C295.191 101.421 299.872 106.041 303.517 111.439L303.517 111.438Z" fill="#FFE5EF"/>
<path d="M191.647 143.443C190.974 136.318 191.739 129.131 193.897 122.309C194.398 105.619 199.24 90.5015 219.597 91.136C225.889 87.7129 232.806 85.5905 239.935 84.895L249.995 83.9016C250.108 83.8904 250.221 83.8795 250.334 83.869C257.303 83.2204 264.332 83.9508 271.019 86.0186C277.706 88.0864 283.92 91.4511 289.307 95.9205C294.694 100.39 299.148 105.877 302.414 112.067C305.68 118.258 307.695 125.031 308.344 132.001L308.438 133.008L287.155 135.088L277.996 115.487L278.448 135.944L267.456 137.023L262.837 127.133L263.062 137.448C246.741 151.822 221.993 152.575 191.751 144.451L191.647 143.443Z" fill="#1D2533"/>
<path d="M259.725 191.158C259.544 192.815 259.831 194.489 260.555 195.991C260.919 196.76 261.39 197.474 261.952 198.112C262.434 198.656 262.978 199.141 263.573 199.557C265.336 200.785 267.479 201.344 269.617 201.134C269.75 201.12 269.883 201.104 270.016 201.085C270.149 201.067 270.281 201.045 270.413 201.02C270.547 200.996 270.679 200.969 270.811 200.938C270.942 200.906 271.074 200.873 271.206 200.836L278.634 198.755L286.959 175.544L288.867 195.911L322.644 186.508L314.546 100.076L256.977 105.749L258.555 107.269C263.801 112.375 267.537 118.829 269.351 125.922C271.151 133.109 271.707 140.551 270.994 147.926C270.328 155.383 268.947 162.759 266.871 169.952C265.064 176.321 262.891 182.581 260.364 188.701C260.037 189.486 259.822 190.313 259.725 191.158Z" fill="#1D2533"/>
<path d="M267.401 463.664C266.411 463.664 265.434 463.443 264.54 463.018L105.056 467.086C103.833 466.507 102.813 465.569 102.134 464.398C101.454 463.227 101.145 461.878 101.248 460.527C101.351 459.177 101.862 457.89 102.712 456.836C103.562 455.782 104.712 455.01 106.009 454.623L210.348 423.513C211.429 423.191 212.573 423.147 213.675 423.385L375.069 443.057C376.497 443.365 377.785 444.133 378.736 445.242C379.688 446.352 380.249 447.742 380.336 449.2C380.423 450.659 380.031 452.106 379.218 453.32C378.406 454.535 377.218 455.45 375.837 455.926L269.587 463.296C268.884 463.539 268.145 463.664 267.401 463.664Z" fill="#1D2533"/>
<path d="M273.267 452.562C272.547 452.562 271.839 452.378 271.21 452.027L141.686 458.078C140.95 457.665 140.356 457.041 139.98 456.286C139.605 455.531 139.465 454.68 139.58 453.845C139.695 453.009 140.058 452.228 140.624 451.602C141.189 450.976 141.929 450.535 142.749 450.336L189.639 438.955C190.371 438.778 191.137 438.8 191.857 439.02L312.269 438.875C313.126 439.138 313.877 439.667 314.411 440.387C314.945 441.107 315.235 441.979 315.239 442.875C315.242 443.772 314.958 444.646 314.429 445.369C313.899 446.093 313.152 446.628 312.297 446.896L274.52 452.371C274.114 452.498 273.692 452.562 273.267 452.562Z" fill="#1D2533"/>
<path d="M259.633 445.659C261.875 447.104 264.407 448.04 267.05 448.402C269.693 448.763 272.383 448.54 274.93 447.749C277.478 446.958 279.821 445.619 281.794 443.824C283.768 442.03 285.324 439.824 286.354 437.363L423.45 448.133L416.823 414.168L275.417 412.821C271.168 411.366 266.533 411.52 262.391 413.254C258.248 414.988 254.885 418.182 252.94 422.229C250.994 426.277 250.601 430.898 251.835 435.216C253.068 439.534 255.843 443.25 259.633 445.659Z" fill="#FFE5EF"/>
<path d="M340.611 224.464C340.611 224.464 361.321 207.896 386.173 237.718C402.933 257.83 435.264 379.412 437.944 429.794C438.114 432.982 437.623 436.17 436.502 439.16C435.382 442.149 433.656 444.875 431.433 447.166C429.21 449.458 426.537 451.265 423.583 452.475C420.629 453.685 417.457 454.272 414.265 454.199L341.191 452.927L333.02 406.992L390.712 407.675L340.611 224.464Z" fill="#E51740"/>
<path d="M258.531 463.683C256.024 463.681 253.543 463.179 251.232 462.205L103.411 465.578C99.5094 463.951 96.2709 461.056 94.2188 457.361C92.1667 453.665 91.421 449.386 92.1021 445.214L86.6094 315.394C87.3378 310.757 89.7784 306.562 93.4494 303.636C97.1203 300.711 101.755 299.268 106.437 299.593L243.673 305.285C246.307 305.458 248.876 306.183 251.212 307.412C253.548 308.641 255.6 310.348 257.234 312.421C258.869 314.494 260.049 316.888 260.698 319.447C261.348 322.006 261.453 324.672 261.005 327.274L277.084 448.029C276.328 452.404 274.053 456.373 270.659 459.236C267.266 462.099 262.971 463.674 258.531 463.683Z" fill="#1D2533"/>
<path d="M146.284 77.1823L84.5933 77.0083C82.9397 77.0063 81.3527 77.6601 80.1803 78.8263C79.0079 79.9925 78.3457 81.576 78.3389 83.2296L78.1152 164.918C78.1117 166.57 78.7641 168.156 79.9291 169.327C81.0941 170.498 82.6764 171.159 84.3283 171.165L118.55 171.264L146.028 171.338C147.681 171.342 149.268 170.688 150.439 169.521C151.61 168.354 152.27 166.77 152.274 165.117L152.29 160.288L152.506 83.4367C152.509 81.7826 151.856 80.1949 150.689 79.0222C149.523 77.8495 147.939 77.1877 146.284 77.1823Z" fill="#D3D4DB"/>
<path d="M141.934 82.0617L88.9161 81.9126C87.3679 81.9106 85.8821 82.5225 84.7843 83.6142C83.6864 84.7058 83.0661 86.1881 83.0593 87.7363L82.9102 140.257C82.8998 147.154 85.6255 153.774 90.4895 158.665C95.3534 163.555 101.958 166.316 108.856 166.343L118.929 166.368L141.702 166.435C143.251 166.438 144.737 165.826 145.835 164.735C146.933 163.643 147.553 162.159 147.559 160.611L147.575 155.326L147.757 87.9185C147.761 86.3699 147.149 84.8833 146.058 83.7851C144.966 82.687 143.482 82.0671 141.934 82.0617Z" fill="white"/>
<path d="M135.978 117.948H94.6412C94.3154 117.948 93.9928 118.012 93.6917 118.137C93.3907 118.261 93.1172 118.444 92.8868 118.674C92.6564 118.905 92.4737 119.178 92.349 119.479C92.2243 119.78 92.1602 120.103 92.1602 120.429C92.1602 120.755 92.2243 121.077 92.349 121.378C92.4737 121.679 92.6564 121.953 92.8868 122.183C93.1172 122.414 93.3907 122.596 93.6917 122.721C93.9928 122.846 94.3154 122.91 94.6412 122.91H135.978C136.637 122.91 137.268 122.648 137.733 122.183C138.198 121.718 138.46 121.087 138.46 120.429C138.46 119.771 138.198 119.14 137.733 118.674C137.268 118.209 136.637 117.948 135.978 117.948Z" fill="#E00051"/>
<path d="M103.729 104.346H94.6412C93.9832 104.346 93.3521 104.607 92.8869 105.072C92.4216 105.538 92.1602 106.169 92.1602 106.827C92.1602 107.485 92.4216 108.116 92.8869 108.581C93.3521 109.046 93.9832 109.308 94.6412 109.308H103.729C104.387 109.308 105.018 109.046 105.483 108.581C105.948 108.116 106.21 107.485 106.21 106.827C106.21 106.169 105.948 105.538 105.483 105.072C105.018 104.607 104.387 104.346 103.729 104.346Z" fill="#E00051"/>
<path d="M135.978 139.76H94.6412C93.9832 139.76 93.3521 140.021 92.8868 140.486C92.4215 140.952 92.1602 141.583 92.1602 142.241C92.1602 142.899 92.4215 143.53 92.8868 143.995C93.3521 144.461 93.9832 144.722 94.6412 144.722H135.978C136.637 144.722 137.268 144.461 137.733 143.995C138.198 143.53 138.46 142.899 138.46 142.241C138.46 141.583 138.198 140.952 137.733 140.486C137.268 140.021 136.637 139.76 135.978 139.76Z" fill="#E00051"/>
<path d="M135.978 128.858H94.641C93.9841 128.858 93.354 129.119 92.8895 129.583C92.425 130.048 92.1641 130.678 92.1641 131.335C92.1641 131.992 92.425 132.622 92.8895 133.086C93.354 133.551 93.9841 133.812 94.641 133.812H135.978C136.635 133.812 137.265 133.551 137.73 133.086C138.194 132.622 138.455 131.992 138.455 131.335C138.455 130.678 138.194 130.048 137.73 129.583C137.265 129.119 136.635 128.858 135.978 128.858Z" fill="#E00051"/>
<path d="M127.946 113.119C125.043 113.119 122.206 112.258 119.792 110.645C117.379 109.033 115.498 106.741 114.387 104.059C113.276 101.377 112.985 98.4262 113.552 95.5792C114.118 92.7323 115.516 90.1172 117.568 88.0647C119.621 86.0122 122.236 84.6144 125.083 84.0481C127.93 83.4818 130.88 83.7725 133.562 84.8833C136.244 85.9941 138.536 87.8752 140.149 90.2887C141.761 92.7022 142.622 95.5397 142.622 98.4424C142.618 102.333 141.07 106.064 138.319 108.815C135.567 111.567 131.837 113.114 127.946 113.119ZM127.946 84.786C125.245 84.786 122.605 85.5869 120.359 87.0875C118.113 88.5881 116.363 90.7209 115.329 93.2163C114.295 95.7117 114.025 98.4576 114.552 101.107C115.079 103.756 116.379 106.189 118.289 108.099C120.199 110.009 122.632 111.31 125.282 111.836C127.931 112.363 130.676 112.093 133.172 111.059C135.667 110.026 137.8 108.275 139.301 106.03C140.801 103.784 141.602 101.143 141.602 98.4424C141.598 94.8218 140.158 91.3506 137.598 88.7905C135.038 86.2303 131.566 84.7902 127.946 84.786Z" fill="#E00051"/>
<path d="M133.372 91.4504C133.372 91.5656 133.311 91.6424 133.188 91.6808C132.915 91.7832 132.621 91.8728 132.307 91.9495C131.992 92.0263 131.692 92.0967 131.405 92.1607C130.64 92.3399 129.902 92.4295 129.191 92.4295C128.85 92.4295 128.508 92.4167 128.166 92.3911C127.838 92.3527 127.504 92.3079 127.162 92.2567C127.162 92.3207 127.114 92.4615 127.019 92.6791C126.937 92.8967 126.827 93.159 126.691 93.4662C126.554 93.7606 126.397 94.0805 126.219 94.4261C126.042 94.7717 125.871 95.0981 125.707 95.4052C125.543 95.7124 125.392 95.9876 125.256 96.2307C125.133 96.4611 125.044 96.6211 124.989 96.7107C125.509 96.4931 126.042 96.3523 126.588 96.2883C127.148 96.2115 127.709 96.1732 128.269 96.1732C128.761 96.1732 129.225 96.2755 129.663 96.4803C130.1 96.6723 130.476 96.9347 130.79 97.2674C131.118 97.6002 131.371 97.9842 131.548 98.4193C131.74 98.8417 131.835 99.2769 131.835 99.7248C131.835 100.211 131.76 100.672 131.61 101.107C131.459 101.542 131.254 101.958 130.995 102.355C130.749 102.752 130.462 103.129 130.134 103.488C129.806 103.846 129.464 104.185 129.109 104.505C128.412 105.132 127.668 105.715 126.875 106.252C126.096 106.777 125.283 107.251 124.436 107.673C124.422 107.686 124.388 107.692 124.333 107.692C124.238 107.692 124.163 107.654 124.108 107.577C124.053 107.513 124.026 107.442 124.026 107.366C124.026 107.302 124.06 107.238 124.129 107.174C124.347 107.02 124.566 106.873 124.784 106.732C125.017 106.604 125.249 106.463 125.481 106.31C126.014 105.939 126.527 105.555 127.019 105.158C127.524 104.761 128.002 104.339 128.453 103.891C128.727 103.622 129 103.334 129.273 103.027C129.56 102.707 129.813 102.374 130.032 102.029C130.264 101.683 130.448 101.325 130.585 100.954C130.722 100.582 130.79 100.205 130.79 99.8208C130.79 99.3601 130.701 98.9697 130.523 98.6497C130.359 98.3169 130.127 98.0482 129.827 97.8434C129.526 97.6258 129.178 97.4658 128.781 97.3634C128.399 97.261 127.982 97.2099 127.531 97.2099C126.889 97.2099 126.274 97.293 125.686 97.4594C125.099 97.6258 124.525 97.8562 123.965 98.1506C123.91 98.1762 123.862 98.189 123.821 98.189C123.753 98.189 123.671 98.157 123.575 98.093C123.479 98.0162 123.432 97.9458 123.432 97.8818C123.432 97.805 123.479 97.6386 123.575 97.3826C123.684 97.1139 123.807 96.8323 123.944 96.5379C124.081 96.2307 124.211 95.9428 124.333 95.674C124.47 95.3924 124.566 95.2004 124.62 95.0981C124.853 94.6629 125.078 94.2341 125.297 93.8118C125.529 93.3766 125.761 92.9351 125.994 92.4871C126.062 92.3719 126.137 92.2119 126.219 92.0071C126.315 91.8024 126.404 91.6488 126.486 91.5464C126.513 91.508 126.588 91.4568 126.711 91.3928C126.834 91.3288 126.93 91.284 126.998 91.2584C127.053 91.2584 127.101 91.2648 127.142 91.2776C127.196 91.2904 127.244 91.3032 127.285 91.316C127.681 91.3928 128.078 91.4568 128.474 91.508C128.87 91.5592 129.273 91.5848 129.683 91.5848C129.956 91.5848 130.23 91.572 130.503 91.5464C130.776 91.508 131.05 91.4696 131.323 91.4312C131.405 91.4184 131.528 91.3992 131.692 91.3736C131.869 91.3352 132.047 91.2968 132.225 91.2584C132.416 91.22 132.587 91.188 132.737 91.1624C132.901 91.1368 133.01 91.124 133.065 91.124C133.133 91.124 133.202 91.1688 133.27 91.2584C133.338 91.3352 133.372 91.3992 133.372 91.4504Z" fill="#E00051"/>
</g>
<defs>
<clipPath id="clip0_524_52413">
<rect width="560" height="560" fill="white"/>
</clipPath>
</defs>
</svg>
