<svg width="75" height="57" viewBox="0 0 75 57" fill="none" xmlns="http://www.w3.org/2000/svg">
<g clip-path="url(#clip0_623_4740)">
<path d="M62.9235 56.826L15.0864 56.8426C12.6832 56.8434 10.5304 55.6015 9.3281 53.5207C8.72686 52.4801 8.42618 51.3387 8.42578 50.197C8.42539 49.0554 8.72543 47.9136 9.3258 46.8728L33.2292 3.35809C34.4302 1.27628 36.5821 0.033058 38.9853 0.032227C41.3885 0.031396 43.5412 1.27313 44.7437 3.35411L68.6802 46.8577C69.2799 47.8955 69.5798 49.0356 69.5799 50.1766C69.5799 51.3175 69.28 52.4592 68.6795 53.5002C67.4786 55.5818 65.3267 56.8252 62.9235 56.826ZM9.0271 50.1962C9.02702 51.2354 14.3057 48.9961 14.8526 49.9427C15.9464 51.8358 12.8997 56.2433 15.0862 56.2426C15.0862 56.2426 67.0672 55.0942 68.1598 53.2004C68.706 52.2534 68.979 51.2146 68.9786 50.176C68.9783 49.1375 68.7046 48.099 68.1575 47.1525L44.221 3.64888C43.1302 1.76122 41.1719 0.631471 38.9855 0.632227C36.8001 0.632983 9.02718 49.1569 9.0271 50.1962Z" fill="white"/>
<path d="M52.943 47.2292C65.038 47.2292 74.843 37.4242 74.843 25.3292C74.843 13.2342 65.038 3.4292 52.943 3.4292C40.8479 3.4292 31.043 13.2342 31.043 25.3292C31.043 37.4242 40.8479 47.2292 52.943 47.2292Z" fill="#E51740"/>
<path d="M52.9463 38.754C54.0569 38.754 54.9571 37.8537 54.9571 36.7432C54.9571 35.6327 54.0569 34.7324 52.9463 34.7324C51.8358 34.7324 50.9355 35.6327 50.9355 36.7432C50.9355 37.8537 51.8358 38.754 52.9463 38.754Z" fill="white"/>
<path d="M52.9378 11.9041C52.753 13.1315 53.084 13.3883 53.0858 18.6797C53.0877 23.971 54.1856 31.0654 52.9444 31.0658C51.7032 31.0662 51.2492 16.425 46.9393 15.1291C41.8721 13.6056 53.5357 7.93092 52.9378 11.9041Z" fill="white"/>
<path d="M23.5506 36.5104L21.572 40.691C23.9639 38.9758 27.7001 37.4972 30.6732 36.7053C27.903 35.3672 24.5133 33.2098 22.4882 31.0737L23.6262 35.491C10.284 32.7735 0.702797 22.5381 0.698741 10.8133L0.216797 10.6475C0.221033 22.8943 9.66971 33.7358 23.5506 36.5104Z" fill="white"/>
</g>
<defs>
<clipPath id="clip0_623_4740">
<rect width="75" height="57" fill="white"/>
</clipPath>
</defs>
</svg>
