<svg width="650" height="213" viewBox="0 0 650 213" fill="none" xmlns="http://www.w3.org/2000/svg">
<g clip-path="url(#clip0_3856_4585)">
<g clip-path="url(#clip1_3856_4585)">
<path d="M647.87 89.5849C651.786 84.5226 654.535 78.6572 655.92 72.409C641.227 54.6562 625.004 38.0623 608.245 22.3257C595.211 10.1074 577.56 -2.51297 561.01 4.17031C549.694 8.74006 543.69 20.7081 536.444 30.5108C529.199 40.3135 516.71 49.2656 505.625 44.2086C502.134 42.5948 499.28 39.8641 497.514 36.4474C494.134 46.0725 487.747 54.3554 479.297 60.0705C464.634 69.7869 444.649 70.2302 429.469 61.5034C426.39 71.5409 419.323 80.6069 409.697 86.7058C408.835 87.2542 407.959 87.7628 407.078 88.2492C401.829 93.6731 395.887 98.3798 389.405 102.247C368.58 114.43 337.995 113.572 324.08 93.8758C315.99 82.4308 312.824 65.0407 299.284 61.456C276.06 55.3061 268.152 96.3188 245.178 103.217C231.069 107.49 216.686 97.0382 208.075 85.1242C199.464 73.2102 193.475 59.0338 182.008 49.8657C160.458 32.6822 123.091 43.7494 114.37 69.9068C112.214 66.4786 110.022 63.0245 107.75 59.617C101.656 61.2618 95.1598 60.4382 89.6706 57.3248C81.9861 52.9325 76.2613 44.3659 73.9657 33.8337C73.4846 31.587 73.1408 29.313 72.9361 27.0244C57.7427 21.1954 38.7047 23.481 29.6247 36.7227C29.0479 29.4467 28.3629 21.9457 27.0983 14.6601C23.4444 13.4789 20.0069 11.7121 16.9198 9.42857C15.9008 8.66096 14.9265 7.83579 14.0016 6.95702C5.73594 -0.907453 1.23059 -13.2459 1.72652 -26.9866C-13.5512 -33.8805 -34.2255 -30.2413 -38.9521 -14.4435L-53.5925 -79.1239C-58.5277 -100.925 -67.2221 -126.713 -89.0236 -131.666C-107.731 -135.907 -125.315 -121.903 -138.759 -108.203C-151.186 -121.526 -146.294 -143.257 -153.196 -160.116C-160.42 -177.699 -179.659 -186.427 -199.082 -186.373C-199.678 -176.143 -199.564 -165.726 -197.941 -155.659C-195.395 -139.878 -189.139 -124.628 -183.026 -109.897C-180.542 -103.874 -177.973 -97.6479 -175.677 -91.4374C-171.41 -79.8742 -167.6 -67.4916 -163.933 -55.4982C-150.983 -13.1648 -137.59 30.6084 -99.9207 49.727L-98.397 50.5058L-98.5519 52.1883C-101.372 82.8452 -87.1753 114.504 -62.3967 132.825C-37.6181 151.147 -3.21756 155.391 25.2802 143.676L38.7023 138.147L27.9419 147.873C27.4792 148.312 27.1329 148.86 26.9344 149.467C26.7358 150.073 26.6911 150.72 26.8043 151.348C26.991 152.636 27.4629 153.866 28.1854 154.949C28.908 156.031 29.8631 156.939 30.9811 157.605C34.0415 159.323 37.73 159.721 41.6377 160.137C43.1641 160.299 44.7353 160.47 46.2998 160.73C67.4399 164.209 81.9908 182.541 93.4219 200.005L94.8977 202.281C105.564 218.608 116.601 235.488 133.996 242.235C144.007 246.104 157.182 243.957 166.051 237.007C172.24 232.15 175.176 225.759 174.304 219.013L173.774 214.883L177.68 216.317C211.037 228.588 244.666 220.36 269.939 193.752L274.269 189.201L274.299 195.477C274.396 217.172 289.421 237.89 310.015 244.735C330.608 251.581 355.006 243.973 368.057 226.631L371.545 221.995L372.561 227.702C375.868 246.28 397.586 256.74 414.81 253.661C431.594 250.668 447.203 237.513 456.527 218.412C465.107 200.835 467.867 181.153 470.541 162.121L471.027 158.662L474.163 160.208C491.839 168.93 515.102 165.445 529.475 151.932L530.705 150.776L532.245 151.465C545.666 157.5 562.062 155.436 576.168 145.93C590.273 136.424 598.355 121.998 597.831 107.287L597.705 103.812L601.05 104.764C617.84 109.611 637.106 103.342 647.87 89.5849ZM-79.413 -31.6259C-81.2042 -30.0362 -83.8017 -28.7344 -86.2735 -29.5787C-91.5366 -31.3709 -95.2124 -35.0512 -96.5637 -40.6068C-97.5669 -44.7158 -96.7739 -49.1288 -95.0366 -52.9046C-93.8675 -55.4609 -90.1838 -55.2586 -88.7903 -53.0613C-85.5821 -47.8826 -71.7719 -38.4027 -79.4217 -31.6167L-79.413 -31.6259ZM-7.61693 90.512C-16.0925 89.5236 -24.01 81.4763 -27.5688 74.0295C-31.4943 65.8329 -25.5061 56.1153 -15.9131 58.0623C-6.14053 60.0494 2.89825 66.3141 6.43952 75.7659C9.84859 84.9263 0.326038 91.4467 -7.62564 90.5211L-7.61693 90.512ZM49.2224 90.4345C48.7736 90.6462 48.2809 90.7477 47.785 90.7306C47.2892 90.7135 46.8047 90.5784 46.3717 90.3364L46.0043 90.1C45.1637 89.6018 44.531 88.8173 44.222 87.8902C44.0351 87.2201 44.0347 86.5116 44.2206 85.841C44.2571 85.4181 44.3742 85.006 44.5656 84.627C44.9997 83.8643 45.7015 83.2899 46.5349 83.015C47.0196 82.8786 47.5292 82.856 48.024 82.9489C48.5188 83.0418 48.9854 83.2477 49.3875 83.5506C49.5755 83.6905 49.7459 83.8527 49.8949 84.0335C50.2645 84.3049 50.5827 84.6401 50.8345 85.0233C51.3262 85.8401 51.4785 86.817 51.2589 87.745C51.2047 87.9026 51.1549 88.0556 51.1053 88.2176C50.9775 88.7069 50.7411 89.1611 50.4136 89.5465C50.0861 89.9319 49.676 90.2386 49.2137 90.4437L49.2224 90.4345ZM483.301 89.2035C489.871 92.0478 492.941 101.043 490.534 107.51C489.556 110.134 487.977 112.494 485.922 114.398C484.416 115.771 482.588 117.142 480.564 117.631L477.9 118.041C479.689 117.773 480.035 117.748 478.939 117.966C474.604 118.861 468.916 116.856 468.004 111.919C467.914 111.537 467.891 111.35 467.922 111.345L467.52 110.422C467.169 109.399 466.544 105.397 467.108 107.834L467.199 108.269C466.996 107.256 466.841 106.238 466.722 105.2L466.445 103.413C466.153 99.143 468.772 94.019 471.659 91.0581C474.83 87.8445 479.285 87.4827 483.311 89.2301L483.301 89.2035ZM176.979 107.736C182.696 104.547 189.212 104.647 195.392 106.171C202.892 107.965 207.994 111.373 210.631 118.7C211.877 122.16 209.83 125.895 207.043 127.826C197.092 134.723 179.656 128.102 174.562 117.435C172.984 114.068 173.439 109.735 176.979 107.736ZM148.359 201.533C146.275 200.492 146.367 198.07 147.541 196.451C156.354 184.314 174.153 178.497 187.442 186.95C188.159 187.355 188.692 188.021 188.93 188.809C189.168 189.597 189.093 190.447 188.721 191.181C180.782 205.265 162.118 208.403 148.368 201.542L148.359 201.533ZM282.473 154.038C275.738 160.605 266.449 164.472 256.376 164.988C247.616 165.506 238.926 163.157 231.621 158.296C222.777 171.509 206.747 179.55 190.837 178.503C176.165 177.536 162.411 168.885 154.852 156.369C152.668 160.864 149.228 164.632 144.95 167.216C137.216 172.057 127.276 173.396 119.043 170.687C113.917 168.983 109.239 166.151 105.352 162.401C97.4658 154.897 92.8543 144.41 90.9994 135.273C87.9321 120.059 90.3771 104.068 92.5381 89.9597L97.5259 90.7231C95.331 105.087 93.0587 119.935 95.9525 134.269C98.4045 146.44 106.178 161.139 120.626 165.893C127.468 168.15 135.761 167.013 142.26 162.948C147.632 159.581 150.985 154.693 151.709 149.282L152.991 139.897L156.571 148.593C162.289 162.468 176.17 172.469 191.163 173.436C206.156 174.404 221.248 166.333 228.731 153.35L230.2 150.8L232.495 152.644C245.622 163.19 266.901 162.166 278.964 150.412C291.027 138.658 292.593 117.412 282.4 104.011L286.419 100.95C292.117 108.428 294.842 118.106 294.095 128.192C293.348 138.278 289.192 147.49 282.473 154.038ZM312.123 164.603C311.496 164.878 311.002 165.095 310.631 165.257C310.533 165.304 310.304 165.408 309.911 165.583C303.991 168.307 298.104 164.388 298.571 157.965C298.502 157.543 298.434 157.12 298.379 156.693C298.349 155.604 298.454 154.516 298.692 153.453C298.918 152.3 299.121 151.116 299.387 149.975C299.655 149.042 300.001 148.132 300.423 147.257C300.696 146.419 301.031 145.602 301.425 144.812C302.17 143.554 303.045 142.377 304.035 141.3C306.78 138.022 311.796 138.489 314.743 141.032C318.579 144.324 320.155 150.111 318.91 155.035C318.203 157.418 317.054 159.648 315.523 161.607C314.636 162.854 313.472 163.88 312.123 164.603ZM343.853 206.617C318.152 187.288 345.644 142.967 361.01 125.902C370.348 115.529 381.814 106.71 395.112 102.483C408.41 98.2564 423.672 99.079 435.42 106.588C447.395 114.253 454.672 128.714 453.696 142.904C453.526 145.417 453.072 148.018 451.623 150.081C449.846 152.608 446.87 153.951 444.043 155.182C436.59 158.42 429.149 161.663 421.72 164.912C418.301 166.4 414.62 168.126 412.961 171.463C410.609 176.196 413.35 181.784 413.909 187.073C417.294 219.338 361.384 219.794 343.853 206.617ZM444.875 200.128C443.116 205.217 441.149 210.15 436.026 212.779C431.405 215.145 424.989 211.48 426.538 205.851C428.086 200.223 432.044 197.07 436.814 194.245C440.541 192.049 446.449 195.543 444.875 200.128ZM512.606 122.533C498.925 108.129 503.407 75.9263 518.238 64.1743C521.785 61.362 525.948 59.4495 530.124 57.6974C540.03 53.538 551.066 50.0602 561.369 53.101C566.801 54.7148 571.571 58.024 575.837 61.752C580.528 65.8577 585.072 71.802 583.254 77.7586C582.042 81.8338 578.215 84.5102 574.727 86.9773C567.956 91.7679 561.26 97.387 558.168 105.085C551.457 121.853 529.926 140.711 512.605 122.488L512.606 122.533ZM606.108 64.3857C601.445 63.9401 597.905 61.2341 595.359 57.3737C592.525 53.074 590.043 44.3859 593.4 39.6854C597.323 34.1984 604.02 35.8475 609.074 38.9128C615.809 43.0119 620.869 51.7827 616.418 59.3545C614.229 63.0926 610.315 64.7891 606.108 64.3857Z" fill="#E5F6FF"/>
</g>
</g>
<defs>
<clipPath id="clip0_3856_4585">
<rect width="650" height="213" fill="white"/>
</clipPath>
<clipPath id="clip1_3856_4585">
<rect width="804" height="543" fill="white" transform="translate(80.293 -480) rotate(43.5752)"/>
</clipPath>
</defs>
</svg>
