<svg width="16" height="16" viewBox="0 0 16 16" fill="none" xmlns="http://www.w3.org/2000/svg">
<g opacity="0.2">
<mask id="path-1-inside-1_1032_8724" fill="white">
<path d="M9 13.5V2.5C9 2.36739 8.94732 2.24021 8.85355 2.14645C8.75979 2.05268 8.63261 2 8.5 2H2.5C2.36739 2 2.24021 2.05268 2.14645 2.14645C2.05268 2.24021 2 2.36739 2 2.5V13.5"/>
</mask>
<path d="M9 13.5V2.5C9 2.36739 8.94732 2.24021 8.85355 2.14645C8.75979 2.05268 8.63261 2 8.5 2H2.5C2.36739 2 2.24021 2.05268 2.14645 2.14645C2.05268 2.24021 2 2.36739 2 2.5V13.5" fill="#E51740"/>
<path d="M8.5 2V1V2ZM2 2.5H1H2ZM10 13.5V2.5H8V13.5H10ZM10 2.5C10 2.10218 9.84197 1.72065 9.56066 1.43934L8.14645 2.85355C8.05268 2.75978 8 2.63261 8 2.5H10ZM9.56066 1.43934C9.27936 1.15804 8.89782 1 8.5 1V3C8.36739 3 8.24022 2.94732 8.14645 2.85355L9.56066 1.43934ZM8.5 1H2.5V3H8.5V1ZM2.5 1C2.10217 1 1.72064 1.15804 1.43934 1.43934L2.85355 2.85355C2.75979 2.94732 2.63261 3 2.5 3V1ZM1.43934 1.43934C1.15804 1.72064 1 2.10217 1 2.5H3C3 2.63261 2.94732 2.75979 2.85355 2.85355L1.43934 1.43934ZM1 2.5V13.5H3V2.5H1Z" fill="#E51740" mask="url(#path-1-inside-1_1032_8724)"/>
</g>
<path d="M1 13.5H15" stroke="#E51740" stroke-linecap="round" stroke-linejoin="round"/>
<path d="M9 13.5V2.5C9 2.36739 8.94732 2.24021 8.85355 2.14645C8.75979 2.05268 8.63261 2 8.5 2H2.5C2.36739 2 2.24021 2.05268 2.14645 2.14645C2.05268 2.24021 2 2.36739 2 2.5V13.5" stroke="#E51740" stroke-linecap="round" stroke-linejoin="round"/>
<path d="M14 13.5V6.5C14 6.36739 13.9473 6.24021 13.8536 6.14645C13.7598 6.05268 13.6326 6 13.5 6H9" stroke="#E51740" stroke-linecap="round" stroke-linejoin="round"/>
<path d="M4 4.5H6" stroke="#E51740" stroke-linecap="round" stroke-linejoin="round"/>
<path d="M5 8.5H7" stroke="#E51740" stroke-linecap="round" stroke-linejoin="round"/>
<path d="M4 11H6" stroke="#E51740" stroke-linecap="round" stroke-linejoin="round"/>
<path d="M11 11H12" stroke="#E51740" stroke-linecap="round" stroke-linejoin="round"/>
<path d="M11 8.5H12" stroke="#E51740" stroke-linecap="round" stroke-linejoin="round"/>
</svg>
