<svg width="16" height="16" viewBox="0 0 16 16" fill="none" xmlns="http://www.w3.org/2000/svg">
<path fill-rule="evenodd" clip-rule="evenodd" d="M8 2.5C4.96243 2.5 2.5 4.96243 2.5 8C2.5 11.0376 4.96243 13.5 8 13.5C11.0376 13.5 13.5 11.0376 13.5 8C13.5 4.96243 11.0376 2.5 8 2.5ZM1.5 8C1.5 4.41015 4.41015 1.5 8 1.5C11.5899 1.5 14.5 4.41015 14.5 8C14.5 11.5899 11.5899 14.5 8 14.5C4.41015 14.5 1.5 11.5899 1.5 8Z" fill="#E00051"/>
<path fill-rule="evenodd" clip-rule="evenodd" d="M6.87836 5.41551C7.06309 5.21026 7.37923 5.19362 7.58449 5.37835L10.0845 7.62835C10.1898 7.72317 10.25 7.85825 10.25 8C10.25 8.14174 10.1898 8.27682 10.0845 8.37164L7.58449 10.6216C7.37923 10.8064 7.06309 10.7897 6.87836 10.5845C6.69363 10.3792 6.71027 10.0631 6.91552 9.87835L9.00258 8L6.91552 6.12164C6.71027 5.93691 6.69363 5.62077 6.87836 5.41551Z" fill="#E00051"/>
</svg>
