<svg width="20" height="20" viewBox="0 0 20 20" fill="none" xmlns="http://www.w3.org/2000/svg">
<path opacity="0.2" d="M3.54684 13.8282C2.61628 12.2582 2.29079 10.4025 2.63146 8.60955C2.97213 6.81658 3.95553 5.2096 5.39706 4.09032C6.83859 2.97103 8.6391 2.4164 10.4606 2.53055C12.2821 2.6447 13.9992 3.41978 15.2897 4.71029C16.5802 6.00079 17.3553 7.71797 17.4695 9.53945C17.5836 11.3609 17.029 13.1614 15.9097 14.603C14.7904 16.0445 13.1834 17.0279 11.3905 17.3686C9.5975 17.7092 7.74183 17.3837 6.17184 16.4532L3.57809 17.1876C3.47182 17.2186 3.35915 17.2206 3.25189 17.1931C3.14462 17.1657 3.04671 17.1099 2.96842 17.0316C2.89013 16.9533 2.83434 16.8554 2.8069 16.7481C2.77946 16.6409 2.78139 16.5282 2.81247 16.4219L3.54684 13.8282Z" fill="#E51740"/>
<path d="M3.54684 13.8282C2.61628 12.2582 2.29079 10.4025 2.63146 8.60955C2.97213 6.81658 3.95553 5.2096 5.39706 4.09032C6.83859 2.97103 8.6391 2.4164 10.4606 2.53055C12.2821 2.6447 13.9992 3.41978 15.2897 4.71029C16.5802 6.00079 17.3553 7.71797 17.4695 9.53945C17.5836 11.3609 17.029 13.1614 15.9097 14.603C14.7904 16.0445 13.1834 17.0279 11.3905 17.3686C9.5975 17.7092 7.74183 17.3837 6.17184 16.4532V16.4532L3.57809 17.1876C3.47182 17.2186 3.35915 17.2206 3.25189 17.1931C3.14462 17.1657 3.04671 17.1099 2.96842 17.0316C2.89013 16.9533 2.83434 16.8554 2.8069 16.7481C2.77946 16.6409 2.78139 16.5282 2.81247 16.4219L3.54684 13.8282Z" stroke="#E51740" stroke-linecap="round" stroke-linejoin="round"/>
</svg>
