<svg width="20" height="20" viewBox="0 0 20 20" xmlns="http://www.w3.org/2000/svg">
<path d="M10.4457 16.5547L16.7738 10.2265C18.3285 8.66405 18.555 6.10936 17.0863 4.47655C16.7179 4.06507 16.2696 3.73302 15.7686 3.50068C15.2675 3.26833 14.7244 3.14058 14.1724 3.12523C13.6203 3.10987 13.0709 3.20724 12.5578 3.41137C12.0446 3.6155 11.5785 3.92212 11.1879 4.31249L10.0004 5.5078L8.97692 4.47655C7.41442 2.92186 4.85973 2.6953 3.22691 4.16405C2.81544 4.5324 2.48338 4.98077 2.25104 5.48178C2.0187 5.98279 1.89095 6.52591 1.87559 7.07796C1.86024 7.63001 1.9576 8.17939 2.16174 8.69254C2.36587 9.20569 2.67249 9.67184 3.06285 10.0625L9.55504 16.5547C9.67354 16.672 9.83357 16.7379 10.0004 16.7379C10.1671 16.7379 10.3272 16.672 10.4457 16.5547V16.5547Z"  stroke-linecap="round" stroke-linejoin="round"/>
</svg>
