<svg width="24" height="24" viewBox="0 0 24 24" fill="none" xmlns="http://www.w3.org/2000/svg">
<path d="M12 7.12659L11.0117 6.13831L9.98047 5.10706C9.12109 4.24768 8.00391 3.77502 6.80078 3.77502C4.35156 3.77502 2.375 5.79456 2.375 8.24377C2.375 9.4469 2.80469 10.5641 3.66406 11.4235L4.69531 12.4547L12 19.7164L19.2617 12.4547L20.293 11.4235C21.1523 10.5641 21.625 9.4469 21.625 8.24377C21.625 5.79456 19.6055 3.77502 17.1562 3.77502C15.9531 3.77502 14.8359 4.24768 13.9766 5.10706L12.9453 6.13831L12 7.12659ZM12.9453 20.7047L12 21.65L11.0117 20.7047L3.75 13.4L2.67578 12.3688C1.60156 11.2946 1 9.79065 1 8.24377C1 5.02112 3.57812 2.40002 6.80078 2.40002C8.34766 2.40002 9.85156 3.04456 10.9258 4.11877L11.0117 4.20471L12 5.15002L12.9453 4.20471L13.0312 4.11877C14.1055 3.04456 15.6094 2.40002 17.1562 2.40002C20.3789 2.40002 23 5.02112 23 8.24377C23 9.79065 22.3555 11.2946 21.2812 12.3688L20.25 13.4L12.9453 20.7047Z" fill="#171717"/>
</svg>
