<svg width="48" height="48" viewBox="0 0 48 48" fill="none" xmlns="http://www.w3.org/2000/svg">
<path opacity="0.2" d="M24 42C33.9411 42 42 33.9411 42 24C42 14.0589 33.9411 6 24 6C14.0589 6 6 14.0589 6 24C6 33.9411 14.0589 42 24 42Z" fill="#E51740"/>
<path d="M24 42C33.9411 42 42 33.9411 42 24C42 14.0589 33.9411 6 24 6C14.0589 6 6 14.0589 6 24C6 33.9411 14.0589 42 24 42Z" stroke="#E51740" stroke-width="2" stroke-miterlimit="10"/>
<path d="M22.8563 30.3561L16.5 23.9998L22.8563 17.6436" stroke="#E51740" stroke-width="2" stroke-linecap="round" stroke-linejoin="round"/>
<path d="M31.5 24H16.5" stroke="#E51740" stroke-width="2" stroke-linecap="round" stroke-linejoin="round"/>
</svg>
