<svg width="16" height="16" viewBox="0 0 16 16" fill="none" xmlns="http://www.w3.org/2000/svg">
<path opacity="0.2" d="M8 2C8.07247 2 8.16548 2.0253 8.29395 2.10449C8.42547 2.18564 8.56507 2.30486 8.72949 2.45898C8.88045 2.60051 9.07157 2.79057 9.25195 2.94629C9.4374 3.10638 9.65843 3.27323 9.91309 3.37988C10.1704 3.48765 10.445 3.52543 10.6885 3.54199C10.9239 3.55801 11.1924 3.55634 11.3955 3.56152C11.8732 3.57373 12.1109 3.63044 12.2402 3.75977C12.3703 3.88983 12.4295 4.1346 12.4434 4.61523C12.4492 4.81778 12.4477 5.08876 12.4629 5.32031C12.4787 5.56029 12.5142 5.83355 12.6191 6.08594C12.7233 6.33644 12.8905 6.5554 13.0488 6.73828C13.2028 6.91613 13.3937 7.10822 13.5352 7.25977C13.69 7.42559 13.811 7.56812 13.8936 7.70215C13.9745 7.83369 14 7.9282 14 8C14 8.07247 13.9747 8.16548 13.8955 8.29395C13.8144 8.42547 13.6951 8.56507 13.541 8.72949C13.3995 8.88045 13.2094 9.07157 13.0537 9.25195C12.8936 9.4374 12.7268 9.65843 12.6201 9.91309C12.5123 10.1704 12.4746 10.445 12.458 10.6885C12.442 10.9239 12.4437 11.1924 12.4385 11.3955C12.4263 11.8732 12.3696 12.1109 12.2402 12.2402C12.1102 12.3703 11.8654 12.4295 11.3848 12.4434C11.1822 12.4492 10.9112 12.4477 10.6797 12.4629C10.4397 12.4787 10.1664 12.5142 9.91406 12.6191C9.66356 12.7233 9.4446 12.8905 9.26172 13.0488C9.08387 13.2028 8.89178 13.3937 8.74023 13.5352C8.57441 13.69 8.43188 13.811 8.29785 13.8936C8.16631 13.9745 8.0718 14 8 14C7.92753 14 7.83452 13.9747 7.70605 13.8955C7.57453 13.8144 7.43493 13.6951 7.27051 13.541C7.11955 13.3995 6.92843 13.2094 6.74805 13.0537C6.5626 12.8936 6.34157 12.7268 6.08691 12.6201C5.82959 12.5123 5.55496 12.4746 5.31152 12.458C5.07607 12.442 4.80757 12.4437 4.60449 12.4385C4.12682 12.4263 3.8891 12.3696 3.75977 12.2402C3.6297 12.1102 3.57047 11.8654 3.55664 11.3848C3.55082 11.1822 3.5523 10.9112 3.53711 10.6797C3.52134 10.4397 3.48583 10.1664 3.38086 9.91406C3.27667 9.66356 3.10951 9.4446 2.95117 9.26172C2.79719 9.08387 2.60631 8.89178 2.46484 8.74023C2.31005 8.57441 2.18897 8.43188 2.10645 8.29785C2.02552 8.16631 2 8.0718 2 8C2 7.92753 2.0253 7.83452 2.10449 7.70605C2.18564 7.57453 2.30486 7.43493 2.45898 7.27051C2.60051 7.11955 2.79057 6.92843 2.94629 6.74805C3.10638 6.5626 3.27323 6.34157 3.37988 6.08691C3.48765 5.82959 3.52543 5.55496 3.54199 5.31152C3.55801 5.07607 3.55634 4.80757 3.56152 4.60449C3.57373 4.12682 3.63044 3.8891 3.75977 3.75977C3.88983 3.6297 4.1346 3.57047 4.61523 3.55664C4.81778 3.55082 5.08876 3.5523 5.32031 3.53711C5.56029 3.52134 5.83355 3.48583 6.08594 3.38086C6.33644 3.27667 6.5554 3.10951 6.73828 2.95117C6.91613 2.79719 7.10822 2.60631 7.25977 2.46484C7.42559 2.31005 7.56812 2.18897 7.70215 2.10645C7.83369 2.02552 7.9282 2 8 2Z" fill="#E51740" stroke="#E51740"/>
<path d="M3.40625 12.5938C2.83125 12.0188 3.2125 10.8125 2.91875 10.1062C2.625 9.4 1.5 8.78125 1.5 8C1.5 7.21875 2.6125 6.625 2.91875 5.89375C3.225 5.1625 2.83125 3.98125 3.40625 3.40625C3.98125 2.83125 5.1875 3.2125 5.89375 2.91875C6.6 2.625 7.21875 1.5 8 1.5C8.78125 1.5 9.375 2.6125 10.1062 2.91875C10.8375 3.225 12.0188 2.83125 12.5938 3.40625C13.1687 3.98125 12.7875 5.1875 13.0813 5.89375C13.375 6.6 14.5 7.21875 14.5 8C14.5 8.78125 13.3875 9.375 13.0813 10.1062C12.775 10.8375 13.1687 12.0188 12.5938 12.5938C12.0188 13.1687 10.8125 12.7875 10.1062 13.0813C9.4 13.375 8.78125 14.5 8 14.5C7.21875 14.5 6.625 13.3875 5.89375 13.0813C5.1625 12.775 3.98125 13.1687 3.40625 12.5938Z" stroke="#E51740" stroke-linecap="round" stroke-linejoin="round"/>
<path d="M10.75 6.5L7.08125 10L5.25 8.25" stroke="#E51740" stroke-linecap="round" stroke-linejoin="round"/>
</svg>
