<svg width="24" height="25" viewBox="0 0 24 25" fill="none" xmlns="http://www.w3.org/2000/svg">
<path opacity="0.2" d="M21.5243 10.4376L19.0962 9.0876C18.9288 8.73073 18.7312 8.38885 18.5055 8.06572L18.5524 5.28135C17.5222 4.34249 16.3002 3.63875 14.9712 3.21885L12.5899 4.64385C12.1967 4.61572 11.8019 4.61572 11.4087 4.64385L9.01803 3.20947C7.69314 3.63716 6.4752 4.34363 5.44615 5.28135L5.49303 8.06572C5.26733 8.38885 5.06973 8.73073 4.9024 9.0876L2.4649 10.4376C2.17263 11.7974 2.17583 13.2041 2.47428 14.5626L4.9024 15.9126C5.07173 16.2714 5.26922 16.6162 5.49303 16.9438L5.44615 19.7188C6.47637 20.6577 7.69832 21.3614 9.0274 21.7813L11.4087 20.3563C11.8019 20.3845 12.1967 20.3845 12.5899 20.3563L14.9805 21.7907C16.3054 21.363 17.5234 20.6566 18.5524 19.7188L18.5055 16.9345C18.7312 16.6113 18.9288 16.2695 19.0962 15.9126L21.5337 14.5626C21.8307 13.2033 21.8275 11.7955 21.5243 10.4376ZM11.9993 17.0001C11.1093 17.0001 10.2392 16.7362 9.49921 16.2417C8.75919 15.7472 8.18241 15.0444 7.84182 14.2222C7.50123 13.3999 7.41211 12.4951 7.58574 11.6222C7.75938 10.7493 8.18796 9.94745 8.8173 9.31812C9.44663 8.68878 10.2485 8.2602 11.1214 8.08656C11.9943 7.91293 12.8991 8.00205 13.7214 8.34264C14.5436 8.68323 15.2464 9.26001 15.7409 10C16.2354 10.7401 16.4993 11.6101 16.4993 12.5001C16.4993 13.6936 16.0252 14.8382 15.1813 15.6821C14.3373 16.526 13.1928 17.0001 11.9993 17.0001Z" fill="#E51740"/>
<path d="M12 17C14.4853 17 16.5 14.9853 16.5 12.5C16.5 10.0147 14.4853 8 12 8C9.51472 8 7.5 10.0147 7.5 12.5C7.5 14.9853 9.51472 17 12 17Z" stroke="#E51740" stroke-linecap="round" stroke-linejoin="round"/>
<path d="M18.5055 8.06572C18.7312 8.38885 18.9288 8.73073 19.0962 9.0876L21.5243 10.4376C21.8275 11.7955 21.8307 13.2033 21.5337 14.5626L19.0962 15.9126C18.9288 16.2695 18.7312 16.6113 18.5055 16.9345L18.5524 19.7188C17.5234 20.6566 16.3054 21.363 14.9805 21.7907L12.5899 20.3563C12.1967 20.3845 11.8019 20.3845 11.4087 20.3563L9.0274 21.7813C7.69832 21.3614 6.47637 20.6577 5.44615 19.7188L5.49303 16.9438C5.26922 16.6162 5.07173 16.2714 4.9024 15.9126L2.47428 14.5626C2.17583 13.2041 2.17263 11.7974 2.4649 10.4376L4.9024 9.0876C5.06973 8.73073 5.26733 8.38885 5.49303 8.06572L5.44615 5.28135C6.4752 4.34363 7.69314 3.63716 9.01803 3.20947L11.4087 4.64385C11.8019 4.61572 12.1967 4.61572 12.5899 4.64385L14.9712 3.21885C16.3002 3.63875 17.5222 4.34249 18.5524 5.28135L18.5055 8.06572Z" stroke="#E51740" stroke-linecap="round" stroke-linejoin="round"/>
</svg>
