<svg width="16" height="16" viewBox="0 0 16 16" fill="none" xmlns="http://www.w3.org/2000/svg">
<path opacity="0.2" d="M8.00024 2.5C9.11312 2.49969 10.2003 2.83743 11.1174 3.46777C12.0343 4.09806 12.7385 4.99147 13.137 6.03027C13.5355 7.06936 13.6093 8.20513 13.3489 9.28711C13.1365 10.1692 12.7094 10.981 12.1106 11.6543C11.7171 11.0859 11.2089 10.6025 10.6155 10.2383C10.371 10.0883 10.1141 9.96271 9.84985 9.85742C9.94387 9.78365 10.036 9.70646 10.1213 9.62109C10.6839 9.05849 11.0002 8.2956 11.0002 7.5C11.0002 6.90666 10.824 6.32636 10.4944 5.83301C10.1647 5.33977 9.6958 4.95554 9.14771 4.72852C8.5996 4.50155 7.99615 4.44188 7.41431 4.55762C6.83258 4.67342 6.29859 4.95951 5.87915 5.37891C5.45959 5.79846 5.17362 6.3331 5.05786 6.91504C4.94218 7.4969 5.00173 8.10034 5.22876 8.64844C5.42629 9.1251 5.74305 9.54118 6.14673 9.8584C5.88375 9.96339 5.62833 10.089 5.38501 10.2383C4.79109 10.6028 4.28162 11.0862 3.88794 11.6553C3.28927 10.9821 2.86294 10.1691 2.65063 9.28711C2.39023 8.20517 2.46406 7.06932 2.86255 6.03027C3.26104 4.99128 3.96601 4.09811 4.88306 3.46777C5.80022 2.83742 6.88735 2.49967 8.00024 2.5Z" fill="#E51740" stroke="#E51740"/>
<path d="M8 14C11.3137 14 14 11.3137 14 8C14 4.68629 11.3137 2 8 2C4.68629 2 2 4.68629 2 8C2 11.3137 4.68629 14 8 14Z" stroke="#E51740" stroke-linecap="round" stroke-linejoin="round"/>
<path d="M8 10C9.38071 10 10.5 8.88071 10.5 7.5C10.5 6.11929 9.38071 5 8 5C6.61929 5 5.5 6.11929 5.5 7.5C5.5 8.88071 6.61929 10 8 10Z" stroke="#E51740" stroke-linecap="round" stroke-linejoin="round"/>
<path d="M3.98755 12.4625C4.36374 11.7215 4.93777 11.0992 5.64601 10.6645C6.35425 10.2297 7.16904 9.99963 8.00005 9.99963C8.83106 9.99963 9.64585 10.2297 10.3541 10.6645C11.0623 11.0992 11.6364 11.7215 12.0125 12.4625" stroke="#E51740" stroke-width="2" stroke-linecap="round" stroke-linejoin="round"/>
</svg>
