<svg width="53" height="40" viewBox="0 0 53 40" fill="none" xmlns="http://www.w3.org/2000/svg">
  <circle cx="20" cy="20" r="20" fill="#80193E"/>
  <path d="M26.6732 18.9031L23.0908 9.67639L27.2949 8.04407L30.8774 17.2708L26.6732 18.9031ZM29.2505 25.541L27.6698 21.4698L31.8739 19.8374L33.4546 23.9087L29.2505 25.541Z" fill="white"/>
  <path d="M11.3016 25.9156C11.1355 25.4878 11.0075 25.0707 10.9176 24.6642C10.8424 24.2521 10.8644 23.8277 10.9834 23.391C11.0967 22.9397 11.3645 22.4707 11.7867 21.9843C11.9146 21.8328 12.0975 21.626 12.3352 21.3639C12.5877 21.0961 12.8288 20.7989 13.0584 20.4721C13.288 20.1453 13.4573 19.8164 13.5665 19.4855C13.6847 19.134 13.6836 18.8034 13.5634 18.4937C13.4774 18.2724 13.3366 18.1064 13.1408 17.9957C12.9541 17.8645 12.7403 17.7947 12.4994 17.7864C12.2733 17.7724 12.0422 17.8112 11.8062 17.9028C11.4522 18.0403 11.1915 18.2433 11.0242 18.512C10.8659 18.7601 10.756 19.0235 10.6944 19.302C10.6418 19.5601 10.5852 19.7858 10.5244 19.9791L7.10823 19.1158C7.12418 18.4136 7.28062 17.7673 7.57755 17.1767C7.86875 16.5714 8.2738 16.0406 8.79269 15.5846C9.32061 15.108 9.9386 14.7322 10.6467 14.4573C11.2072 14.2397 11.7993 14.1032 12.4228 14.0478C13.0611 13.9867 13.685 14.0415 14.2945 14.2122C14.904 14.383 15.4606 14.7016 15.9642 15.1681C16.4826 15.6288 16.9022 16.2722 17.2229 17.0982C17.3603 17.4523 17.4626 17.803 17.5296 18.1504C17.5966 18.4979 17.6136 18.8477 17.5806 19.2C17.5567 19.5318 17.4782 19.8763 17.3453 20.2335C17.2214 20.5701 17.0401 20.9121 16.8015 21.2594C16.4883 21.7205 16.1431 22.1431 15.766 22.5272C15.4036 22.9055 15.1105 23.2654 14.8866 23.607C14.6571 23.9338 14.6053 24.2594 14.7313 24.5839L11.3016 25.9156ZM13.593 31.6205L12.1841 27.9918L15.6138 26.6602L17.0227 30.2889L13.593 31.6205Z" fill="white"/>
  <path d="M52.0779 33.2875L32.2353 31.6222L34.0002 23.2029L52.0779 33.2875Z" fill="#80193E"/>
</svg>
