<svg width="16" height="16" viewBox="0 0 16 16" fill="none" xmlns="http://www.w3.org/2000/svg">
<path d="M7.64374 4.46254L8.88124 3.22504C9.40519 2.74749 10.093 2.49019 10.8017 2.5066C11.5104 2.52301 12.1856 2.81186 12.6869 3.31315C13.1882 3.81443 13.477 4.48959 13.4934 5.19832C13.5098 5.90705 13.2525 6.59485 12.775 7.11879L11.0062 8.88129C10.7513 9.13716 10.4484 9.34018 10.1149 9.47871C9.7813 9.61724 9.42367 9.68855 9.06249 9.68855C8.70132 9.68855 8.34369 9.61724 8.01014 9.47871C7.67658 9.34018 7.37366 9.13716 7.11874 8.88129" stroke="#E51740" stroke-linecap="round" stroke-linejoin="round"/>
<path d="M8.35626 11.5375L7.11876 12.775C6.59482 13.2526 5.90702 13.5099 5.19829 13.4935C4.48956 13.4771 3.8144 13.1882 3.31312 12.6869C2.81183 12.1856 2.52298 11.5105 2.50657 10.8018C2.49016 10.093 2.74746 9.40523 3.22501 8.88128L4.99376 7.11878C5.24867 6.86291 5.5516 6.65989 5.88515 6.52136C6.21871 6.38283 6.57633 6.31152 6.93751 6.31152C7.29869 6.31152 7.65631 6.38283 7.98987 6.52136C8.32343 6.65989 8.62635 6.86291 8.88126 7.11878" stroke="#E51740" stroke-linecap="round" stroke-linejoin="round"/>
</svg>
