<svg width="16" height="16" viewBox="0 0 16 16" fill="none" xmlns="http://www.w3.org/2000/svg">
<path opacity="0.2" d="M13 11.5L3 11.5C2.72386 11.5 2.5 11.2761 2.5 11L2.5 4C2.5 3.72386 2.72386 3.5 3 3.5L13 3.5C13.2761 3.5 13.5 3.72386 13.5 4L13.5 11C13.5 11.2761 13.2761 11.5 13 11.5Z" fill="#E51740" stroke="#E51740"/>
<path d="M3 12L13 12C13.5523 12 14 11.5523 14 11L14 4C14 3.44771 13.5523 3 13 3L3 3C2.44771 3 2 3.44771 2 4L2 11C2 11.5523 2.44771 12 3 12Z" stroke="#E51740" stroke-linecap="round" stroke-linejoin="round"/>
<path d="M10 14H6" stroke="#E51740" stroke-linecap="round" stroke-linejoin="round"/>
</svg>
