<svg width="40" height="40" viewBox="0 0 40 40" fill="none" xmlns="http://www.w3.org/2000/svg">
<rect width="40" height="40" rx="20" fill="#E00051"/>
<path d="M29.3844 19.3625L15.8937 11.1125C15.7802 11.0424 15.65 11.004 15.5166 11.001C15.3832 10.9981 15.2514 11.0307 15.1349 11.0957C15.0183 11.1607 14.9212 11.2556 14.8535 11.3706C14.7859 11.4856 14.7501 11.6166 14.75 11.75V28.25C14.7501 28.3834 14.7859 28.5144 14.8535 28.6294C14.9212 28.7444 15.0183 28.8393 15.1349 28.9043C15.2514 28.9692 15.3832 29.0019 15.5166 28.999C15.65 28.996 15.7802 28.9576 15.8937 28.8875L29.3844 20.6375C29.4952 20.572 29.5869 20.4787 29.6507 20.367C29.7145 20.2552 29.748 20.1287 29.748 20C29.748 19.8713 29.7145 19.7448 29.6507 19.633C29.5869 19.5212 29.4952 19.428 29.3844 19.3625V19.3625Z" stroke="#FEFEFE" stroke-width="2" stroke-linecap="round" stroke-linejoin="round"/>
</svg>
