<svg width="12" height="12" viewBox="0 0 12 12" fill="none" xmlns="http://www.w3.org/2000/svg">
<path class="sort-arr-down" d="M2.77965 6.75H9.22027C9.29463 6.75012 9.36727 6.77235 9.42897 6.81386C9.49067 6.85537 9.53863 6.91428 9.56677 6.98311C9.5949 7.05194 9.60194 7.12758 9.58698 7.20042C9.57203 7.27326 9.53575 7.34001 9.48277 7.39219L5.99996 10.875L2.51715 7.39219C2.46417 7.34001 2.42789 7.27326 2.41294 7.20042C2.39798 7.12758 2.40502 7.05194 2.43315 6.98311C2.46129 6.91428 2.50925 6.85537 2.57095 6.81386C2.63264 6.77235 2.70529 6.75012 2.77965 6.75Z" fill="#BFBFBF"/>
<path class="sort-arr-up" d="M2.77965 5.25H9.22027C9.29463 5.24988 9.36727 5.22765 9.42897 5.18614C9.49067 5.14463 9.53863 5.08572 9.56677 5.01689C9.5949 4.94806 9.60194 4.87242 9.58698 4.79958C9.57203 4.72674 9.53575 4.65999 9.48277 4.60781L5.99996 1.125L2.51715 4.60781C2.46417 4.65999 2.42789 4.72674 2.41294 4.79958C2.39798 4.87242 2.40502 4.94806 2.43315 5.01689C2.46129 5.08572 2.50925 5.14463 2.57095 5.18614C2.63264 5.22765 2.70529 5.24988 2.77965 5.25Z" fill="#BFBFBF"/>
</svg>
