<svg width="17" height="16" viewBox="0 0 17 16" fill="none" xmlns="http://www.w3.org/2000/svg">
<path d="M2.6665 4V9" stroke="#E51740" stroke-linecap="round" stroke-linejoin="round"/>
<path d="M4.05396 13.5C4.55424 12.7326 5.23807 12.1022 6.04348 11.6659C6.84889 11.2295 7.75043 11.001 8.66646 11.001C9.58248 11.001 10.484 11.2295 11.2894 11.6659C12.0948 12.1022 12.7787 12.7326 13.279 13.5" stroke="#E51740" stroke-linecap="round" stroke-linejoin="round"/>
<path d="M14.6665 4L8.6665 6L2.6665 4L8.6665 2L14.6665 4Z" stroke="#E51740" stroke-linecap="round" stroke-linejoin="round"/>
<path d="M11.2478 5.1377C11.7064 5.63856 12.0094 6.26204 12.1199 6.93213C12.2304 7.60222 12.1435 8.28998 11.8699 8.91155C11.5962 9.53313 11.1477 10.0617 10.5789 10.4327C10.0101 10.8038 9.34564 11.0014 8.66651 11.0014C7.98737 11.0014 7.3229 10.8038 6.75411 10.4327C6.18532 10.0617 5.73677 9.53313 5.46315 8.91155C5.18953 8.28998 5.10265 7.60222 5.21311 6.93213C5.32358 6.26204 5.6266 5.63856 6.08526 5.1377" stroke="#E51740" stroke-linecap="round" stroke-linejoin="round"/>
</svg>
