<svg width="42" height="42" viewBox="0 0 42 42" fill="none" xmlns="http://www.w3.org/2000/svg">
<path opacity="0.2" d="M21 26.25C26.799 26.25 31.5 21.549 31.5 15.75C31.5 9.95101 26.799 5.25 21 5.25C15.201 5.25 10.5 9.95101 10.5 15.75C10.5 21.549 15.201 26.25 21 26.25Z" fill="#E51740"/>
<path d="M21 26.25C26.799 26.25 31.5 21.549 31.5 15.75C31.5 9.95101 26.799 5.25 21 5.25C15.201 5.25 10.5 9.95101 10.5 15.75C10.5 21.549 15.201 26.25 21 26.25Z" stroke="#E51740" stroke-width="2" stroke-miterlimit="10"/>
<path d="M5.08594 35.4375C6.69857 32.6437 9.01824 30.3238 11.8118 28.7107C14.6053 27.0977 17.7742 26.2485 21 26.2485C24.2258 26.2485 27.3947 27.0977 30.1882 28.7107C32.9818 30.3238 35.3014 32.6437 36.9141 35.4375" stroke="#E51740" stroke-width="2" stroke-linecap="round" stroke-linejoin="round"/>
</svg>
