<svg width="12" height="12" viewBox="0 0 12 12" fill="none" xmlns="http://www.w3.org/2000/svg">
<path d="M6 4.875V6.75" stroke="#FFC62B" stroke-linecap="round" stroke-linejoin="round"/>
<path d="M5.35317 1.87512L1.22817 9.00012C1.16245 9.11394 1.1278 9.24303 1.12769 9.37446C1.12757 9.50589 1.16199 9.63504 1.22751 9.74898C1.29302 9.86291 1.38732 9.95763 1.50097 10.0236C1.61462 10.0897 1.74362 10.1247 1.87504 10.1251H10.125C10.2565 10.1247 10.3855 10.0897 10.4991 10.0236C10.6128 9.95763 10.7071 9.86291 10.7726 9.74898C10.8381 9.63504 10.8725 9.50589 10.8724 9.37446C10.8723 9.24303 10.8376 9.11394 10.7719 9.00012L6.64692 1.87512C6.5817 1.76115 6.48752 1.66644 6.37393 1.60056C6.26034 1.53469 6.13136 1.5 6.00004 1.5C5.86873 1.5 5.73975 1.53469 5.62616 1.60056C5.51257 1.66644 5.41839 1.76115 5.35317 1.87512V1.87512Z" stroke="#FFC62B" stroke-linecap="round" stroke-linejoin="round"/>
<path d="M6 9C6.31066 9 6.5625 8.74816 6.5625 8.4375C6.5625 8.12684 6.31066 7.875 6 7.875C5.68934 7.875 5.4375 8.12684 5.4375 8.4375C5.4375 8.74816 5.68934 9 6 9Z" fill="#FFC62B"/>
</svg>
