<svg width="12" height="12" viewBox="0 0 12 12" fill="none" xmlns="http://www.w3.org/2000/svg">
<path opacity="0.2" d="M10.25 6C10.25 8.34721 8.34721 10.25 6 10.25C3.65279 10.25 1.75 8.34721 1.75 6C1.75 3.65279 3.65279 1.75 6 1.75C8.34721 1.75 10.25 3.65279 10.25 6Z" fill="#E51740" stroke="#E51740" stroke-width="0.5"/>
<path d="M6 10.5C8.48528 10.5 10.5 8.48528 10.5 6C10.5 3.51472 8.48528 1.5 6 1.5C3.51472 1.5 1.5 3.51472 1.5 6C1.5 8.48528 3.51472 10.5 6 10.5Z" stroke="#E51740" stroke-width="0.5" stroke-miterlimit="10"/>
<path d="M7.5 4.5L4.5 7.5" stroke="#E51740" stroke-width="0.5" stroke-linecap="round" stroke-linejoin="round"/>
<path d="M7.5 7.5L4.5 4.5" stroke="#E51740" stroke-width="0.5" stroke-linecap="round" stroke-linejoin="round"/>
</svg>
