<svg width="290" height="300" viewBox="0 0 85 90" fill="none" xmlns="http://www.w3.org/2000/svg">
<path d="M59.2605 0C56.5668 0 52.4365 0.35526 49.0246 1.7171C46.4506 2.72368 44.0563 4.61842 42.1408 6.45394C40.2253 4.67763 37.8309 2.78289 35.257 1.7171C31.845 0.35526 27.7147 0.0592105 25.0809 0H20.7112V44.6447H25.0809V4.38158C27.4154 4.38158 30.8872 4.67763 33.6408 5.74342C37.352 7.22368 41.0034 11.25 42.1408 12.7303C43.338 11.3092 46.9295 7.28289 50.6408 5.74342C53.3344 4.67763 56.8661 4.38158 59.2006 4.38158V44.6447H63.6302V0H59.2006H59.2605Z" fill="#E51740"/>
<path d="M42.2007 17.4079C40.2852 14.5658 35.7359 10.0658 32.0845 8.64474C31.007 8.23027 29.75 7.93422 28.4331 7.8158V44.6448H32.8627V14.2105C36.6338 16.4605 39.8063 20.9605 42.2007 24.3947C44.5951 20.9605 47.7676 16.4605 51.5387 14.2105V44.6448H55.9085V7.8158C54.6514 7.99343 53.3944 8.23027 52.3169 8.64474C48.6655 10.125 44.1162 14.5658 42.2007 17.4079Z" fill="#E51740"/>
<path d="M66.9824 0V47.9013H50.2219C46.8697 47.9013 44.0564 49.2631 42.2007 51.5131C40.3451 49.3224 37.5317 47.9013 34.1796 47.9013H17.419V0H13.0493V52.2829H34.1796C37.5317 52.2829 39.9859 54.5921 39.9859 57.7303H44.3556C44.3556 54.5921 46.8099 52.2829 50.162 52.2829H71.2923V0.0592051H66.9226L66.9824 0Z" fill="#E51740"/>
<path d="M79.6725 89.3487H84.3415V87.5724H81.588V85.2632H83.6831V83.4869H81.588V81.5921H84.162V79.8158H79.6725V89.3487ZM72.3099 89.5264H72.6091L76.2007 84.6711V89.4079H77.9965V79.6974H77.6972L74.1056 84.5527V79.8158H72.3099V89.5264ZM68.7183 89.3487H70.6338V79.8158H68.7183V83.4869H66.8028V79.8158H64.8873V89.3487H66.8028V85.204H68.7183V89.3487ZM58.1831 86.2106L59.3803 83.3685L60.5775 86.2106H58.1831ZM54.831 89.3487H56.8063L57.4049 87.9277H61.2958L61.8944 89.3487H63.9296L59.5 79.6382H59.2007L54.7711 89.3487H54.831ZM50.8803 83.6053V81.4737C51.838 81.4737 52.3169 81.7698 52.3169 82.5395C52.3169 83.3093 51.7782 83.6053 50.8803 83.6053ZM50.8803 87.6908V85.204C52.1972 85.204 52.7359 85.6184 52.7359 86.4474C52.7359 87.2763 52.1972 87.6908 50.8803 87.6908ZM49.0845 89.3487H50.8803C53.3345 89.3487 54.5915 88.3421 54.5915 86.5658C54.5915 84.7895 54.1725 84.6119 53.0951 84.2566C53.8134 83.9014 54.1725 83.1908 54.1725 82.3619C54.1725 80.704 52.9753 79.8158 50.6408 79.8158H49.1444V89.3487H49.0845ZM42.7993 87.5724C41.0634 87.5724 39.926 86.329 39.926 84.5527C39.926 82.7764 41.1232 81.5329 42.7993 81.5329C44.4754 81.5329 45.6725 82.7764 45.6725 84.5527C45.6725 86.329 44.4754 87.5724 42.7993 87.5724ZM42.7993 89.5264C45.6127 89.5264 47.7077 87.3948 47.7077 84.6119C47.7077 81.829 45.6127 79.6974 42.7993 79.6974C39.9859 79.6974 37.8908 81.6514 37.8908 84.6119C37.8908 87.5724 39.9261 89.5264 42.7993 89.5264ZM34.1796 89.5264C35.7958 89.5264 36.993 88.4014 36.993 86.6843C36.993 84.9671 36.4542 84.6119 35.6162 84.375C36.3345 84.0198 36.6937 83.1908 36.6937 82.3027C36.6937 80.704 35.4965 79.6974 33.9401 79.6974C32.3838 79.6974 32.8627 79.8158 32.6831 79.9342V81.7698C32.9225 81.5921 33.2817 81.4737 33.7007 81.4737C34.3591 81.4737 34.7782 81.8882 34.7782 82.4211C34.7782 82.954 34.5387 83.4869 33.4613 83.4869V85.2632C34.7782 85.2632 35.0774 85.8553 35.0774 86.5066C35.0774 87.1579 34.6584 87.75 33.8803 87.75C33.1021 87.75 32.8627 87.5724 32.6831 87.3948V89.2303C33.2218 89.4671 33.7007 89.5264 34.2394 89.5264M26.2183 86.2106L27.4155 83.3685L28.6127 86.2106H26.2183ZM22.8662 89.3487H24.8416L25.4401 87.9277H29.331L29.9296 89.3487H31.9648L27.5352 79.6382H27.2359L22.8063 89.3487H22.8662ZM19.9331 84.3158V81.5921C21.0106 81.5921 21.6091 82.0658 21.6091 82.954C21.6091 83.8421 21.0106 84.3158 19.9331 84.3158ZM17.9577 89.3487H19.8732V86.0921C22.5669 86.0921 23.5246 84.6119 23.5246 82.954C23.5246 81.2961 22.088 79.8158 19.4542 79.8158H17.9577V89.3487ZM13.1092 87.6316V84.8487C14.1866 84.8487 14.7852 85.3816 14.7852 86.2698C14.7852 87.1579 14.1866 87.6908 13.1092 87.6908M11.1937 89.3487H13.1092C15.3239 89.3487 16.7007 88.2237 16.7007 86.2106C16.7007 84.1974 15.743 83.0724 13.1092 83.0724V81.5921H16.0422V79.8158H11.1937V89.3487ZM4.90844 87.5724C3.17252 87.5724 2.03521 86.329 2.03521 84.5527C2.03521 82.7764 3.23238 81.5329 4.90844 81.5329C6.5845 81.5329 7.78169 82.7764 7.78169 84.5527C7.78169 86.329 6.5845 87.5724 4.90844 87.5724ZM4.90844 89.5264C7.72182 89.5264 9.8169 87.3948 9.8169 84.6119C9.8169 81.829 7.72182 79.6974 4.90844 79.6974C2.09506 79.6974 0 81.6514 0 84.6119C0 87.5724 2.0352 89.5264 4.90844 89.5264Z" fill="#E51740"/>
<path d="M79.6127 75.0789H84.2817V73.3026H81.5282V70.9934H83.6233V69.2171H81.5282V67.3224H84.1022V65.546H79.6127V75.0789ZM73.0881 73.3026C71.3522 73.3026 70.2148 72.0592 70.2148 70.2829C70.2148 68.5066 71.412 67.2631 73.0881 67.2631C74.7641 67.2631 75.9613 68.5066 75.9613 70.2829C75.9613 72.0592 74.7641 73.3026 73.0881 73.3026ZM73.0282 75.1973C75.8416 75.1973 77.9367 73.0658 77.9367 70.2829C77.9367 67.5 75.8416 65.3684 73.0282 65.3684C70.2149 65.3684 68.1198 67.3224 68.1198 70.2829C68.1198 73.2434 70.155 75.1973 73.0282 75.1973ZM65.5458 75.0789H67.581L65.7853 70.1053L67.4015 65.546H65.486L64.2888 69.2171H63.6303V65.546H61.7747V75.0789H63.6303V70.9934H64.2289L65.6057 75.0789H65.5458ZM58.9015 75.1973C59.2606 75.1973 59.6198 75.1974 59.9191 75.0197V73.125C59.6198 73.1842 59.3205 73.2434 58.9015 73.2434C57.1057 73.2434 55.8486 72.0592 55.8486 70.2237C55.8486 68.3881 57.1057 67.2039 58.9015 67.2039C60.6972 67.2039 59.6198 67.2039 59.9191 67.3224V65.4276C59.6198 65.3092 59.3205 65.3092 58.9015 65.3092C56.0282 65.3092 53.8733 67.2039 53.8733 70.2237C53.8733 73.2434 56.0282 75.1382 58.9015 75.1382M49.0247 69.2763V67.1447C49.9825 67.1447 50.4613 67.4408 50.4613 68.2105C50.4613 68.9803 49.9226 69.2763 49.0247 69.2763ZM49.0247 73.421V70.9342C50.3416 70.9342 50.8803 71.3487 50.8803 72.1776C50.8803 73.0066 50.3416 73.421 49.0247 73.421ZM47.2289 75.0789H49.0247C51.4789 75.0789 52.736 74.0724 52.736 72.296C52.736 70.5197 52.317 70.3421 51.2395 69.9868C51.9578 69.6316 52.317 68.921 52.317 68.0921C52.317 66.4342 51.1198 65.546 48.7853 65.546H47.2888V75.0789H47.2289ZM40.7043 73.3026C38.9684 73.3026 37.831 72.0592 37.831 70.2829C37.831 68.5066 39.0282 67.2631 40.7043 67.2631C42.3803 67.2631 43.5775 68.5066 43.5775 70.2829C43.5775 72.0592 42.3803 73.3026 40.7043 73.3026ZM40.6444 75.1973C43.4578 75.1973 45.5529 73.0658 45.5529 70.2829C45.5529 67.5 43.4578 65.3684 40.6444 65.3684C37.831 65.3684 35.736 67.3224 35.736 70.2829C35.736 73.2434 37.7712 75.1973 40.6444 75.1973ZM33.162 75.0789H35.1972L33.4015 70.1053L35.0177 65.546H33.1022L31.905 69.2171H31.2465V65.546H29.3909V75.0789H31.2465V70.9934H31.8451L33.2219 75.0789H33.162ZM26.5177 75.1973C26.8768 75.1973 27.236 75.1974 27.5353 75.0197V73.125C27.236 73.1842 26.9367 73.2434 26.5177 73.2434C24.7219 73.2434 23.4648 72.0592 23.4648 70.2237C23.4648 68.3881 24.7219 67.2039 26.5177 67.2039C28.3134 67.2039 27.236 67.2039 27.5353 67.3224V65.4276C27.236 65.3092 26.9367 65.3092 26.5177 65.3092C23.6444 65.3092 21.4895 67.2039 21.4895 70.2237C21.4895 73.2434 23.6444 75.1382 26.5177 75.1382M15.2043 73.3026C13.4684 73.3026 12.331 72.0592 12.331 70.2829C12.331 68.5066 13.5282 67.2631 15.2043 67.2631C16.8803 67.2631 18.0775 68.5066 18.0775 70.2829C18.0775 72.0592 16.8803 73.3026 15.2043 73.3026ZM15.2043 75.1973C18.0177 75.1973 20.1127 73.0658 20.1127 70.2829C20.1127 67.5 18.0177 65.3684 15.2043 65.3684C12.3909 65.3684 10.2958 67.3224 10.2958 70.2829C10.2958 73.2434 12.331 75.1973 15.2043 75.1973ZM0.299365 65.546V75.0789H2.15498V68.2697L4.36978 70.6382H4.48951L6.70428 68.3289V75.1382H8.55992V65.6053C6.76415 65.8421 5.56697 66.8487 4.42964 68.2105C3.29232 66.8487 2.03528 65.7829 0.239502 65.6053" fill="#E51740"/>
</svg>
